<?xml version="1.0" encoding="utf-8" standalone="no"?>
<!DOCTYPE svg PUBLIC "-//W3C//DTD SVG 1.1//EN"
  "http://www.w3.org/Graphics/SVG/1.1/DTD/svg11.dtd">
<svg xmlns:xlink="http://www.w3.org/1999/xlink" width="855.28375pt" height="558.834375pt" viewBox="0 0 855.28375 558.834375" xmlns="http://www.w3.org/2000/svg" version="1.1">
 <metadata>
  <rdf:RDF xmlns:dc="http://purl.org/dc/elements/1.1/" xmlns:cc="http://creativecommons.org/ns#" xmlns:rdf="http://www.w3.org/1999/02/22-rdf-syntax-ns#">
   <cc:Work>
    <dc:type rdf:resource="http://purl.org/dc/dcmitype/StillImage"/>
    <dc:date>2025-12-19T16:09:18.609036</dc:date>
    <dc:format>image/svg+xml</dc:format>
    <dc:creator>
     <cc:Agent>
      <dc:title>Matplotlib v3.10.0, https://matplotlib.org/</dc:title>
     </cc:Agent>
    </dc:creator>
   </cc:Work>
  </rdf:RDF>
 </metadata>
 <defs>
  <style type="text/css">*{stroke-linejoin: round; stroke-linecap: butt}</style>
 </defs>
 <g id="figure_1">
  <g id="patch_1">
   <path d="M 0 558.834375 
L 855.28375 558.834375 
L 855.28375 0 
L 0 0 
z
" style="fill: #ffffff"/>
  </g>
  <g id="axes_1">
   <g id="patch_2">
    <path d="M 50.14375 521.278125 
L 848.08375 521.278125 
L 848.08375 22.318125 
L 50.14375 22.318125 
z
" style="fill: #ffffff"/>
   </g>
   <g id="matplotlib.axis_1">
    <g id="xtick_1">
     <g id="line2d_1">
      <defs>
       <path id="m45b7a3c2e8" d="M 0 0 
L 0 3.5 
" style="stroke: #000000; stroke-width: 0.8"/>
      </defs>
      <g>
       <use xlink:href="#m45b7a3c2e8" x="145.487802" y="521.278125" style="stroke: #000000; stroke-width: 0.8"/>
      </g>
     </g>
     <g id="text_1">
      <!-- 2016 -->
      <g transform="translate(132.762802 535.876562) scale(0.1 -0.1)">
       <defs>
        <path id="DejaVuSans-32" d="M 1228 531 
L 3431 531 
L 3431 0 
L 469 0 
L 469 531 
Q 828 903 1448 1529 
Q 2069 2156 2228 2338 
Q 2531 2678 2651 2914 
Q 2772 3150 2772 3378 
Q 2772 3750 2511 3984 
Q 2250 4219 1831 4219 
Q 1534 4219 1204 4116 
Q 875 4013 500 3803 
L 500 4441 
Q 881 4594 1212 4672 
Q 1544 4750 1819 4750 
Q 2544 4750 2975 4387 
Q 3406 4025 3406 3419 
Q 3406 3131 3298 2873 
Q 3191 2616 2906 2266 
Q 2828 2175 2409 1742 
Q 1991 1309 1228 531 
z
" transform="scale(0.015625)"/>
        <path id="DejaVuSans-30" d="M 2034 4250 
Q 1547 4250 1301 3770 
Q 1056 3291 1056 2328 
Q 1056 1369 1301 889 
Q 1547 409 2034 409 
Q 2525 409 2770 889 
Q 3016 1369 3016 2328 
Q 3016 3291 2770 3770 
Q 2525 4250 2034 4250 
z
M 2034 4750 
Q 2819 4750 3233 4129 
Q 3647 3509 3647 2328 
Q 3647 1150 3233 529 
Q 2819 -91 2034 -91 
Q 1250 -91 836 529 
Q 422 1150 422 2328 
Q 422 3509 836 4129 
Q 1250 4750 2034 4750 
z
" transform="scale(0.015625)"/>
        <path id="DejaVuSans-31" d="M 794 531 
L 1825 531 
L 1825 4091 
L 703 3866 
L 703 4441 
L 1819 4666 
L 2450 4666 
L 2450 531 
L 3481 531 
L 3481 0 
L 794 0 
L 794 531 
z
" transform="scale(0.015625)"/>
        <path id="DejaVuSans-36" d="M 2113 2584 
Q 1688 2584 1439 2293 
Q 1191 2003 1191 1497 
Q 1191 994 1439 701 
Q 1688 409 2113 409 
Q 2538 409 2786 701 
Q 3034 994 3034 1497 
Q 3034 2003 2786 2293 
Q 2538 2584 2113 2584 
z
M 3366 4563 
L 3366 3988 
Q 3128 4100 2886 4159 
Q 2644 4219 2406 4219 
Q 1781 4219 1451 3797 
Q 1122 3375 1075 2522 
Q 1259 2794 1537 2939 
Q 1816 3084 2150 3084 
Q 2853 3084 3261 2657 
Q 3669 2231 3669 1497 
Q 3669 778 3244 343 
Q 2819 -91 2113 -91 
Q 1303 -91 875 529 
Q 447 1150 447 2328 
Q 447 3434 972 4092 
Q 1497 4750 2381 4750 
Q 2619 4750 2861 4703 
Q 3103 4656 3366 4563 
z
" transform="scale(0.015625)"/>
       </defs>
       <use xlink:href="#DejaVuSans-32"/>
       <use xlink:href="#DejaVuSans-30" transform="translate(63.623047 0)"/>
       <use xlink:href="#DejaVuSans-31" transform="translate(127.246094 0)"/>
       <use xlink:href="#DejaVuSans-36" transform="translate(190.869141 0)"/>
      </g>
     </g>
    </g>
    <g id="xtick_2">
     <g id="line2d_2">
      <g>
       <use xlink:href="#m45b7a3c2e8" x="279.596906" y="521.278125" style="stroke: #000000; stroke-width: 0.8"/>
      </g>
     </g>
     <g id="text_2">
      <!-- 2018 -->
      <g transform="translate(266.871906 535.876562) scale(0.1 -0.1)">
       <defs>
        <path id="DejaVuSans-38" d="M 2034 2216 
Q 1584 2216 1326 1975 
Q 1069 1734 1069 1313 
Q 1069 891 1326 650 
Q 1584 409 2034 409 
Q 2484 409 2743 651 
Q 3003 894 3003 1313 
Q 3003 1734 2745 1975 
Q 2488 2216 2034 2216 
z
M 1403 2484 
Q 997 2584 770 2862 
Q 544 3141 544 3541 
Q 544 4100 942 4425 
Q 1341 4750 2034 4750 
Q 2731 4750 3128 4425 
Q 3525 4100 3525 3541 
Q 3525 3141 3298 2862 
Q 3072 2584 2669 2484 
Q 3125 2378 3379 2068 
Q 3634 1759 3634 1313 
Q 3634 634 3220 271 
Q 2806 -91 2034 -91 
Q 1263 -91 848 271 
Q 434 634 434 1313 
Q 434 1759 690 2068 
Q 947 2378 1403 2484 
z
M 1172 3481 
Q 1172 3119 1398 2916 
Q 1625 2713 2034 2713 
Q 2441 2713 2670 2916 
Q 2900 3119 2900 3481 
Q 2900 3844 2670 4047 
Q 2441 4250 2034 4250 
Q 1625 4250 1398 4047 
Q 1172 3844 1172 3481 
z
" transform="scale(0.015625)"/>
       </defs>
       <use xlink:href="#DejaVuSans-32"/>
       <use xlink:href="#DejaVuSans-30" transform="translate(63.623047 0)"/>
       <use xlink:href="#DejaVuSans-31" transform="translate(127.246094 0)"/>
       <use xlink:href="#DejaVuSans-38" transform="translate(190.869141 0)"/>
      </g>
     </g>
    </g>
    <g id="xtick_3">
     <g id="line2d_3">
      <g>
       <use xlink:href="#m45b7a3c2e8" x="413.522551" y="521.278125" style="stroke: #000000; stroke-width: 0.8"/>
      </g>
     </g>
     <g id="text_3">
      <!-- 2020 -->
      <g transform="translate(400.797551 535.876562) scale(0.1 -0.1)">
       <use xlink:href="#DejaVuSans-32"/>
       <use xlink:href="#DejaVuSans-30" transform="translate(63.623047 0)"/>
       <use xlink:href="#DejaVuSans-32" transform="translate(127.246094 0)"/>
       <use xlink:href="#DejaVuSans-30" transform="translate(190.869141 0)"/>
      </g>
     </g>
    </g>
    <g id="xtick_4">
     <g id="line2d_4">
      <g>
       <use xlink:href="#m45b7a3c2e8" x="547.631656" y="521.278125" style="stroke: #000000; stroke-width: 0.8"/>
      </g>
     </g>
     <g id="text_4">
      <!-- 2022 -->
      <g transform="translate(534.906656 535.876562) scale(0.1 -0.1)">
       <use xlink:href="#DejaVuSans-32"/>
       <use xlink:href="#DejaVuSans-30" transform="translate(63.623047 0)"/>
       <use xlink:href="#DejaVuSans-32" transform="translate(127.246094 0)"/>
       <use xlink:href="#DejaVuSans-32" transform="translate(190.869141 0)"/>
      </g>
     </g>
    </g>
    <g id="xtick_5">
     <g id="line2d_5">
      <g>
       <use xlink:href="#m45b7a3c2e8" x="681.557301" y="521.278125" style="stroke: #000000; stroke-width: 0.8"/>
      </g>
     </g>
     <g id="text_5">
      <!-- 2024 -->
      <g transform="translate(668.832301 535.876562) scale(0.1 -0.1)">
       <defs>
        <path id="DejaVuSans-34" d="M 2419 4116 
L 825 1625 
L 2419 1625 
L 2419 4116 
z
M 2253 4666 
L 3047 4666 
L 3047 1625 
L 3713 1625 
L 3713 1100 
L 3047 1100 
L 3047 0 
L 2419 0 
L 2419 1100 
L 313 1100 
L 313 1709 
L 2253 4666 
z
" transform="scale(0.015625)"/>
       </defs>
       <use xlink:href="#DejaVuSans-32"/>
       <use xlink:href="#DejaVuSans-30" transform="translate(63.623047 0)"/>
       <use xlink:href="#DejaVuSans-32" transform="translate(127.246094 0)"/>
       <use xlink:href="#DejaVuSans-34" transform="translate(190.869141 0)"/>
      </g>
     </g>
    </g>
    <g id="xtick_6">
     <g id="line2d_6">
      <g>
       <use xlink:href="#m45b7a3c2e8" x="815.666406" y="521.278125" style="stroke: #000000; stroke-width: 0.8"/>
      </g>
     </g>
     <g id="text_6">
      <!-- 2026 -->
      <g transform="translate(802.941406 535.876562) scale(0.1 -0.1)">
       <use xlink:href="#DejaVuSans-32"/>
       <use xlink:href="#DejaVuSans-30" transform="translate(63.623047 0)"/>
       <use xlink:href="#DejaVuSans-32" transform="translate(127.246094 0)"/>
       <use xlink:href="#DejaVuSans-36" transform="translate(190.869141 0)"/>
      </g>
     </g>
    </g>
    <g id="text_7">
     <!-- Date -->
     <g transform="translate(437.162969 549.554687) scale(0.1 -0.1)">
      <defs>
       <path id="DejaVuSans-44" d="M 1259 4147 
L 1259 519 
L 2022 519 
Q 2988 519 3436 956 
Q 3884 1394 3884 2338 
Q 3884 3275 3436 3711 
Q 2988 4147 2022 4147 
L 1259 4147 
z
M 628 4666 
L 1925 4666 
Q 3281 4666 3915 4102 
Q 4550 3538 4550 2338 
Q 4550 1131 3912 565 
Q 3275 0 1925 0 
L 628 0 
L 628 4666 
z
" transform="scale(0.015625)"/>
       <path id="DejaVuSans-61" d="M 2194 1759 
Q 1497 1759 1228 1600 
Q 959 1441 959 1056 
Q 959 750 1161 570 
Q 1363 391 1709 391 
Q 2188 391 2477 730 
Q 2766 1069 2766 1631 
L 2766 1759 
L 2194 1759 
z
M 3341 1997 
L 3341 0 
L 2766 0 
L 2766 531 
Q 2569 213 2275 61 
Q 1981 -91 1556 -91 
Q 1019 -91 701 211 
Q 384 513 384 1019 
Q 384 1609 779 1909 
Q 1175 2209 1959 2209 
L 2766 2209 
L 2766 2266 
Q 2766 2663 2505 2880 
Q 2244 3097 1772 3097 
Q 1472 3097 1187 3025 
Q 903 2953 641 2809 
L 641 3341 
Q 956 3463 1253 3523 
Q 1550 3584 1831 3584 
Q 2591 3584 2966 3190 
Q 3341 2797 3341 1997 
z
" transform="scale(0.015625)"/>
       <path id="DejaVuSans-74" d="M 1172 4494 
L 1172 3500 
L 2356 3500 
L 2356 3053 
L 1172 3053 
L 1172 1153 
Q 1172 725 1289 603 
Q 1406 481 1766 481 
L 2356 481 
L 2356 0 
L 1766 0 
Q 1100 0 847 248 
Q 594 497 594 1153 
L 594 3053 
L 172 3053 
L 172 3500 
L 594 3500 
L 594 4494 
L 1172 4494 
z
" transform="scale(0.015625)"/>
       <path id="DejaVuSans-65" d="M 3597 1894 
L 3597 1613 
L 953 1613 
Q 991 1019 1311 708 
Q 1631 397 2203 397 
Q 2534 397 2845 478 
Q 3156 559 3463 722 
L 3463 178 
Q 3153 47 2828 -22 
Q 2503 -91 2169 -91 
Q 1331 -91 842 396 
Q 353 884 353 1716 
Q 353 2575 817 3079 
Q 1281 3584 2069 3584 
Q 2775 3584 3186 3129 
Q 3597 2675 3597 1894 
z
M 3022 2063 
Q 3016 2534 2758 2815 
Q 2500 3097 2075 3097 
Q 1594 3097 1305 2825 
Q 1016 2553 972 2059 
L 3022 2063 
z
" transform="scale(0.015625)"/>
      </defs>
      <use xlink:href="#DejaVuSans-44"/>
      <use xlink:href="#DejaVuSans-61" transform="translate(77.001953 0)"/>
      <use xlink:href="#DejaVuSans-74" transform="translate(138.28125 0)"/>
      <use xlink:href="#DejaVuSans-65" transform="translate(177.490234 0)"/>
     </g>
    </g>
   </g>
   <g id="matplotlib.axis_2">
    <g id="ytick_1">
     <g id="line2d_7">
      <defs>
       <path id="mdc159cc72b" d="M 0 0 
L -3.5 0 
" style="stroke: #000000; stroke-width: 0.8"/>
      </defs>
      <g>
       <use xlink:href="#mdc159cc72b" x="50.14375" y="452.042772" style="stroke: #000000; stroke-width: 0.8"/>
      </g>
     </g>
     <g id="text_8">
      <!-- 0.01 -->
      <g transform="translate(20.878125 455.841991) scale(0.1 -0.1)">
       <defs>
        <path id="DejaVuSans-2e" d="M 684 794 
L 1344 794 
L 1344 0 
L 684 0 
L 684 794 
z
" transform="scale(0.015625)"/>
       </defs>
       <use xlink:href="#DejaVuSans-30"/>
       <use xlink:href="#DejaVuSans-2e" transform="translate(63.623047 0)"/>
       <use xlink:href="#DejaVuSans-30" transform="translate(95.410156 0)"/>
       <use xlink:href="#DejaVuSans-31" transform="translate(159.033203 0)"/>
      </g>
     </g>
    </g>
    <g id="ytick_2">
     <g id="line2d_8">
      <g>
       <use xlink:href="#mdc159cc72b" x="50.14375" y="367.55151" style="stroke: #000000; stroke-width: 0.8"/>
      </g>
     </g>
     <g id="text_9">
      <!-- 0.02 -->
      <g transform="translate(20.878125 371.350729) scale(0.1 -0.1)">
       <use xlink:href="#DejaVuSans-30"/>
       <use xlink:href="#DejaVuSans-2e" transform="translate(63.623047 0)"/>
       <use xlink:href="#DejaVuSans-30" transform="translate(95.410156 0)"/>
       <use xlink:href="#DejaVuSans-32" transform="translate(159.033203 0)"/>
      </g>
     </g>
    </g>
    <g id="ytick_3">
     <g id="line2d_9">
      <g>
       <use xlink:href="#mdc159cc72b" x="50.14375" y="283.060249" style="stroke: #000000; stroke-width: 0.8"/>
      </g>
     </g>
     <g id="text_10">
      <!-- 0.03 -->
      <g transform="translate(20.878125 286.859468) scale(0.1 -0.1)">
       <defs>
        <path id="DejaVuSans-33" d="M 2597 2516 
Q 3050 2419 3304 2112 
Q 3559 1806 3559 1356 
Q 3559 666 3084 287 
Q 2609 -91 1734 -91 
Q 1441 -91 1130 -33 
Q 819 25 488 141 
L 488 750 
Q 750 597 1062 519 
Q 1375 441 1716 441 
Q 2309 441 2620 675 
Q 2931 909 2931 1356 
Q 2931 1769 2642 2001 
Q 2353 2234 1838 2234 
L 1294 2234 
L 1294 2753 
L 1863 2753 
Q 2328 2753 2575 2939 
Q 2822 3125 2822 3475 
Q 2822 3834 2567 4026 
Q 2313 4219 1838 4219 
Q 1578 4219 1281 4162 
Q 984 4106 628 3988 
L 628 4550 
Q 988 4650 1302 4700 
Q 1616 4750 1894 4750 
Q 2613 4750 3031 4423 
Q 3450 4097 3450 3541 
Q 3450 3153 3228 2886 
Q 3006 2619 2597 2516 
z
" transform="scale(0.015625)"/>
       </defs>
       <use xlink:href="#DejaVuSans-30"/>
       <use xlink:href="#DejaVuSans-2e" transform="translate(63.623047 0)"/>
       <use xlink:href="#DejaVuSans-30" transform="translate(95.410156 0)"/>
       <use xlink:href="#DejaVuSans-33" transform="translate(159.033203 0)"/>
      </g>
     </g>
    </g>
    <g id="ytick_4">
     <g id="line2d_10">
      <g>
       <use xlink:href="#mdc159cc72b" x="50.14375" y="198.568988" style="stroke: #000000; stroke-width: 0.8"/>
      </g>
     </g>
     <g id="text_11">
      <!-- 0.04 -->
      <g transform="translate(20.878125 202.368206) scale(0.1 -0.1)">
       <use xlink:href="#DejaVuSans-30"/>
       <use xlink:href="#DejaVuSans-2e" transform="translate(63.623047 0)"/>
       <use xlink:href="#DejaVuSans-30" transform="translate(95.410156 0)"/>
       <use xlink:href="#DejaVuSans-34" transform="translate(159.033203 0)"/>
      </g>
     </g>
    </g>
    <g id="ytick_5">
     <g id="line2d_11">
      <g>
       <use xlink:href="#mdc159cc72b" x="50.14375" y="114.077726" style="stroke: #000000; stroke-width: 0.8"/>
      </g>
     </g>
     <g id="text_12">
      <!-- 0.05 -->
      <g transform="translate(20.878125 117.876945) scale(0.1 -0.1)">
       <defs>
        <path id="DejaVuSans-35" d="M 691 4666 
L 3169 4666 
L 3169 4134 
L 1269 4134 
L 1269 2991 
Q 1406 3038 1543 3061 
Q 1681 3084 1819 3084 
Q 2600 3084 3056 2656 
Q 3513 2228 3513 1497 
Q 3513 744 3044 326 
Q 2575 -91 1722 -91 
Q 1428 -91 1123 -41 
Q 819 9 494 109 
L 494 744 
Q 775 591 1075 516 
Q 1375 441 1709 441 
Q 2250 441 2565 725 
Q 2881 1009 2881 1497 
Q 2881 1984 2565 2268 
Q 2250 2553 1709 2553 
Q 1456 2553 1204 2497 
Q 953 2441 691 2322 
L 691 4666 
z
" transform="scale(0.015625)"/>
       </defs>
       <use xlink:href="#DejaVuSans-30"/>
       <use xlink:href="#DejaVuSans-2e" transform="translate(63.623047 0)"/>
       <use xlink:href="#DejaVuSans-30" transform="translate(95.410156 0)"/>
       <use xlink:href="#DejaVuSans-35" transform="translate(159.033203 0)"/>
      </g>
     </g>
    </g>
    <g id="ytick_6">
     <g id="line2d_12">
      <g>
       <use xlink:href="#mdc159cc72b" x="50.14375" y="29.586465" style="stroke: #000000; stroke-width: 0.8"/>
      </g>
     </g>
     <g id="text_13">
      <!-- 0.06 -->
      <g transform="translate(20.878125 33.385684) scale(0.1 -0.1)">
       <use xlink:href="#DejaVuSans-30"/>
       <use xlink:href="#DejaVuSans-2e" transform="translate(63.623047 0)"/>
       <use xlink:href="#DejaVuSans-30" transform="translate(95.410156 0)"/>
       <use xlink:href="#DejaVuSans-36" transform="translate(159.033203 0)"/>
      </g>
     </g>
    </g>
    <g id="text_14">
     <!-- Rolling Volatility (30-day) -->
     <g transform="translate(14.798438 334.652812) rotate(-90) scale(0.1 -0.1)">
      <defs>
       <path id="DejaVuSans-52" d="M 2841 2188 
Q 3044 2119 3236 1894 
Q 3428 1669 3622 1275 
L 4263 0 
L 3584 0 
L 2988 1197 
Q 2756 1666 2539 1819 
Q 2322 1972 1947 1972 
L 1259 1972 
L 1259 0 
L 628 0 
L 628 4666 
L 2053 4666 
Q 2853 4666 3247 4331 
Q 3641 3997 3641 3322 
Q 3641 2881 3436 2590 
Q 3231 2300 2841 2188 
z
M 1259 4147 
L 1259 2491 
L 2053 2491 
Q 2509 2491 2742 2702 
Q 2975 2913 2975 3322 
Q 2975 3731 2742 3939 
Q 2509 4147 2053 4147 
L 1259 4147 
z
" transform="scale(0.015625)"/>
       <path id="DejaVuSans-6f" d="M 1959 3097 
Q 1497 3097 1228 2736 
Q 959 2375 959 1747 
Q 959 1119 1226 758 
Q 1494 397 1959 397 
Q 2419 397 2687 759 
Q 2956 1122 2956 1747 
Q 2956 2369 2687 2733 
Q 2419 3097 1959 3097 
z
M 1959 3584 
Q 2709 3584 3137 3096 
Q 3566 2609 3566 1747 
Q 3566 888 3137 398 
Q 2709 -91 1959 -91 
Q 1206 -91 779 398 
Q 353 888 353 1747 
Q 353 2609 779 3096 
Q 1206 3584 1959 3584 
z
" transform="scale(0.015625)"/>
       <path id="DejaVuSans-6c" d="M 603 4863 
L 1178 4863 
L 1178 0 
L 603 0 
L 603 4863 
z
" transform="scale(0.015625)"/>
       <path id="DejaVuSans-69" d="M 603 3500 
L 1178 3500 
L 1178 0 
L 603 0 
L 603 3500 
z
M 603 4863 
L 1178 4863 
L 1178 4134 
L 603 4134 
L 603 4863 
z
" transform="scale(0.015625)"/>
       <path id="DejaVuSans-6e" d="M 3513 2113 
L 3513 0 
L 2938 0 
L 2938 2094 
Q 2938 2591 2744 2837 
Q 2550 3084 2163 3084 
Q 1697 3084 1428 2787 
Q 1159 2491 1159 1978 
L 1159 0 
L 581 0 
L 581 3500 
L 1159 3500 
L 1159 2956 
Q 1366 3272 1645 3428 
Q 1925 3584 2291 3584 
Q 2894 3584 3203 3211 
Q 3513 2838 3513 2113 
z
" transform="scale(0.015625)"/>
       <path id="DejaVuSans-67" d="M 2906 1791 
Q 2906 2416 2648 2759 
Q 2391 3103 1925 3103 
Q 1463 3103 1205 2759 
Q 947 2416 947 1791 
Q 947 1169 1205 825 
Q 1463 481 1925 481 
Q 2391 481 2648 825 
Q 2906 1169 2906 1791 
z
M 3481 434 
Q 3481 -459 3084 -895 
Q 2688 -1331 1869 -1331 
Q 1566 -1331 1297 -1286 
Q 1028 -1241 775 -1147 
L 775 -588 
Q 1028 -725 1275 -790 
Q 1522 -856 1778 -856 
Q 2344 -856 2625 -561 
Q 2906 -266 2906 331 
L 2906 616 
Q 2728 306 2450 153 
Q 2172 0 1784 0 
Q 1141 0 747 490 
Q 353 981 353 1791 
Q 353 2603 747 3093 
Q 1141 3584 1784 3584 
Q 2172 3584 2450 3431 
Q 2728 3278 2906 2969 
L 2906 3500 
L 3481 3500 
L 3481 434 
z
" transform="scale(0.015625)"/>
       <path id="DejaVuSans-20" transform="scale(0.015625)"/>
       <path id="DejaVuSans-56" d="M 1831 0 
L 50 4666 
L 709 4666 
L 2188 738 
L 3669 4666 
L 4325 4666 
L 2547 0 
L 1831 0 
z
" transform="scale(0.015625)"/>
       <path id="DejaVuSans-79" d="M 2059 -325 
Q 1816 -950 1584 -1140 
Q 1353 -1331 966 -1331 
L 506 -1331 
L 506 -850 
L 844 -850 
Q 1081 -850 1212 -737 
Q 1344 -625 1503 -206 
L 1606 56 
L 191 3500 
L 800 3500 
L 1894 763 
L 2988 3500 
L 3597 3500 
L 2059 -325 
z
" transform="scale(0.015625)"/>
       <path id="DejaVuSans-28" d="M 1984 4856 
Q 1566 4138 1362 3434 
Q 1159 2731 1159 2009 
Q 1159 1288 1364 580 
Q 1569 -128 1984 -844 
L 1484 -844 
Q 1016 -109 783 600 
Q 550 1309 550 2009 
Q 550 2706 781 3412 
Q 1013 4119 1484 4856 
L 1984 4856 
z
" transform="scale(0.015625)"/>
       <path id="DejaVuSans-2d" d="M 313 2009 
L 1997 2009 
L 1997 1497 
L 313 1497 
L 313 2009 
z
" transform="scale(0.015625)"/>
       <path id="DejaVuSans-64" d="M 2906 2969 
L 2906 4863 
L 3481 4863 
L 3481 0 
L 2906 0 
L 2906 525 
Q 2725 213 2448 61 
Q 2172 -91 1784 -91 
Q 1150 -91 751 415 
Q 353 922 353 1747 
Q 353 2572 751 3078 
Q 1150 3584 1784 3584 
Q 2172 3584 2448 3432 
Q 2725 3281 2906 2969 
z
M 947 1747 
Q 947 1113 1208 752 
Q 1469 391 1925 391 
Q 2381 391 2643 752 
Q 2906 1113 2906 1747 
Q 2906 2381 2643 2742 
Q 2381 3103 1925 3103 
Q 1469 3103 1208 2742 
Q 947 2381 947 1747 
z
" transform="scale(0.015625)"/>
       <path id="DejaVuSans-29" d="M 513 4856 
L 1013 4856 
Q 1481 4119 1714 3412 
Q 1947 2706 1947 2009 
Q 1947 1309 1714 600 
Q 1481 -109 1013 -844 
L 513 -844 
Q 928 -128 1133 580 
Q 1338 1288 1338 2009 
Q 1338 2731 1133 3434 
Q 928 4138 513 4856 
z
" transform="scale(0.015625)"/>
      </defs>
      <use xlink:href="#DejaVuSans-52"/>
      <use xlink:href="#DejaVuSans-6f" transform="translate(64.982422 0)"/>
      <use xlink:href="#DejaVuSans-6c" transform="translate(126.164062 0)"/>
      <use xlink:href="#DejaVuSans-6c" transform="translate(153.947266 0)"/>
      <use xlink:href="#DejaVuSans-69" transform="translate(181.730469 0)"/>
      <use xlink:href="#DejaVuSans-6e" transform="translate(209.513672 0)"/>
      <use xlink:href="#DejaVuSans-67" transform="translate(272.892578 0)"/>
      <use xlink:href="#DejaVuSans-20" transform="translate(336.369141 0)"/>
      <use xlink:href="#DejaVuSans-56" transform="translate(368.15625 0)"/>
      <use xlink:href="#DejaVuSans-6f" transform="translate(428.814453 0)"/>
      <use xlink:href="#DejaVuSans-6c" transform="translate(489.996094 0)"/>
      <use xlink:href="#DejaVuSans-61" transform="translate(517.779297 0)"/>
      <use xlink:href="#DejaVuSans-74" transform="translate(579.058594 0)"/>
      <use xlink:href="#DejaVuSans-69" transform="translate(618.267578 0)"/>
      <use xlink:href="#DejaVuSans-6c" transform="translate(646.050781 0)"/>
      <use xlink:href="#DejaVuSans-69" transform="translate(673.833984 0)"/>
      <use xlink:href="#DejaVuSans-74" transform="translate(701.617188 0)"/>
      <use xlink:href="#DejaVuSans-79" transform="translate(740.826172 0)"/>
      <use xlink:href="#DejaVuSans-20" transform="translate(800.005859 0)"/>
      <use xlink:href="#DejaVuSans-28" transform="translate(831.792969 0)"/>
      <use xlink:href="#DejaVuSans-33" transform="translate(870.806641 0)"/>
      <use xlink:href="#DejaVuSans-30" transform="translate(934.429688 0)"/>
      <use xlink:href="#DejaVuSans-2d" transform="translate(998.052734 0)"/>
      <use xlink:href="#DejaVuSans-64" transform="translate(1034.136719 0)"/>
      <use xlink:href="#DejaVuSans-61" transform="translate(1097.613281 0)"/>
      <use xlink:href="#DejaVuSans-79" transform="translate(1158.892578 0)"/>
      <use xlink:href="#DejaVuSans-29" transform="translate(1218.072266 0)"/>
     </g>
    </g>
   </g>
   <g id="line2d_13">
    <path d="M 86.41375 402.530607 
L 86.964129 403.847231 
L 87.331049 403.671047 
L 87.514509 413.002922 
L 87.697969 413.141767 
L 88.248348 416.597551 
L 88.615267 416.71351 
L 88.798727 415.845444 
L 88.982187 408.124353 
L 89.165647 409.138552 
L 89.532566 407.035981 
L 89.899486 408.140873 
L 90.082946 408.012162 
L 90.816785 399.896767 
L 91.000245 400.556408 
L 91.183704 406.827954 
L 91.367164 406.311273 
L 91.550624 403.96034 
L 92.101003 413.000778 
L 92.284463 411.346822 
L 92.467923 416.601071 
L 92.651383 414.705404 
L 92.834843 413.975631 
L 93.385222 415.143484 
L 93.752142 422.890077 
L 93.935601 417.731447 
L 94.66944 415.478809 
L 94.8529 415.600409 
L 95.03636 410.361465 
L 95.953659 410.567338 
L 96.137119 410.418276 
L 96.320579 410.933494 
L 96.504038 404.835899 
L 97.237877 406.396188 
L 97.604797 414.365176 
L 97.788257 426.119462 
L 97.971717 427.906099 
L 98.522096 426.847571 
L 98.705556 428.689479 
L 98.889016 428.211023 
L 99.072475 437.784145 
L 99.255935 436.215701 
L 99.806314 434.773103 
L 99.989774 425.726941 
L 100.173234 429.085021 
L 100.356694 429.170279 
L 101.090533 429.897285 
L 101.273993 430.266978 
L 101.457453 419.664965 
L 101.824372 409.441575 
L 102.374752 404.615861 
L 102.558211 396.070954 
L 102.741671 395.626166 
L 102.925131 396.784589 
L 103.108591 399.398801 
L 103.65897 398.544264 
L 103.84243 403.072874 
L 104.02589 402.220293 
L 104.209349 402.675612 
L 104.392809 402.574724 
L 104.943189 408.297259 
L 105.126648 408.383091 
L 105.310108 407.014791 
L 105.493568 406.976405 
L 105.677028 405.075896 
L 106.227407 407.174387 
L 106.410867 397.718367 
L 106.594327 396.019391 
L 106.777786 396.625316 
L 106.961246 395.988204 
L 107.511626 397.044174 
L 107.695085 398.257092 
L 107.878545 403.610437 
L 108.245465 397.895126 
L 108.795844 398.836124 
L 108.979304 397.967757 
L 109.346223 414.665598 
L 109.529683 419.80414 
L 110.080063 418.45282 
L 110.446982 437.576597 
L 110.813902 436.578243 
L 111.364281 438.075403 
L 111.547741 438.005721 
L 111.731201 436.11347 
L 111.91466 436.18529 
L 112.09812 435.795218 
L 112.6485 436.11134 
L 112.831959 436.049333 
L 113.015419 433.481193 
L 113.198879 433.698078 
L 113.382339 434.740944 
L 113.932718 434.189738 
L 114.116178 449.862711 
L 114.299638 453.583308 
L 114.483097 449.801346 
L 114.666557 451.36638 
L 115.216937 452.143334 
L 115.400396 447.087973 
L 115.583856 446.419505 
L 115.767316 454.326645 
L 115.950776 452.667495 
L 116.501155 444.698552 
L 116.684615 445.247593 
L 116.868075 445.317023 
L 117.051535 445.66321 
L 117.234994 443.581254 
L 117.785374 450.520439 
L 118.152293 450.445545 
L 118.335753 450.680459 
L 118.519213 450.551973 
L 119.069592 451.452402 
L 119.253052 448.490518 
L 119.436512 439.949467 
L 119.619972 439.306146 
L 119.803431 428.930911 
L 120.53727 428.879373 
L 120.72073 432.468869 
L 120.90419 426.681025 
L 121.08765 426.813023 
L 121.821489 380.852908 
L 122.004949 379.73199 
L 122.188409 380.12271 
L 122.371868 380.043758 
L 122.922248 380.041766 
L 123.105708 373.232504 
L 123.289167 374.84674 
L 123.656087 367.92171 
L 124.206466 368.343253 
L 124.389926 357.689286 
L 124.573386 355.049121 
L 124.756846 355.656978 
L 124.940305 358.053706 
L 125.490685 356.091002 
L 125.674145 356.119735 
L 125.857604 354.139427 
L 126.224524 348.913288 
L 126.774903 348.380037 
L 126.958363 343.868139 
L 127.141823 343.025759 
L 127.325283 348.098143 
L 128.059122 348.41018 
L 128.242582 354.262668 
L 128.426041 354.669912 
L 128.609501 354.664417 
L 129.34334 347.563589 
L 129.5268 350.45219 
L 129.71026 351.322913 
L 129.89372 386.113226 
L 130.077179 389.688651 
L 130.627559 392.159494 
L 130.811019 394.415991 
L 130.994478 394.40537 
L 131.177938 394.157383 
L 131.361398 406.073595 
L 131.911777 409.45345 
L 132.095237 411.684028 
L 132.278697 419.083562 
L 132.645616 424.847734 
L 133.379456 437.863285 
L 133.562915 429.769017 
L 133.746375 428.46155 
L 133.929835 431.16733 
L 134.480214 432.621343 
L 134.663674 434.430879 
L 134.847134 442.387473 
L 135.030594 441.26806 
L 135.214053 452.1338 
L 135.764433 454.418617 
L 136.131352 452.806375 
L 136.498272 454.595687 
L 137.048651 451.362384 
L 137.232111 451.479127 
L 137.415571 461.396759 
L 137.599031 457.032637 
L 137.782491 457.075229 
L 138.33287 457.859269 
L 138.51633 458.593709 
L 138.883249 458.362733 
L 139.066709 452.14539 
L 139.617088 451.953198 
L 139.984008 454.432743 
L 140.167468 454.116941 
L 140.350928 452.368288 
L 140.901307 452.454489 
L 141.084767 454.837571 
L 141.451686 454.204505 
L 141.635146 455.654336 
L 142.185525 456.416646 
L 142.368985 457.631093 
L 142.735905 453.352148 
L 142.919365 452.84179 
L 143.469744 451.946199 
L 143.653204 452.200868 
L 143.836664 451.477325 
L 144.020123 452.605859 
L 144.753962 451.890605 
L 144.937422 451.917914 
L 145.120882 455.012424 
L 145.304342 455.075648 
L 145.487802 460.093458 
L 146.038181 453.729013 
L 146.221641 453.637445 
L 146.405101 453.212765 
L 146.58856 447.39461 
L 146.77202 447.180473 
L 147.322399 453.531607 
L 147.872779 447.277755 
L 148.056239 440.75537 
L 148.606618 440.80718 
L 148.973538 432.509617 
L 149.156997 430.284061 
L 149.340457 421.280768 
L 149.890836 425.255544 
L 150.257756 425.303383 
L 150.441216 424.843599 
L 150.624676 425.343305 
L 151.175055 425.695792 
L 151.358515 424.175869 
L 151.541975 426.002048 
L 151.725434 425.555833 
L 151.908894 421.086088 
L 152.459274 420.915667 
L 152.642733 422.407314 
L 152.826193 420.428562 
L 153.009653 409.527623 
L 153.193113 409.886499 
L 153.743492 396.818433 
L 153.926952 398.828685 
L 154.110412 398.824744 
L 154.293871 396.159902 
L 154.477331 398.48651 
L 155.027711 398.673766 
L 155.21117 394.484319 
L 155.57809 395.14109 
L 155.76155 392.229305 
L 156.311929 394.747774 
L 156.678849 369.679759 
L 156.862308 373.11658 
L 157.045768 373.186531 
L 157.779607 377.205697 
L 158.146527 376.448864 
L 158.329987 377.130592 
L 158.880366 377.385817 
L 159.247286 380.339062 
L 159.430745 382.530243 
L 159.614205 381.394742 
L 160.164585 382.023406 
L 160.348044 382.736131 
L 160.531504 384.007283 
L 161.448803 384.50344 
L 161.632263 399.13761 
L 161.815723 394.032268 
L 162.182642 406.695116 
L 162.733022 407.162206 
L 162.916481 396.91009 
L 163.099941 396.499988 
L 163.283401 395.684951 
L 163.466861 403.413658 
L 164.01724 405.625955 
L 164.2007 410.385199 
L 164.38416 408.04779 
L 165.301459 407.625309 
L 165.668378 415.65576 
L 165.851838 434.280211 
L 166.035298 434.341355 
L 166.585677 434.783487 
L 166.769137 434.759387 
L 167.136057 432.793742 
L 167.319516 432.983774 
L 168.236815 427.348422 
L 168.420275 427.425109 
L 168.603735 429.062921 
L 169.154114 426.226483 
L 169.337574 426.043551 
L 169.521034 426.15842 
L 169.704494 430.067559 
L 169.887953 427.609108 
L 170.438333 436.956844 
L 170.621792 436.966087 
L 170.805252 436.841528 
L 170.988712 435.412604 
L 171.172172 448.082042 
L 171.722551 447.956221 
L 171.906011 448.973612 
L 172.089471 436.847335 
L 172.272931 434.857027 
L 172.45639 434.492409 
L 173.00677 440.522683 
L 173.19023 440.880753 
L 173.373689 438.848802 
L 173.557149 441.436989 
L 173.740609 441.228575 
L 174.290988 441.301753 
L 174.841368 445.350501 
L 175.024827 445.028545 
L 175.575207 445.833434 
L 175.758667 447.637726 
L 175.942126 447.328253 
L 176.125586 443.609472 
L 176.309046 443.628473 
L 176.859425 449.931351 
L 177.042885 449.373202 
L 177.226345 449.524313 
L 177.409805 448.008648 
L 177.593264 440.324434 
L 178.694023 440.103978 
L 178.877483 440.904889 
L 179.427862 441.536744 
L 179.611322 440.636197 
L 180.161701 458.567024 
L 181.079 451.07006 
L 181.44592 452.40174 
L 182.179759 452.355959 
L 182.363219 455.068151 
L 182.546679 450.792752 
L 182.730138 451.110673 
L 183.280518 448.633107 
L 183.463978 450.847449 
L 183.647437 450.372359 
L 184.014357 454.982489 
L 184.564736 452.330097 
L 184.748196 452.142805 
L 184.931656 452.128846 
L 185.115116 451.984813 
L 185.298575 450.245701 
L 185.848955 462.630308 
L 186.032415 462.569268 
L 186.215874 457.682992 
L 186.399334 458.05427 
L 186.582794 456.571693 
L 187.316633 456.584191 
L 187.500093 456.884459 
L 187.683553 454.587222 
L 187.867013 454.641286 
L 188.417392 454.533536 
L 188.784311 462.956476 
L 188.967771 462.950405 
L 189.151231 464.752087 
L 189.70161 465.051439 
L 190.06853 458.93534 
L 190.25199 458.955183 
L 190.43545 463.700116 
L 191.169289 454.045976 
L 191.536208 457.80211 
L 191.719668 456.567708 
L 192.270047 448.057265 
L 192.636967 448.657362 
L 192.820427 450.648817 
L 193.003887 450.83008 
L 193.554266 451.717721 
L 193.737726 451.573433 
L 193.921186 455.790909 
L 194.288105 451.401668 
L 194.838484 451.155877 
L 195.021944 450.800822 
L 195.205404 454.073746 
L 195.388864 445.431798 
L 195.572324 445.144807 
L 196.122703 445.410562 
L 196.306163 445.316349 
L 196.489623 444.897868 
L 196.673082 444.138975 
L 197.406921 444.227197 
L 197.957301 438.472502 
L 198.140761 438.317409 
L 198.69114 441.824336 
L 198.8746 437.570787 
L 199.05806 437.399739 
L 199.241519 435.607525 
L 199.424979 445.538635 
L 200.158818 445.017635 
L 200.342278 442.065683 
L 200.525738 448.299155 
L 200.709198 448.790241 
L 201.076117 448.905385 
L 201.443037 448.826753 
L 201.626497 447.310505 
L 201.809956 447.318269 
L 201.993416 446.959111 
L 202.543796 446.317106 
L 202.727255 446.563407 
L 202.910715 449.772769 
L 203.277635 428.540602 
L 204.011474 429.165445 
L 204.194934 428.470088 
L 204.378393 431.512863 
L 204.561853 431.444194 
L 205.112233 424.380413 
L 205.295692 424.168003 
L 205.479152 424.187816 
L 205.662612 422.153384 
L 205.846072 424.294063 
L 206.396451 423.378944 
L 206.763371 423.504687 
L 206.94683 422.673528 
L 207.13029 424.373189 
L 207.68067 423.287982 
L 207.864129 423.757265 
L 208.231049 422.557718 
L 208.414509 421.307904 
L 209.148348 418.859525 
L 209.331808 418.629666 
L 209.515267 419.47768 
L 209.698727 419.370612 
L 210.249107 419.593984 
L 210.432566 422.044663 
L 210.616026 422.972945 
L 210.799486 422.404037 
L 210.982946 439.430563 
L 211.900245 445.544153 
L 212.267164 443.143712 
L 212.817544 450.940199 
L 213.001003 451.234497 
L 213.184463 450.53432 
L 213.367923 451.112379 
L 213.551383 452.946191 
L 214.101762 454.695149 
L 214.468682 453.91468 
L 214.835601 457.603083 
L 215.56944 457.261024 
L 215.93636 462.146828 
L 216.11982 459.031705 
L 216.670199 463.617613 
L 216.853659 462.515921 
L 217.037119 455.833194 
L 217.404038 454.373566 
L 218.137877 453.946556 
L 218.321337 448.782744 
L 218.504797 448.867979 
L 218.688257 451.776446 
L 219.238636 451.810323 
L 219.422096 455.605798 
L 219.605556 455.532965 
L 219.789016 454.645939 
L 219.972475 454.982452 
L 220.522855 455.199764 
L 220.706314 458.610408 
L 220.889774 457.460865 
L 221.073234 459.728884 
L 221.256694 458.919464 
L 221.807073 459.110272 
L 222.173993 458.767444 
L 222.357453 464.491068 
L 223.091292 460.329022 
L 223.274752 460.174973 
L 223.458211 460.414476 
L 223.641671 457.815168 
L 223.825131 457.446709 
L 224.37551 457.25622 
L 224.55897 462.548649 
L 224.74243 462.603064 
L 224.92589 463.315739 
L 225.109349 471.166587 
L 225.843189 468.307585 
L 226.210108 470.37901 
L 226.393568 480.850093 
L 227.127407 480.090306 
L 227.310867 478.08399 
L 227.494327 477.812315 
L 227.677786 476.437028 
L 228.228166 476.776864 
L 228.595085 475.238857 
L 228.962005 472.627262 
L 229.512384 472.550696 
L 229.879304 475.85216 
L 230.062764 476.07469 
L 230.246223 475.205804 
L 230.796603 475.013007 
L 230.980063 473.487154 
L 231.163522 477.066106 
L 231.346982 477.134959 
L 232.080821 477.925748 
L 232.264281 481.212886 
L 232.447741 480.632576 
L 232.631201 481.166137 
L 232.81466 481.345032 
L 233.731959 476.200197 
L 233.915419 481.583044 
L 234.832718 481.595108 
L 235.016178 481.976779 
L 235.199638 476.771175 
L 235.383097 476.551676 
L 235.933477 480.329211 
L 236.116937 479.79577 
L 236.483856 481.611537 
L 236.667316 480.53785 
L 237.217695 480.803003 
L 237.584615 484.707189 
L 237.768075 481.37651 
L 237.951535 481.552918 
L 238.501914 480.735138 
L 238.685374 482.720642 
L 238.868833 482.54605 
L 239.052293 468.950952 
L 239.235753 469.054494 
L 239.786132 467.26425 
L 239.969592 467.415212 
L 240.153052 467.342725 
L 240.336512 467.462759 
L 240.519972 468.054949 
L 241.070351 468.045364 
L 241.253811 470.140816 
L 241.62073 471.223773 
L 241.80419 470.883548 
L 242.354569 468.601754 
L 242.721489 468.854232 
L 242.904949 473.720863 
L 243.088409 474.231789 
L 243.638788 473.370749 
L 243.822248 473.48236 
L 244.005708 473.787119 
L 244.189167 473.852688 
L 244.372627 473.276143 
L 245.106466 469.731222 
L 245.289926 470.04837 
L 245.473386 470.035988 
L 245.656846 472.265147 
L 246.207225 472.304571 
L 246.390685 472.770564 
L 246.757604 472.576421 
L 246.941064 490.222002 
L 247.491443 489.26732 
L 247.674903 490.54608 
L 247.858363 490.706343 
L 248.041823 489.717757 
L 248.225283 490.530337 
L 248.775662 490.483802 
L 248.959122 490.673857 
L 249.142582 490.335411 
L 249.326041 491.079597 
L 249.509501 491.204851 
L 250.059881 491.151098 
L 250.24334 494.045963 
L 250.4268 493.495849 
L 250.61026 491.555573 
L 250.79372 491.58875 
L 251.344099 489.271287 
L 251.527559 490.979429 
L 251.711019 490.793322 
L 251.894478 483.785537 
L 252.077938 483.265434 
L 252.811777 486.640074 
L 253.178697 482.41887 
L 253.362157 479.898158 
L 253.912536 479.553656 
L 254.646375 474.47582 
L 255.196755 473.683358 
L 255.380214 475.289749 
L 255.563674 472.110385 
L 255.747134 472.242141 
L 256.480973 473.06101 
L 256.664433 470.93261 
L 256.847893 470.149696 
L 257.031352 470.150061 
L 257.214812 470.268402 
L 257.948651 468.89955 
L 258.315571 469.976599 
L 258.499031 470.575845 
L 259.04941 469.642079 
L 259.23287 469.573896 
L 259.41633 472.171743 
L 259.599789 471.954705 
L 259.783249 471.95126 
L 260.517088 475.938987 
L 260.700548 475.902102 
L 260.884008 478.176285 
L 261.067468 473.703802 
L 261.617847 473.152383 
L 261.801307 474.974812 
L 261.984767 470.651715 
L 262.351686 473.943117 
L 263.085525 474.720788 
L 263.268985 475.41631 
L 263.452445 475.32909 
L 263.635905 478.932704 
L 264.369744 478.896117 
L 264.553204 479.03403 
L 264.736664 477.86709 
L 264.920123 474.346718 
L 265.470503 474.712305 
L 265.653962 476.026058 
L 266.020882 469.723138 
L 266.754721 469.518898 
L 266.938181 469.070644 
L 267.121641 453.262741 
L 267.305101 453.497866 
L 267.48856 452.707804 
L 268.03894 452.34279 
L 268.222399 452.454387 
L 268.405859 448.475507 
L 268.589319 448.352491 
L 268.772779 447.659063 
L 269.323158 448.238172 
L 269.506618 451.151475 
L 269.690078 452.006446 
L 269.873538 451.894428 
L 270.056997 456.073628 
L 270.607377 455.756607 
L 270.974296 455.153539 
L 271.341216 453.44247 
L 271.891595 453.593959 
L 272.258515 453.517654 
L 272.625434 456.58605 
L 273.175814 458.609914 
L 273.359274 458.449641 
L 273.542733 458.492113 
L 273.726193 456.090131 
L 273.909653 458.369499 
L 274.460032 457.825844 
L 274.643492 458.096701 
L 274.826952 475.062071 
L 275.193871 472.824981 
L 275.744251 473.245613 
L 275.927711 470.792422 
L 276.11117 477.511435 
L 276.47809 475.695502 
L 277.028469 475.113281 
L 277.211929 477.124771 
L 277.395389 477.072526 
L 277.578849 477.292737 
L 277.762308 478.364574 
L 278.496148 479.080632 
L 278.679607 478.161032 
L 278.863067 478.336337 
L 279.046527 479.924154 
L 279.596906 481.129742 
L 279.963826 481.187035 
L 280.330745 479.669443 
L 280.881125 479.542128 
L 281.064585 479.951882 
L 281.248044 479.79042 
L 281.431504 479.77707 
L 281.614964 487.189669 
L 282.165343 484.923735 
L 282.348803 485.182731 
L 282.532263 482.500395 
L 282.715723 484.943835 
L 282.899182 482.570892 
L 283.449562 483.97991 
L 283.633022 481.454771 
L 283.816481 485.691148 
L 283.999941 487.222253 
L 284.73378 487.52612 
L 284.91724 486.179942 
L 285.1007 486.452092 
L 285.28416 485.114658 
L 285.467619 467.762467 
L 286.017999 464.313068 
L 286.201459 462.259439 
L 286.568378 461.158258 
L 286.751838 456.084049 
L 287.302217 454.845323 
L 287.669137 453.008945 
L 287.852597 452.868671 
L 288.036057 451.346714 
L 288.586436 451.652542 
L 288.769896 451.562498 
L 289.136815 451.621974 
L 289.320275 448.704319 
L 290.054114 443.845957 
L 290.237574 444.83124 
L 290.421034 444.27004 
L 291.154873 446.766378 
L 291.338333 446.453865 
L 291.521792 449.217052 
L 291.705252 445.863584 
L 291.888712 449.441597 
L 292.439091 444.781927 
L 292.622551 444.58034 
L 292.806011 444.114396 
L 292.989471 444.457079 
L 293.172931 444.158032 
L 293.72331 443.694644 
L 293.90677 452.311301 
L 294.273689 454.44499 
L 294.457149 450.305906 
L 295.007528 442.621321 
L 295.374448 445.974129 
L 296.291747 447.847985 
L 296.475207 447.078793 
L 296.658667 445.395243 
L 296.842126 436.196177 
L 297.025586 436.563303 
L 297.759425 435.405948 
L 298.309805 441.953423 
L 298.860184 443.239241 
L 299.043644 444.230418 
L 299.227104 443.18526 
L 299.594023 448.177316 
L 300.327862 451.585369 
L 300.511322 453.265006 
L 300.694782 452.524017 
L 300.878242 449.618667 
L 301.428621 449.487824 
L 302.16246 454.478681 
L 302.71284 453.982073 
L 302.896299 454.042448 
L 303.263219 469.620909 
L 303.446679 468.889589 
L 303.997058 470.647913 
L 304.180518 470.487529 
L 304.363978 467.577297 
L 304.547437 472.769403 
L 304.730897 482.969447 
L 305.281277 482.344194 
L 305.464736 483.753265 
L 305.648196 483.788045 
L 306.015116 479.862692 
L 306.565495 477.179129 
L 306.748955 472.858494 
L 306.932415 472.825037 
L 307.115874 466.164211 
L 307.299334 463.71522 
L 307.849714 459.642523 
L 308.216633 459.517904 
L 308.400093 461.289842 
L 308.583553 461.503792 
L 309.133932 464.601508 
L 309.500852 464.542652 
L 309.684311 464.219037 
L 309.867771 463.485474 
L 310.418151 464.333187 
L 310.60161 465.032301 
L 310.78507 463.153588 
L 310.96853 463.054955 
L 311.15199 463.260121 
L 311.702369 462.681318 
L 311.885829 462.678116 
L 312.069289 464.005454 
L 312.252748 464.063558 
L 312.436208 465.17158 
L 313.170047 465.080412 
L 313.353507 464.317804 
L 313.720427 468.36046 
L 314.270806 469.647667 
L 314.454266 472.929314 
L 314.637726 472.75292 
L 314.821186 483.180941 
L 315.004645 485.226723 
L 315.555025 489.778899 
L 315.738484 486.415155 
L 315.921944 485.991451 
L 316.105404 486.276638 
L 316.288864 486.316435 
L 316.839243 485.852427 
L 317.022703 486.433359 
L 317.206163 486.386659 
L 317.389623 482.670697 
L 317.573082 482.582348 
L 318.123462 481.885311 
L 318.490381 483.344949 
L 318.857301 480.385276 
L 319.40768 480.762429 
L 319.59114 480.714203 
L 319.7746 481.793999 
L 319.95806 481.518372 
L 320.141519 479.658405 
L 320.875358 476.164398 
L 321.242278 475.464767 
L 321.425738 473.872368 
L 321.976117 473.805641 
L 322.159577 474.865951 
L 322.709956 472.290567 
L 323.260336 469.380006 
L 323.443796 469.792299 
L 323.810715 473.488891 
L 323.994175 474.0595 
L 324.544554 472.553057 
L 324.728014 468.456515 
L 324.911474 468.688951 
L 325.094934 468.603607 
L 325.278393 468.644013 
L 325.828773 470.115139 
L 326.012233 468.04467 
L 326.195692 469.354122 
L 326.562612 466.00844 
L 327.112991 464.065018 
L 327.296451 462.176868 
L 327.479911 465.00987 
L 327.84683 457.395876 
L 328.58067 447.679751 
L 328.764129 449.529645 
L 328.947589 448.415442 
L 329.131049 448.727213 
L 329.681428 448.156561 
L 330.048348 447.366627 
L 330.231808 449.81375 
L 330.415267 449.508056 
L 330.965647 447.78614 
L 331.149107 447.966008 
L 331.332566 431.518968 
L 331.516026 432.193694 
L 331.699486 423.14834 
L 332.249865 423.077599 
L 332.616785 420.138095 
L 332.983704 420.420509 
L 333.534084 421.589336 
L 333.901003 421.540357 
L 334.084463 421.196847 
L 334.267923 420.006333 
L 334.818302 414.966198 
L 335.001762 414.90822 
L 335.185222 414.5631 
L 335.368682 414.877294 
L 335.552142 413.865325 
L 336.102521 414.130976 
L 336.46944 427.283444 
L 336.83636 429.368534 
L 337.386739 428.369089 
L 337.570199 429.770771 
L 337.753659 429.508056 
L 337.937119 429.728499 
L 338.120579 431.660225 
L 338.670958 433.30642 
L 338.854418 435.876968 
L 339.037877 436.026265 
L 339.221337 434.649682 
L 339.955176 444.65021 
L 340.322096 460.025102 
L 340.505556 455.831525 
L 340.689016 456.063562 
L 341.239395 460.872985 
L 341.422855 460.399971 
L 341.606314 459.31544 
L 341.973234 454.225177 
L 342.523613 450.177619 
L 342.890533 456.953979 
L 343.073993 457.828367 
L 343.257453 459.861382 
L 343.807832 459.815707 
L 343.991292 462.280658 
L 344.174752 462.178418 
L 344.358211 462.920869 
L 344.541671 458.6152 
L 345.09205 457.817619 
L 345.64243 458.724261 
L 345.82589 458.153208 
L 346.376269 458.980406 
L 346.559729 458.23823 
L 346.743189 456.914982 
L 346.926648 456.706251 
L 347.110108 456.143282 
L 347.660487 458.06799 
L 347.843947 459.995818 
L 348.027407 459.425122 
L 348.210867 458.317806 
L 348.394327 462.881418 
L 349.128166 461.59394 
L 349.495085 463.292979 
L 349.678545 466.160579 
L 350.228925 469.498364 
L 350.412384 477.026712 
L 350.595844 475.010129 
L 350.779304 481.29701 
L 350.962764 481.230503 
L 351.513143 475.034818 
L 351.696603 476.009733 
L 351.880063 474.826323 
L 352.063522 469.270358 
L 352.246982 468.235327 
L 353.164281 474.24411 
L 353.347741 474.638261 
L 353.531201 475.87711 
L 354.08158 475.764364 
L 354.26504 476.070507 
L 354.815419 478.739518 
L 355.365799 478.750557 
L 355.549258 480.180403 
L 355.732718 479.12433 
L 355.916178 479.54445 
L 356.099638 478.811413 
L 356.833477 476.831689 
L 357.016937 476.59241 
L 357.200396 476.714566 
L 357.383856 474.700945 
L 358.117695 468.001674 
L 358.301155 467.963861 
L 358.484615 468.998661 
L 359.218454 468.954743 
L 359.401914 471.004825 
L 359.585374 468.455317 
L 359.952293 470.138147 
L 360.502673 471.781422 
L 360.869592 471.629186 
L 361.786891 466.677623 
L 361.970351 461.867546 
L 362.33727 463.040345 
L 362.52073 464.071085 
L 363.07111 463.170774 
L 363.254569 464.914457 
L 363.621489 462.030445 
L 363.804949 462.620244 
L 364.355328 460.461935 
L 364.538788 461.754005 
L 364.722248 459.544232 
L 365.089167 462.582469 
L 365.639547 462.826228 
L 365.823006 461.606651 
L 366.189926 462.354253 
L 367.474145 451.113222 
L 367.657604 451.842988 
L 368.391443 453.347387 
L 368.758363 453.226342 
L 368.941823 455.784257 
L 369.492202 454.479856 
L 369.859122 452.078862 
L 370.226041 453.661004 
L 370.776421 458.283619 
L 370.959881 458.015026 
L 371.14334 461.088488 
L 371.3268 459.475396 
L 372.244099 425.254634 
L 372.611019 425.379363 
L 372.794478 419.2886 
L 373.344858 418.276114 
L 373.528318 419.709325 
L 373.711777 418.397375 
L 374.078697 417.826095 
L 374.629076 418.95014 
L 374.812536 420.21929 
L 375.179456 417.720905 
L 375.913295 419.482446 
L 376.463674 422.237795 
L 376.647134 420.555288 
L 377.197513 419.649914 
L 377.564433 422.712405 
L 377.931352 422.446321 
L 378.481732 422.490948 
L 378.665192 424.669526 
L 378.848651 424.152792 
L 379.032111 425.30393 
L 379.215571 424.922359 
L 379.76595 428.210915 
L 379.94941 451.608805 
L 380.13287 455.126171 
L 380.499789 456.003915 
L 381.050169 454.476254 
L 381.233629 457.829822 
L 381.417088 457.830277 
L 381.600548 458.206513 
L 381.784008 459.206371 
L 382.334387 459.212416 
L 382.517847 460.36319 
L 382.701307 459.725006 
L 382.884767 466.793111 
L 383.068226 460.490714 
L 383.618606 457.088875 
L 383.985525 458.974366 
L 384.352445 458.112437 
L 384.902824 459.67162 
L 385.086284 455.996043 
L 385.269744 455.736247 
L 385.453204 455.967601 
L 385.636664 455.906057 
L 386.187043 451.808156 
L 386.370503 449.589957 
L 386.553962 451.389057 
L 386.920882 444.457534 
L 387.654721 440.466956 
L 387.838181 437.899811 
L 388.205101 437.062817 
L 388.93894 437.527104 
L 389.122399 444.608378 
L 389.305859 438.91992 
L 389.489319 438.979368 
L 390.039698 421.259679 
L 390.406618 419.648544 
L 390.590078 417.975262 
L 390.773538 418.135641 
L 391.507377 415.13938 
L 391.874296 417.926426 
L 392.057756 415.820549 
L 392.608135 414.703888 
L 392.975055 413.619746 
L 393.158515 414.797383 
L 393.341975 413.4591 
L 393.892354 415.491161 
L 394.075814 409.732455 
L 394.259274 412.134637 
L 394.442733 410.443297 
L 394.626193 357.902253 
L 395.176572 340.783335 
L 395.360032 340.572098 
L 395.543492 338.389734 
L 395.726952 338.037013 
L 395.910412 342.373535 
L 396.644251 336.859706 
L 397.01117 336.060703 
L 397.19463 332.815566 
L 397.745009 333.361298 
L 398.111929 329.947374 
L 398.295389 325.193027 
L 398.478849 332.812945 
L 399.212688 332.850173 
L 399.396148 335.112893 
L 399.579607 333.982192 
L 399.763067 337.661082 
L 400.496906 337.772393 
L 400.680366 338.461614 
L 400.863826 337.641919 
L 401.047286 337.599992 
L 401.414205 337.929163 
L 401.781125 337.361596 
L 401.964585 337.702701 
L 402.148044 338.493987 
L 402.331504 343.736611 
L 402.881884 343.679419 
L 403.065343 345.695279 
L 403.432263 418.922342 
L 403.615723 420.577167 
L 404.166102 424.112868 
L 404.533022 421.710473 
L 404.716481 421.605115 
L 404.899941 429.488683 
L 405.450321 432.141937 
L 405.63378 434.103317 
L 405.81724 443.784918 
L 406.0007 443.651876 
L 406.18416 457.831128 
L 406.734539 471.329171 
L 406.917999 471.481741 
L 407.101459 471.481868 
L 407.284918 472.835044 
L 407.468378 471.529638 
L 408.018758 473.78888 
L 408.202217 471.469956 
L 408.385677 470.992472 
L 408.569137 468.782347 
L 408.752597 468.899703 
L 409.302976 469.772686 
L 409.486436 468.960521 
L 409.669896 470.92205 
L 410.036815 467.164015 
L 410.587195 467.81192 
L 410.770654 467.672818 
L 410.954114 468.255277 
L 411.137574 470.359691 
L 411.321034 470.252106 
L 411.871413 470.135649 
L 412.054873 471.973807 
L 412.421792 477.779379 
L 412.605252 475.705162 
L 413.155632 476.411171 
L 413.339091 475.393683 
L 413.522551 476.151117 
L 413.706011 474.458468 
L 413.889471 471.446726 
L 414.43985 460.411443 
L 414.62331 463.321883 
L 414.80677 463.803607 
L 414.99023 455.765929 
L 415.173689 456.652275 
L 415.724069 457.061055 
L 415.907528 456.969672 
L 416.090988 457.071774 
L 416.274448 459.132327 
L 416.457908 459.149173 
L 417.191747 456.989263 
L 417.375207 456.434944 
L 417.558667 455.031265 
L 417.742126 456.796219 
L 418.475965 456.655304 
L 418.659425 456.909794 
L 418.842885 456.702372 
L 419.026345 455.844278 
L 419.209805 443.05441 
L 419.576724 441.930991 
L 419.760184 434.647492 
L 419.943644 433.708202 
L 420.127104 434.665778 
L 420.310563 434.615279 
L 420.860943 434.752942 
L 421.044403 433.843277 
L 421.411322 435.545251 
L 421.594782 441.798164 
L 422.145161 441.967595 
L 422.328621 441.843349 
L 422.512081 448.197541 
L 422.695541 447.927682 
L 423.42938 445.34713 
L 423.61284 445.366599 
L 423.796299 445.779087 
L 423.979759 445.796407 
L 424.163219 433.062343 
L 424.713598 434.696625 
L 425.080518 430.232378 
L 425.263978 431.216865 
L 425.447437 421.010163 
L 425.997817 402.804834 
L 426.364736 402.544023 
L 426.548196 344.228276 
L 426.731656 324.416945 
L 427.282035 295.412751 
L 427.465495 293.140005 
L 427.648955 276.822631 
L 427.832415 282.040834 
L 428.015874 281.713007 
L 428.566254 191.189914 
L 428.749714 188.808293 
L 429.116633 140.079919 
L 429.850472 132.153743 
L 430.217392 125.526987 
L 430.584311 122.205131 
L 431.318151 82.364699 
L 431.50161 83.047466 
L 431.68507 71.831498 
L 432.785829 72.072901 
L 432.969289 69.694506 
L 433.152748 55.476327 
L 433.703128 55.465646 
L 434.070047 50.171585 
L 434.253507 46.960653 
L 434.436967 47.153766 
L 434.987346 48.166408 
L 435.170806 44.998125 
L 435.354266 64.28224 
L 435.537726 70.119599 
L 436.271565 69.665055 
L 436.455025 72.279816 
L 436.638484 83.764172 
L 436.821944 85.076595 
L 437.005404 85.296428 
L 437.555783 170.30388 
L 437.739243 170.183134 
L 438.106163 195.152808 
L 438.289623 195.934842 
L 438.840002 192.58846 
L 439.023462 194.14622 
L 439.390381 211.293407 
L 439.573841 253.937827 
L 440.30768 253.388073 
L 440.49114 241.555004 
L 440.6746 240.673663 
L 440.85806 242.657023 
L 441.408439 239.269411 
L 441.591899 254.033742 
L 441.775358 252.735826 
L 441.958818 263.103676 
L 442.142278 260.01418 
L 442.692657 263.021308 
L 443.059577 267.478557 
L 443.243037 267.406926 
L 443.426497 269.10709 
L 443.976876 265.841713 
L 444.160336 297.0198 
L 444.343796 300.187171 
L 444.527255 295.823074 
L 444.710715 295.524866 
L 445.261094 295.202363 
L 445.444554 296.427995 
L 445.628014 287.664682 
L 445.994934 300.027648 
L 446.545313 300.280374 
L 446.728773 329.433002 
L 446.912233 327.713548 
L 447.279152 328.404294 
L 447.829531 334.847852 
L 448.012991 334.177627 
L 448.196451 361.175732 
L 448.379911 363.070917 
L 448.563371 357.644261 
L 449.11375 361.578035 
L 449.29721 358.157994 
L 449.48067 360.516847 
L 449.847589 369.927557 
L 450.397969 368.627219 
L 450.764888 372.321021 
L 450.948348 379.342695 
L 451.131808 375.664639 
L 451.682187 375.676118 
L 451.865647 377.107769 
L 452.049107 377.424983 
L 452.416026 385.887023 
L 452.966406 382.823942 
L 453.149865 385.031861 
L 453.333325 396.751658 
L 453.700245 396.465559 
L 454.250624 397.302247 
L 454.434084 395.651547 
L 454.617544 402.379226 
L 454.801003 402.287378 
L 454.984463 397.530643 
L 455.534843 399.868862 
L 455.718302 398.991231 
L 455.901762 398.727175 
L 456.085222 399.446767 
L 456.268682 401.824749 
L 456.819061 398.78955 
L 457.002521 408.363494 
L 457.185981 407.476541 
L 457.36944 408.007971 
L 457.5529 397.99213 
L 458.10328 389.293572 
L 458.286739 392.242452 
L 458.470199 392.301508 
L 458.837119 389.40541 
L 459.387498 401.253904 
L 459.570958 401.28391 
L 459.754418 397.087396 
L 459.937877 400.207739 
L 460.121337 400.228336 
L 460.855176 405.246278 
L 461.038636 405.159186 
L 461.405556 402.287431 
L 461.955935 394.63326 
L 462.139395 396.082256 
L 462.322855 396.070234 
L 462.506314 387.361273 
L 462.689774 384.99681 
L 463.240154 376.428337 
L 463.423613 379.220995 
L 463.607073 379.459092 
L 463.790533 370.080208 
L 464.524372 371.176534 
L 465.074752 373.476824 
L 465.258211 368.075027 
L 465.808591 379.558069 
L 465.99205 386.551236 
L 466.17551 384.442354 
L 466.35897 375.816247 
L 466.54243 374.150821 
L 467.092809 371.366315 
L 467.459729 371.61468 
L 467.643189 375.352217 
L 467.826648 375.515272 
L 468.377028 372.752769 
L 468.560487 370.868829 
L 468.743947 367.526883 
L 468.927407 367.058024 
L 469.110867 367.631288 
L 469.661246 359.207506 
L 470.028166 365.192014 
L 470.211626 364.014873 
L 470.395085 376.574614 
L 470.945465 376.110573 
L 471.128925 373.553203 
L 471.312384 377.083206 
L 471.495844 370.998209 
L 471.679304 376.932383 
L 471.862764 376.875815 
L 472.413143 377.081451 
L 472.596603 376.27602 
L 472.780063 366.284476 
L 472.963522 369.3648 
L 473.697362 368.985181 
L 473.880821 364.755663 
L 474.064281 377.291375 
L 474.247741 378.081351 
L 474.98158 382.511301 
L 475.16504 379.930557 
L 475.3485 379.93963 
L 475.531959 379.684244 
L 476.082339 380.082869 
L 476.632718 393.210544 
L 476.816178 394.645508 
L 477.366557 396.841248 
L 477.733477 412.047964 
L 477.916937 412.101142 
L 478.100396 413.44329 
L 478.650776 396.19386 
L 478.834236 401.489444 
L 479.017695 414.062235 
L 479.201155 412.059548 
L 479.934994 415.169995 
L 480.118454 414.038834 
L 480.301914 413.908645 
L 481.219213 430.309144 
L 481.402673 429.066636 
L 481.586132 430.262911 
L 481.953052 441.384772 
L 482.503431 442.05818 
L 482.686891 441.285164 
L 482.870351 441.259909 
L 483.053811 443.928666 
L 483.23727 442.332124 
L 483.78765 443.205842 
L 483.97111 439.556166 
L 484.338029 439.448025 
L 484.521489 427.249767 
L 485.071868 427.310799 
L 485.438788 418.145903 
L 485.622248 418.087744 
L 485.805708 417.58381 
L 486.356087 362.195841 
L 486.539547 355.309397 
L 486.723006 369.468062 
L 486.906466 368.58434 
L 487.089926 368.581418 
L 487.640305 369.459114 
L 487.823765 370.126929 
L 488.007225 369.597522 
L 488.374145 369.651493 
L 488.924524 364.458779 
L 489.107984 363.793713 
L 489.291443 363.801202 
L 489.474903 362.490879 
L 489.658363 358.183105 
L 490.208742 355.441945 
L 490.392202 355.322523 
L 490.575662 347.829462 
L 490.759122 347.878597 
L 490.942582 331.719468 
L 491.492961 331.731018 
L 491.676421 333.489728 
L 492.2268 328.511583 
L 492.777179 336.082362 
L 492.960639 335.273887 
L 493.144099 342.721114 
L 493.511019 340.738977 
L 494.061398 339.514887 
L 494.244858 381.98926 
L 494.428318 389.280372 
L 494.611777 390.136893 
L 494.795237 391.973505 
L 495.345616 390.961013 
L 495.529076 388.937588 
L 495.712536 384.32732 
L 495.895996 384.234165 
L 496.079456 383.129974 
L 496.813295 381.472157 
L 496.996755 390.42262 
L 497.180214 387.168447 
L 497.914053 379.255772 
L 498.097513 379.427417 
L 498.280973 379.133397 
L 498.464433 380.527975 
L 498.647893 380.062905 
L 499.198272 376.521091 
L 499.381732 366.862156 
L 499.748651 380.128305 
L 499.932111 382.394433 
L 500.482491 379.478312 
L 500.66595 387.342933 
L 501.03287 382.876373 
L 501.21633 384.105989 
L 501.766709 380.9069 
L 501.950169 381.622731 
L 502.133629 373.559511 
L 502.317088 374.385737 
L 502.500548 369.764928 
L 503.050928 369.895812 
L 503.234387 371.349958 
L 503.417847 369.822712 
L 503.601307 370.523511 
L 503.784767 372.241989 
L 504.335146 374.204329 
L 504.518606 378.767088 
L 504.702066 378.095488 
L 505.068985 378.395291 
L 505.619365 368.169293 
L 505.802824 368.980502 
L 505.986284 370.519244 
L 506.169744 379.082316 
L 506.353204 369.290422 
L 506.903583 370.094853 
L 507.087043 369.856156 
L 507.270503 370.984381 
L 507.453962 394.16271 
L 507.637422 400.951653 
L 508.187802 400.922173 
L 508.371261 400.755061 
L 508.554721 407.942046 
L 508.738181 408.382852 
L 508.921641 409.370007 
L 509.65548 409.834413 
L 509.83894 410.073442 
L 510.022399 417.545699 
L 510.205859 417.424509 
L 510.939698 427.79245 
L 511.306618 427.557542 
L 511.490078 427.444114 
L 512.040457 426.869194 
L 512.223917 426.861303 
L 512.407377 427.461017 
L 512.590836 429.671797 
L 512.774296 429.379041 
L 513.324676 446.899576 
L 513.508135 447.214368 
L 513.691595 447.256649 
L 513.875055 448.94789 
L 514.058515 471.316117 
L 514.792354 470.198686 
L 514.975814 469.839204 
L 515.159274 468.28264 
L 515.342733 467.703084 
L 515.893113 469.686968 
L 516.076572 466.944961 
L 516.260032 466.949805 
L 516.443492 467.213417 
L 516.626952 468.754519 
L 517.177331 462.855759 
L 517.360791 458.826485 
L 517.727711 458.784218 
L 517.91117 458.533796 
L 518.46155 458.531401 
L 518.645009 458.356468 
L 519.011929 459.037551 
L 519.195389 460.932078 
L 519.745768 460.764507 
L 519.929228 458.834432 
L 520.112688 451.475999 
L 520.296148 451.393929 
L 520.479607 451.90461 
L 521.029987 454.645512 
L 521.213447 454.651377 
L 521.580366 456.413557 
L 521.763826 456.228114 
L 522.314205 456.129083 
L 522.497665 457.049489 
L 522.681125 457.353942 
L 523.048044 454.714114 
L 523.598424 457.377676 
L 523.781884 453.807825 
L 523.965343 453.705322 
L 524.148803 456.361446 
L 524.332263 456.360474 
L 524.882642 451.055902 
L 525.066102 451.367896 
L 525.433022 463.688469 
L 526.166861 464.484129 
L 526.53378 464.22861 
L 526.71724 465.485744 
L 527.451079 464.607808 
L 527.634539 464.948912 
L 527.817999 464.640584 
L 528.001459 460.456989 
L 528.184918 468.159177 
L 528.735298 462.673566 
L 528.918758 462.718542 
L 529.102217 461.816615 
L 529.285677 454.803391 
L 529.469137 455.78859 
L 530.019516 455.078275 
L 530.569896 453.412205 
L 530.753355 454.277782 
L 531.303735 457.634896 
L 531.487195 457.580121 
L 531.670654 460.003564 
L 531.854114 460.167529 
L 532.037574 460.155387 
L 532.587953 458.111519 
L 532.771413 463.134497 
L 532.954873 463.11876 
L 533.138333 458.994546 
L 533.872172 458.70214 
L 534.055632 458.413914 
L 534.239091 459.066292 
L 534.422551 458.081384 
L 534.606011 458.209267 
L 535.15639 453.764914 
L 535.33985 455.075519 
L 535.52331 452.651029 
L 535.70677 435.145833 
L 535.89023 438.507136 
L 536.440609 435.771791 
L 536.624069 440.580559 
L 536.807528 437.489927 
L 537.724827 443.706513 
L 537.908287 443.5706 
L 538.091747 443.11279 
L 538.275207 441.623478 
L 538.458667 441.923693 
L 539.009046 443.053596 
L 539.192506 441.918984 
L 539.559425 442.296148 
L 540.293264 436.420249 
L 540.476724 436.722483 
L 540.660184 436.444526 
L 540.843644 438.930804 
L 541.027104 425.612924 
L 541.577483 425.903411 
L 541.760943 430.610681 
L 541.944403 426.782159 
L 542.311322 425.972478 
L 542.861701 427.919773 
L 543.045161 420.529146 
L 543.228621 422.178217 
L 543.595541 422.510169 
L 544.14592 433.161824 
L 544.32938 433.896335 
L 544.51284 438.206564 
L 544.696299 438.653349 
L 544.879759 433.831431 
L 545.430138 424.837821 
L 545.613598 423.90412 
L 545.797058 421.122911 
L 545.980518 420.698117 
L 546.163978 421.070316 
L 546.714357 420.843498 
L 546.897817 420.419228 
L 547.081277 420.965964 
L 547.264736 421.038959 
L 547.448196 418.878985 
L 548.182035 414.166271 
L 548.365495 409.061798 
L 548.548955 408.797441 
L 548.732415 422.21734 
L 549.282794 420.184806 
L 549.466254 421.292351 
L 549.649714 423.916908 
L 549.833173 423.140452 
L 550.016633 424.108979 
L 550.567013 426.143854 
L 550.933932 435.1651 
L 551.117392 435.225466 
L 551.300852 434.464759 
L 551.851231 431.358645 
L 552.034691 426.753073 
L 552.58507 426.253799 
L 553.13545 434.35812 
L 553.318909 449.757772 
L 553.502369 445.586895 
L 553.869289 443.415121 
L 554.419668 438.303211 
L 554.603128 438.358904 
L 554.786588 436.477499 
L 554.970047 436.543122 
L 555.153507 433.509316 
L 555.887346 409.025034 
L 556.070806 409.529258 
L 556.254266 413.261281 
L 556.437726 413.537832 
L 556.988105 413.91714 
L 557.171565 416.019726 
L 557.355025 416.109446 
L 557.538484 388.2234 
L 557.721944 377.718977 
L 558.272324 377.56909 
L 558.639243 374.245635 
L 558.822703 373.604583 
L 559.006163 372.466858 
L 559.556542 360.408423 
L 559.740002 359.309071 
L 559.923462 356.837794 
L 560.290381 357.701504 
L 560.840761 353.767735 
L 561.02422 354.171717 
L 561.20768 352.384071 
L 561.39114 353.106195 
L 562.124979 352.800797 
L 562.308439 352.021846 
L 562.491899 354.290653 
L 562.675358 352.736039 
L 562.858818 354.826397 
L 563.409198 355.137649 
L 563.592657 355.578713 
L 563.959577 374.581359 
L 564.693416 360.600521 
L 565.060336 357.972347 
L 565.243796 358.447767 
L 565.427255 358.293593 
L 566.161094 392.964806 
L 566.344554 392.778163 
L 567.445313 394.443969 
L 567.628773 396.930445 
L 567.812233 417.317919 
L 567.995692 411.632788 
L 568.546072 414.575314 
L 568.729531 417.197485 
L 568.912991 415.714524 
L 569.096451 419.258634 
L 569.279911 419.058726 
L 569.83029 423.280712 
L 570.19721 420.773316 
L 570.38067 421.937368 
L 570.564129 419.942717 
L 571.114509 419.509939 
L 571.297969 421.610317 
L 571.481428 421.177499 
L 571.664888 411.553564 
L 571.848348 410.93719 
L 572.398727 410.680009 
L 572.582187 405.651076 
L 572.765647 410.950239 
L 572.949107 426.332453 
L 573.132566 415.939386 
L 573.682946 416.572032 
L 573.866406 416.398643 
L 574.049865 416.883441 
L 574.416785 408.378746 
L 574.967164 408.161024 
L 575.150624 410.776545 
L 575.334084 411.505205 
L 575.517544 411.504314 
L 576.251383 416.934154 
L 576.434843 416.286671 
L 576.801762 417.954739 
L 576.985222 416.876596 
L 577.535601 408.906693 
L 577.719061 409.113459 
L 577.902521 414.085617 
L 578.085981 410.320695 
L 578.26944 412.528363 
L 578.81982 413.091809 
L 579.00328 410.829065 
L 579.186739 410.593662 
L 579.370199 420.318656 
L 579.553659 419.654868 
L 580.104038 421.446854 
L 580.287498 426.044786 
L 580.470958 424.971717 
L 580.837877 441.775422 
L 581.388257 439.794741 
L 581.571717 439.681761 
L 581.755176 436.818468 
L 582.122096 441.51089 
L 582.672475 440.693183 
L 582.855935 440.684926 
L 583.222855 439.825397 
L 583.406314 440.791089 
L 583.956694 435.949616 
L 584.140154 435.841281 
L 584.507073 435.207631 
L 584.690533 437.401885 
L 585.240912 452.798349 
L 585.607832 450.642188 
L 585.791292 458.251004 
L 585.974752 458.221359 
L 586.525131 458.291963 
L 586.708591 460.081559 
L 586.89205 463.344987 
L 587.07551 461.69477 
L 587.25897 463.579342 
L 587.809349 463.305696 
L 588.176269 464.608817 
L 588.359729 467.013873 
L 588.543189 466.999909 
L 589.277028 467.058537 
L 589.460487 467.877464 
L 589.643947 469.309195 
L 589.827407 462.884823 
L 590.561246 457.793473 
L 590.744706 457.989242 
L 591.111626 462.482057 
L 591.662005 456.097728 
L 591.845465 444.224741 
L 592.395844 446.738649 
L 592.946223 446.366691 
L 593.129683 445.872859 
L 593.313143 446.977128 
L 593.496603 443.512669 
L 593.680063 445.382574 
L 594.230442 446.019076 
L 594.413902 448.093928 
L 594.597362 446.76233 
L 594.780821 446.768744 
L 594.964281 444.446393 
L 595.51466 444.592359 
L 595.69812 444.081212 
L 595.88158 442.937485 
L 596.06504 439.922249 
L 596.2485 430.202066 
L 596.798879 426.18752 
L 596.982339 425.966577 
L 597.165799 423.943696 
L 597.349258 424.451044 
L 597.532718 416.938623 
L 598.083097 417.356942 
L 598.266557 412.378162 
L 598.816937 413.794439 
L 599.367316 413.798313 
L 599.550776 412.850254 
L 599.734236 415.281319 
L 599.917695 424.987531 
L 600.101155 421.830783 
L 600.651535 419.411975 
L 600.834994 419.369265 
L 601.018454 419.539967 
L 601.201914 419.33308 
L 601.385374 420.0755 
L 602.119213 418.589128 
L 602.486132 418.932848 
L 602.669592 420.087852 
L 603.219972 419.684094 
L 603.403431 420.92014 
L 603.586891 420.841166 
L 603.770351 422.707913 
L 604.50419 424.362387 
L 604.87111 433.388499 
L 605.054569 441.076296 
L 605.238029 440.97216 
L 605.788409 445.450004 
L 605.971868 445.939226 
L 606.522248 468.653868 
L 607.072627 468.295809 
L 607.439547 469.033243 
L 607.623006 471.76478 
L 607.806466 472.149168 
L 608.356846 477.137144 
L 608.723765 485.125827 
L 608.907225 486.391387 
L 609.090685 485.561956 
L 609.641064 487.426292 
L 610.007984 495.369797 
L 610.191443 493.613381 
L 610.374903 493.744745 
L 611.108742 497.038507 
L 611.292202 497.243037 
L 611.475662 491.933354 
L 611.659122 490.260142 
L 612.209501 490.21894 
L 612.392961 492.141295 
L 612.576421 483.87168 
L 612.759881 483.720965 
L 613.49372 469.757915 
L 613.860639 470.316716 
L 614.227559 467.974947 
L 614.777938 467.751238 
L 614.961398 467.467788 
L 615.144858 465.857492 
L 615.328318 465.877766 
L 615.511777 464.403309 
L 616.062157 462.816146 
L 616.245616 460.157221 
L 616.612536 459.886104 
L 616.795996 459.10618 
L 617.529835 459.545445 
L 617.713295 459.004083 
L 617.896755 461.338543 
L 618.630594 459.990834 
L 618.814053 460.586714 
L 618.997513 451.925346 
L 619.364433 441.750809 
L 619.914812 441.82082 
L 620.098272 441.394136 
L 620.281732 441.381939 
L 620.465192 444.005963 
L 620.648651 438.233976 
L 621.199031 441.856776 
L 621.382491 449.243216 
L 621.56595 449.745465 
L 621.74941 449.719451 
L 621.93287 451.440412 
L 622.483249 451.363091 
L 622.666709 450.461506 
L 622.850169 450.894699 
L 623.033629 452.208156 
L 623.217088 451.200882 
L 623.767468 451.044745 
L 623.950928 452.688099 
L 624.134387 451.3845 
L 624.317847 452.019871 
L 624.501307 452.063702 
L 625.051686 451.158498 
L 625.235146 451.306399 
L 625.418606 449.376593 
L 625.602066 449.466818 
L 625.785525 442.605266 
L 626.335905 442.800684 
L 626.702824 443.170153 
L 626.886284 442.596366 
L 627.069744 446.376122 
L 627.620123 452.713619 
L 628.170503 452.425166 
L 628.353962 450.368541 
L 628.904342 457.037713 
L 629.087802 453.67398 
L 629.271261 453.69651 
L 629.454721 452.79289 
L 629.638181 452.622792 
L 630.37202 452.591546 
L 630.55548 452.656841 
L 630.922399 447.85038 
L 631.472779 447.428287 
L 631.839698 448.992333 
L 632.023158 450.572667 
L 632.756997 450.186775 
L 632.940457 452.325471 
L 633.123917 452.176324 
L 633.307377 450.235298 
L 634.224676 451.239265 
L 634.591595 453.38658 
L 634.775055 459.294144 
L 635.325434 457.287368 
L 635.508894 457.601605 
L 635.692354 458.725719 
L 635.875814 465.493516 
L 636.059274 477.397491 
L 636.793113 478.414373 
L 636.976572 481.403572 
L 637.160032 480.894572 
L 637.343492 468.407138 
L 637.893871 467.333341 
L 638.077331 468.913954 
L 638.260791 468.911403 
L 638.627711 473.031152 
L 639.17809 473.034493 
L 639.545009 471.319311 
L 639.728469 475.494771 
L 639.911929 475.501926 
L 640.645768 475.24242 
L 640.829228 474.839664 
L 641.012688 477.207305 
L 641.196148 476.663862 
L 641.746527 479.194811 
L 641.929987 479.209639 
L 642.296906 476.36463 
L 642.480366 476.319398 
L 643.030745 476.729063 
L 643.214205 479.233075 
L 643.397665 479.198642 
L 643.581125 478.160293 
L 644.314964 478.765479 
L 644.681884 478.62762 
L 644.865343 476.806335 
L 645.048803 486.92336 
L 645.599182 490.46108 
L 645.782642 490.417322 
L 645.966102 490.52812 
L 646.149562 490.467001 
L 646.333022 491.74843 
L 646.883401 492.941867 
L 647.066861 489.97632 
L 647.250321 490.140743 
L 647.61724 488.12266 
L 648.167619 486.803656 
L 648.351079 486.89513 
L 648.534539 486.447591 
L 648.717999 487.565769 
L 648.901459 485.013439 
L 649.451838 486.043631 
L 649.635298 486.749264 
L 649.818758 486.741416 
L 650.185677 489.600552 
L 650.736057 485.437197 
L 650.919516 485.518186 
L 651.102976 485.007362 
L 651.286436 482.682444 
L 651.469896 483.740505 
L 652.387195 482.991669 
L 652.570654 481.1376 
L 652.754114 484.663154 
L 653.304494 486.90819 
L 653.487953 488.470461 
L 653.854873 480.649219 
L 654.038333 479.723644 
L 654.588712 479.87796 
L 654.772172 479.810221 
L 654.955632 481.956582 
L 655.139091 480.96037 
L 655.872931 483.820827 
L 656.42331 484.199703 
L 656.60677 484.833295 
L 657.157149 486.028271 
L 657.340609 486.037821 
L 657.524069 483.04667 
L 657.707528 483.154642 
L 657.890988 482.410258 
L 658.441368 481.849215 
L 658.624827 486.816989 
L 658.808287 486.170286 
L 659.175207 487.499141 
L 659.725586 487.058786 
L 659.909046 487.18559 
L 660.092506 487.121675 
L 660.275965 484.685745 
L 660.459425 484.998487 
L 661.009805 483.432956 
L 661.193264 483.768835 
L 661.376724 482.088446 
L 661.743644 489.46571 
L 662.294023 489.709162 
L 662.660943 485.155291 
L 662.844403 478.90654 
L 663.027862 478.965227 
L 663.578242 479.940344 
L 663.761701 481.072633 
L 663.945161 481.21811 
L 664.312081 479.768961 
L 665.04592 479.34454 
L 665.22938 477.442436 
L 665.41284 476.799671 
L 665.596299 479.108582 
L 666.146679 476.82808 
L 666.330138 475.074344 
L 666.513598 475.527113 
L 666.697058 475.463563 
L 666.880518 475.181186 
L 667.430897 475.774708 
L 667.614357 477.516544 
L 667.797817 475.065453 
L 667.981277 474.942554 
L 668.164736 475.041807 
L 668.715116 474.69357 
L 669.265495 475.405769 
L 669.448955 471.532253 
L 670.182794 472.764525 
L 670.366254 473.841099 
L 670.549714 472.155842 
L 670.733173 473.013125 
L 671.283553 476.583325 
L 671.467013 476.349899 
L 671.650472 476.683148 
L 671.833932 476.76802 
L 672.017392 476.480594 
L 672.384311 476.836979 
L 672.567771 477.697559 
L 672.934691 476.872447 
L 673.118151 478.878178 
L 673.30161 476.092519 
L 673.85199 476.387553 
L 674.218909 480.604931 
L 674.402369 480.706764 
L 674.585829 480.28481 
L 675.319668 481.026564 
L 675.503128 475.893726 
L 675.686588 476.126497 
L 675.870047 478.136109 
L 676.420427 456.980872 
L 676.603887 455.500038 
L 677.154266 464.124201 
L 677.704645 465.197793 
L 677.888105 464.288382 
L 678.071565 465.100688 
L 678.255025 464.15245 
L 678.438484 463.978401 
L 678.988864 462.716032 
L 679.172324 462.774218 
L 679.355783 460.47236 
L 679.539243 460.36362 
L 679.722703 458.77743 
L 680.456542 458.71231 
L 680.640002 457.550763 
L 680.823462 458.019478 
L 681.006921 457.342031 
L 681.557301 457.30536 
L 681.740761 458.795191 
L 681.92422 458.655143 
L 682.10768 457.871796 
L 682.29114 458.840748 
L 683.024979 453.211229 
L 683.208439 453.211125 
L 683.391899 455.84271 
L 683.575358 455.922671 
L 684.125738 455.569038 
L 684.309198 475.849108 
L 684.492657 447.698272 
L 684.676117 447.16704 
L 684.859577 447.175053 
L 685.043037 447.470596 
L 685.593416 441.394425 
L 685.776876 441.4017 
L 685.960336 441.282722 
L 686.694175 441.569159 
L 686.877635 442.971033 
L 687.061094 440.097778 
L 687.244554 439.751146 
L 687.428014 440.363388 
L 688.345313 442.185505 
L 688.528773 441.29049 
L 688.712233 438.638375 
L 689.262612 436.158653 
L 689.446072 433.101561 
L 689.812991 431.87288 
L 689.996451 433.146201 
L 690.54683 432.919338 
L 690.91375 433.575128 
L 691.831049 433.842323 
L 692.014509 435.101833 
L 692.197969 433.324689 
L 692.381428 457.00825 
L 692.564888 449.055566 
L 693.115267 449.011286 
L 693.298727 449.596087 
L 693.482187 457.750621 
L 693.665647 457.398134 
L 694.399486 455.672791 
L 694.582946 457.519629 
L 694.766406 456.744143 
L 694.949865 458.981876 
L 695.133325 458.854976 
L 695.683704 459.260981 
L 695.867164 459.138484 
L 696.050624 459.255739 
L 696.234084 458.442866 
L 696.417544 463.982611 
L 697.151383 466.022903 
L 697.518302 473.804005 
L 698.252142 473.580848 
L 698.435601 474.150123 
L 698.619061 474.278887 
L 698.802521 473.07287 
L 698.985981 474.186443 
L 699.90328 474.444981 
L 700.270199 473.274374 
L 700.820579 467.624979 
L 701.004038 470.509332 
L 701.370958 468.907632 
L 701.554418 478.945256 
L 702.104797 478.10986 
L 702.288257 478.213979 
L 702.471717 479.125389 
L 702.655176 478.547982 
L 702.838636 480.295468 
L 703.389016 468.662362 
L 703.572475 469.739486 
L 703.939395 469.883365 
L 704.122855 469.359744 
L 704.673234 469.345102 
L 704.856694 466.403376 
L 705.040154 465.747243 
L 705.223613 464.139774 
L 705.407073 464.263737 
L 705.957453 464.238316 
L 706.140912 464.376314 
L 706.324372 464.825264 
L 706.507832 465.743462 
L 706.874752 465.64918 
L 707.425131 466.849326 
L 707.608591 467.854993 
L 707.79205 460.56176 
L 707.97551 460.4397 
L 708.52589 460.24547 
L 709.259729 464.844099 
L 709.810108 443.431514 
L 709.993568 380.095535 
L 710.177028 364.84497 
L 710.360487 364.829862 
L 710.543947 364.4072 
L 711.094327 364.763973 
L 711.277786 369.09494 
L 711.461246 369.01978 
L 711.644706 369.115496 
L 711.828166 369.436476 
L 712.562005 369.020267 
L 712.745465 368.331158 
L 712.928925 368.613365 
L 713.112384 369.84776 
L 713.662764 369.957552 
L 713.846223 368.579633 
L 714.029683 368.573691 
L 714.213143 368.788438 
L 714.396603 367.7475 
L 714.946982 367.735379 
L 715.313902 365.684319 
L 715.497362 366.20989 
L 715.680821 367.43225 
L 716.231201 367.086088 
L 716.41466 367.197021 
L 716.59812 366.731866 
L 716.78158 368.474278 
L 716.96504 368.438201 
L 717.515419 368.531328 
L 717.698879 379.982818 
L 718.249258 474.766741 
L 718.799638 474.856617 
L 718.983097 473.850493 
L 719.350017 470.424775 
L 719.533477 469.645415 
L 720.267316 469.761783 
L 720.450776 470.919513 
L 720.634236 477.712386 
L 720.817695 478.564732 
L 721.368075 467.569854 
L 721.551535 467.05143 
L 721.734994 472.148844 
L 721.918454 472.896372 
L 722.101914 471.633304 
L 722.652293 472.544216 
L 722.835753 469.853762 
L 723.386132 471.764585 
L 723.936512 471.806722 
L 724.119972 470.786925 
L 724.303431 470.967655 
L 724.486891 470.327176 
L 724.670351 471.076772 
L 725.40419 470.535856 
L 725.58765 470.781315 
L 725.954569 470.838135 
L 726.504949 471.434097 
L 726.688409 470.919103 
L 727.055328 473.506189 
L 727.238788 469.107847 
L 727.789167 468.182081 
L 727.972627 468.098708 
L 728.156087 467.730401 
L 728.339547 463.837149 
L 728.523006 463.68772 
L 729.073386 463.804922 
L 729.256846 475.768048 
L 729.440305 475.579986 
L 729.623765 475.945922 
L 729.807225 473.074672 
L 730.357604 473.182164 
L 730.541064 472.739115 
L 730.724524 478.750885 
L 731.091443 479.614337 
L 731.641823 473.571319 
L 731.825283 474.425453 
L 732.192202 466.098023 
L 732.375662 465.495592 
L 733.109501 457.850296 
L 733.292961 457.959043 
L 733.659881 455.682754 
L 734.21026 453.577043 
L 734.39372 453.577243 
L 734.577179 453.818578 
L 734.760639 452.828075 
L 734.944099 449.391833 
L 735.494478 453.99956 
L 735.677938 452.575232 
L 735.861398 452.699256 
L 736.044858 452.671746 
L 736.228318 452.982806 
L 736.778697 451.782534 
L 736.962157 445.950888 
L 737.145616 444.662547 
L 737.329076 445.890109 
L 737.512536 446.124784 
L 738.062915 448.603519 
L 738.246375 443.460001 
L 738.429835 443.356733 
L 738.613295 442.968624 
L 738.796755 443.163014 
L 739.347134 443.363285 
L 739.530594 444.108875 
L 739.714053 439.194883 
L 739.897513 443.713617 
L 740.631352 444.011577 
L 740.814812 448.445842 
L 741.181732 449.766154 
L 741.365192 446.525732 
L 741.915571 442.156172 
L 742.099031 442.894534 
L 742.282491 444.791313 
L 742.46595 444.016275 
L 742.64941 443.979601 
L 743.199789 445.393883 
L 743.383249 446.96398 
L 743.566709 445.688612 
L 743.750169 448.33853 
L 743.933629 448.237869 
L 744.484008 448.349818 
L 744.667468 451.945699 
L 744.850928 452.425062 
L 745.034387 458.021442 
L 745.217847 459.256783 
L 745.768226 460.174565 
L 746.135146 455.207538 
L 746.318606 459.08163 
L 746.502066 455.625354 
L 747.052445 454.317947 
L 747.235905 454.941231 
L 747.602824 455.550357 
L 747.786284 458.33419 
L 748.336664 464.881678 
L 748.703583 464.783378 
L 749.620882 458.173477 
L 749.804342 465.406346 
L 749.987802 464.821416 
L 750.171261 464.635155 
L 750.354721 462.050785 
L 750.905101 460.194364 
L 751.08856 455.988278 
L 751.27202 458.751527 
L 751.45548 458.763698 
L 751.63894 457.809321 
L 752.372779 449.62657 
L 752.923158 449.601876 
L 753.473538 450.979759 
L 753.656997 445.560588 
L 753.840457 446.231102 
L 754.023917 447.569988 
L 754.207377 448.064191 
L 754.390836 451.16559 
L 754.757756 452.934172 
L 754.941216 447.104668 
L 755.124676 446.860841 
L 755.308135 446.984539 
L 755.491595 447.350554 
L 756.041975 447.246422 
L 756.225434 445.964207 
L 756.592354 449.395288 
L 756.775814 455.027049 
L 757.326193 455.383263 
L 757.509653 455.951372 
L 757.693113 455.061526 
L 758.060032 461.079201 
L 758.610412 463.496176 
L 758.793871 463.48806 
L 759.160791 465.404288 
L 759.344251 468.127544 
L 759.89463 473.281584 
L 760.07809 477.79048 
L 760.26155 477.447962 
L 760.445009 477.430516 
L 760.628469 477.719879 
L 761.178849 477.843447 
L 761.362308 483.003704 
L 761.729228 483.828055 
L 762.463067 483.662969 
L 762.646527 474.818802 
L 762.829987 474.370164 
L 763.013447 480.940807 
L 763.196906 478.817202 
L 763.747286 469.741943 
L 763.930745 470.12826 
L 764.114205 469.120184 
L 764.297665 471.449244 
L 764.481125 471.398105 
L 765.398424 466.569033 
L 765.581884 466.427897 
L 765.765343 466.675426 
L 766.315723 450.865231 
L 766.499182 449.037536 
L 766.682642 449.399392 
L 767.049562 447.586369 
L 768.150321 435.261943 
L 768.88416 433.776896 
L 769.067619 433.803892 
L 769.617999 430.35283 
L 770.168378 430.475938 
L 770.351838 431.89874 
L 770.535298 430.664339 
L 770.902217 430.70823 
L 771.452597 429.988616 
L 771.819516 430.298043 
L 772.002976 429.851176 
L 772.736815 421.11616 
L 772.920275 420.181209 
L 773.103735 420.99682 
L 773.287195 420.605316 
L 773.470654 420.616254 
L 774.021034 423.706833 
L 774.204494 422.652861 
L 774.571413 422.649054 
L 774.754873 436.238752 
L 775.488712 437.663174 
L 775.672172 439.457814 
L 775.855632 447.445888 
L 776.589471 455.774042 
L 776.772931 460.318049 
L 777.13985 461.290511 
L 777.32331 458.313572 
L 777.873689 459.984741 
L 778.057149 462.384786 
L 778.424069 461.927692 
L 778.607528 460.177381 
L 779.157908 459.639801 
L 779.341368 461.820293 
L 779.524827 462.280137 
L 779.708287 462.27832 
L 779.891747 464.24147 
L 780.442126 484.528711 
L 780.625586 485.306568 
L 780.809046 485.533114 
L 781.726345 484.967193 
L 781.909805 487.986489 
L 782.093264 485.933844 
L 782.276724 485.689349 
L 782.460184 486.733609 
L 783.010563 486.718561 
L 783.194023 486.840827 
L 783.377483 486.755341 
L 783.560943 486.066542 
L 783.744403 485.832786 
L 784.294782 485.945437 
L 784.478242 486.550685 
L 784.661701 486.46132 
L 784.845161 485.374852 
L 785.028621 488.113717 
L 785.579 485.133916 
L 785.76246 485.17763 
L 785.94592 484.013943 
L 786.12938 485.023287 
L 786.31284 485.26263 
L 786.863219 484.876612 
L 787.046679 485.206634 
L 787.230138 485.227284 
L 787.413598 485.455274 
L 787.597058 488.227575 
L 788.147437 488.475744 
L 788.330897 489.521377 
L 788.514357 489.775225 
L 788.697817 492.967007 
L 789.615116 488.101627 
L 789.798575 488.917504 
L 790.715874 487.770339 
L 790.899334 487.554648 
L 791.082794 488.390415 
L 791.266254 488.298977 
L 791.449714 486.157599 
L 792.000093 486.298281 
L 792.183553 483.28414 
L 792.550472 481.819983 
L 792.733932 482.323805 
L 793.284311 481.12963 
L 793.467771 482.061822 
L 793.651231 484.332333 
L 793.834691 484.332557 
L 794.018151 486.464294 
L 794.56853 486.241207 
L 794.75199 487.672091 
L 795.302369 487.26744 
L 795.852748 487.328545 
L 796.036208 487.471722 
L 796.219668 486.445795 
L 796.403128 486.580746 
L 796.586588 485.99256 
L 797.136967 485.858542 
L 797.503887 488.515358 
L 797.687346 490.143036 
L 797.870806 487.531453 
L 798.421186 487.739817 
L 798.604645 488.880042 
L 798.788105 484.56888 
L 799.155025 484.271426 
L 799.705404 482.340888 
L 799.888864 485.242238 
L 800.072324 484.765011 
L 800.439243 492.548209 
L 801.173082 493.353827 
L 801.356542 494.83899 
L 801.540002 493.403562 
L 801.723462 493.262926 
L 802.82422 492.891828 
L 803.00768 491.235303 
L 803.55806 490.509127 
L 803.924979 490.502518 
L 804.108439 489.045998 
L 804.291899 488.716441 
L 805.025738 488.491419 
L 805.576117 487.795314 
L 806.309956 490.105117 
L 806.493416 494.650349 
L 806.860336 494.696737 
L 807.410715 497.371119 
L 807.594175 497.238414 
L 807.777635 498.592446 
L 807.961094 498.598125 
L 808.144554 496.563744 
L 808.694934 496.489895 
L 808.878393 497.530409 
L 809.061853 494.207272 
L 809.428773 494.906681 
L 809.979152 497.415013 
L 810.162612 495.959296 
L 810.346072 496.633074 
L 810.529531 496.582587 
L 810.712991 494.941142 
L 811.263371 493.676502 
L 811.44683 494.845278 
L 811.63029 494.164835 
L 811.81375 493.930967 
L 811.81375 493.930967 
" clip-path="url(#p32fbb23905)" style="fill: none; stroke: #1f77b4; stroke-width: 1.5; stroke-linecap: square"/>
   </g>
   <g id="patch_3">
    <path d="M 50.14375 521.278125 
L 50.14375 22.318125 
" style="fill: none; stroke: #000000; stroke-width: 0.8; stroke-linejoin: miter; stroke-linecap: square"/>
   </g>
   <g id="patch_4">
    <path d="M 848.08375 521.278125 
L 848.08375 22.318125 
" style="fill: none; stroke: #000000; stroke-width: 0.8; stroke-linejoin: miter; stroke-linecap: square"/>
   </g>
   <g id="patch_5">
    <path d="M 50.14375 521.278125 
L 848.08375 521.278125 
" style="fill: none; stroke: #000000; stroke-width: 0.8; stroke-linejoin: miter; stroke-linecap: square"/>
   </g>
   <g id="patch_6">
    <path d="M 50.14375 22.318125 
L 848.08375 22.318125 
" style="fill: none; stroke: #000000; stroke-width: 0.8; stroke-linejoin: miter; stroke-linecap: square"/>
   </g>
   <g id="text_15">
    <!-- 30-Day Rolling Volatility -->
    <g transform="translate(377.559063 16.318125) scale(0.12 -0.12)">
     <use xlink:href="#DejaVuSans-33"/>
     <use xlink:href="#DejaVuSans-30" transform="translate(63.623047 0)"/>
     <use xlink:href="#DejaVuSans-2d" transform="translate(127.246094 0)"/>
     <use xlink:href="#DejaVuSans-44" transform="translate(163.330078 0)"/>
     <use xlink:href="#DejaVuSans-61" transform="translate(240.332031 0)"/>
     <use xlink:href="#DejaVuSans-79" transform="translate(301.611328 0)"/>
     <use xlink:href="#DejaVuSans-20" transform="translate(360.791016 0)"/>
     <use xlink:href="#DejaVuSans-52" transform="translate(392.578125 0)"/>
     <use xlink:href="#DejaVuSans-6f" transform="translate(457.560547 0)"/>
     <use xlink:href="#DejaVuSans-6c" transform="translate(518.742188 0)"/>
     <use xlink:href="#DejaVuSans-6c" transform="translate(546.525391 0)"/>
     <use xlink:href="#DejaVuSans-69" transform="translate(574.308594 0)"/>
     <use xlink:href="#DejaVuSans-6e" transform="translate(602.091797 0)"/>
     <use xlink:href="#DejaVuSans-67" transform="translate(665.470703 0)"/>
     <use xlink:href="#DejaVuSans-20" transform="translate(728.947266 0)"/>
     <use xlink:href="#DejaVuSans-56" transform="translate(760.734375 0)"/>
     <use xlink:href="#DejaVuSans-6f" transform="translate(821.392578 0)"/>
     <use xlink:href="#DejaVuSans-6c" transform="translate(882.574219 0)"/>
     <use xlink:href="#DejaVuSans-61" transform="translate(910.357422 0)"/>
     <use xlink:href="#DejaVuSans-74" transform="translate(971.636719 0)"/>
     <use xlink:href="#DejaVuSans-69" transform="translate(1010.845703 0)"/>
     <use xlink:href="#DejaVuSans-6c" transform="translate(1038.628906 0)"/>
     <use xlink:href="#DejaVuSans-69" transform="translate(1066.412109 0)"/>
     <use xlink:href="#DejaVuSans-74" transform="translate(1094.195312 0)"/>
     <use xlink:href="#DejaVuSans-79" transform="translate(1133.404297 0)"/>
    </g>
   </g>
  </g>
 </g>
 <defs>
  <clipPath id="p32fbb23905">
   <rect x="50.14375" y="22.318125" width="797.94" height="498.96"/>
  </clipPath>
 </defs>
</svg>
