<?xml version="1.0" encoding="utf-8" standalone="no"?>
<!DOCTYPE svg PUBLIC "-//W3C//DTD SVG 1.1//EN"
  "http://www.w3.org/Graphics/SVG/1.1/DTD/svg11.dtd">
<svg xmlns:xlink="http://www.w3.org/1999/xlink" width="730.128125pt" height="337.074375pt" viewBox="0 0 730.128125 337.074375" xmlns="http://www.w3.org/2000/svg" version="1.1">
 <metadata>
  <rdf:RDF xmlns:dc="http://purl.org/dc/elements/1.1/" xmlns:cc="http://creativecommons.org/ns#" xmlns:rdf="http://www.w3.org/1999/02/22-rdf-syntax-ns#">
   <cc:Work>
    <dc:type rdf:resource="http://purl.org/dc/dcmitype/StillImage"/>
    <dc:date>2025-12-19T16:08:49.106746</dc:date>
    <dc:format>image/svg+xml</dc:format>
    <dc:creator>
     <cc:Agent>
      <dc:title>Matplotlib v3.10.0, https://matplotlib.org/</dc:title>
     </cc:Agent>
    </dc:creator>
   </cc:Work>
  </rdf:RDF>
 </metadata>
 <defs>
  <style type="text/css">*{stroke-linejoin: round; stroke-linecap: butt}</style>
 </defs>
 <g id="figure_1">
  <g id="patch_1">
   <path d="M 0 337.074375 
L 730.128125 337.074375 
L 730.128125 0 
L 0 0 
z
" style="fill: #ffffff"/>
  </g>
  <g id="axes_1">
   <g id="patch_2">
    <path d="M 53.328125 299.518125 
L 722.928125 299.518125 
L 722.928125 22.318125 
L 53.328125 22.318125 
z
" style="fill: #ffffff"/>
   </g>
   <g id="matplotlib.axis_1">
    <g id="xtick_1">
     <g id="line2d_1">
      <defs>
       <path id="m7ede08bc42" d="M 0 0 
L 0 3.5 
" style="stroke: #000000; stroke-width: 0.8"/>
      </defs>
      <g>
       <use xlink:href="#m7ede08bc42" x="139.352543" y="299.518125" style="stroke: #000000; stroke-width: 0.8"/>
      </g>
     </g>
     <g id="text_1">
      <!-- 2016 -->
      <g transform="translate(126.627543 314.116563) scale(0.1 -0.1)">
       <defs>
        <path id="DejaVuSans-32" d="M 1228 531 
L 3431 531 
L 3431 0 
L 469 0 
L 469 531 
Q 828 903 1448 1529 
Q 2069 2156 2228 2338 
Q 2531 2678 2651 2914 
Q 2772 3150 2772 3378 
Q 2772 3750 2511 3984 
Q 2250 4219 1831 4219 
Q 1534 4219 1204 4116 
Q 875 4013 500 3803 
L 500 4441 
Q 881 4594 1212 4672 
Q 1544 4750 1819 4750 
Q 2544 4750 2975 4387 
Q 3406 4025 3406 3419 
Q 3406 3131 3298 2873 
Q 3191 2616 2906 2266 
Q 2828 2175 2409 1742 
Q 1991 1309 1228 531 
z
" transform="scale(0.015625)"/>
        <path id="DejaVuSans-30" d="M 2034 4250 
Q 1547 4250 1301 3770 
Q 1056 3291 1056 2328 
Q 1056 1369 1301 889 
Q 1547 409 2034 409 
Q 2525 409 2770 889 
Q 3016 1369 3016 2328 
Q 3016 3291 2770 3770 
Q 2525 4250 2034 4250 
z
M 2034 4750 
Q 2819 4750 3233 4129 
Q 3647 3509 3647 2328 
Q 3647 1150 3233 529 
Q 2819 -91 2034 -91 
Q 1250 -91 836 529 
Q 422 1150 422 2328 
Q 422 3509 836 4129 
Q 1250 4750 2034 4750 
z
" transform="scale(0.015625)"/>
        <path id="DejaVuSans-31" d="M 794 531 
L 1825 531 
L 1825 4091 
L 703 3866 
L 703 4441 
L 1819 4666 
L 2450 4666 
L 2450 531 
L 3481 531 
L 3481 0 
L 794 0 
L 794 531 
z
" transform="scale(0.015625)"/>
        <path id="DejaVuSans-36" d="M 2113 2584 
Q 1688 2584 1439 2293 
Q 1191 2003 1191 1497 
Q 1191 994 1439 701 
Q 1688 409 2113 409 
Q 2538 409 2786 701 
Q 3034 994 3034 1497 
Q 3034 2003 2786 2293 
Q 2538 2584 2113 2584 
z
M 3366 4563 
L 3366 3988 
Q 3128 4100 2886 4159 
Q 2644 4219 2406 4219 
Q 1781 4219 1451 3797 
Q 1122 3375 1075 2522 
Q 1259 2794 1537 2939 
Q 1816 3084 2150 3084 
Q 2853 3084 3261 2657 
Q 3669 2231 3669 1497 
Q 3669 778 3244 343 
Q 2819 -91 2113 -91 
Q 1303 -91 875 529 
Q 447 1150 447 2328 
Q 447 3434 972 4092 
Q 1497 4750 2381 4750 
Q 2619 4750 2861 4703 
Q 3103 4656 3366 4563 
z
" transform="scale(0.015625)"/>
       </defs>
       <use xlink:href="#DejaVuSans-32"/>
       <use xlink:href="#DejaVuSans-30" transform="translate(63.623047 0)"/>
       <use xlink:href="#DejaVuSans-31" transform="translate(127.246094 0)"/>
       <use xlink:href="#DejaVuSans-36" transform="translate(190.869141 0)"/>
      </g>
     </g>
    </g>
    <g id="xtick_2">
     <g id="line2d_2">
      <g>
       <use xlink:href="#m7ede08bc42" x="250.680949" y="299.518125" style="stroke: #000000; stroke-width: 0.8"/>
      </g>
     </g>
     <g id="text_2">
      <!-- 2018 -->
      <g transform="translate(237.955949 314.116563) scale(0.1 -0.1)">
       <defs>
        <path id="DejaVuSans-38" d="M 2034 2216 
Q 1584 2216 1326 1975 
Q 1069 1734 1069 1313 
Q 1069 891 1326 650 
Q 1584 409 2034 409 
Q 2484 409 2743 651 
Q 3003 894 3003 1313 
Q 3003 1734 2745 1975 
Q 2488 2216 2034 2216 
z
M 1403 2484 
Q 997 2584 770 2862 
Q 544 3141 544 3541 
Q 544 4100 942 4425 
Q 1341 4750 2034 4750 
Q 2731 4750 3128 4425 
Q 3525 4100 3525 3541 
Q 3525 3141 3298 2862 
Q 3072 2584 2669 2484 
Q 3125 2378 3379 2068 
Q 3634 1759 3634 1313 
Q 3634 634 3220 271 
Q 2806 -91 2034 -91 
Q 1263 -91 848 271 
Q 434 634 434 1313 
Q 434 1759 690 2068 
Q 947 2378 1403 2484 
z
M 1172 3481 
Q 1172 3119 1398 2916 
Q 1625 2713 2034 2713 
Q 2441 2713 2670 2916 
Q 2900 3119 2900 3481 
Q 2900 3844 2670 4047 
Q 2441 4250 2034 4250 
Q 1625 4250 1398 4047 
Q 1172 3844 1172 3481 
z
" transform="scale(0.015625)"/>
       </defs>
       <use xlink:href="#DejaVuSans-32"/>
       <use xlink:href="#DejaVuSans-30" transform="translate(63.623047 0)"/>
       <use xlink:href="#DejaVuSans-31" transform="translate(127.246094 0)"/>
       <use xlink:href="#DejaVuSans-38" transform="translate(190.869141 0)"/>
      </g>
     </g>
    </g>
    <g id="xtick_3">
     <g id="line2d_3">
      <g>
       <use xlink:href="#m7ede08bc42" x="361.857058" y="299.518125" style="stroke: #000000; stroke-width: 0.8"/>
      </g>
     </g>
     <g id="text_3">
      <!-- 2020 -->
      <g transform="translate(349.132058 314.116563) scale(0.1 -0.1)">
       <use xlink:href="#DejaVuSans-32"/>
       <use xlink:href="#DejaVuSans-30" transform="translate(63.623047 0)"/>
       <use xlink:href="#DejaVuSans-32" transform="translate(127.246094 0)"/>
       <use xlink:href="#DejaVuSans-30" transform="translate(190.869141 0)"/>
      </g>
     </g>
    </g>
    <g id="xtick_4">
     <g id="line2d_4">
      <g>
       <use xlink:href="#m7ede08bc42" x="473.185463" y="299.518125" style="stroke: #000000; stroke-width: 0.8"/>
      </g>
     </g>
     <g id="text_4">
      <!-- 2022 -->
      <g transform="translate(460.460463 314.116563) scale(0.1 -0.1)">
       <use xlink:href="#DejaVuSans-32"/>
       <use xlink:href="#DejaVuSans-30" transform="translate(63.623047 0)"/>
       <use xlink:href="#DejaVuSans-32" transform="translate(127.246094 0)"/>
       <use xlink:href="#DejaVuSans-32" transform="translate(190.869141 0)"/>
      </g>
     </g>
    </g>
    <g id="xtick_5">
     <g id="line2d_5">
      <g>
       <use xlink:href="#m7ede08bc42" x="584.361573" y="299.518125" style="stroke: #000000; stroke-width: 0.8"/>
      </g>
     </g>
     <g id="text_5">
      <!-- 2024 -->
      <g transform="translate(571.636573 314.116563) scale(0.1 -0.1)">
       <defs>
        <path id="DejaVuSans-34" d="M 2419 4116 
L 825 1625 
L 2419 1625 
L 2419 4116 
z
M 2253 4666 
L 3047 4666 
L 3047 1625 
L 3713 1625 
L 3713 1100 
L 3047 1100 
L 3047 0 
L 2419 0 
L 2419 1100 
L 313 1100 
L 313 1709 
L 2253 4666 
z
" transform="scale(0.015625)"/>
       </defs>
       <use xlink:href="#DejaVuSans-32"/>
       <use xlink:href="#DejaVuSans-30" transform="translate(63.623047 0)"/>
       <use xlink:href="#DejaVuSans-32" transform="translate(127.246094 0)"/>
       <use xlink:href="#DejaVuSans-34" transform="translate(190.869141 0)"/>
      </g>
     </g>
    </g>
    <g id="xtick_6">
     <g id="line2d_6">
      <g>
       <use xlink:href="#m7ede08bc42" x="695.689978" y="299.518125" style="stroke: #000000; stroke-width: 0.8"/>
      </g>
     </g>
     <g id="text_6">
      <!-- 2026 -->
      <g transform="translate(682.964978 314.116563) scale(0.1 -0.1)">
       <use xlink:href="#DejaVuSans-32"/>
       <use xlink:href="#DejaVuSans-30" transform="translate(63.623047 0)"/>
       <use xlink:href="#DejaVuSans-32" transform="translate(127.246094 0)"/>
       <use xlink:href="#DejaVuSans-36" transform="translate(190.869141 0)"/>
      </g>
     </g>
    </g>
    <g id="text_7">
     <!-- Date -->
     <g transform="translate(376.177344 327.794688) scale(0.1 -0.1)">
      <defs>
       <path id="DejaVuSans-44" d="M 1259 4147 
L 1259 519 
L 2022 519 
Q 2988 519 3436 956 
Q 3884 1394 3884 2338 
Q 3884 3275 3436 3711 
Q 2988 4147 2022 4147 
L 1259 4147 
z
M 628 4666 
L 1925 4666 
Q 3281 4666 3915 4102 
Q 4550 3538 4550 2338 
Q 4550 1131 3912 565 
Q 3275 0 1925 0 
L 628 0 
L 628 4666 
z
" transform="scale(0.015625)"/>
       <path id="DejaVuSans-61" d="M 2194 1759 
Q 1497 1759 1228 1600 
Q 959 1441 959 1056 
Q 959 750 1161 570 
Q 1363 391 1709 391 
Q 2188 391 2477 730 
Q 2766 1069 2766 1631 
L 2766 1759 
L 2194 1759 
z
M 3341 1997 
L 3341 0 
L 2766 0 
L 2766 531 
Q 2569 213 2275 61 
Q 1981 -91 1556 -91 
Q 1019 -91 701 211 
Q 384 513 384 1019 
Q 384 1609 779 1909 
Q 1175 2209 1959 2209 
L 2766 2209 
L 2766 2266 
Q 2766 2663 2505 2880 
Q 2244 3097 1772 3097 
Q 1472 3097 1187 3025 
Q 903 2953 641 2809 
L 641 3341 
Q 956 3463 1253 3523 
Q 1550 3584 1831 3584 
Q 2591 3584 2966 3190 
Q 3341 2797 3341 1997 
z
" transform="scale(0.015625)"/>
       <path id="DejaVuSans-74" d="M 1172 4494 
L 1172 3500 
L 2356 3500 
L 2356 3053 
L 1172 3053 
L 1172 1153 
Q 1172 725 1289 603 
Q 1406 481 1766 481 
L 2356 481 
L 2356 0 
L 1766 0 
Q 1100 0 847 248 
Q 594 497 594 1153 
L 594 3053 
L 172 3053 
L 172 3500 
L 594 3500 
L 594 4494 
L 1172 4494 
z
" transform="scale(0.015625)"/>
       <path id="DejaVuSans-65" d="M 3597 1894 
L 3597 1613 
L 953 1613 
Q 991 1019 1311 708 
Q 1631 397 2203 397 
Q 2534 397 2845 478 
Q 3156 559 3463 722 
L 3463 178 
Q 3153 47 2828 -22 
Q 2503 -91 2169 -91 
Q 1331 -91 842 396 
Q 353 884 353 1716 
Q 353 2575 817 3079 
Q 1281 3584 2069 3584 
Q 2775 3584 3186 3129 
Q 3597 2675 3597 1894 
z
M 3022 2063 
Q 3016 2534 2758 2815 
Q 2500 3097 2075 3097 
Q 1594 3097 1305 2825 
Q 1016 2553 972 2059 
L 3022 2063 
z
" transform="scale(0.015625)"/>
      </defs>
      <use xlink:href="#DejaVuSans-44"/>
      <use xlink:href="#DejaVuSans-61" transform="translate(77.001953 0)"/>
      <use xlink:href="#DejaVuSans-74" transform="translate(138.28125 0)"/>
      <use xlink:href="#DejaVuSans-65" transform="translate(177.490234 0)"/>
     </g>
    </g>
   </g>
   <g id="matplotlib.axis_2">
    <g id="ytick_1">
     <g id="line2d_7">
      <defs>
       <path id="mb16de3bd4c" d="M 0 0 
L -3.5 0 
" style="stroke: #000000; stroke-width: 0.8"/>
      </defs>
      <g>
       <use xlink:href="#mb16de3bd4c" x="53.328125" y="291.138969" style="stroke: #000000; stroke-width: 0.8"/>
      </g>
     </g>
     <g id="text_8">
      <!-- 0 -->
      <g transform="translate(39.965625 294.938187) scale(0.1 -0.1)">
       <use xlink:href="#DejaVuSans-30"/>
      </g>
     </g>
    </g>
    <g id="ytick_2">
     <g id="line2d_8">
      <g>
       <use xlink:href="#mb16de3bd4c" x="53.328125" y="235.307703" style="stroke: #000000; stroke-width: 0.8"/>
      </g>
     </g>
     <g id="text_9">
      <!-- 1000 -->
      <g transform="translate(20.878125 239.106922) scale(0.1 -0.1)">
       <use xlink:href="#DejaVuSans-31"/>
       <use xlink:href="#DejaVuSans-30" transform="translate(63.623047 0)"/>
       <use xlink:href="#DejaVuSans-30" transform="translate(127.246094 0)"/>
       <use xlink:href="#DejaVuSans-30" transform="translate(190.869141 0)"/>
      </g>
     </g>
    </g>
    <g id="ytick_3">
     <g id="line2d_9">
      <g>
       <use xlink:href="#mb16de3bd4c" x="53.328125" y="179.476438" style="stroke: #000000; stroke-width: 0.8"/>
      </g>
     </g>
     <g id="text_10">
      <!-- 2000 -->
      <g transform="translate(20.878125 183.275656) scale(0.1 -0.1)">
       <use xlink:href="#DejaVuSans-32"/>
       <use xlink:href="#DejaVuSans-30" transform="translate(63.623047 0)"/>
       <use xlink:href="#DejaVuSans-30" transform="translate(127.246094 0)"/>
       <use xlink:href="#DejaVuSans-30" transform="translate(190.869141 0)"/>
      </g>
     </g>
    </g>
    <g id="ytick_4">
     <g id="line2d_10">
      <g>
       <use xlink:href="#mb16de3bd4c" x="53.328125" y="123.645172" style="stroke: #000000; stroke-width: 0.8"/>
      </g>
     </g>
     <g id="text_11">
      <!-- 3000 -->
      <g transform="translate(20.878125 127.444391) scale(0.1 -0.1)">
       <defs>
        <path id="DejaVuSans-33" d="M 2597 2516 
Q 3050 2419 3304 2112 
Q 3559 1806 3559 1356 
Q 3559 666 3084 287 
Q 2609 -91 1734 -91 
Q 1441 -91 1130 -33 
Q 819 25 488 141 
L 488 750 
Q 750 597 1062 519 
Q 1375 441 1716 441 
Q 2309 441 2620 675 
Q 2931 909 2931 1356 
Q 2931 1769 2642 2001 
Q 2353 2234 1838 2234 
L 1294 2234 
L 1294 2753 
L 1863 2753 
Q 2328 2753 2575 2939 
Q 2822 3125 2822 3475 
Q 2822 3834 2567 4026 
Q 2313 4219 1838 4219 
Q 1578 4219 1281 4162 
Q 984 4106 628 3988 
L 628 4550 
Q 988 4650 1302 4700 
Q 1616 4750 1894 4750 
Q 2613 4750 3031 4423 
Q 3450 4097 3450 3541 
Q 3450 3153 3228 2886 
Q 3006 2619 2597 2516 
z
" transform="scale(0.015625)"/>
       </defs>
       <use xlink:href="#DejaVuSans-33"/>
       <use xlink:href="#DejaVuSans-30" transform="translate(63.623047 0)"/>
       <use xlink:href="#DejaVuSans-30" transform="translate(127.246094 0)"/>
       <use xlink:href="#DejaVuSans-30" transform="translate(190.869141 0)"/>
      </g>
     </g>
    </g>
    <g id="ytick_5">
     <g id="line2d_11">
      <g>
       <use xlink:href="#mb16de3bd4c" x="53.328125" y="67.813907" style="stroke: #000000; stroke-width: 0.8"/>
      </g>
     </g>
     <g id="text_12">
      <!-- 4000 -->
      <g transform="translate(20.878125 71.613125) scale(0.1 -0.1)">
       <use xlink:href="#DejaVuSans-34"/>
       <use xlink:href="#DejaVuSans-30" transform="translate(63.623047 0)"/>
       <use xlink:href="#DejaVuSans-30" transform="translate(127.246094 0)"/>
       <use xlink:href="#DejaVuSans-30" transform="translate(190.869141 0)"/>
      </g>
     </g>
    </g>
    <g id="text_13">
     <!-- Daily Price Range -->
     <g transform="translate(14.798438 204.790781) rotate(-90) scale(0.1 -0.1)">
      <defs>
       <path id="DejaVuSans-69" d="M 603 3500 
L 1178 3500 
L 1178 0 
L 603 0 
L 603 3500 
z
M 603 4863 
L 1178 4863 
L 1178 4134 
L 603 4134 
L 603 4863 
z
" transform="scale(0.015625)"/>
       <path id="DejaVuSans-6c" d="M 603 4863 
L 1178 4863 
L 1178 0 
L 603 0 
L 603 4863 
z
" transform="scale(0.015625)"/>
       <path id="DejaVuSans-79" d="M 2059 -325 
Q 1816 -950 1584 -1140 
Q 1353 -1331 966 -1331 
L 506 -1331 
L 506 -850 
L 844 -850 
Q 1081 -850 1212 -737 
Q 1344 -625 1503 -206 
L 1606 56 
L 191 3500 
L 800 3500 
L 1894 763 
L 2988 3500 
L 3597 3500 
L 2059 -325 
z
" transform="scale(0.015625)"/>
       <path id="DejaVuSans-20" transform="scale(0.015625)"/>
       <path id="DejaVuSans-50" d="M 1259 4147 
L 1259 2394 
L 2053 2394 
Q 2494 2394 2734 2622 
Q 2975 2850 2975 3272 
Q 2975 3691 2734 3919 
Q 2494 4147 2053 4147 
L 1259 4147 
z
M 628 4666 
L 2053 4666 
Q 2838 4666 3239 4311 
Q 3641 3956 3641 3272 
Q 3641 2581 3239 2228 
Q 2838 1875 2053 1875 
L 1259 1875 
L 1259 0 
L 628 0 
L 628 4666 
z
" transform="scale(0.015625)"/>
       <path id="DejaVuSans-72" d="M 2631 2963 
Q 2534 3019 2420 3045 
Q 2306 3072 2169 3072 
Q 1681 3072 1420 2755 
Q 1159 2438 1159 1844 
L 1159 0 
L 581 0 
L 581 3500 
L 1159 3500 
L 1159 2956 
Q 1341 3275 1631 3429 
Q 1922 3584 2338 3584 
Q 2397 3584 2469 3576 
Q 2541 3569 2628 3553 
L 2631 2963 
z
" transform="scale(0.015625)"/>
       <path id="DejaVuSans-63" d="M 3122 3366 
L 3122 2828 
Q 2878 2963 2633 3030 
Q 2388 3097 2138 3097 
Q 1578 3097 1268 2742 
Q 959 2388 959 1747 
Q 959 1106 1268 751 
Q 1578 397 2138 397 
Q 2388 397 2633 464 
Q 2878 531 3122 666 
L 3122 134 
Q 2881 22 2623 -34 
Q 2366 -91 2075 -91 
Q 1284 -91 818 406 
Q 353 903 353 1747 
Q 353 2603 823 3093 
Q 1294 3584 2113 3584 
Q 2378 3584 2631 3529 
Q 2884 3475 3122 3366 
z
" transform="scale(0.015625)"/>
       <path id="DejaVuSans-52" d="M 2841 2188 
Q 3044 2119 3236 1894 
Q 3428 1669 3622 1275 
L 4263 0 
L 3584 0 
L 2988 1197 
Q 2756 1666 2539 1819 
Q 2322 1972 1947 1972 
L 1259 1972 
L 1259 0 
L 628 0 
L 628 4666 
L 2053 4666 
Q 2853 4666 3247 4331 
Q 3641 3997 3641 3322 
Q 3641 2881 3436 2590 
Q 3231 2300 2841 2188 
z
M 1259 4147 
L 1259 2491 
L 2053 2491 
Q 2509 2491 2742 2702 
Q 2975 2913 2975 3322 
Q 2975 3731 2742 3939 
Q 2509 4147 2053 4147 
L 1259 4147 
z
" transform="scale(0.015625)"/>
       <path id="DejaVuSans-6e" d="M 3513 2113 
L 3513 0 
L 2938 0 
L 2938 2094 
Q 2938 2591 2744 2837 
Q 2550 3084 2163 3084 
Q 1697 3084 1428 2787 
Q 1159 2491 1159 1978 
L 1159 0 
L 581 0 
L 581 3500 
L 1159 3500 
L 1159 2956 
Q 1366 3272 1645 3428 
Q 1925 3584 2291 3584 
Q 2894 3584 3203 3211 
Q 3513 2838 3513 2113 
z
" transform="scale(0.015625)"/>
       <path id="DejaVuSans-67" d="M 2906 1791 
Q 2906 2416 2648 2759 
Q 2391 3103 1925 3103 
Q 1463 3103 1205 2759 
Q 947 2416 947 1791 
Q 947 1169 1205 825 
Q 1463 481 1925 481 
Q 2391 481 2648 825 
Q 2906 1169 2906 1791 
z
M 3481 434 
Q 3481 -459 3084 -895 
Q 2688 -1331 1869 -1331 
Q 1566 -1331 1297 -1286 
Q 1028 -1241 775 -1147 
L 775 -588 
Q 1028 -725 1275 -790 
Q 1522 -856 1778 -856 
Q 2344 -856 2625 -561 
Q 2906 -266 2906 331 
L 2906 616 
Q 2728 306 2450 153 
Q 2172 0 1784 0 
Q 1141 0 747 490 
Q 353 981 353 1791 
Q 353 2603 747 3093 
Q 1141 3584 1784 3584 
Q 2172 3584 2450 3431 
Q 2728 3278 2906 2969 
L 2906 3500 
L 3481 3500 
L 3481 434 
z
" transform="scale(0.015625)"/>
      </defs>
      <use xlink:href="#DejaVuSans-44"/>
      <use xlink:href="#DejaVuSans-61" transform="translate(77.001953 0)"/>
      <use xlink:href="#DejaVuSans-69" transform="translate(138.28125 0)"/>
      <use xlink:href="#DejaVuSans-6c" transform="translate(166.064453 0)"/>
      <use xlink:href="#DejaVuSans-79" transform="translate(193.847656 0)"/>
      <use xlink:href="#DejaVuSans-20" transform="translate(253.027344 0)"/>
      <use xlink:href="#DejaVuSans-50" transform="translate(284.814453 0)"/>
      <use xlink:href="#DejaVuSans-72" transform="translate(343.367188 0)"/>
      <use xlink:href="#DejaVuSans-69" transform="translate(384.480469 0)"/>
      <use xlink:href="#DejaVuSans-63" transform="translate(412.263672 0)"/>
      <use xlink:href="#DejaVuSans-65" transform="translate(467.244141 0)"/>
      <use xlink:href="#DejaVuSans-20" transform="translate(528.767578 0)"/>
      <use xlink:href="#DejaVuSans-52" transform="translate(560.554688 0)"/>
      <use xlink:href="#DejaVuSans-61" transform="translate(627.787109 0)"/>
      <use xlink:href="#DejaVuSans-6e" transform="translate(689.066406 0)"/>
      <use xlink:href="#DejaVuSans-67" transform="translate(752.445312 0)"/>
      <use xlink:href="#DejaVuSans-65" transform="translate(815.921875 0)"/>
     </g>
    </g>
   </g>
   <g id="line2d_12">
    <path d="M 83.764489 283.171847 
L 83.916785 270.668435 
L 84.373673 281.184254 
L 84.525969 263.991016 
L 84.678265 276.03382 
L 84.830561 276.282269 
L 84.982857 269.680222 
L 85.744337 277.083448 
L 85.896633 271.651065 
L 86.048929 281.790023 
L 86.505817 283.596165 
L 86.658113 270.958758 
L 86.810409 282.10547 
L 86.962705 281.33779 
L 87.115002 279.955966 
L 87.724186 262.609192 
L 87.876482 264.755904 
L 88.028778 277.736673 
L 88.181074 242.666264 
L 88.637962 267.304601 
L 88.790258 254.279167 
L 88.942554 273.836859 
L 89.09485 265.079725 
L 89.247146 269.959378 
L 89.704034 275.090271 
L 89.85633 251.67743 
L 90.008626 282.147343 
L 90.160922 266.743497 
L 90.313218 275.687666 
L 90.770106 268.496599 
L 91.074699 278.973336 
L 91.226995 263.156338 
L 91.379291 267.379974 
L 91.836179 269.67743 
L 91.988475 275.260557 
L 92.140771 270.540023 
L 92.293067 274.082517 
L 92.445363 265.478919 
L 92.597659 249.078485 
L 93.054547 278.752802 
L 93.206843 236.058634 
L 93.359139 267.042194 
L 93.968323 266.986363 
L 94.425211 282.172467 
L 94.577507 255.434874 
L 95.034396 278.585309 
L 95.186692 272.136797 
L 95.338988 274.548708 
L 95.491284 255.764279 
L 95.64358 277.65851 
L 96.100468 275.126562 
L 96.252764 276.818249 
L 96.40506 282.127802 
L 96.557356 263.502492 
L 96.709652 270.311115 
L 97.16654 274.17743 
L 97.318836 272.39083 
L 97.471132 261.132455 
L 98.232612 277.326314 
L 98.384908 273.395792 
L 98.537205 279.188286 
L 98.689501 263.597405 
L 98.841797 281.561115 
L 99.298685 280.958137 
L 99.603277 267.541884 
L 99.755573 278.468063 
L 100.364757 262.349577 
L 100.517053 274.866946 
L 100.669349 263.304291 
L 100.821645 274.94511 
L 100.973941 270.260867 
L 101.430829 272.334998 
L 101.583125 260.233572 
L 101.735421 278.325693 
L 101.887717 276.279477 
L 102.496902 277.99908 
L 102.649198 281.857021 
L 102.801494 245.223336 
L 103.106086 273.984812 
L 103.562974 268.867877 
L 103.71527 257.874701 
L 104.019862 271.550569 
L 104.172158 282.666574 
L 104.781342 276.661922 
L 104.933638 280.698522 
L 105.085934 279.685185 
L 105.23823 268.756214 
L 105.847414 282.64145 
L 105.999711 272.97985 
L 106.152007 276.740085 
L 106.304303 274.961859 
L 106.761191 278.085619 
L 106.913487 250.73109 
L 107.218079 273.928981 
L 107.979559 281.78444 
L 108.131855 274.607331 
L 108.284151 260.001872 
L 108.436447 270.110123 
L 108.893335 279.255284 
L 109.045631 271.126252 
L 109.197927 282.256214 
L 109.350223 281.831897 
L 109.502519 279.715892 
L 109.959408 264.878733 
L 110.111704 279.283199 
L 110.264 280.263038 
L 110.416296 276.597716 
L 110.568592 276.491636 
L 111.02548 264.906649 
L 111.177776 276.862914 
L 111.330072 270.634936 
L 111.482368 283.906028 
L 112.091552 266.654167 
L 112.243848 276.204105 
L 112.396144 276.254353 
L 112.54844 281.379663 
L 112.700736 278.116326 
L 113.157624 275.975197 
L 113.462216 284.383386 
L 113.614513 272.831897 
L 113.766809 282.219924 
L 114.223697 274.593373 
L 114.375993 268.859502 
L 114.528289 267.435805 
L 114.680585 275.941698 
L 114.832881 277.33748 
L 115.289769 269.973336 
L 115.594361 284.475507 
L 115.746657 282.510247 
L 115.898953 271.371909 
L 116.355841 278.08841 
L 116.508137 273.917815 
L 116.660433 278.01583 
L 116.812729 276.056152 
L 116.965025 281.619738 
L 117.421914 274.94511 
L 117.726506 264.314837 
L 117.878802 275.576003 
L 118.031098 259.153237 
L 118.792578 281.792815 
L 118.944874 263.700693 
L 119.09717 275.690458 
L 119.554058 251.741636 
L 119.706354 257.718373 
L 120.010946 280.662232 
L 120.163242 264.898274 
L 120.62013 273.027306 
L 120.772426 260.602058 
L 120.924722 263.455036 
L 121.077018 275.12377 
L 121.229315 262.6064 
L 121.686203 262.600817 
L 121.838499 257.670917 
L 121.990795 273.323212 
L 122.143091 262.145792 
L 122.295387 276.491636 
L 122.752275 268.094614 
L 122.904571 277.856711 
L 123.056867 277.985123 
L 123.361459 266.249391 
L 123.818347 269.227989 
L 123.970643 251.716512 
L 124.122939 260.392691 
L 124.275235 279.272033 
L 124.884419 273.786611 
L 125.036716 245.745358 
L 125.189012 271.617567 
L 125.341308 275.564837 
L 125.950492 272.321041 
L 126.102788 272.524825 
L 126.255084 281.413162 
L 126.559676 277.119738 
L 127.016564 279.255284 
L 127.16886 282.286922 
L 127.473452 281.656028 
L 127.625748 270.805222 
L 128.082636 283.492877 
L 128.234932 280.824142 
L 128.387228 272.915644 
L 128.69182 283.995358 
L 129.148709 278.275445 
L 129.301005 284.612294 
L 129.453301 268.74784 
L 129.605597 278.780718 
L 129.757893 278.367567 
L 130.214781 282.021723 
L 130.367077 279.90851 
L 130.519373 275.877492 
L 130.671669 279.464651 
L 130.823965 278.186115 
L 131.280853 264.242257 
L 131.585445 286.622219 
L 131.890037 278.814217 
L 132.346925 270.202244 
L 132.499222 275.821661 
L 132.651518 268.853919 
L 132.803814 277.982331 
L 132.95611 272.628113 
L 133.412998 282.37346 
L 133.565294 283.127182 
L 133.869886 283.386797 
L 134.022182 271.369118 
L 134.631366 283.233261 
L 134.783662 274.007145 
L 134.935958 283.392381 
L 135.088254 283.931152 
L 135.545142 284.991946 
L 135.849734 277.625011 
L 136.00203 281.530408 
L 136.154326 263.3015 
L 136.611215 278.01583 
L 136.763511 277.901376 
L 136.915807 275.701624 
L 137.220399 281.929601 
L 137.677287 276.178981 
L 137.829583 277.630594 
L 137.981879 285.519552 
L 138.134175 280.938596 
L 138.743359 281.334998 
L 138.895655 284.193559 
L 139.047951 284.313596 
L 139.200247 286.918125 
L 139.352543 277.549639 
L 139.809431 269.314527 
L 139.961727 280.232331 
L 140.114024 277.890209 
L 140.26632 279.593063 
L 140.418616 284.165644 
L 141.180096 267.466512 
L 141.332392 271.609192 
L 141.484688 263.42712 
L 142.093872 277.100197 
L 142.246168 247.657579 
L 142.55076 274.347716 
L 143.007648 280.667815 
L 143.31224 278.200073 
L 143.464536 278.719304 
L 143.616832 267.798708 
L 144.073721 275.274515 
L 144.226017 266.316388 
L 144.378313 281.644862 
L 144.530609 279.026376 
L 144.682905 273.217132 
L 145.139793 268.370979 
L 145.292089 279.743807 
L 145.444385 275.006525 
L 145.596681 259.82042 
L 145.748977 271.935805 
L 146.358161 265.152306 
L 146.662753 279.707517 
L 147.271937 283.071351 
L 147.424233 268.161611 
L 147.576529 279.17712 
L 147.728826 273.018931 
L 147.881122 274.721785 
L 148.33801 245.633696 
L 148.490306 269.87284 
L 148.642602 270.403237 
L 148.794898 279.626562 
L 148.947194 266.224266 
L 149.556378 276.614465 
L 149.708674 272.053051 
L 149.86097 276.865706 
L 150.013266 273.342753 
L 150.470154 280.196041 
L 150.62245 284.509006 
L 150.927042 269.239155 
L 151.079338 278.724887 
L 151.536227 279.400445 
L 151.688523 280.603609 
L 151.840819 284.458758 
L 152.602299 270.565147 
L 152.754595 280.346785 
L 152.906891 268.510557 
L 153.059187 278.817008 
L 153.211483 279.12408 
L 153.668371 278.186115 
L 153.820667 263.92681 
L 153.972963 280.531028 
L 154.125259 276.145482 
L 154.277555 282.225507 
L 154.734443 268.047157 
L 154.886739 281.946351 
L 155.039035 276.111984 
L 155.800516 273.348336 
L 156.105108 278.532269 
L 156.257404 277.571971 
L 156.4097 279.595855 
L 156.866588 282.044056 
L 157.018884 265.576624 
L 157.17118 281.778857 
L 157.323476 272.678361 
L 157.475772 273.621909 
L 157.93266 282.507455 
L 158.084956 270.983882 
L 158.237252 279.129663 
L 158.389548 279.718683 
L 158.541844 282.205966 
L 158.998733 271.268621 
L 159.151029 280.067629 
L 159.303325 271.977678 
L 159.455621 280.949763 
L 159.607917 274.548708 
L 160.064805 271.687356 
L 160.217101 281.946351 
L 160.369397 279.835929 
L 160.521693 280.508696 
L 160.673989 281.770482 
L 161.130877 277.954415 
L 161.283173 283.744118 
L 161.435469 267.310185 
L 161.587765 265.864155 
L 161.740061 279.098956 
L 162.196949 281.019552 
L 162.349245 280.751562 
L 162.501541 275.617877 
L 162.653837 277.407269 
L 162.806134 284.830036 
L 163.263022 284.592753 
L 163.415318 275.081897 
L 163.567614 283.289093 
L 163.872206 277.948832 
L 164.329094 283.378423 
L 164.48139 283.10485 
L 164.633686 275.280098 
L 164.785982 275.405718 
L 164.938278 277.047157 
L 165.395166 271.419366 
L 165.547462 281.220544 
L 165.852054 274.584998 
L 166.00435 262.505904 
L 166.613535 283.032269 
L 166.765831 282.850817 
L 166.918127 281.136797 
L 167.070423 284.458758 
L 167.527311 286.027616 
L 167.679607 283.629663 
L 167.984199 282.794986 
L 168.136495 281.742567 
L 168.593383 281.862604 
L 168.745679 278.839341 
L 168.897975 281.907269 
L 169.050271 274.350507 
L 169.202567 277.535681 
L 169.659455 275.897033 
L 169.964047 283.883696 
L 170.116343 271.276996 
L 170.268639 280.860433 
L 170.725528 265.275135 
L 170.877824 278.286611 
L 171.03012 277.594304 
L 171.182416 283.995358 
L 171.334712 282.342753 
L 171.7916 266.344304 
L 171.943896 280.268621 
L 172.248488 275.436425 
L 172.400784 278.024204 
L 172.857672 283.73016 
L 173.009968 281.672778 
L 173.162264 270.258075 
L 173.31456 282.088721 
L 173.466856 274.875321 
L 174.07604 278.699763 
L 174.228337 281.535991 
L 174.380633 275.257765 
L 174.532929 283.869738 
L 174.989817 277.714341 
L 175.142113 284.118187 
L 175.294409 285.117567 
L 175.446705 282.76707 
L 175.599001 278.627182 
L 176.055889 282.700073 
L 176.208185 277.74784 
L 176.360481 278.437356 
L 176.512777 280.536611 
L 176.665073 284.235433 
L 177.274257 264.982021 
L 177.426553 280.025755 
L 177.578849 283.199763 
L 177.731145 279.383696 
L 178.188034 284.109812 
L 178.492626 278.800259 
L 178.644922 278.568559 
L 178.797218 266.372219 
L 179.254106 281.940768 
L 179.406402 281.826314 
L 179.558698 280.648274 
L 179.710994 276.181773 
L 179.86329 275.723956 
L 180.62477 280.511487 
L 180.777066 250.150445 
L 180.929362 277.424018 
L 181.38625 277.331897 
L 181.538546 278.850507 
L 181.690842 273.066388 
L 181.995435 283.434254 
L 182.452323 282.758696 
L 182.909211 264.834068 
L 183.061507 284.028857 
L 183.518395 277.778547 
L 183.670691 271.656649 
L 183.822987 276.982951 
L 184.127579 278.431773 
L 184.584467 282.976438 
L 184.889059 274.869738 
L 185.041355 274.830656 
L 185.193651 278.42619 
L 185.498243 280.969304 
L 185.802836 281.404788 
L 185.955132 283.44542 
L 186.259724 276.469304 
L 186.716612 283.043435 
L 186.868908 278.448522 
L 187.021204 210.513038 
L 187.1735 263.46341 
L 187.325796 257.344304 
L 187.93498 256.451003 
L 188.087276 261.911301 
L 188.239572 273.334378 
L 188.391868 273.314837 
L 188.848756 250.678051 
L 189.153348 278.892381 
L 189.457941 275.520172 
L 189.914829 275.268931 
L 190.067125 277.812046 
L 190.219421 268.507765 
L 190.371717 273.080346 
L 190.524013 272.898894 
L 190.980901 277.474266 
L 191.133197 283.668745 
L 191.285493 255.621909 
L 191.437789 278.755594 
L 191.590085 273.979229 
L 192.046973 277.06949 
L 192.351565 282.063596 
L 192.503861 268.253733 
L 192.656157 282.197592 
L 193.113046 285.483261 
L 193.265342 276.3381 
L 193.417638 284.260557 
L 193.569934 280.539403 
L 193.72223 283.180222 
L 194.331414 274.878113 
L 194.48371 278.269862 
L 194.636006 278.638348 
L 194.788302 278.3564 
L 195.24519 268.577554 
L 195.549782 278.635557 
L 195.854374 281.74815 
L 196.311262 284.609502 
L 196.463558 281.904477 
L 196.615854 270.246909 
L 196.76815 282.180842 
L 196.920447 281.591822 
L 197.377335 276.1064 
L 197.834223 283.367257 
L 197.986519 275.584378 
L 198.595703 282.912232 
L 198.747999 268.566388 
L 199.052591 276.620048 
L 199.661775 280.6064 
L 199.814071 258.929912 
L 199.966367 278.202864 
L 200.118663 278.87284 
L 200.727848 283.018311 
L 201.03244 268.457517 
L 201.184736 283.160681 
L 201.641624 280.430532 
L 201.79392 282.473956 
L 201.946216 277.049949 
L 202.098512 279.562356 
L 202.250808 258.047778 
L 202.707696 278.286611 
L 202.859992 275.277306 
L 203.012288 283.959068 
L 203.164584 280.893931 
L 203.773768 276.137108 
L 203.926064 284.400135 
L 204.07836 282.485123 
L 204.230656 269.470855 
L 204.382952 282.367877 
L 204.839841 280.235123 
L 204.992137 284.701624 
L 205.144433 281.036301 
L 205.296729 281.293125 
L 205.449025 278.401065 
L 206.058209 279.149204 
L 206.362801 285.804291 
L 206.515097 279.520482 
L 206.971985 284.564837 
L 207.124281 281.117257 
L 207.276577 283.037852 
L 207.428873 282.239465 
L 207.581169 277.4631 
L 208.038057 279.992257 
L 208.190353 284.442008 
L 208.34265 282.046847 
L 208.494946 270.810805 
L 208.647242 282.197592 
L 209.10413 282.381835 
L 209.408722 279.99784 
L 209.561018 280.804601 
L 209.713314 278.864465 
L 210.170202 282.4265 
L 210.322498 276.075693 
L 210.474794 277.99908 
L 210.62709 283.777616 
L 211.236274 281.840271 
L 211.38857 273.672157 
L 211.693162 282.046847 
L 211.845458 278.389899 
L 212.302347 274.043435 
L 212.454643 280.366326 
L 212.606939 265.392381 
L 212.759235 279.35578 
L 212.911531 279.947592 
L 213.520715 278.521103 
L 213.673011 279.473026 
L 213.977603 272.181462 
L 214.739083 284.58717 
L 215.043675 275.442008 
L 215.500563 282.130594 
L 215.652859 279.054291 
L 215.805156 282.87315 
L 215.957452 281.404788 
L 216.109748 275.852368 
L 216.566636 275.472716 
L 216.871228 279.771723 
L 217.023524 252.199453 
L 217.17582 273.496289 
L 217.632708 273.113845 
L 217.9373 278.803051 
L 218.241892 283.049018 
L 218.69878 283.057393 
L 218.851076 282.518621 
L 219.003372 281.167505 
L 219.155668 283.049018 
L 219.307964 278.197281 
L 220.069445 282.01614 
L 220.221741 282.125011 
L 220.374037 283.509626 
L 220.830925 276.011487 
L 220.983221 285.044986 
L 221.287813 279.76614 
L 222.049293 258.513969 
L 222.201589 279.475817 
L 222.353885 271.505904 
L 222.506181 276.751252 
L 222.963069 280.76552 
L 223.115365 280.009006 
L 223.267661 281.379663 
L 223.419958 281.611363 
L 223.572254 286.002492 
L 224.029142 253.458448 
L 224.181438 280.422157 
L 224.333734 279.252492 
L 224.48603 284.048398 
L 224.638326 279.542815 
L 225.095214 282.627492 
L 225.24751 279.674018 
L 225.399806 284.045606 
L 225.552102 283.939527 
L 225.704398 278.722095 
L 226.161286 278.526686 
L 226.313582 281.399204 
L 226.465878 277.96279 
L 226.618174 278.138658 
L 226.77047 279.486984 
L 227.227359 272.178671 
L 227.379655 281.167505 
L 227.684247 269.613224 
L 227.836543 275.065147 
L 228.293431 283.607331 
L 228.445727 267.036611 
L 228.598023 279.732641 
L 228.750319 262.960929 
L 228.902615 273.111053 
L 229.359503 281.424328 
L 229.664095 262.455656 
L 229.968687 279.738224 
L 230.425575 270.107331 
L 230.577871 275.796537 
L 230.730167 275.737914 
L 230.882463 280.743187 
L 231.491648 284.377802 
L 231.643944 278.987294 
L 231.79624 283.166264 
L 231.948536 282.951314 
L 232.100832 281.360123 
L 232.55772 274.224887 
L 232.710016 283.783199 
L 232.862312 281.078175 
L 233.166904 282.973646 
L 233.623792 275.668125 
L 233.776088 281.773274 
L 233.928384 279.358572 
L 234.232976 284.143311 
L 234.689864 282.004974 
L 234.842161 284.972405 
L 234.994457 284.757455 
L 235.299049 270.49815 
L 235.755937 271.690147 
L 235.908233 278.881214 
L 236.060529 259.580346 
L 236.212825 265.28351 
L 236.365121 278.708137 
L 236.974305 278.881214 
L 237.278897 282.487914 
L 237.431193 281.776065 
L 237.888081 282.482331 
L 238.040377 285.215271 
L 238.192673 268.471475 
L 238.344969 267.968993 
L 238.497265 269.255904 
L 238.954154 270.922467 
L 239.258746 280.832517 
L 239.411042 272.625321 
L 240.020226 277.826003 
L 240.172522 276.589341 
L 240.324818 257.804912 
L 240.62941 280.137418 
L 241.086298 276.829415 
L 241.238594 283.850197 
L 241.39089 270.057083 
L 241.543186 280.349577 
L 241.695482 274.358882 
L 242.15237 281.921227 
L 242.304666 266.193559 
L 242.609259 278.90913 
L 242.761555 270.964341 
L 243.218443 275.824453 
L 243.523035 282.669366 
L 243.827627 277.440768 
L 244.284515 284.358261 
L 244.589107 281.865395 
L 244.741403 278.990085 
L 244.893699 285.561425 
L 245.350587 276.714961 
L 245.502883 282.317629 
L 245.655179 283.827864 
L 245.807475 265.791574 
L 245.959771 275.020482 
L 246.41666 274.174639 
L 246.568956 274.590582 
L 247.025844 278.733261 
L 247.482732 283.872529 
L 247.635028 273.965271 
L 247.787324 272.591822 
L 247.93962 273.4265 
L 248.091916 282.887108 
L 248.548804 227.33779 
L 248.7011 283.414713 
L 248.853396 279.191078 
L 249.005692 284.380594 
L 249.157988 283.657579 
L 249.767172 281.795606 
L 249.919469 274.185805 
L 250.071765 283.068559 
L 250.224061 284.654167 
L 250.680949 273.471165 
L 250.985541 282.540954 
L 251.137837 281.086549 
L 251.290133 283.110433 
L 251.747021 284.009316 
L 251.899317 280.723646 
L 252.051613 280.525445 
L 252.203909 282.071971 
L 252.356205 278.992877 
L 252.813093 277.245358 
L 252.965389 279.710309 
L 253.117685 268.049949 
L 253.422277 261.866636 
L 253.879166 278.091202 
L 254.031462 271.268621 
L 254.183758 276.634006 
L 254.336054 270.419986 
L 255.097534 278.398274 
L 255.24983 272.223336 
L 255.554422 254.653237 
L 256.01131 274.526376 
L 256.163606 228.789403 
L 256.315902 262.08717 
L 256.468198 263.83748 
L 256.620494 278.448522 
L 257.077382 275.92774 
L 257.381974 257.757455 
L 257.534271 273.272964 
L 257.686567 263.217753 
L 258.143455 263.139589 
L 258.448047 279.785681 
L 258.600343 279.674018 
L 258.752639 269.794676 
L 259.209527 272.103299 
L 259.361823 270.64052 
L 259.514119 277.128113 
L 259.666415 270.389279 
L 260.275599 280.472405 
L 260.427895 253.274204 
L 260.580191 275.693249 
L 260.732487 264.007765 
L 260.884783 274.107641 
L 261.341672 271.1765 
L 261.493968 268.130904 
L 261.646264 268.398894 
L 261.79856 279.53444 
L 261.950856 271.810185 
L 262.407744 268.745048 
L 262.56004 275.913783 
L 262.864632 278.881214 
L 263.016928 280.491946 
L 263.473816 255.764279 
L 263.626112 278.26707 
L 263.778408 282.339961 
L 264.539888 273.806152 
L 264.692184 275.30243 
L 264.84448 258.840582 
L 265.149073 273.987604 
L 265.605961 273.002182 
L 265.758257 282.222716 
L 265.910553 276.804291 
L 266.062849 275.763038 
L 266.215145 272.466202 
L 266.672033 275.439217 
L 266.824329 281.170296 
L 266.976625 270.593063 
L 267.128921 282.339961 
L 267.738105 256.632455 
L 267.890401 281.734192 
L 268.347289 268.144862 
L 268.804177 282.613534 
L 269.10877 279.001252 
L 269.413362 283.171847 
L 269.87025 277.831587 
L 270.022546 282.113845 
L 270.174842 276.611673 
L 270.327138 279.459068 
L 270.479434 272.3015 
L 270.936322 278.44573 
L 271.088618 259.608261 
L 271.240914 272.92681 
L 271.545506 280.363534 
L 272.002394 269.844924 
L 272.15469 277.499391 
L 272.306986 275.40851 
L 272.459282 267.985743 
L 272.611578 274.718993 
L 273.068467 266.58717 
L 273.220763 271.6064 
L 273.373059 267.433013 
L 273.525355 245.915644 
L 273.677651 272.254043 
L 274.134539 244.148584 
L 274.286835 275.905408 
L 274.591427 275.335929 
L 274.743723 280.151376 
L 275.200611 278.239155 
L 275.505203 281.80119 
L 275.657499 284.430842 
L 275.809795 277.65851 
L 276.266683 282.482331 
L 276.571276 276.35485 
L 276.723572 278.40944 
L 276.875868 266.4448 
L 277.332756 278.191698 
L 277.485052 278.133075 
L 277.789644 272.89052 
L 277.94194 281.443869 
L 278.398828 273.775445 
L 278.551124 281.418745 
L 278.70342 271.732021 
L 278.855716 280.907889 
L 279.008012 279.98109 
L 279.617196 282.147343 
L 279.769492 281.968683 
L 279.921788 278.367567 
L 280.074084 279.969924 
L 280.530973 274.663162 
L 280.683269 269.493187 
L 280.987861 274.649204 
L 281.140157 278.412232 
L 281.597045 270.55119 
L 281.901637 283.621289 
L 282.053933 268.245358 
L 282.206229 279.634936 
L 282.663117 276.30181 
L 282.815413 280.648274 
L 282.967709 272.030718 
L 283.120005 282.208758 
L 283.272301 275.793745 
L 283.729189 278.412232 
L 283.881485 282.155718 
L 284.033782 276.07011 
L 284.186078 278.219614 
L 284.338374 274.933944 
L 284.795262 281.51645 
L 285.25215 278.096785 
L 285.404446 278.613224 
L 285.861334 282.727989 
L 286.01363 282.538162 
L 286.318222 271.03413 
L 286.470518 272.15913 
L 286.927406 271.064837 
L 287.231998 281.295917 
L 287.384294 275.955656 
L 287.53659 279.057083 
L 288.145775 263.82073 
L 288.450367 274.023894 
L 288.602663 275.522964 
L 289.059551 276.494428 
L 289.211847 260.643931 
L 289.364143 272.156338 
L 289.668735 279.082207 
L 290.125623 276.667505 
L 290.277919 263.580656 
L 290.430215 270.151996 
L 290.734807 210.906649 
L 291.191695 249.53351 
L 291.343991 250.454725 
L 291.496287 272.840271 
L 291.648584 266.268931 
L 291.80088 266.827244 
L 292.257768 251.805842 
L 292.714656 269.233572 
L 292.866952 244.824142 
L 293.32384 262.92743 
L 293.476136 274.668745 
L 293.628432 245.845855 
L 293.780728 266.215892 
L 293.933024 262.734812 
L 294.389912 273.362294 
L 294.542208 271.304912 
L 294.694504 245.725817 
L 294.999096 271.304912 
L 295.455985 264.150135 
L 295.608281 272.173088 
L 295.760577 262.260247 
L 295.912873 275.478299 
L 296.065169 267.754043 
L 296.522057 256.568249 
L 296.674353 266.871909 
L 296.826649 253.567319 
L 296.978945 275.94449 
L 297.131241 271.201624 
L 297.588129 276.968993 
L 297.740425 274.255594 
L 297.892721 284.08748 
L 298.197313 278.632765 
L 298.654201 268.130904 
L 298.806497 268.139279 
L 298.958793 277.831587 
L 299.111089 264.920606 
L 299.263386 279.403237 
L 299.720274 281.382455 
L 300.024866 275.422467 
L 300.177162 270.14083 
L 300.786346 270.394862 
L 301.090938 281.91006 
L 301.243234 267.321351 
L 301.39553 277.303981 
L 301.852418 277.435185 
L 302.15701 280.882765 
L 302.309306 279.389279 
L 302.461602 268.382145 
L 302.918491 276.388348 
L 303.070787 256.023894 
L 303.527675 281.295917 
L 303.984563 283.166264 
L 304.136859 270.523274 
L 304.289155 282.761487 
L 304.441451 278.599266 
L 304.593747 260.655098 
L 305.050635 276.740085 
L 305.355227 256.467753 
L 305.659819 281.432703 
L 306.116707 281.005594 
L 306.269003 268.164403 
L 306.573595 275.369428 
L 306.725892 271.687356 
L 307.18278 280.07042 
L 307.335076 269.897964 
L 307.487372 271.879974 
L 307.639668 278.557393 
L 307.791964 278.297778 
L 308.248852 279.548398 
L 308.401148 283.85578 
L 308.553444 282.669366 
L 308.70574 275.707207 
L 308.858036 281.882145 
L 309.314924 278.091202 
L 309.46722 282.878733 
L 309.619516 270.196661 
L 309.771812 279.99784 
L 309.924108 269.456897 
L 310.380996 260.64114 
L 310.685589 278.713721 
L 310.990181 257.495048 
L 311.447069 267.787542 
L 311.751661 283.626872 
L 311.903957 276.243187 
L 312.056253 276.575383 
L 312.513141 282.521413 
L 312.665437 274.515209 
L 312.817733 276.12315 
L 312.970029 279.305532 
L 313.122325 269.102368 
L 313.579213 279.288783 
L 313.731509 270.433944 
L 314.036101 283.99815 
L 314.188397 282.789403 
L 314.645286 276.374391 
L 314.949878 264.895482 
L 315.102174 282.32042 
L 315.25447 282.895482 
L 315.863654 256.375631 
L 316.01595 280.553361 
L 316.168246 276.87408 
L 316.320542 281.87377 
L 316.77743 277.496599 
L 316.929726 271.829725 
L 317.082022 259.089031 
L 317.234318 277.147654 
L 317.386614 261.556773 
L 317.843502 265.995358 
L 317.995798 277.066698 
L 318.148095 277.086239 
L 318.452687 263.256835 
L 318.909575 281.471785 
L 319.061871 253.639899 
L 319.214167 264.769862 
L 319.366463 261.718683 
L 319.518759 276.441388 
L 319.975647 267.145482 
L 320.127943 274.554291 
L 320.280239 259.521723 
L 320.584831 273.049639 
L 321.041719 262.360743 
L 321.346311 269.495979 
L 321.498607 279.30274 
L 321.650903 274.727368 
L 322.107792 277.51614 
L 322.56468 261.682393 
L 323.173864 255.275755 
L 323.32616 265.956276 
L 323.478456 264.351127 
L 323.630752 260.669056 
L 323.783048 264.058013 
L 324.392232 270.461859 
L 324.696824 275.475507 
L 324.84912 272.901686 
L 325.306008 278.364775 
L 325.458304 258.128733 
L 325.6106 273.834068 
L 325.762897 276.865706 
L 326.524377 264.580036 
L 326.676673 267.243187 
L 326.828969 267.5698 
L 326.981265 251.864465 
L 327.438153 251.127492 
L 327.590449 254.201003 
L 327.742745 268.443559 
L 327.895041 212.268931 
L 328.047337 251.442939 
L 328.504225 259.971165 
L 328.808817 275.012108 
L 328.961113 269.747219 
L 329.113409 226.343993 
L 329.722594 277.753423 
L 330.027186 249.78475 
L 330.179482 262.522654 
L 330.63637 262.882765 
L 330.940962 273.78382 
L 331.245554 261.900135 
L 331.702442 266.871909 
L 331.854738 272.83748 
L 332.15933 257.425259 
L 332.311626 276.430222 
L 332.768514 276.865706 
L 332.92081 265.353299 
L 333.073106 266.793745 
L 333.377699 277.276065 
L 333.834587 279.754974 
L 333.986883 272.924018 
L 334.291475 281.072592 
L 334.900659 244.595234 
L 335.052955 271.296537 
L 335.357547 278.705346 
L 335.509843 273.125011 
L 335.966731 270.955966 
L 336.119027 279.687976 
L 336.271323 278.219614 
L 336.423619 269.322902 
L 336.575915 244.352368 
L 337.1851 275.079105 
L 337.337396 269.844924 
L 337.489692 273.845234 
L 337.641988 269.666264 
L 338.098876 263.887728 
L 338.251172 246.892691 
L 338.403468 266.014899 
L 338.555764 248.017691 
L 338.70806 257.182393 
L 339.164948 264.504663 
L 339.317244 255.155718 
L 339.46954 261.341822 
L 339.621836 252.252492 
L 339.774132 271.542194 
L 340.383316 253.433324 
L 340.535612 269.900755 
L 340.840205 261.542815 
L 341.297093 273.138969 
L 341.601685 266.98078 
L 341.753981 251.247529 
L 341.906277 255.032889 
L 342.363165 227.720234 
L 342.515461 273.446041 
L 342.667757 265.406338 
L 342.820053 264.390209 
L 342.972349 265.202554 
L 343.581533 262.974887 
L 343.733829 255.554912 
L 344.038421 271.011797 
L 344.495309 259.223026 
L 344.799902 275.617877 
L 344.952198 274.523584 
L 345.104494 260.241946 
L 345.561382 276.184564 
L 345.713678 246.281338 
L 345.865974 272.957517 
L 346.01827 261.411611 
L 346.170566 140.874701 
L 346.77975 247.671537 
L 346.932046 257.779788 
L 347.084342 230.207517 
L 347.236638 268.733882 
L 347.693526 245.862604 
L 347.845822 210.236673 
L 348.150414 261.643311 
L 348.30271 231.031028 
L 348.759599 256.702244 
L 349.064191 226.617567 
L 349.216487 255.485123 
L 349.368783 242.719304 
L 349.825671 262.656649 
L 349.977967 262.743187 
L 350.130263 265.794366 
L 350.282559 259.812046 
L 350.434855 269.621599 
L 351.044039 265.523584 
L 351.196335 267.145482 
L 351.348631 252.110123 
L 351.805519 280.103919 
L 352.110111 256.959068 
L 352.262408 268.912542 
L 352.414704 267.215271 
L 352.567 269.917505 
L 353.023888 269.934254 
L 353.176184 270.964341 
L 353.32848 252.875011 
L 353.480776 271.106711 
L 353.633072 257.397343 
L 354.08996 258.790333 
L 354.394552 251.476438 
L 354.699144 274.124391 
L 355.156032 274.294676 
L 355.308328 273.063596 
L 355.61292 278.847716 
L 355.765216 272.21217 
L 356.222105 260.886797 
L 356.526697 280.960929 
L 356.831289 273.487914 
L 357.288177 274.19418 
L 357.592769 259.10578 
L 357.745065 263.298708 
L 357.897361 255.794986 
L 358.354249 267.935495 
L 358.506545 275.126562 
L 358.811137 271.076003 
L 358.963433 272.460619 
L 359.420321 274.992567 
L 359.572617 278.521103 
L 359.724914 275.709998 
L 359.87721 277.555222 
L 360.029506 277.521723 
L 360.486394 274.057393 
L 360.63869 283.082517 
L 361.095578 269.442939 
L 361.552466 270.782889 
L 361.704762 277.895792 
L 362.16165 270.514899 
L 362.618538 249.60609 
L 363.227722 269.152616 
L 363.836907 279.567939 
L 363.989203 272.683944 
L 364.141499 274.584998 
L 364.293795 272.823522 
L 364.750683 242.398274 
L 364.902979 273.683324 
L 365.055275 261.26645 
L 365.207571 265.127182 
L 365.359867 263.424328 
L 365.969051 269.247529 
L 366.121347 277.345855 
L 366.273643 269.465271 
L 366.425939 272.064217 
L 366.578235 226.062046 
L 366.882827 263.600197 
L 367.035123 257.947281 
L 367.187419 266.852368 
L 367.339716 260.241946 
L 367.492012 276.781959 
L 367.9489 274.858572 
L 368.101196 275.503423 
L 368.253492 280.505904 
L 368.558084 254.259626 
L 369.014972 270.612604 
L 369.167268 266.556462 
L 369.319564 272.100507 
L 369.47186 269.763969 
L 370.081044 275.832827 
L 370.23334 275.464341 
L 370.385636 269.722095 
L 370.537932 271.162542 
L 370.690228 262.519862 
L 371.147117 223.055532 
L 371.299413 261.224577 
L 371.451709 227.01676 
L 371.604005 257.71279 
L 371.756301 241.733882 
L 372.213189 225.916884 
L 372.517781 260.021413 
L 372.670077 196.965582 
L 372.822373 50.000941 
L 373.279261 231.628423 
L 373.431557 210.323212 
L 373.583853 164.061425 
L 373.736149 159.410681 
L 373.888445 198.484192 
L 374.345333 173.636487 
L 374.497629 194.821661 
L 374.649925 173.630904 
L 374.802221 176.972405 
L 374.954518 186.047778 
L 375.563702 253.514279 
L 375.715998 229.026686 
L 376.02059 225.096165 
L 376.629774 222.086859 
L 376.78207 188.342443 
L 376.934366 245.279167 
L 377.54355 258.028237 
L 377.848142 212.564837 
L 378.000438 245.533199 
L 378.152734 227.644862 
L 378.609622 253.293745 
L 378.761919 255.211549 
L 378.914215 249.019862 
L 379.066511 248.031649 
L 379.218807 266.866326 
L 379.675695 270.084998 
L 379.827991 263.753733 
L 379.980287 237.848026 
L 380.132583 256.894862 
L 380.741767 241.625011 
L 380.894063 234.704725 
L 381.046359 242.811425 
L 381.198655 267.405098 
L 381.350951 252.919676 
L 381.807839 244.65944 
L 381.960135 251.699763 
L 382.112431 252.484192 
L 382.264727 271.299328 
L 382.417023 266.827244 
L 382.873912 219.624701 
L 383.178504 257.922157 
L 383.3308 260.870048 
L 383.483096 243.835929 
L 384.09228 270.456276 
L 384.244576 217.782269 
L 384.396872 255.596785 
L 384.549168 256.068559 
L 385.006056 258.061735 
L 385.158352 248.528547 
L 385.462944 245.044676 
L 385.61524 247.94511 
L 386.224424 238.705036 
L 386.376721 258.762418 
L 386.529017 247.247219 
L 386.681313 222.935495 
L 387.138201 250.345855 
L 387.290497 227.949142 
L 387.442793 254.862604 
L 387.595089 235.419366 
L 387.747385 258.232021 
L 388.356569 253.48078 
L 388.508865 227.312666 
L 388.813457 265.202554 
L 389.270345 268.047157 
L 389.422641 266.656959 
L 389.574937 247.604539 
L 389.879529 270.911301 
L 390.336418 278.398274 
L 390.488714 255.733572 
L 390.64101 258.69542 
L 390.793306 272.999391 
L 390.945602 262.377492 
L 391.40249 253.410991 
L 391.707082 251.780718 
L 391.859378 255.217132 
L 392.011674 262.430532 
L 392.620858 276.402306 
L 392.773154 260.255904 
L 392.92545 269.507145 
L 393.077746 266.74908 
L 393.534634 242.750011 
L 393.839227 266.57042 
L 393.991523 253.595234 
L 394.143819 267.022654 
L 394.600707 262.53382 
L 394.753003 262.184874 
L 394.905299 263.887728 
L 395.057595 260.082827 
L 395.209891 272.382455 
L 395.666779 275.682083 
L 395.819075 277.865085 
L 395.971371 272.360123 
L 396.123667 274.370048 
L 396.275963 242.239155 
L 396.732851 262.874391 
L 396.885147 257.732331 
L 397.037443 280.804601 
L 397.189739 280.352368 
L 397.342035 281.145172 
L 397.798924 263.924018 
L 397.95122 273.138969 
L 398.103516 271.025755 
L 398.255812 277.745048 
L 398.408108 234.604229 
L 398.864996 188.001872 
L 399.017292 250.577554 
L 399.169588 266.372219 
L 399.321884 257.643001 
L 399.47418 262.223956 
L 399.931068 269.205656 
L 400.23566 264.663783 
L 400.387956 265.825073 
L 400.540252 265.300259 
L 400.99714 250.429601 
L 401.149436 265.914403 
L 401.301732 266.411301 
L 401.454029 277.884626 
L 401.606325 252.922467 
L 402.063213 245.103299 
L 402.215509 262.39145 
L 402.367805 260.763969 
L 402.520101 260.392691 
L 402.672397 255.764279 
L 403.129285 254.639279 
L 403.433877 267.642381 
L 403.586173 255.987604 
L 404.195357 262.03413 
L 404.347653 270.344614 
L 404.499949 267.220855 
L 404.652245 269.51552 
L 404.804541 248.056773 
L 405.26143 255.532579 
L 405.413726 271.952554 
L 405.718318 228.781028 
L 405.870614 263.376872 
L 406.327502 259.532889 
L 406.479798 270.422778 
L 406.632094 250.73109 
L 406.78439 266.520172 
L 406.936686 268.622219 
L 407.54587 241.703175 
L 407.850462 262.271413 
L 408.459646 234.280408 
L 408.611942 253.452864 
L 408.764238 249.321351 
L 408.916534 270.193869 
L 409.068831 251.043745 
L 409.525719 261.768931 
L 409.678015 241.6948 
L 409.830311 245.368497 
L 409.982607 257.257765 
L 410.134903 245.510867 
L 410.287199 273.239465 
L 410.744087 262.310495 
L 411.048679 246.046847 
L 411.200975 245.03351 
L 411.810159 256.464961 
L 411.962455 231.647964 
L 412.267047 271.701314 
L 412.876232 268.317939 
L 413.028528 250.027616 
L 413.180824 266.930532 
L 413.33312 252.682393 
L 413.942304 272.234502 
L 414.0946 264.309254 
L 414.246896 268.365395 
L 414.399192 264.152926 
L 414.85608 278.769552 
L 415.008376 265.451003 
L 415.312968 274.317008 
L 415.465264 264.365085 
L 415.922152 212.62346 
L 416.226744 263.48016 
L 416.37904 261.098956 
L 417.140521 271.221165 
L 417.292817 263.050259 
L 417.597409 280.190458 
L 418.054297 257.866326 
L 418.206593 244.681773 
L 418.511185 276.293435 
L 418.663481 274.663162 
L 419.120369 265.931152 
L 419.272665 253.614775 
L 419.424961 261.255284 
L 419.577257 275.696041 
L 419.729553 263.198212 
L 420.186441 246.99877 
L 420.491034 275.252182 
L 420.795626 234.665644 
L 421.252514 252.955966 
L 421.557106 228.529788 
L 421.709402 247.774825 
L 421.861698 243.269242 
L 422.318586 157.208137 
L 422.470882 231.435805 
L 422.623178 241.10578 
L 422.775474 225.579105 
L 422.92777 231.388348 
L 423.384658 257.964031 
L 423.536954 244.223956 
L 423.68925 246.526996 
L 423.841546 266.788162 
L 423.993842 256.381214 
L 424.450731 232.806462 
L 424.603027 238.322592 
L 424.755323 259.471475 
L 424.907619 249.751252 
L 425.059915 231.310185 
L 425.516803 233.557393 
L 425.669099 251.786301 
L 425.821395 207.001252 
L 425.973691 249.924328 
L 426.125987 221.673708 
L 426.582875 257.788162 
L 426.887467 241.750631 
L 427.192059 250.78413 
L 427.648947 250.01645 
L 427.95354 268.10578 
L 428.258132 218.039093 
L 428.71502 228.965271 
L 428.867316 254.265209 
L 429.171908 226.246289 
L 429.324204 235.620358 
L 429.933388 249.932703 
L 430.085684 248.30243 
L 430.23798 227.776065 
L 430.390276 266.31918 
L 430.99946 267.340892 
L 431.304052 249.8015 
L 431.913237 214.78413 
L 432.065533 253.773894 
L 432.217829 232.507765 
L 432.370125 257.525755 
L 432.522421 255.28413 
L 432.979309 225.383696 
L 433.131605 226.229539 
L 433.436197 247.554291 
L 433.588493 268.066698 
L 434.045381 240.966202 
L 434.197677 244.204415 
L 434.502269 219.716822 
L 434.654565 248.079105 
L 435.111453 265.518001 
L 435.568342 236.290333 
L 435.720638 246.928981 
L 436.177526 254.287542 
L 436.329822 245.348956 
L 436.482118 246.831276 
L 436.634414 269.233572 
L 436.78671 263.904477 
L 437.243598 276.095234 
L 437.395894 260.844924 
L 437.54819 269.063286 
L 437.852782 262.824142 
L 438.30967 224.800259 
L 438.461966 268.114155 
L 438.614262 271.539403 
L 438.766558 259.887418 
L 438.918854 227.787232 
L 439.375743 252.738224 
L 439.528039 251.19449 
L 439.680335 266.827244 
L 439.832631 252.553981 
L 439.984927 265.487294 
L 440.441815 254.614155 
L 440.746407 271.846475 
L 440.898703 273.792194 
L 441.050999 255.700073 
L 441.507887 279.565147 
L 441.812479 248.637418 
L 441.964775 267.061735 
L 442.117071 265.864155 
L 442.573959 256.478919 
L 442.726255 268.834378 
L 442.878551 265.244428 
L 443.030847 267.449763 
L 443.183144 242.093993 
L 443.640032 235.857641 
L 443.944624 268.125321 
L 444.09692 271.991636 
L 444.249216 258.974577 
L 444.706104 272.128423 
L 445.010696 264.091512 
L 445.162992 276.24877 
L 445.315288 276.519552 
L 445.772176 273.948522 
L 445.924472 255.300879 
L 446.076768 270.58748 
L 446.229064 253.377492 
L 446.38136 270.743807 
L 446.838249 272.494118 
L 446.990545 269.523894 
L 447.295137 271.064837 
L 447.447433 274.210929 
L 447.904321 266.134936 
L 448.056617 261.168745 
L 448.361209 267.061735 
L 448.513505 252.992257 
L 448.970393 264.973646 
L 449.122689 264.755904 
L 449.274985 250.585929 
L 449.427281 275.341512 
L 449.579577 274.760867 
L 450.036465 275.869118 
L 450.341057 240.511177 
L 450.493353 265.783199 
L 450.64565 269.942629 
L 451.102538 260.568559 
L 451.254834 267.326934 
L 451.40713 252.269242 
L 451.559426 274.654788 
L 451.711722 274.601748 
L 452.16861 278.345234 
L 452.320906 269.8198 
L 452.473202 245.530408 
L 452.777794 269.923088 
L 453.386978 250.644552 
L 453.539274 268.211859 
L 453.69157 270.258075 
L 453.843866 270.556773 
L 454.300754 253.366326 
L 454.453051 272.346165 
L 454.605347 262.634316 
L 454.757643 267.324142 
L 454.909939 258.935495 
L 455.366827 270.526065 
L 455.519123 261.330656 
L 455.671419 265.328175 
L 455.823715 274.919986 
L 456.432899 268.929291 
L 456.585195 278.501562 
L 456.889787 245.781649 
L 457.042083 251.124701 
L 457.498971 250.14207 
L 457.651267 245.650445 
L 457.803563 266.405718 
L 457.955859 256.825073 
L 458.108155 266.986363 
L 458.565044 269.532269 
L 458.71734 231.843373 
L 458.869636 260.297778 
L 459.021932 261.514899 
L 459.174228 267.519552 
L 459.631116 273.546537 
L 459.783412 267.586549 
L 459.935708 254.577864 
L 460.088004 275.874701 
L 460.2403 267.084068 
L 460.697188 249.229229 
L 461.00178 275.709998 
L 461.154076 251.942629 
L 461.76326 270.031959 
L 461.915556 256.696661 
L 462.067853 264.242257 
L 462.220149 248.017691 
L 462.372445 266.696041 
L 462.829333 217.357951 
L 462.981629 261.096165 
L 463.133925 257.807703 
L 463.286221 202.878113 
L 464.047701 262.279788 
L 464.199997 243.383696 
L 464.352293 278.825383 
L 464.961477 249.717753 
L 465.113773 272.312666 
L 465.266069 271.793435 
L 465.418365 258.539093 
L 465.570661 271.316078 
L 466.02755 262.634316 
L 466.179846 262.464031 
L 466.332142 264.613534 
L 466.484438 264.032889 
L 467.093622 202.612914 
L 467.245918 246.406959 
L 467.398214 254.633696 
L 467.55051 269.389899 
L 467.702806 237.272964 
L 468.159694 234.193869 
L 468.31199 221.469924 
L 468.616582 268.985123 
L 468.768878 247.526376 
L 469.225766 254.971475 
L 469.378062 246.097095 
L 469.530358 264.359502 
L 469.682655 262.491946 
L 469.834951 272.778857 
L 470.291839 250.987914 
L 470.596431 272.139589 
L 470.901023 234.431152 
L 471.357911 223.435185 
L 471.662503 267.438596 
L 471.814799 267.072902 
L 471.967095 249.5698 
L 472.423983 240.293435 
L 472.576279 273.580036 
L 472.728575 263.921227 
L 472.880871 267.254353 
L 473.033167 264.161301 
L 473.490056 237.233882 
L 473.642352 262.475197 
L 473.794648 229.386797 
L 473.946944 252.389279 
L 474.09924 251.663472 
L 474.556128 264.842443 
L 474.708424 264.739155 
L 474.86072 277.357021 
L 475.165312 266.556462 
L 475.6222 264.381835 
L 475.774496 248.698832 
L 475.926792 259.803671 
L 476.079088 258.974577 
L 476.231384 262.288162 
L 476.688272 217.477989 
L 476.840568 214.471475 
L 477.145161 227.74815 
L 477.297457 244.229539 
L 477.754345 259.348646 
L 477.906641 229.049018 
L 478.058937 255.744738 
L 478.211233 259.666884 
L 478.363529 251.163783 
L 478.820417 233.361984 
L 478.972713 240.720544 
L 479.125009 265.671537 
L 479.277305 253.330036 
L 479.429601 269.149825 
L 479.886489 237.066388 
L 480.038785 202.939527 
L 480.191081 252.118497 
L 480.343377 252.118497 
L 480.495673 262.491946 
L 480.952562 241.024825 
L 481.104858 244.168125 
L 481.257154 265.646413 
L 481.40945 195.232021 
L 481.561746 239.972405 
L 482.018634 254.382455 
L 482.323226 254.499701 
L 482.475522 230.673708 
L 482.627818 235.103919 
L 483.084706 225.995048 
L 483.389298 234.157579 
L 483.541594 226.592443 
L 483.69389 247.269552 
L 484.150778 245.912852 
L 484.303074 238.783199 
L 484.45537 271.888348 
L 484.607666 271.581276 
L 485.216851 252.057083 
L 485.369147 230.615085 
L 485.673739 261.21341 
L 485.826035 262.466822 
L 486.282923 249.014279 
L 486.587515 271.567319 
L 486.739811 273.680532 
L 486.892107 237.125011 
L 487.348995 229.707827 
L 487.653587 271.33841 
L 487.805883 256.01552 
L 487.958179 264.395792 
L 488.415067 267.840582 
L 488.567364 254.505284 
L 488.71966 258.734502 
L 489.48114 261.85547 
L 489.633436 224.294986 
L 489.785732 268.817629 
L 490.090324 258.340892 
L 490.547212 248.776996 
L 490.699508 272.231711 
L 491.0041 260.431773 
L 491.156396 249.832207 
L 491.613284 256.688286 
L 491.917876 225.17712 
L 492.222468 266.308013 
L 492.679357 256.124391 
L 492.831653 257.361053 
L 492.983949 254.848646 
L 493.136245 232.876252 
L 493.745429 245.362914 
L 494.202317 265.827864 
L 494.354613 252.057083 
L 494.811501 251.911922 
L 494.963797 264.861984 
L 495.116093 266.751872 
L 495.268389 246.624701 
L 495.420685 268.644552 
L 495.877573 272.421537 
L 496.029869 258.031028 
L 496.182166 264.15851 
L 496.334462 274.880904 
L 496.486758 247.403547 
L 496.943646 271.475197 
L 497.095942 273.278547 
L 497.248238 256.626872 
L 497.55283 268.482641 
L 498.009718 259.666884 
L 498.162014 263.544366 
L 498.31431 274.110433 
L 498.466606 223.10578 
L 498.618902 257.682083 
L 499.07579 263.240085 
L 499.228086 246.683324 
L 499.380382 271.665023 
L 499.532678 247.612914 
L 499.684974 272.656028 
L 500.141863 268.136487 
L 500.294159 277.627802 
L 500.446455 277.876252 
L 500.751047 258.419056 
L 501.207935 265.294676 
L 501.360231 257.414093 
L 501.817119 275.263348 
L 502.274007 261.182703 
L 502.426303 270.361363 
L 502.578599 260.401065 
L 502.883191 266.793745 
L 503.492375 254.78444 
L 503.644672 274.046227 
L 503.949264 261.151996 
L 504.406152 260.624391 
L 504.558448 270.947592 
L 504.710744 259.890209 
L 504.86304 269.593683 
L 505.015336 261.352989 
L 505.472224 261.414403 
L 505.62452 260.568559 
L 505.776816 270.165954 
L 505.929112 236.293125 
L 506.081408 270.450693 
L 506.538296 256.473336 
L 506.842888 277.312356 
L 506.995184 275.327554 
L 507.14748 271.656649 
L 507.756665 273.010557 
L 507.908961 274.294676 
L 508.061257 268.10578 
L 508.213553 240.290644 
L 508.670441 264.027306 
L 508.822737 239.827244 
L 508.975033 259.393311 
L 509.127329 253.840892 
L 509.279625 263.764899 
L 509.736513 265.833448 
L 509.888809 227.834688 
L 510.193401 242.881214 
L 510.345697 269.063286 
L 510.802585 265.579415 
L 510.954881 262.69573 
L 511.107177 273.619118 
L 511.259474 259.90975 
L 511.41177 268.491016 
L 511.868658 273.99877 
L 512.020954 279.394862 
L 512.17325 216.436735 
L 512.325546 252.80243 
L 512.477842 254.265209 
L 512.93473 253.489155 
L 513.087026 264.878733 
L 513.391618 246.529788 
L 513.543914 228.848026 
L 514.000802 249.98016 
L 514.153098 242.811425 
L 514.305394 249.678671 
L 514.45769 249.446971 
L 514.609986 211.598956 
L 515.219171 258.723336 
L 515.523763 270.17712 
L 515.676059 267.268311 
L 516.132947 246.619118 
L 516.285243 260.308944 
L 516.437539 260.001872 
L 516.589835 256.336549 
L 516.742131 270.227368 
L 517.199019 244.910681 
L 517.351315 274.64083 
L 517.503611 266.104229 
L 517.655907 271.067629 
L 517.808203 253.352368 
L 518.265091 278.51552 
L 518.417387 262.709688 
L 518.721979 272.538783 
L 518.874276 255.233882 
L 519.331164 277.315147 
L 519.48346 263.854229 
L 519.635756 268.033199 
L 519.788052 254.354539 
L 519.940348 265.174639 
L 520.397236 266.442008 
L 520.701828 275.450383 
L 520.854124 272.977058 
L 521.00642 267.276686 
L 521.463308 276.287852 
L 521.615604 270.453485 
L 521.920196 276.834998 
L 522.072492 270.646103 
L 522.681677 282.116636 
L 522.986269 269.155408 
L 523.138565 264.663783 
L 523.595453 267.701003 
L 523.747749 273.261797 
L 523.900045 265.889279 
L 524.052341 268.06949 
L 524.204637 280.30212 
L 524.661525 269.523894 
L 524.813821 278.272654 
L 525.118413 260.67743 
L 525.270709 263.686735 
L 525.727597 269.46248 
L 526.032189 281.991016 
L 526.184485 249.740085 
L 526.336781 262.237914 
L 526.79367 272.092132 
L 526.945966 264.853609 
L 527.098262 221.30243 
L 527.250558 251.937046 
L 527.402854 256.021103 
L 527.859742 219.859192 
L 528.012038 261.378113 
L 528.164334 272.150755 
L 528.31663 234.847095 
L 528.468926 258.206897 
L 529.07811 272.471785 
L 529.382702 244.299328 
L 529.534998 245.977058 
L 529.991886 261.53444 
L 530.144182 244.324453 
L 530.296479 258.254353 
L 530.448775 257.609502 
L 530.601071 259.407269 
L 531.057959 254.898894 
L 531.514847 275.989155 
L 531.667143 271.986053 
L 532.124031 275.609502 
L 532.276327 265.275135 
L 532.428623 224.546227 
L 533.190103 214.664093 
L 533.342399 255.186425 
L 533.494695 150.156649 
L 533.646991 235.522654 
L 533.799287 239.204725 
L 534.256176 265.272343 
L 534.408472 261.232951 
L 534.560768 269.42619 
L 534.713064 269.864465 
L 534.86536 276.957827 
L 535.322248 262.963721 
L 535.474544 261.98109 
L 535.62684 272.164713 
L 535.931432 255.764279 
L 536.38832 251.359192 
L 536.540616 266.687666 
L 536.692912 255.951314 
L 536.845208 260.568559 
L 536.997504 261.593063 
L 537.454392 256.185805 
L 537.606688 273.359502 
L 537.911281 265.437046 
L 538.063577 247.322592 
L 538.520465 268.133696 
L 538.825057 261.827554 
L 538.977353 265.964651 
L 539.129649 263.37408 
L 539.586537 222.162232 
L 539.738833 255.635867 
L 539.891129 236.455036 
L 540.043425 248.246599 
L 540.195721 247.682703 
L 540.652609 259.303981 
L 540.804905 257.383386 
L 540.957201 277.303981 
L 541.109497 254.898894 
L 541.261793 264.73078 
L 541.718682 267.608882 
L 541.870978 273.323212 
L 542.023274 266.268931 
L 542.327866 262.653857 
L 542.784754 273.178051 
L 543.089346 276.148274 
L 543.241642 265.783199 
L 543.850826 268.102989 
L 544.003122 268.077864 
L 544.155418 275.609502 
L 544.307714 252.417194 
L 544.916898 246.219924 
L 545.069194 269.568559 
L 545.373787 276.103609 
L 545.526083 267.701003 
L 545.982971 266.291264 
L 546.135267 276.396723 
L 546.287563 266.386177 
L 546.439859 274.009936 
L 546.592155 263.686735 
L 547.201339 279.165954 
L 547.353635 275.684874 
L 547.505931 261.780098 
L 547.658227 234.983882 
L 548.115115 255.504663 
L 548.267411 268.393311 
L 548.419707 259.789713 
L 548.572003 268.415644 
L 548.724299 259.973956 
L 549.181188 264.055222 
L 549.333484 272.80119 
L 549.48578 260.635557 
L 549.638076 268.499391 
L 549.790372 263.83748 
L 550.24726 272.053051 
L 550.399556 277.56918 
L 550.551852 270.44511 
L 550.704148 272.739775 
L 550.856444 264.406959 
L 551.313332 274.9814 
L 551.465628 274.886487 
L 551.617924 262.310495 
L 551.77022 264.686115 
L 551.922516 275.709998 
L 552.379404 280.422157 
L 552.5317 278.493187 
L 552.683996 279.816388 
L 552.836292 260.914713 
L 552.988589 275.08748 
L 553.445477 277.130904 
L 553.597773 277.267691 
L 553.750069 276.834998 
L 553.902365 253.1765 
L 554.054661 260.638348 
L 554.511549 261.048708 
L 554.663845 264.451624 
L 554.816141 277.306773 
L 554.968437 269.990085 
L 555.120733 274.135557 
L 555.577621 278.222405 
L 555.729917 263.139589 
L 555.882213 271.866016 
L 556.186805 272.161922 
L 556.643693 264.836859 
L 556.79599 254.555532 
L 556.948286 271.849266 
L 557.100582 270.207827 
L 557.252878 269.786301 
L 557.862062 264.535371 
L 558.014358 270.210619 
L 558.166654 264.733572 
L 558.31895 270.143621 
L 558.775838 243.045917 
L 559.08043 275.818869 
L 559.232726 256.788783 
L 559.385022 266.372219 
L 559.84191 272.561115 
L 559.994206 261.366946 
L 560.146502 274.841822 
L 560.298798 249.854539 
L 560.451094 263.840271 
L 561.060279 273.736363 
L 561.212575 252.950383 
L 561.364871 248.760247 
L 561.517167 257.779788 
L 561.974055 277.879043 
L 562.126351 275.562046 
L 562.430943 259.764589 
L 562.583239 265.995358 
L 563.040127 266.804912 
L 563.344719 268.669676 
L 563.649311 275.215892 
L 564.106199 277.080656 
L 564.258496 279.269242 
L 564.410792 259.33748 
L 564.563088 262.321661 
L 564.715384 270.182703 
L 565.172272 268.306773 
L 565.324568 277.560805 
L 565.476864 255.973646 
L 565.62916 262.966512 
L 565.781456 249.946661 
L 566.39064 276.232021 
L 566.542936 270.495358 
L 566.695232 259.072281 
L 566.847528 259.24815 
L 567.304416 268.532889 
L 567.609008 252.553981 
L 567.761304 271.464031 
L 567.9136 275.414093 
L 568.370489 271.818559 
L 568.675081 264.968063 
L 568.827377 252.930842 
L 568.979673 266.134936 
L 569.436561 261.232951 
L 569.588857 277.664093 
L 569.741153 264.032889 
L 569.893449 262.743187 
L 570.045745 268.239775 
L 571.111817 276.74846 
L 571.568705 273.471165 
L 571.721001 264.189217 
L 572.025594 282.038472 
L 572.17789 271.076003 
L 572.634778 273.688907 
L 572.787074 277.019242 
L 572.93937 260.37315 
L 573.091666 263.184254 
L 573.243962 273.828485 
L 573.70085 246.370668 
L 574.157738 257.037232 
L 574.310034 271.184874 
L 574.766922 250.828795 
L 574.919218 259.890209 
L 575.071514 278.549018 
L 575.22381 264.616326 
L 575.376106 280.246289 
L 575.832995 278.102368 
L 575.985291 262.357951 
L 576.137587 277.192319 
L 576.442179 268.597095 
L 576.746771 283.35609 
L 576.899067 274.984192 
L 577.203659 277.51614 
L 577.355955 271.218373 
L 577.508251 271.095544 
L 577.965139 275.843993 
L 578.117435 279.721475 
L 578.269731 265.370048 
L 578.422027 280.067629 
L 578.574323 277.719924 
L 579.183507 278.828175 
L 579.335803 256.138348 
L 579.640396 267.726127 
L 580.097284 235.293745 
L 580.24958 258.929912 
L 580.554172 267.65913 
L 580.706468 262.678981 
L 581.163356 268.728299 
L 581.315652 266.017691 
L 581.467948 273.549328 
L 581.77254 258.360433 
L 582.229428 276.07011 
L 582.381724 270.428361 
L 582.53402 237.345544 
L 582.686316 234.598646 
L 582.838612 254.538783 
L 583.447797 267.310185 
L 583.600093 260.937046 
L 583.752389 274.763658 
L 583.904685 269.596475 
L 584.361573 268.47985 
L 584.513869 261.339031 
L 584.666165 273.418125 
L 584.818461 260.8198 
L 584.970757 259.923708 
L 585.427645 248.308013 
L 585.579941 247.40913 
L 585.732237 268.100197 
L 585.884533 267.405098 
L 586.036829 265.166264 
L 586.493717 267.541884 
L 586.646013 274.247219 
L 586.798309 222.290644 
L 586.950605 249.078485 
L 587.102902 252.514899 
L 587.255198 260.833758 
L 587.712086 196.549639 
L 588.016678 251.495979 
L 588.625862 260.46248 
L 588.778158 264.750321 
L 588.930454 229.247219 
L 589.08275 255.487914 
L 589.235046 235.804601 
L 589.691934 266.936115 
L 589.84423 268.518931 
L 589.996526 266.442008 
L 590.148822 219.259006 
L 590.301118 243.179912 
L 590.758007 228.906649 
L 590.910303 239.168435 
L 591.062599 218.01676 
L 591.367191 267.187356 
L 591.824079 268.823212 
L 591.976375 248.207517 
L 592.128671 264.538162 
L 592.280967 257.796537 
L 592.433263 261.983882 
L 592.890151 269.94542 
L 593.042447 268.954415 
L 593.194743 240.779167 
L 593.347039 253.849266 
L 593.499335 228.370668 
L 593.956223 272.270792 
L 594.260815 250.996289 
L 594.413111 273.021723 
L 595.022296 256.347716 
L 595.174592 239.310805 
L 595.326888 256.157889 
L 595.479184 253.958137 
L 595.63148 263.667194 
L 596.088368 251.102368 
L 596.240664 271.955346 
L 596.39296 244.98047 
L 596.545256 267.684254 
L 596.697552 268.396103 
L 597.306736 276.661922 
L 597.459032 273.683324 
L 597.611328 256.936735 
L 598.220512 275.857951 
L 598.372809 274.456587 
L 598.829697 254.128423 
L 599.286585 274.81949 
L 599.438881 269.225197 
L 599.591177 269.468063 
L 599.895769 268.521723 
L 600.352657 261.565147 
L 600.504953 274.811115 
L 600.961841 230.30243 
L 601.723321 278.995668 
L 601.875617 241.546847 
L 602.027913 258.120358 
L 602.484802 227.999391 
L 602.637098 250.669676 
L 602.94169 268.485433 
L 603.093986 238.208137 
L 603.550874 264.973646 
L 603.70317 245.929601 
L 603.855466 270.375321 
L 604.007762 245.468993 
L 604.160058 260.133075 
L 604.616946 243.216202 
L 604.769242 272.74815 
L 604.921538 267.539093 
L 605.073834 251.3564 
L 605.378426 284.763038 
L 605.835314 272.566698 
L 606.139907 237.733572 
L 606.292203 268.351438 
L 606.749091 255.540954 
L 606.901387 265.037852 
L 607.205979 250.326314 
L 607.358275 260.236363 
L 607.815163 233.043745 
L 607.967459 34.918125 
L 608.272051 248.372219 
L 608.424347 242.970544 
L 608.881235 255.954105 
L 609.033531 266.581587 
L 609.185827 261.210619 
L 609.338123 269.543435 
L 609.490419 268.290023 
L 610.099604 254.181462 
L 610.2519 206.540644 
L 610.404196 259.834378 
L 610.556492 251.532269 
L 611.01338 255.125011 
L 611.165676 235.371909 
L 611.317972 256.825073 
L 611.470268 260.892381 
L 611.622564 247.143931 
L 612.079452 263.776065 
L 612.231748 244.698522 
L 612.384044 247.922778 
L 612.53634 260.889589 
L 612.688636 261.671227 
L 613.145524 265.227678 
L 613.29782 272.510867 
L 613.602413 254.80119 
L 613.754709 256.333758 
L 614.211597 262.762728 
L 614.363893 275.090271 
L 614.668485 256.852989 
L 614.820781 266.548088 
L 615.277669 260.294986 
L 615.429965 223.867877 
L 615.582261 226.352368 
L 615.734557 266.227058 
L 615.886853 237.524204 
L 616.343741 226.74877 
L 616.648333 272.859812 
L 616.952925 262.059254 
L 617.409814 233.719304 
L 617.56211 233.646723 
L 617.714406 262.651065 
L 617.866702 257.017691 
L 618.018998 273.200383 
L 618.628182 247.917194 
L 618.780478 274.132765 
L 619.08507 246.621909 
L 619.541958 266.310805 
L 619.694254 256.132765 
L 619.998846 275.196351 
L 620.151142 276.558634 
L 620.60803 276.829415 
L 620.760326 265.0881 
L 620.912622 278.46248 
L 621.064919 269.669056 
L 621.217215 279.383696 
L 621.674103 275.299639 
L 621.826399 262.662232 
L 621.978695 277.535681 
L 622.130991 277.315147 
L 622.283287 239.062356 
L 622.740175 245.170296 
L 622.892471 268.37377 
L 623.044767 264.761487 
L 623.197063 243.509316 
L 623.349359 271.589651 
L 623.806247 275.101438 
L 623.958543 280.022964 
L 624.110839 246.493497 
L 624.263135 262.921847 
L 624.415431 233.716512 
L 625.024616 271.986053 
L 625.176912 271.684564 
L 625.481504 259.008075 
L 625.938392 246.482331 
L 626.090688 267.832207 
L 626.547576 234.687976 
L 627.004464 202.339341 
L 627.15676 251.495979 
L 627.309056 246.28413 
L 627.613648 260.200073 
L 628.070536 253.611984 
L 628.222832 273.088721 
L 628.375128 273.250631 
L 628.679721 224.222405 
L 629.136609 250.809254 
L 629.288905 230.969614 
L 629.441201 266.369428 
L 629.593497 258.773584 
L 629.745793 228.666574 
L 630.202681 258.946661 
L 630.354977 231.067319 
L 630.507273 263.949142 
L 630.659569 252.754974 
L 630.811865 270.699142 
L 631.268753 252.185495 
L 631.421049 211.629663 
L 631.573345 273.912232 
L 631.725641 256.244428 
L 631.877937 262.489155 
L 632.334825 241.812046 
L 632.639418 210.233882 
L 632.791714 256.386797 
L 633.400898 270.380904 
L 633.857786 242.842132 
L 634.010082 248.525755 
L 634.46697 260.038162 
L 634.619266 260.110743 
L 634.771562 267.42743 
L 634.923858 236.575073 
L 635.076154 268.167194 
L 635.533042 263.039093 
L 635.685338 259.647343 
L 635.837634 251.948212 
L 635.98993 233.188907 
L 636.142226 251.618807 
L 636.751411 273.1948 
L 637.056003 270.869428 
L 637.208299 213.564217 
L 637.665187 268.588721 
L 637.817483 246.122219 
L 637.969779 245.527616 
L 638.122075 261.76614 
L 638.274371 234.210619 
L 638.883555 277.482641 
L 639.188147 247.132765 
L 639.340443 269.456897 
L 639.797331 220.71341 
L 639.949627 271.835309 
L 640.101924 244.413783 
L 640.25422 253.1765 
L 640.406516 248.30243 
L 640.863404 219.948522 
L 641.0157 264.434874 
L 641.167996 243.283199 
L 641.320292 259.429601 
L 641.472588 243.573522 
L 641.929476 251.610433 
L 642.081772 248.028857 
L 642.386364 267.65913 
L 642.53866 249.952244 
L 642.995548 237.150135 
L 643.147844 229.043435 
L 643.452436 268.823212 
L 643.604732 254.533199 
L 644.061621 264.616326 
L 644.213917 246.580036 
L 644.366213 271.6064 
L 644.518509 269.119118 
L 644.670805 255.239465 
L 644.823101 230.615085 
L 645.127693 265.043435 
L 645.279989 250.711549 
L 645.432285 274.01552 
L 645.584581 268.608261 
L 645.736877 248.115395 
L 646.193765 265.872529 
L 646.498357 237.094304 
L 646.650653 259.87346 
L 646.802949 242.387108 
L 647.259837 246.842443 
L 647.412133 262.464031 
L 647.56443 245.120048 
L 647.716726 274.118807 
L 647.869022 260.847716 
L 648.32591 265.093683 
L 648.478206 272.826314 
L 648.782798 271.852058 
L 648.935094 263.457827 
L 649.391982 250.192319 
L 649.544278 266.006525 
L 649.696574 265.043435 
L 649.84887 261.006835 
L 650.001166 271.614775 
L 650.458054 264.647033 
L 650.61035 272.929601 
L 650.762646 270.079415 
L 650.914942 271.80181 
L 651.524127 275.2131 
L 651.676423 248.101438 
L 651.981015 269.719304 
L 652.133311 247.579415 
L 652.590199 235.014589 
L 652.742495 255.722405 
L 652.894791 246.102678 
L 653.199383 263.013969 
L 653.808567 238.554291 
L 653.960863 263.455036 
L 654.113159 248.989155 
L 654.265455 261.369738 
L 654.722343 220.272343 
L 655.026935 258.419056 
L 655.331528 257.048398 
L 655.940712 256.353299 
L 656.093008 252.442319 
L 656.245304 217.313286 
L 657.006784 251.071661 
L 657.15908 238.869738 
L 657.311376 265.342132 
L 657.463672 225.58748 
L 657.92056 235.584068 
L 658.072856 252.316698 
L 658.225152 249.011487 
L 658.529744 252.193869 
L 658.986633 259.929291 
L 659.138929 242.900755 
L 659.291225 248.461549 
L 659.443521 244.840892 
L 659.595817 259.217443 
L 660.052705 240.430222 
L 660.205001 257.017691 
L 660.357297 251.074453 
L 660.509593 232.613845 
L 660.661889 277.256525 
L 661.118777 268.862294 
L 661.271073 249.885247 
L 661.423369 255.06918 
L 661.575665 267.717753 
L 661.727961 258.377182 
L 662.184849 259.412852 
L 662.337145 246.836859 
L 662.489441 275.157269 
L 662.641737 252.821971 
L 662.794034 265.64083 
L 663.250922 259.55243 
L 663.403218 251.744428 
L 663.555514 269.775135 
L 663.70781 267.148274 
L 663.860106 226.360743 
L 664.316994 276.8015 
L 664.46929 265.94511 
L 664.621586 269.750011 
L 664.773882 255.264589 
L 664.926178 261.062666 
L 665.383066 256.612914 
L 665.535362 267.502802 
L 665.687658 267.589341 
L 665.839954 265.065768 
L 665.99225 248.606711 
L 666.449138 265.774825 
L 666.601435 258.430222 
L 666.753731 276.580966 
L 666.906027 251.772343 
L 667.058323 264.253423 
L 667.515211 267.650755 
L 667.667507 269.727678 
L 667.819803 246.775445 
L 667.972099 267.178981 
L 668.124395 265.931152 
L 668.581283 273.627492 
L 668.733579 269.90913 
L 668.885875 277.027616 
L 669.038171 264.501872 
L 669.190467 264.155718 
L 669.647355 274.275135 
L 669.799651 267.290644 
L 669.951947 272.214961 
L 670.104243 264.189217 
L 670.256539 263.206587 
L 670.713428 250.507765 
L 671.01802 261.369738 
L 671.170316 265.138348 
L 671.322612 250.309564 
L 671.7795 258.703795 
L 672.084092 276.812666 
L 672.236388 243.188286 
L 672.388684 261.241326 
L 672.845572 273.543745 
L 672.997868 266.277306 
L 673.150164 272.619738 
L 673.454756 249.433013 
L 673.911644 254.591822 
L 674.06394 259.583137 
L 674.216237 273.658199 
L 674.368533 268.890209 
L 674.977717 262.740395 
L 675.282309 278.004663 
L 675.434605 275.201934 
L 675.586901 255.272964 
L 676.043789 276.756835 
L 676.196085 253.575693 
L 676.500677 256.869738 
L 676.652973 264.365085 
L 677.109861 270.0515 
L 677.262157 258.592132 
L 677.414453 259.06949 
L 677.566749 264.412542 
L 677.719045 258.282269 
L 678.175934 265.928361 
L 678.32823 275.997529 
L 678.632822 271.316078 
L 678.785118 275.958448 
L 679.242006 279.347405 
L 679.394302 268.376562 
L 679.546598 269.130284 
L 679.698894 271.913472 
L 679.85119 272.522033 
L 680.460374 263.055842 
L 680.61267 264.861984 
L 680.764966 270.294366 
L 680.917262 258.419056 
L 681.37415 265.487294 
L 681.526446 274.942319 
L 681.678743 245.12284 
L 681.983335 266.603919 
L 682.440223 266.743497 
L 682.592519 264.485123 
L 682.744815 264.1948 
L 682.897111 266.442008 
L 683.049407 257.204725 
L 683.506295 266.377802 
L 683.658591 263.717443 
L 683.810887 267.084068 
L 684.115479 258.111984 
L 684.572367 269.437356 
L 684.724663 276.156649 
L 685.181551 249.218063 
L 685.790736 260.797467 
L 686.095328 272.602989 
L 686.247624 257.751872 
L 686.704512 261.595855 
L 686.856808 269.549018 
L 687.1614 267.463721 
L 687.313696 244.045296 
L 687.770584 277.125321 
L 687.92288 258.025445 
L 688.075176 272.388038 
L 688.379768 260.981711 
L 688.836656 269.01583 
L 688.988952 274.124391 
L 689.141248 258.996909 
L 689.293545 273.560495 
L 689.902729 254.268001 
L 690.055025 267.692629 
L 690.207321 248.042815 
L 690.359617 271.955346 
L 690.511913 274.470544 
L 690.968801 258.382765 
L 691.121097 268.549639 
L 691.273393 263.826314 
L 691.425689 263.974266 
L 691.577985 252.054291 
L 692.034873 253.031338 
L 692.187169 264.351127 
L 692.491761 256.330966 
L 692.491761 256.330966 
" clip-path="url(#pad760cfc0d)" style="fill: none; stroke: #1f77b4; stroke-width: 1.5; stroke-linecap: square"/>
   </g>
   <g id="patch_3">
    <path d="M 53.328125 299.518125 
L 53.328125 22.318125 
" style="fill: none; stroke: #000000; stroke-width: 0.8; stroke-linejoin: miter; stroke-linecap: square"/>
   </g>
   <g id="patch_4">
    <path d="M 722.928125 299.518125 
L 722.928125 22.318125 
" style="fill: none; stroke: #000000; stroke-width: 0.8; stroke-linejoin: miter; stroke-linecap: square"/>
   </g>
   <g id="patch_5">
    <path d="M 53.328125 299.518125 
L 722.928125 299.518125 
" style="fill: none; stroke: #000000; stroke-width: 0.8; stroke-linejoin: miter; stroke-linecap: square"/>
   </g>
   <g id="patch_6">
    <path d="M 53.328125 22.318125 
L 722.928125 22.318125 
" style="fill: none; stroke: #000000; stroke-width: 0.8; stroke-linejoin: miter; stroke-linecap: square"/>
   </g>
   <g id="text_14">
    <!-- Daily Price Range Over Time -->
    <g transform="translate(302.554062 16.318125) scale(0.12 -0.12)">
     <defs>
      <path id="DejaVuSans-4f" d="M 2522 4238 
Q 1834 4238 1429 3725 
Q 1025 3213 1025 2328 
Q 1025 1447 1429 934 
Q 1834 422 2522 422 
Q 3209 422 3611 934 
Q 4013 1447 4013 2328 
Q 4013 3213 3611 3725 
Q 3209 4238 2522 4238 
z
M 2522 4750 
Q 3503 4750 4090 4092 
Q 4678 3434 4678 2328 
Q 4678 1225 4090 567 
Q 3503 -91 2522 -91 
Q 1538 -91 948 565 
Q 359 1222 359 2328 
Q 359 3434 948 4092 
Q 1538 4750 2522 4750 
z
" transform="scale(0.015625)"/>
      <path id="DejaVuSans-76" d="M 191 3500 
L 800 3500 
L 1894 563 
L 2988 3500 
L 3597 3500 
L 2284 0 
L 1503 0 
L 191 3500 
z
" transform="scale(0.015625)"/>
      <path id="DejaVuSans-54" d="M -19 4666 
L 3928 4666 
L 3928 4134 
L 2272 4134 
L 2272 0 
L 1638 0 
L 1638 4134 
L -19 4134 
L -19 4666 
z
" transform="scale(0.015625)"/>
      <path id="DejaVuSans-6d" d="M 3328 2828 
Q 3544 3216 3844 3400 
Q 4144 3584 4550 3584 
Q 5097 3584 5394 3201 
Q 5691 2819 5691 2113 
L 5691 0 
L 5113 0 
L 5113 2094 
Q 5113 2597 4934 2840 
Q 4756 3084 4391 3084 
Q 3944 3084 3684 2787 
Q 3425 2491 3425 1978 
L 3425 0 
L 2847 0 
L 2847 2094 
Q 2847 2600 2669 2842 
Q 2491 3084 2119 3084 
Q 1678 3084 1418 2786 
Q 1159 2488 1159 1978 
L 1159 0 
L 581 0 
L 581 3500 
L 1159 3500 
L 1159 2956 
Q 1356 3278 1631 3431 
Q 1906 3584 2284 3584 
Q 2666 3584 2933 3390 
Q 3200 3197 3328 2828 
z
" transform="scale(0.015625)"/>
     </defs>
     <use xlink:href="#DejaVuSans-44"/>
     <use xlink:href="#DejaVuSans-61" transform="translate(77.001953 0)"/>
     <use xlink:href="#DejaVuSans-69" transform="translate(138.28125 0)"/>
     <use xlink:href="#DejaVuSans-6c" transform="translate(166.064453 0)"/>
     <use xlink:href="#DejaVuSans-79" transform="translate(193.847656 0)"/>
     <use xlink:href="#DejaVuSans-20" transform="translate(253.027344 0)"/>
     <use xlink:href="#DejaVuSans-50" transform="translate(284.814453 0)"/>
     <use xlink:href="#DejaVuSans-72" transform="translate(343.367188 0)"/>
     <use xlink:href="#DejaVuSans-69" transform="translate(384.480469 0)"/>
     <use xlink:href="#DejaVuSans-63" transform="translate(412.263672 0)"/>
     <use xlink:href="#DejaVuSans-65" transform="translate(467.244141 0)"/>
     <use xlink:href="#DejaVuSans-20" transform="translate(528.767578 0)"/>
     <use xlink:href="#DejaVuSans-52" transform="translate(560.554688 0)"/>
     <use xlink:href="#DejaVuSans-61" transform="translate(627.787109 0)"/>
     <use xlink:href="#DejaVuSans-6e" transform="translate(689.066406 0)"/>
     <use xlink:href="#DejaVuSans-67" transform="translate(752.445312 0)"/>
     <use xlink:href="#DejaVuSans-65" transform="translate(815.921875 0)"/>
     <use xlink:href="#DejaVuSans-20" transform="translate(877.445312 0)"/>
     <use xlink:href="#DejaVuSans-4f" transform="translate(909.232422 0)"/>
     <use xlink:href="#DejaVuSans-76" transform="translate(987.943359 0)"/>
     <use xlink:href="#DejaVuSans-65" transform="translate(1047.123047 0)"/>
     <use xlink:href="#DejaVuSans-72" transform="translate(1108.646484 0)"/>
     <use xlink:href="#DejaVuSans-20" transform="translate(1149.759766 0)"/>
     <use xlink:href="#DejaVuSans-54" transform="translate(1181.546875 0)"/>
     <use xlink:href="#DejaVuSans-69" transform="translate(1239.505859 0)"/>
     <use xlink:href="#DejaVuSans-6d" transform="translate(1267.289062 0)"/>
     <use xlink:href="#DejaVuSans-65" transform="translate(1364.701172 0)"/>
    </g>
   </g>
  </g>
 </g>
 <defs>
  <clipPath id="pad760cfc0d">
   <rect x="53.328125" y="22.318125" width="669.6" height="277.2"/>
  </clipPath>
 </defs>
</svg>
