<?xml version="1.0" encoding="utf-8" standalone="no"?>
<!DOCTYPE svg PUBLIC "-//W3C//DTD SVG 1.1//EN"
  "http://www.w3.org/Graphics/SVG/1.1/DTD/svg11.dtd">
<svg xmlns:xlink="http://www.w3.org/1999/xlink" width="820.190625pt" height="614.274375pt" viewBox="0 0 820.190625 614.274375" xmlns="http://www.w3.org/2000/svg" version="1.1">
 <metadata>
  <rdf:RDF xmlns:dc="http://purl.org/dc/elements/1.1/" xmlns:cc="http://creativecommons.org/ns#" xmlns:rdf="http://www.w3.org/1999/02/22-rdf-syntax-ns#">
   <cc:Work>
    <dc:type rdf:resource="http://purl.org/dc/dcmitype/StillImage"/>
    <dc:date>2025-12-19T16:08:39.269212</dc:date>
    <dc:format>image/svg+xml</dc:format>
    <dc:creator>
     <cc:Agent>
      <dc:title>Matplotlib v3.10.0, https://matplotlib.org/</dc:title>
     </cc:Agent>
    </dc:creator>
   </cc:Work>
  </rdf:RDF>
 </metadata>
 <defs>
  <style type="text/css">*{stroke-linejoin: round; stroke-linecap: butt}</style>
 </defs>
 <g id="figure_1">
  <g id="patch_1">
   <path d="M 0 614.274375 
L 820.190625 614.274375 
L 820.190625 0 
L 0 0 
z
" style="fill: #ffffff"/>
  </g>
  <g id="axes_1">
   <g id="patch_2">
    <path d="M 59.690625 576.718125 
L 812.990625 576.718125 
L 812.990625 22.318125 
L 59.690625 22.318125 
z
" style="fill: #ffffff"/>
   </g>
   <g id="matplotlib.axis_1">
    <g id="xtick_1">
     <g id="line2d_1">
      <defs>
       <path id="m2b0a1e577e" d="M 0 0 
L 0 3.5 
" style="stroke: #000000; stroke-width: 0.8"/>
      </defs>
      <g>
       <use xlink:href="#m2b0a1e577e" x="156.468096" y="576.718125" style="stroke: #000000; stroke-width: 0.8"/>
      </g>
     </g>
     <g id="text_1">
      <!-- 2016 -->
      <g transform="translate(143.743096 591.316563) scale(0.1 -0.1)">
       <defs>
        <path id="DejaVuSans-32" d="M 1228 531 
L 3431 531 
L 3431 0 
L 469 0 
L 469 531 
Q 828 903 1448 1529 
Q 2069 2156 2228 2338 
Q 2531 2678 2651 2914 
Q 2772 3150 2772 3378 
Q 2772 3750 2511 3984 
Q 2250 4219 1831 4219 
Q 1534 4219 1204 4116 
Q 875 4013 500 3803 
L 500 4441 
Q 881 4594 1212 4672 
Q 1544 4750 1819 4750 
Q 2544 4750 2975 4387 
Q 3406 4025 3406 3419 
Q 3406 3131 3298 2873 
Q 3191 2616 2906 2266 
Q 2828 2175 2409 1742 
Q 1991 1309 1228 531 
z
" transform="scale(0.015625)"/>
        <path id="DejaVuSans-30" d="M 2034 4250 
Q 1547 4250 1301 3770 
Q 1056 3291 1056 2328 
Q 1056 1369 1301 889 
Q 1547 409 2034 409 
Q 2525 409 2770 889 
Q 3016 1369 3016 2328 
Q 3016 3291 2770 3770 
Q 2525 4250 2034 4250 
z
M 2034 4750 
Q 2819 4750 3233 4129 
Q 3647 3509 3647 2328 
Q 3647 1150 3233 529 
Q 2819 -91 2034 -91 
Q 1250 -91 836 529 
Q 422 1150 422 2328 
Q 422 3509 836 4129 
Q 1250 4750 2034 4750 
z
" transform="scale(0.015625)"/>
        <path id="DejaVuSans-31" d="M 794 531 
L 1825 531 
L 1825 4091 
L 703 3866 
L 703 4441 
L 1819 4666 
L 2450 4666 
L 2450 531 
L 3481 531 
L 3481 0 
L 794 0 
L 794 531 
z
" transform="scale(0.015625)"/>
        <path id="DejaVuSans-36" d="M 2113 2584 
Q 1688 2584 1439 2293 
Q 1191 2003 1191 1497 
Q 1191 994 1439 701 
Q 1688 409 2113 409 
Q 2538 409 2786 701 
Q 3034 994 3034 1497 
Q 3034 2003 2786 2293 
Q 2538 2584 2113 2584 
z
M 3366 4563 
L 3366 3988 
Q 3128 4100 2886 4159 
Q 2644 4219 2406 4219 
Q 1781 4219 1451 3797 
Q 1122 3375 1075 2522 
Q 1259 2794 1537 2939 
Q 1816 3084 2150 3084 
Q 2853 3084 3261 2657 
Q 3669 2231 3669 1497 
Q 3669 778 3244 343 
Q 2819 -91 2113 -91 
Q 1303 -91 875 529 
Q 447 1150 447 2328 
Q 447 3434 972 4092 
Q 1497 4750 2381 4750 
Q 2619 4750 2861 4703 
Q 3103 4656 3366 4563 
z
" transform="scale(0.015625)"/>
       </defs>
       <use xlink:href="#DejaVuSans-32"/>
       <use xlink:href="#DejaVuSans-30" transform="translate(63.623047 0)"/>
       <use xlink:href="#DejaVuSans-31" transform="translate(127.246094 0)"/>
       <use xlink:href="#DejaVuSans-36" transform="translate(190.869141 0)"/>
      </g>
     </g>
    </g>
    <g id="xtick_2">
     <g id="line2d_2">
      <g>
       <use xlink:href="#m2b0a1e577e" x="281.712552" y="576.718125" style="stroke: #000000; stroke-width: 0.8"/>
      </g>
     </g>
     <g id="text_2">
      <!-- 2018 -->
      <g transform="translate(268.987552 591.316563) scale(0.1 -0.1)">
       <defs>
        <path id="DejaVuSans-38" d="M 2034 2216 
Q 1584 2216 1326 1975 
Q 1069 1734 1069 1313 
Q 1069 891 1326 650 
Q 1584 409 2034 409 
Q 2484 409 2743 651 
Q 3003 894 3003 1313 
Q 3003 1734 2745 1975 
Q 2488 2216 2034 2216 
z
M 1403 2484 
Q 997 2584 770 2862 
Q 544 3141 544 3541 
Q 544 4100 942 4425 
Q 1341 4750 2034 4750 
Q 2731 4750 3128 4425 
Q 3525 4100 3525 3541 
Q 3525 3141 3298 2862 
Q 3072 2584 2669 2484 
Q 3125 2378 3379 2068 
Q 3634 1759 3634 1313 
Q 3634 634 3220 271 
Q 2806 -91 2034 -91 
Q 1263 -91 848 271 
Q 434 634 434 1313 
Q 434 1759 690 2068 
Q 947 2378 1403 2484 
z
M 1172 3481 
Q 1172 3119 1398 2916 
Q 1625 2713 2034 2713 
Q 2441 2713 2670 2916 
Q 2900 3119 2900 3481 
Q 2900 3844 2670 4047 
Q 2441 4250 2034 4250 
Q 1625 4250 1398 4047 
Q 1172 3844 1172 3481 
z
" transform="scale(0.015625)"/>
       </defs>
       <use xlink:href="#DejaVuSans-32"/>
       <use xlink:href="#DejaVuSans-30" transform="translate(63.623047 0)"/>
       <use xlink:href="#DejaVuSans-31" transform="translate(127.246094 0)"/>
       <use xlink:href="#DejaVuSans-38" transform="translate(190.869141 0)"/>
      </g>
     </g>
    </g>
    <g id="xtick_3">
     <g id="line2d_3">
      <g>
       <use xlink:href="#m2b0a1e577e" x="406.785675" y="576.718125" style="stroke: #000000; stroke-width: 0.8"/>
      </g>
     </g>
     <g id="text_3">
      <!-- 2020 -->
      <g transform="translate(394.060675 591.316563) scale(0.1 -0.1)">
       <use xlink:href="#DejaVuSans-32"/>
       <use xlink:href="#DejaVuSans-30" transform="translate(63.623047 0)"/>
       <use xlink:href="#DejaVuSans-32" transform="translate(127.246094 0)"/>
       <use xlink:href="#DejaVuSans-30" transform="translate(190.869141 0)"/>
      </g>
     </g>
    </g>
    <g id="xtick_4">
     <g id="line2d_4">
      <g>
       <use xlink:href="#m2b0a1e577e" x="532.030131" y="576.718125" style="stroke: #000000; stroke-width: 0.8"/>
      </g>
     </g>
     <g id="text_4">
      <!-- 2022 -->
      <g transform="translate(519.305131 591.316563) scale(0.1 -0.1)">
       <use xlink:href="#DejaVuSans-32"/>
       <use xlink:href="#DejaVuSans-30" transform="translate(63.623047 0)"/>
       <use xlink:href="#DejaVuSans-32" transform="translate(127.246094 0)"/>
       <use xlink:href="#DejaVuSans-32" transform="translate(190.869141 0)"/>
      </g>
     </g>
    </g>
    <g id="xtick_5">
     <g id="line2d_5">
      <g>
       <use xlink:href="#m2b0a1e577e" x="657.103254" y="576.718125" style="stroke: #000000; stroke-width: 0.8"/>
      </g>
     </g>
     <g id="text_5">
      <!-- 2024 -->
      <g transform="translate(644.378254 591.316563) scale(0.1 -0.1)">
       <defs>
        <path id="DejaVuSans-34" d="M 2419 4116 
L 825 1625 
L 2419 1625 
L 2419 4116 
z
M 2253 4666 
L 3047 4666 
L 3047 1625 
L 3713 1625 
L 3713 1100 
L 3047 1100 
L 3047 0 
L 2419 0 
L 2419 1100 
L 313 1100 
L 313 1709 
L 2253 4666 
z
" transform="scale(0.015625)"/>
       </defs>
       <use xlink:href="#DejaVuSans-32"/>
       <use xlink:href="#DejaVuSans-30" transform="translate(63.623047 0)"/>
       <use xlink:href="#DejaVuSans-32" transform="translate(127.246094 0)"/>
       <use xlink:href="#DejaVuSans-34" transform="translate(190.869141 0)"/>
      </g>
     </g>
    </g>
    <g id="xtick_6">
     <g id="line2d_6">
      <g>
       <use xlink:href="#m2b0a1e577e" x="782.34771" y="576.718125" style="stroke: #000000; stroke-width: 0.8"/>
      </g>
     </g>
     <g id="text_6">
      <!-- 2026 -->
      <g transform="translate(769.62271 591.316563) scale(0.1 -0.1)">
       <use xlink:href="#DejaVuSans-32"/>
       <use xlink:href="#DejaVuSans-30" transform="translate(63.623047 0)"/>
       <use xlink:href="#DejaVuSans-32" transform="translate(127.246094 0)"/>
       <use xlink:href="#DejaVuSans-36" transform="translate(190.869141 0)"/>
      </g>
     </g>
    </g>
    <g id="text_7">
     <!-- Date -->
     <g transform="translate(424.389844 604.994688) scale(0.1 -0.1)">
      <defs>
       <path id="DejaVuSans-44" d="M 1259 4147 
L 1259 519 
L 2022 519 
Q 2988 519 3436 956 
Q 3884 1394 3884 2338 
Q 3884 3275 3436 3711 
Q 2988 4147 2022 4147 
L 1259 4147 
z
M 628 4666 
L 1925 4666 
Q 3281 4666 3915 4102 
Q 4550 3538 4550 2338 
Q 4550 1131 3912 565 
Q 3275 0 1925 0 
L 628 0 
L 628 4666 
z
" transform="scale(0.015625)"/>
       <path id="DejaVuSans-61" d="M 2194 1759 
Q 1497 1759 1228 1600 
Q 959 1441 959 1056 
Q 959 750 1161 570 
Q 1363 391 1709 391 
Q 2188 391 2477 730 
Q 2766 1069 2766 1631 
L 2766 1759 
L 2194 1759 
z
M 3341 1997 
L 3341 0 
L 2766 0 
L 2766 531 
Q 2569 213 2275 61 
Q 1981 -91 1556 -91 
Q 1019 -91 701 211 
Q 384 513 384 1019 
Q 384 1609 779 1909 
Q 1175 2209 1959 2209 
L 2766 2209 
L 2766 2266 
Q 2766 2663 2505 2880 
Q 2244 3097 1772 3097 
Q 1472 3097 1187 3025 
Q 903 2953 641 2809 
L 641 3341 
Q 956 3463 1253 3523 
Q 1550 3584 1831 3584 
Q 2591 3584 2966 3190 
Q 3341 2797 3341 1997 
z
" transform="scale(0.015625)"/>
       <path id="DejaVuSans-74" d="M 1172 4494 
L 1172 3500 
L 2356 3500 
L 2356 3053 
L 1172 3053 
L 1172 1153 
Q 1172 725 1289 603 
Q 1406 481 1766 481 
L 2356 481 
L 2356 0 
L 1766 0 
Q 1100 0 847 248 
Q 594 497 594 1153 
L 594 3053 
L 172 3053 
L 172 3500 
L 594 3500 
L 594 4494 
L 1172 4494 
z
" transform="scale(0.015625)"/>
       <path id="DejaVuSans-65" d="M 3597 1894 
L 3597 1613 
L 953 1613 
Q 991 1019 1311 708 
Q 1631 397 2203 397 
Q 2534 397 2845 478 
Q 3156 559 3463 722 
L 3463 178 
Q 3153 47 2828 -22 
Q 2503 -91 2169 -91 
Q 1331 -91 842 396 
Q 353 884 353 1716 
Q 353 2575 817 3079 
Q 1281 3584 2069 3584 
Q 2775 3584 3186 3129 
Q 3597 2675 3597 1894 
z
M 3022 2063 
Q 3016 2534 2758 2815 
Q 2500 3097 2075 3097 
Q 1594 3097 1305 2825 
Q 1016 2553 972 2059 
L 3022 2063 
z
" transform="scale(0.015625)"/>
      </defs>
      <use xlink:href="#DejaVuSans-44"/>
      <use xlink:href="#DejaVuSans-61" transform="translate(77.001953 0)"/>
      <use xlink:href="#DejaVuSans-74" transform="translate(138.28125 0)"/>
      <use xlink:href="#DejaVuSans-65" transform="translate(177.490234 0)"/>
     </g>
    </g>
   </g>
   <g id="matplotlib.axis_2">
    <g id="ytick_1">
     <g id="line2d_7">
      <defs>
       <path id="mcc55f01f8a" d="M 0 0 
L -3.5 0 
" style="stroke: #000000; stroke-width: 0.8"/>
      </defs>
      <g>
       <use xlink:href="#mcc55f01f8a" x="59.690625" y="481.249371" style="stroke: #000000; stroke-width: 0.8"/>
      </g>
     </g>
     <g id="text_8">
      <!-- 20000 -->
      <g transform="translate(20.878125 485.04859) scale(0.1 -0.1)">
       <use xlink:href="#DejaVuSans-32"/>
       <use xlink:href="#DejaVuSans-30" transform="translate(63.623047 0)"/>
       <use xlink:href="#DejaVuSans-30" transform="translate(127.246094 0)"/>
       <use xlink:href="#DejaVuSans-30" transform="translate(190.869141 0)"/>
       <use xlink:href="#DejaVuSans-30" transform="translate(254.492188 0)"/>
      </g>
     </g>
    </g>
    <g id="ytick_2">
     <g id="line2d_8">
      <g>
       <use xlink:href="#mcc55f01f8a" x="59.690625" y="372.209206" style="stroke: #000000; stroke-width: 0.8"/>
      </g>
     </g>
     <g id="text_9">
      <!-- 30000 -->
      <g transform="translate(20.878125 376.008425) scale(0.1 -0.1)">
       <defs>
        <path id="DejaVuSans-33" d="M 2597 2516 
Q 3050 2419 3304 2112 
Q 3559 1806 3559 1356 
Q 3559 666 3084 287 
Q 2609 -91 1734 -91 
Q 1441 -91 1130 -33 
Q 819 25 488 141 
L 488 750 
Q 750 597 1062 519 
Q 1375 441 1716 441 
Q 2309 441 2620 675 
Q 2931 909 2931 1356 
Q 2931 1769 2642 2001 
Q 2353 2234 1838 2234 
L 1294 2234 
L 1294 2753 
L 1863 2753 
Q 2328 2753 2575 2939 
Q 2822 3125 2822 3475 
Q 2822 3834 2567 4026 
Q 2313 4219 1838 4219 
Q 1578 4219 1281 4162 
Q 984 4106 628 3988 
L 628 4550 
Q 988 4650 1302 4700 
Q 1616 4750 1894 4750 
Q 2613 4750 3031 4423 
Q 3450 4097 3450 3541 
Q 3450 3153 3228 2886 
Q 3006 2619 2597 2516 
z
" transform="scale(0.015625)"/>
       </defs>
       <use xlink:href="#DejaVuSans-33"/>
       <use xlink:href="#DejaVuSans-30" transform="translate(63.623047 0)"/>
       <use xlink:href="#DejaVuSans-30" transform="translate(127.246094 0)"/>
       <use xlink:href="#DejaVuSans-30" transform="translate(190.869141 0)"/>
       <use xlink:href="#DejaVuSans-30" transform="translate(254.492188 0)"/>
      </g>
     </g>
    </g>
    <g id="ytick_3">
     <g id="line2d_9">
      <g>
       <use xlink:href="#mcc55f01f8a" x="59.690625" y="263.169041" style="stroke: #000000; stroke-width: 0.8"/>
      </g>
     </g>
     <g id="text_10">
      <!-- 40000 -->
      <g transform="translate(20.878125 266.968259) scale(0.1 -0.1)">
       <use xlink:href="#DejaVuSans-34"/>
       <use xlink:href="#DejaVuSans-30" transform="translate(63.623047 0)"/>
       <use xlink:href="#DejaVuSans-30" transform="translate(127.246094 0)"/>
       <use xlink:href="#DejaVuSans-30" transform="translate(190.869141 0)"/>
       <use xlink:href="#DejaVuSans-30" transform="translate(254.492188 0)"/>
      </g>
     </g>
    </g>
    <g id="ytick_4">
     <g id="line2d_10">
      <g>
       <use xlink:href="#mcc55f01f8a" x="59.690625" y="154.128875" style="stroke: #000000; stroke-width: 0.8"/>
      </g>
     </g>
     <g id="text_11">
      <!-- 50000 -->
      <g transform="translate(20.878125 157.928094) scale(0.1 -0.1)">
       <defs>
        <path id="DejaVuSans-35" d="M 691 4666 
L 3169 4666 
L 3169 4134 
L 1269 4134 
L 1269 2991 
Q 1406 3038 1543 3061 
Q 1681 3084 1819 3084 
Q 2600 3084 3056 2656 
Q 3513 2228 3513 1497 
Q 3513 744 3044 326 
Q 2575 -91 1722 -91 
Q 1428 -91 1123 -41 
Q 819 9 494 109 
L 494 744 
Q 775 591 1075 516 
Q 1375 441 1709 441 
Q 2250 441 2565 725 
Q 2881 1009 2881 1497 
Q 2881 1984 2565 2268 
Q 2250 2553 1709 2553 
Q 1456 2553 1204 2497 
Q 953 2441 691 2322 
L 691 4666 
z
" transform="scale(0.015625)"/>
       </defs>
       <use xlink:href="#DejaVuSans-35"/>
       <use xlink:href="#DejaVuSans-30" transform="translate(63.623047 0)"/>
       <use xlink:href="#DejaVuSans-30" transform="translate(127.246094 0)"/>
       <use xlink:href="#DejaVuSans-30" transform="translate(190.869141 0)"/>
       <use xlink:href="#DejaVuSans-30" transform="translate(254.492188 0)"/>
      </g>
     </g>
    </g>
    <g id="ytick_5">
     <g id="line2d_11">
      <g>
       <use xlink:href="#mcc55f01f8a" x="59.690625" y="45.08871" style="stroke: #000000; stroke-width: 0.8"/>
      </g>
     </g>
     <g id="text_12">
      <!-- 60000 -->
      <g transform="translate(20.878125 48.887929) scale(0.1 -0.1)">
       <use xlink:href="#DejaVuSans-36"/>
       <use xlink:href="#DejaVuSans-30" transform="translate(63.623047 0)"/>
       <use xlink:href="#DejaVuSans-30" transform="translate(127.246094 0)"/>
       <use xlink:href="#DejaVuSans-30" transform="translate(190.869141 0)"/>
       <use xlink:href="#DejaVuSans-30" transform="translate(254.492188 0)"/>
      </g>
     </g>
    </g>
    <g id="text_13">
     <!-- Close Price -->
     <g transform="translate(14.798438 326.925938) rotate(-90) scale(0.1 -0.1)">
      <defs>
       <path id="DejaVuSans-43" d="M 4122 4306 
L 4122 3641 
Q 3803 3938 3442 4084 
Q 3081 4231 2675 4231 
Q 1875 4231 1450 3742 
Q 1025 3253 1025 2328 
Q 1025 1406 1450 917 
Q 1875 428 2675 428 
Q 3081 428 3442 575 
Q 3803 722 4122 1019 
L 4122 359 
Q 3791 134 3420 21 
Q 3050 -91 2638 -91 
Q 1578 -91 968 557 
Q 359 1206 359 2328 
Q 359 3453 968 4101 
Q 1578 4750 2638 4750 
Q 3056 4750 3426 4639 
Q 3797 4528 4122 4306 
z
" transform="scale(0.015625)"/>
       <path id="DejaVuSans-6c" d="M 603 4863 
L 1178 4863 
L 1178 0 
L 603 0 
L 603 4863 
z
" transform="scale(0.015625)"/>
       <path id="DejaVuSans-6f" d="M 1959 3097 
Q 1497 3097 1228 2736 
Q 959 2375 959 1747 
Q 959 1119 1226 758 
Q 1494 397 1959 397 
Q 2419 397 2687 759 
Q 2956 1122 2956 1747 
Q 2956 2369 2687 2733 
Q 2419 3097 1959 3097 
z
M 1959 3584 
Q 2709 3584 3137 3096 
Q 3566 2609 3566 1747 
Q 3566 888 3137 398 
Q 2709 -91 1959 -91 
Q 1206 -91 779 398 
Q 353 888 353 1747 
Q 353 2609 779 3096 
Q 1206 3584 1959 3584 
z
" transform="scale(0.015625)"/>
       <path id="DejaVuSans-73" d="M 2834 3397 
L 2834 2853 
Q 2591 2978 2328 3040 
Q 2066 3103 1784 3103 
Q 1356 3103 1142 2972 
Q 928 2841 928 2578 
Q 928 2378 1081 2264 
Q 1234 2150 1697 2047 
L 1894 2003 
Q 2506 1872 2764 1633 
Q 3022 1394 3022 966 
Q 3022 478 2636 193 
Q 2250 -91 1575 -91 
Q 1294 -91 989 -36 
Q 684 19 347 128 
L 347 722 
Q 666 556 975 473 
Q 1284 391 1588 391 
Q 1994 391 2212 530 
Q 2431 669 2431 922 
Q 2431 1156 2273 1281 
Q 2116 1406 1581 1522 
L 1381 1569 
Q 847 1681 609 1914 
Q 372 2147 372 2553 
Q 372 3047 722 3315 
Q 1072 3584 1716 3584 
Q 2034 3584 2315 3537 
Q 2597 3491 2834 3397 
z
" transform="scale(0.015625)"/>
       <path id="DejaVuSans-20" transform="scale(0.015625)"/>
       <path id="DejaVuSans-50" d="M 1259 4147 
L 1259 2394 
L 2053 2394 
Q 2494 2394 2734 2622 
Q 2975 2850 2975 3272 
Q 2975 3691 2734 3919 
Q 2494 4147 2053 4147 
L 1259 4147 
z
M 628 4666 
L 2053 4666 
Q 2838 4666 3239 4311 
Q 3641 3956 3641 3272 
Q 3641 2581 3239 2228 
Q 2838 1875 2053 1875 
L 1259 1875 
L 1259 0 
L 628 0 
L 628 4666 
z
" transform="scale(0.015625)"/>
       <path id="DejaVuSans-72" d="M 2631 2963 
Q 2534 3019 2420 3045 
Q 2306 3072 2169 3072 
Q 1681 3072 1420 2755 
Q 1159 2438 1159 1844 
L 1159 0 
L 581 0 
L 581 3500 
L 1159 3500 
L 1159 2956 
Q 1341 3275 1631 3429 
Q 1922 3584 2338 3584 
Q 2397 3584 2469 3576 
Q 2541 3569 2628 3553 
L 2631 2963 
z
" transform="scale(0.015625)"/>
       <path id="DejaVuSans-69" d="M 603 3500 
L 1178 3500 
L 1178 0 
L 603 0 
L 603 3500 
z
M 603 4863 
L 1178 4863 
L 1178 4134 
L 603 4134 
L 603 4863 
z
" transform="scale(0.015625)"/>
       <path id="DejaVuSans-63" d="M 3122 3366 
L 3122 2828 
Q 2878 2963 2633 3030 
Q 2388 3097 2138 3097 
Q 1578 3097 1268 2742 
Q 959 2388 959 1747 
Q 959 1106 1268 751 
Q 1578 397 2138 397 
Q 2388 397 2633 464 
Q 2878 531 3122 666 
L 3122 134 
Q 2881 22 2623 -34 
Q 2366 -91 2075 -91 
Q 1284 -91 818 406 
Q 353 903 353 1747 
Q 353 2603 823 3093 
Q 1294 3584 2113 3584 
Q 2378 3584 2631 3529 
Q 2884 3475 3122 3366 
z
" transform="scale(0.015625)"/>
      </defs>
      <use xlink:href="#DejaVuSans-43"/>
      <use xlink:href="#DejaVuSans-6c" transform="translate(69.824219 0)"/>
      <use xlink:href="#DejaVuSans-6f" transform="translate(97.607422 0)"/>
      <use xlink:href="#DejaVuSans-73" transform="translate(158.789062 0)"/>
      <use xlink:href="#DejaVuSans-65" transform="translate(210.888672 0)"/>
      <use xlink:href="#DejaVuSans-20" transform="translate(272.412109 0)"/>
      <use xlink:href="#DejaVuSans-50" transform="translate(304.199219 0)"/>
      <use xlink:href="#DejaVuSans-72" transform="translate(362.751953 0)"/>
      <use xlink:href="#DejaVuSans-69" transform="translate(403.865234 0)"/>
      <use xlink:href="#DejaVuSans-63" transform="translate(431.648438 0)"/>
      <use xlink:href="#DejaVuSans-65" transform="translate(486.628906 0)"/>
     </g>
    </g>
   </g>
   <g id="line2d_12">
    <path d="M 93.931534 494.874485 
L 94.102867 491.523136 
L 94.616866 491.963658 
L 94.788199 498.360499 
L 94.959532 499.739857 
L 95.130865 495.409327 
L 95.302198 496.10882 
L 95.816198 494.379443 
L 96.158864 496.473559 
L 96.330197 489.583856 
L 96.50153 489.720157 
L 97.015529 487.725812 
L 97.186862 483.789462 
L 97.529528 482.147317 
L 97.700861 480.456649 
L 98.386193 475.194916 
L 98.557526 475.887321 
L 98.728859 475.485508 
L 98.900192 482.953124 
L 99.414192 482.7116 
L 99.756858 490.256089 
L 99.928191 491.587469 
L 100.099524 494.479215 
L 100.613523 498.653817 
L 100.956189 492.798906 
L 101.298855 488.122173 
L 101.812854 490.08217 
L 102.15552 488.920347 
L 102.498186 491.351397 
L 103.183519 493.420435 
L 103.526185 497.189953 
L 103.868851 484.616532 
L 104.211517 481.161049 
L 104.38285 481.672447 
L 104.554183 485.132292 
L 104.725516 483.997183 
L 105.582181 491.560209 
L 105.753514 491.673611 
L 105.924847 490.606653 
L 106.09618 494.554452 
L 106.610179 493.926926 
L 106.952846 490.547771 
L 107.295512 496.445754 
L 107.809511 498.161501 
L 107.980844 499.443268 
L 108.152177 499.676069 
L 108.32351 504.893096 
L 108.494843 502.568904 
L 109.008842 499.112331 
L 109.180175 500.804089 
L 109.351508 496.320358 
L 110.208173 496.455568 
L 110.550839 498.514791 
L 110.722173 493.507121 
L 110.893506 494.324923 
L 111.407505 494.353273 
L 111.750171 495.246857 
L 111.921504 496.111001 
L 112.092837 499.289521 
L 112.606836 501.827976 
L 112.778169 501.904305 
L 112.949502 500.400096 
L 113.120835 500.379378 
L 113.292168 503.036687 
L 113.806167 505.591498 
L 113.9775 500.37229 
L 114.320166 499.370756 
L 115.005499 497.591221 
L 115.176832 497.916706 
L 115.519498 509.851697 
L 115.690831 505.275281 
L 116.20483 500.879327 
L 116.376163 507.106611 
L 116.547496 501.994808 
L 116.718829 501.790358 
L 117.404161 498.445551 
L 117.575494 498.909516 
L 117.746827 497.00404 
L 117.91816 497.462008 
L 118.089493 498.332694 
L 118.603493 499.515235 
L 118.774826 499.466712 
L 118.946159 497.181775 
L 119.117492 498.15932 
L 119.288825 495.191792 
L 119.802824 496.329626 
L 120.14549 506.095263 
L 120.316823 506.119252 
L 120.488156 507.97239 
L 121.002155 509.244343 
L 121.173488 508.619543 
L 121.344821 506.249555 
L 121.516154 510.642238 
L 121.687487 508.252623 
L 122.201487 508.959748 
L 122.37282 507.392296 
L 122.544153 507.59293 
L 123.572151 498.790117 
L 123.743484 499.071441 
L 123.914817 497.682815 
L 124.08615 499.006562 
L 124.600149 500.42681 
L 124.771482 499.828725 
L 124.942815 496.715628 
L 125.114148 496.672557 
L 125.285481 495.101289 
L 125.799481 494.059955 
L 125.970814 494.350547 
L 126.142147 498.007209 
L 126.31348 497.510531 
L 126.484813 495.208693 
L 126.998812 493.31412 
L 127.170145 494.550091 
L 127.341478 494.157001 
L 127.512811 490.320968 
L 127.684144 491.120777 
L 128.198143 491.796826 
L 128.369476 495.169439 
L 128.540809 492.1861 
L 128.712142 493.62543 
L 128.883475 496.124085 
L 129.397474 500.734304 
L 129.911474 498.255275 
L 130.082807 495.099108 
L 130.768139 492.452158 
L 130.939472 492.93248 
L 131.110805 491.833355 
L 131.282138 493.31412 
L 131.796137 493.51639 
L 131.96747 496.330717 
L 132.138803 502.405889 
L 132.310136 501.14484 
L 132.481469 495.167258 
L 132.995468 494.093758 
L 133.166801 494.543003 
L 133.338134 495.389155 
L 134.1948 516.013557 
L 134.366133 511.859672 
L 134.537466 514.859367 
L 134.708799 511.6236 
L 134.880132 511.650315 
L 135.394131 512.363437 
L 135.736797 522.109992 
L 135.90813 518.809347 
L 136.079463 523.457729 
L 136.593462 527.15419 
L 136.936128 517.979551 
L 137.107461 518.348652 
L 137.278795 518.185637 
L 137.792794 514.923155 
L 137.964127 516.801372 
L 138.478126 509.500043 
L 138.992125 508.04163 
L 139.163458 513.621761 
L 139.334791 511.177625 
L 139.506124 511.817146 
L 140.191456 512.867748 
L 140.362789 510.895211 
L 140.705455 512.323638 
L 141.390788 506.611569 
L 141.562121 507.360674 
L 141.733454 507.235823 
L 141.904787 508.789646 
L 142.07612 507.525325 
L 142.590119 507.602744 
L 142.932785 508.037814 
L 143.275451 504.007689 
L 143.960783 504.908361 
L 144.132116 506.213572 
L 144.474782 503.776524 
L 144.988782 505.074102 
L 145.160115 505.169512 
L 145.502781 511.647589 
L 145.674114 510.095947 
L 146.359446 510.411073 
L 146.530779 511.551088 
L 146.702112 514.014851 
L 146.873445 513.018223 
L 147.387444 513.928709 
L 147.558777 515.74968 
L 147.73011 514.441198 
L 148.072776 514.693626 
L 148.586776 511.945268 
L 148.758109 512.429952 
L 148.929442 516.010286 
L 149.100775 513.177422 
L 149.272108 513.355158 
L 149.786107 513.304454 
L 149.95744 514.085181 
L 150.300106 513.562879 
L 150.471439 509.916576 
L 150.985438 509.268332 
L 151.156771 509.615625 
L 151.67077 515.081263 
L 152.184769 514.539334 
L 152.527436 517.660608 
L 152.698769 517.112136 
L 152.870102 521.130812 
L 153.384101 521.041944 
L 153.555434 520.518551 
L 153.8981 516.780109 
L 154.069433 518.38518 
L 154.583432 515.867988 
L 154.754765 516.696148 
L 154.926098 515.242643 
L 155.097431 516.02228 
L 155.782763 514.18877 
L 155.954096 514.05465 
L 156.12543 514.856641 
L 156.296763 514.809753 
L 156.468096 513.533438 
L 157.153428 518.950008 
L 157.324761 520.142363 
L 157.496094 524.060176 
L 157.667427 523.309979 
L 158.181426 524.688247 
L 158.352759 527.757183 
L 158.524092 526.262787 
L 158.866758 533.519955 
L 159.380757 535.54265 
L 159.55209 532.829186 
L 159.723423 536.472763 
L 159.894757 534.665967 
L 160.06609 530.344161 
L 160.580089 529.650665 
L 160.922755 529.940167 
L 161.094088 531.610117 
L 161.265421 530.073196 
L 161.77942 532.340686 
L 162.122086 537.578975 
L 162.293419 537.196244 
L 162.464752 534.002458 
L 162.978751 535.259146 
L 163.150084 537.131366 
L 163.321417 540.257002 
L 163.49275 546.362161 
L 163.664084 546.984235 
L 164.178083 541.821183 
L 164.349416 544.858497 
L 164.520749 545.366624 
L 164.692082 543.422438 
L 164.863415 542.920308 
L 165.377414 542.477605 
L 165.72008 548.919153 
L 165.891413 551.518125 
L 166.062746 548.947503 
L 166.576745 547.257926 
L 167.090744 533.831265 
L 167.262077 532.070812 
L 167.94741 534.172016 
L 168.118743 532.726688 
L 168.290076 533.799643 
L 168.461409 533.935398 
L 169.146741 532.206021 
L 169.318074 530.735069 
L 169.489407 530.928071 
L 169.66074 528.628959 
L 170.174739 525.671244 
L 170.346072 525.563294 
L 170.517405 526.089413 
L 171.374071 529.173614 
L 171.545404 528.504653 
L 171.716737 523.395031 
L 171.88807 523.320883 
L 172.059403 522.958325 
L 172.573402 522.787132 
L 172.744735 528.191162 
L 172.916068 528.824141 
L 173.087401 529.982147 
L 173.258734 529.572156 
L 173.944066 526.171739 
L 174.115399 521.828124 
L 174.972064 522.437113 
L 175.314731 521.052303 
L 175.486064 517.917943 
L 175.657397 517.195552 
L 176.171396 517.465427 
L 176.342729 513.933616 
L 176.685395 517.048348 
L 176.856728 516.196744 
L 177.370727 518.944556 
L 177.713393 521.875011 
L 178.056059 521.631306 
L 178.741391 516.30633 
L 178.912725 516.638902 
L 179.084058 514.793397 
L 179.255391 517.048348 
L 179.76939 516.82318 
L 179.940723 516.548399 
L 180.112056 516.916955 
L 180.454722 519.615699 
L 180.968721 520.421505 
L 181.140054 519.886118 
L 181.48272 510.043608 
L 181.654053 508.380745 
L 182.168052 508.284245 
L 182.339385 507.191117 
L 182.510718 509.344115 
L 182.853385 506.537966 
L 183.367384 506.640464 
L 183.538717 503.622778 
L 183.71005 503.637498 
L 184.052716 504.926353 
L 184.566715 507.48498 
L 184.738048 506.62956 
L 184.909381 503.952624 
L 185.080714 506.641555 
L 185.252047 506.37168 
L 185.766046 506.125795 
L 185.937379 507.210744 
L 186.108712 507.134961 
L 186.280045 504.230131 
L 186.451379 509.315765 
L 187.136711 507.83827 
L 187.308044 506.43874 
L 187.479377 503.761804 
L 187.65071 503.213877 
L 188.164709 501.992627 
L 188.336042 503.011062 
L 188.678708 502.131653 
L 188.850041 502.880214 
L 189.36404 498.794479 
L 189.535373 495.777883 
L 189.706706 496.308363 
L 190.049372 492.658789 
L 190.734705 493.187634 
L 190.906038 492.500136 
L 191.077371 495.704826 
L 191.248704 495.529271 
L 191.762703 492.26679 
L 191.934036 493.670682 
L 192.105369 491.914045 
L 192.276702 491.318685 
L 192.448035 492.664241 
L 193.476033 496.823578 
L 193.647366 492.96083 
L 194.161366 492.813626 
L 194.332699 492.880686 
L 194.504032 495.993782 
L 194.675365 496.074472 
L 194.846698 492.549204 
L 195.53203 492.129944 
L 195.703363 491.703597 
L 195.874696 488.306451 
L 196.046029 487.631492 
L 196.560028 488.552336 
L 196.902694 488.27592 
L 197.074027 488.835841 
L 197.24536 490.018927 
L 197.75936 489.787216 
L 198.102026 483.565384 
L 198.273359 483.551754 
L 198.444692 482.52296 
L 199.130024 476.602079 
L 199.301357 476.812527 
L 199.47269 476.69967 
L 200.158022 483.532672 
L 200.500688 482.240001 
L 200.672021 483.020729 
L 201.357353 482.26508 
L 201.70002 483.119955 
L 201.871353 480.054291 
L 202.042686 482.320146 
L 202.728018 486.497474 
L 202.899351 485.027068 
L 203.070684 490.150865 
L 203.927349 484.818256 
L 204.270015 487.845756 
L 204.441348 487.790691 
L 204.955347 488.025672 
L 205.469347 492.652247 
L 205.64068 491.933672 
L 206.154679 491.385745 
L 206.326012 486.755354 
L 206.497345 487.659843 
L 206.668678 484.970912 
L 206.840011 484.401722 
L 207.525343 483.049624 
L 207.696676 486.880205 
L 208.039342 486.0913 
L 208.382008 486.44459 
L 208.724674 487.152806 
L 208.896007 489.668362 
L 209.06734 490.20484 
L 209.238674 491.519864 
L 210.095339 486.502381 
L 210.266672 479.065842 
L 210.438005 484.0975 
L 211.637336 492.599907 
L 212.151335 498.189851 
L 212.322668 497.074916 
L 212.494001 497.159422 
L 212.665334 500.264886 
L 212.836667 497.525797 
L 213.522 500.617631 
L 213.693333 496.211863 
L 214.035999 500.357025 
L 214.549998 498.598752 
L 214.721331 498.467904 
L 214.892664 500.504229 
L 215.23533 495.47039 
L 215.749329 498.772671 
L 215.920662 497.975587 
L 216.091995 499.333683 
L 216.263328 498.683258 
L 216.434661 499.646628 
L 216.948661 500.254527 
L 217.119994 502.300666 
L 217.291327 502.136015 
L 217.46266 504.241035 
L 217.633993 504.32227 
L 218.147992 506.813293 
L 218.319325 504.370793 
L 218.490658 504.40187 
L 218.833324 501.125213 
L 219.347323 503.388886 
L 219.518656 502.669221 
L 219.689989 504.245942 
L 220.032655 500.178744 
L 220.546655 499.931768 
L 220.717988 498.591119 
L 220.889321 494.007071 
L 221.231987 493.111851 
L 221.745986 491.101695 
L 221.917319 491.422274 
L 222.088652 490.359677 
L 222.259985 490.798564 
L 222.431318 494.107388 
L 222.945317 493.86859 
L 223.11665 491.897143 
L 223.287983 486.993607 
L 223.630649 484.430073 
L 224.144648 485.771812 
L 224.315982 486.536184 
L 224.487315 481.024749 
L 224.658648 480.482819 
L 224.829981 479.103461 
L 225.34398 477.197439 
L 225.515313 477.681032 
L 225.857979 479.601229 
L 226.029312 478.917002 
L 226.714644 478.435045 
L 226.885977 479.464384 
L 227.05731 478.592062 
L 227.228643 475.237442 
L 227.742642 473.866262 
L 227.913975 471.861558 
L 228.256642 471.690365 
L 228.941974 474.564664 
L 229.113307 474.627907 
L 229.28464 472.703348 
L 229.455973 475.142577 
L 229.627306 475.845341 
L 230.141305 474.012921 
L 230.312638 474.407101 
L 230.655304 473.383759 
L 230.826637 473.316154 
L 231.854636 467.620441 
L 232.025969 468.436607 
L 232.539968 469.143187 
L 232.711301 470.138178 
L 232.882634 472.729518 
L 233.053967 471.484824 
L 233.2253 469.009068 
L 233.739299 469.724916 
L 234.253298 463.577232 
L 234.424631 465.502336 
L 234.93863 464.37268 
L 235.281296 463.228303 
L 235.452629 463.552698 
L 235.623963 465.644088 
L 236.137962 464.673631 
L 236.309295 462.318363 
L 236.480628 463.074557 
L 236.651961 462.858657 
L 237.337293 463.283914 
L 237.508626 463.019491 
L 237.851292 464.987121 
L 238.022625 464.332335 
L 238.536624 460.996251 
L 239.050623 455.883358 
L 239.221956 455.534974 
L 239.907289 455.719252 
L 240.078622 456.090534 
L 240.249955 451.589356 
L 240.421288 452.844953 
L 240.935287 451.074141 
L 241.10662 451.728927 
L 241.277953 450.387188 
L 241.449286 450.516946 
L 241.620619 452.11711 
L 242.134618 450.483689 
L 242.305951 449.315868 
L 242.477284 449.235724 
L 242.648617 451.823792 
L 242.81995 451.047426 
L 243.33395 452.322651 
L 243.676616 453.593514 
L 243.847949 446.456835 
L 244.019282 444.587887 
L 244.533281 446.544613 
L 244.875947 443.905295 
L 245.04728 445.155441 
L 245.218613 444.438502 
L 245.732612 443.52529 
L 245.903945 443.99798 
L 246.075278 442.347657 
L 246.246611 442.691678 
L 246.417944 441.003737 
L 246.931943 443.407527 
L 247.103277 443.326837 
L 247.27461 443.099489 
L 247.445943 444.265673 
L 247.617276 443.055327 
L 248.131275 440.444906 
L 248.302608 440.926863 
L 248.473941 440.8091 
L 248.645274 440.510875 
L 248.816607 442.619167 
L 249.501939 446.179328 
L 249.673272 445.965609 
L 250.015938 446.234393 
L 250.529937 445.562706 
L 250.70127 446.201681 
L 251.043937 443.448962 
L 251.21527 443.639783 
L 251.729269 441.176565 
L 251.900602 442.162834 
L 252.071935 440.954123 
L 252.243268 438.847467 
L 252.414601 438.312625 
L 253.099933 437.392872 
L 253.442599 435.306933 
L 253.613932 434.830428 
L 254.127931 433.04435 
L 254.470597 430.319981 
L 254.641931 427.57544 
L 254.813264 428.786877 
L 255.327263 425.599087 
L 255.498596 425.390275 
L 255.669929 426.127387 
L 255.841262 430.272549 
L 256.012595 428.610777 
L 256.526594 427.75045 
L 256.86926 433.548661 
L 257.211926 437.788687 
L 257.725925 436.371165 
L 258.068591 432.860617 
L 258.411258 436.821501 
L 258.925257 438.32571 
L 259.09659 437.911903 
L 259.267923 434.178913 
L 259.439256 434.643424 
L 260.124588 433.521401 
L 260.295921 436.227232 
L 260.467254 434.267235 
L 260.638587 434.161466 
L 260.80992 432.900962 
L 261.323919 435.050689 
L 261.495252 434.053517 
L 261.666585 434.589449 
L 261.837918 434.308671 
L 262.009251 433.590096 
L 263.03725 427.686116 
L 263.208583 428.427044 
L 263.722582 426.21789 
L 263.893915 426.276227 
L 264.065248 427.110384 
L 264.236581 428.91827 
L 264.407914 433.611359 
L 264.921913 435.833597 
L 265.093246 435.46177 
L 265.264579 439.672901 
L 265.435912 437.544437 
L 265.607245 437.055392 
L 266.463911 436.39788 
L 266.635244 437.000327 
L 266.806577 435.561542 
L 267.320576 434.886583 
L 267.491909 433.844705 
L 267.663242 436.461669 
L 268.005908 430.118802 
L 268.519907 429.967236 
L 268.69124 430.593672 
L 269.033906 437.526991 
L 269.719239 436.663938 
L 269.890572 435.210978 
L 270.061905 426.337834 
L 270.233238 426.487219 
L 270.404571 428.478838 
L 271.089903 426.518296 
L 271.261236 421.381414 
L 271.432569 422.070002 
L 271.603902 419.634045 
L 272.117901 420.50146 
L 272.460567 424.719133 
L 272.6319 423.552403 
L 272.803233 421.28873 
L 273.488566 423.626006 
L 273.659899 424.342399 
L 274.002565 418.786803 
L 274.516564 418.348462 
L 274.687897 418.469496 
L 274.85923 418.369724 
L 275.030563 418.701206 
L 275.715895 417.003451 
L 276.058561 418.052963 
L 276.229894 423.104794 
L 276.401227 424.636263 
L 276.915226 425.910397 
L 277.086559 425.367922 
L 277.257892 428.345264 
L 277.600559 423.227464 
L 278.114558 422.314798 
L 278.457224 426.725472 
L 278.79989 421.92825 
L 279.313889 420.246306 
L 279.485222 418.919832 
L 279.656555 420.277382 
L 279.827888 420.685192 
L 279.999221 419.657489 
L 280.684553 419.366351 
L 280.855886 421.320351 
L 281.027219 421.386321 
L 281.198553 420.847117 
L 281.712552 423.260721 
L 281.883885 423.041005 
L 282.055218 423.255269 
L 282.397884 420.166706 
L 283.083216 419.055042 
L 283.254549 419.998239 
L 283.425882 419.522824 
L 284.111214 415.070714 
L 284.282547 416.098963 
L 284.796546 405.908069 
L 285.310546 404.47201 
L 285.481879 400.662147 
L 285.653212 400.57546 
L 285.824545 400.061881 
L 286.509877 399.486149 
L 286.68121 401.98753 
L 286.852543 400.783727 
L 287.023876 402.514739 
L 287.195209 410.905925 
L 287.709208 414.7485 
L 288.051874 419.423598 
L 288.223207 416.690506 
L 288.39454 421.673641 
L 288.90854 419.079031 
L 289.251206 423.008293 
L 289.422539 422.102169 
L 289.593872 424.94212 
L 290.107871 426.090858 
L 290.279204 428.098833 
L 290.450537 427.419513 
L 290.62187 427.217789 
L 290.793203 423.430824 
L 291.307202 419.228416 
L 291.821201 427.791885 
L 292.506534 428.706187 
L 292.8492 436.171077 
L 293.020533 432.425002 
L 293.191866 434.400809 
L 294.048531 428.346899 
L 294.219864 428.99896 
L 294.391197 432.295244 
L 295.076529 435.79925 
L 295.247862 434.846239 
L 295.419195 436.090387 
L 295.590528 441.227269 
L 296.275861 432.899326 
L 296.447194 434.761732 
L 297.303859 434.051336 
L 297.475192 432.065714 
L 297.646525 436.221235 
L 297.817858 429.348433 
L 297.989191 428.112463 
L 298.50319 425.706492 
L 298.674523 424.256258 
L 298.845856 425.657969 
L 299.017189 424.601915 
L 299.188522 424.541943 
L 299.873854 423.08244 
L 300.045188 425.613808 
L 300.216521 425.353747 
L 300.387854 427.341549 
L 300.901853 427.158362 
L 301.073186 426.27023 
L 301.244519 428.753074 
L 301.415852 426.610435 
L 301.587185 422.426564 
L 302.101184 420.932713 
L 302.44385 420.532536 
L 302.786516 419.691836 
L 303.300515 417.438521 
L 303.471848 414.838459 
L 303.643181 414.141147 
L 303.814515 414.396846 
L 303.985848 411.320278 
L 304.499847 410.644229 
L 304.67118 410.656768 
L 305.013846 415.020556 
L 305.185179 417.181732 
L 305.699178 418.542553 
L 305.870511 418.249235 
L 306.041844 419.260583 
L 306.38451 412.842478 
L 306.898509 409.12748 
L 307.069842 413.046929 
L 307.241175 412.250935 
L 307.412508 405.398852 
L 307.583842 408.270969 
L 308.097841 413.016943 
L 308.269174 413.088364 
L 308.61184 410.179172 
L 308.783173 410.903744 
L 309.297172 410.879755 
L 309.468505 409.205444 
L 309.639838 408.81617 
L 309.811171 409.694489 
L 309.982504 411.273936 
L 310.496503 411.362258 
L 310.667836 412.92753 
L 310.839169 409.744102 
L 311.010502 410.406521 
L 311.181835 407.463527 
L 311.695835 409.177093 
L 311.867168 409.264325 
L 312.209834 412.285828 
L 312.381167 411.854029 
L 313.066499 413.599762 
L 313.237832 411.093474 
L 313.409165 410.337281 
L 313.580498 410.440324 
L 314.26583 406.071084 
L 314.437163 406.925414 
L 314.608496 404.631754 
L 315.293829 408.412722 
L 315.465162 404.832933 
L 315.807828 407.214915 
L 315.979161 406.303885 
L 316.49316 404.832388 
L 316.664493 405.200398 
L 316.835826 404.57996 
L 317.178492 398.003747 
L 317.692491 395.733531 
L 317.863824 396.588951 
L 318.20649 401.039971 
L 318.377823 397.337512 
L 318.891822 395.123997 
L 319.063156 395.370427 
L 319.405822 390.527954 
L 319.577155 392.662415 
L 320.091154 396.259105 
L 320.262487 393.780622 
L 320.605153 395.908541 
L 320.776486 392.615528 
L 321.290485 391.026813 
L 321.461818 391.205093 
L 321.804484 393.713017 
L 321.975817 395.819673 
L 322.489816 391.136398 
L 322.661149 391.076971 
L 322.832483 391.573649 
L 323.003816 392.891399 
L 323.175149 393.343916 
L 323.689148 395.985414 
L 323.860481 400.22435 
L 324.031814 400.8208 
L 324.203147 399.810543 
L 324.37448 399.671517 
L 324.888479 402.72137 
L 325.059812 407.020279 
L 325.231145 406.892702 
L 325.573811 403.134632 
L 326.08781 406.880707 
L 326.430476 412.801043 
L 326.773143 420.220681 
L 327.287142 427.052593 
L 327.458475 423.127147 
L 327.629808 422.626107 
L 327.801141 426.269684 
L 328.486473 422.727515 
L 328.829139 425.967098 
L 329.171805 432.797919 
L 329.685804 430.890807 
L 329.857137 431.879801 
L 330.02847 423.221467 
L 330.199803 429.085101 
L 330.371137 422.412934 
L 330.885136 422.497985 
L 331.056469 420.299735 
L 331.227802 424.672791 
L 331.570468 425.793724 
L 332.084467 425.872233 
L 332.2558 427.029694 
L 332.427133 426.029251 
L 332.769799 433.042169 
L 333.283798 427.168721 
L 333.455131 428.825586 
L 333.96913 419.078485 
L 334.48313 418.745368 
L 334.654463 420.208687 
L 334.825796 418.687576 
L 335.168462 418.322292 
L 335.682461 420.843846 
L 336.19646 414.137876 
L 336.367793 413.147791 
L 336.881792 412.546434 
L 337.053125 414.589302 
L 337.224458 412.967875 
L 337.395791 415.831269 
L 338.252457 410.993702 
L 338.42379 410.831778 
L 338.595123 405.579858 
L 338.766456 406.415651 
L 339.280455 406.474533 
L 339.623121 410.159545 
L 339.794454 413.663006 
L 339.965787 409.345015 
L 340.479786 414.705975 
L 340.651119 414.043556 
L 340.993785 406.923778 
L 341.165118 406.818554 
L 341.679118 404.748972 
L 342.021784 401.667497 
L 342.193117 401.921561 
L 342.36445 406.342594 
L 342.878449 408.031626 
L 343.221115 405.065189 
L 343.392448 406.245548 
L 343.563781 403.555528 
L 344.07778 403.174432 
L 344.249113 400.642519 
L 344.591779 405.359052 
L 344.763112 402.794972 
L 345.277111 401.600437 
L 345.619778 397.066002 
L 345.962444 399.971922 
L 346.476443 402.214333 
L 346.819109 399.646983 
L 346.990442 399.155757 
L 347.161775 399.941391 
L 347.675774 399.102872 
L 347.847107 399.662794 
L 348.01844 402.187073 
L 348.189773 402.016426 
L 349.046438 409.572909 
L 349.217771 406.824006 
L 349.389105 401.699664 
L 349.560438 403.984055 
L 350.074437 402.886566 
L 350.417103 400.534025 
L 350.588436 400.699766 
L 350.759769 401.711113 
L 351.273768 402.437321 
L 351.616434 406.170856 
L 351.787767 405.241834 
L 351.9591 407.164757 
L 352.473099 408.691319 
L 352.644432 408.357656 
L 352.987098 404.349885 
L 353.158432 406.365493 
L 353.672431 403.184791 
L 354.015097 407.109692 
L 354.18643 407.212189 
L 354.357763 404.442569 
L 355.385761 396.584045 
L 355.557094 396.614576 
L 356.071093 394.380888 
L 356.413759 384.374817 
L 356.585092 383.951741 
L 356.756425 378.953885 
L 357.270425 376.613338 
L 357.613091 374.0389 
L 358.469756 380.047013 
L 358.641089 373.494244 
L 358.812422 371.993306 
L 358.983755 367.623522 
L 359.155088 367.555372 
L 359.669087 368.649045 
L 359.84042 368.346458 
L 360.183086 373.246178 
L 360.354419 371.286181 
L 360.868419 373.896057 
L 361.039752 370.967784 
L 361.211085 374.351845 
L 361.382418 374.541575 
L 361.553751 372.879258 
L 362.06775 371.072462 
L 362.239083 366.415357 
L 363.438414 377.882566 
L 363.609747 373.727045 
L 363.78108 376.992253 
L 363.952413 372.062002 
L 364.637746 374.773831 
L 364.980412 375.386636 
L 365.151745 372.709155 
L 365.665744 376.369633 
L 366.00841 383.174285 
L 366.179743 384.371546 
L 366.351076 382.67161 
L 366.865075 386.821133 
L 367.036408 384.975629 
L 367.207741 387.295458 
L 367.379074 384.691034 
L 367.550407 378.204779 
L 368.064406 363.925425 
L 368.23574 368.846407 
L 368.407073 366.46497 
L 368.578406 367.748373 
L 368.749739 358.987541 
L 369.263738 354.243203 
L 369.435071 354.785678 
L 369.606404 358.082507 
L 369.777737 355.448642 
L 369.94907 357.211822 
L 370.463069 354.177779 
L 370.634402 354.882179 
L 370.977068 362.860102 
L 371.148401 360.579527 
L 371.6624 360.934453 
L 371.833733 358.410718 
L 372.005067 361.679197 
L 372.1764 361.565795 
L 372.347733 365.510323 
L 372.861732 369.229683 
L 373.033065 368.381896 
L 373.204398 368.260862 
L 373.375731 363.692079 
L 373.547064 365.357667 
L 374.061063 365.644443 
L 374.575062 358.366557 
L 374.746395 360.158087 
L 375.260394 357.246715 
L 375.431727 358.216082 
L 375.774394 356.160129 
L 375.945727 356.117058 
L 376.459726 365.624816 
L 376.802392 366.516219 
L 376.973725 364.395933 
L 377.145058 365.650985 
L 377.659057 367.34656 
L 378.001723 364.189302 
L 378.173056 367.513936 
L 378.344389 374.713313 
L 379.201054 383.633889 
L 379.372387 382.643805 
L 379.543721 379.566146 
L 380.05772 379.886724 
L 380.229053 385.38562 
L 380.400386 384.465321 
L 380.571719 390.012739 
L 381.257051 397.854908 
L 381.428384 393.77626 
L 381.599717 397.266091 
L 381.942383 389.307794 
L 382.627715 396.971137 
L 382.799048 393.807882 
L 383.141714 391.651067 
L 383.655714 391.988002 
L 383.99838 397.080722 
L 384.169713 404.548338 
L 384.341046 405.372137 
L 385.026378 392.641697 
L 385.369044 401.59335 
L 385.540377 400.255972 
L 386.225709 406.838727 
L 386.397042 403.570793 
L 386.568375 405.796848 
L 386.739708 402.21815 
L 387.253708 399.418544 
L 387.596374 396.457558 
L 387.767707 395.996318 
L 387.93904 392.940467 
L 388.453039 395.598321 
L 388.624372 403.484651 
L 388.795705 403.038677 
L 388.967038 407.563844 
L 389.138371 383.314402 
L 389.65237 366.035352 
L 389.995036 376.722924 
L 390.166369 372.180856 
L 390.337702 373.554216 
L 391.365701 389.501886 
L 391.537034 396.941151 
L 392.051033 396.551878 
L 392.393699 385.448318 
L 392.565032 393.87058 
L 392.736365 393.553818 
L 393.250364 392.033253 
L 393.421697 387.964419 
L 393.59303 388.142155 
L 393.764363 383.22826 
L 393.935696 381.802015 
L 394.792362 378.101737 
L 394.963695 381.936134 
L 395.135028 378.795777 
L 395.477694 377.483479 
L 395.991693 372.345506 
L 396.163026 371.486815 
L 396.334359 368.604883 
L 396.848358 368.577078 
L 397.019691 369.811958 
L 397.191024 365.562118 
L 397.362357 365.305328 
L 398.047689 360.04523 
L 398.390355 366.304136 
L 398.733022 361.213596 
L 399.247021 361.391331 
L 399.589687 357.446803 
L 399.76102 357.489329 
L 399.932353 360.088301 
L 400.789018 351.753816 
L 400.960351 349.060524 
L 401.131684 350.988899 
L 401.645683 351.802884 
L 401.817016 354.617211 
L 401.988349 350.626886 
L 402.331016 357.580923 
L 402.845015 357.852433 
L 403.016348 359.55673 
L 403.187681 358.505583 
L 403.530347 350.245791 
L 404.044346 350.682497 
L 404.387012 347.737867 
L 404.558345 347.768398 
L 404.729678 346.203672 
L 405.243677 346.699805 
L 405.41501 347.33987 
L 405.757676 350.426252 
L 405.929009 345.904902 
L 406.443009 346.531337 
L 406.614342 348.638539 
L 406.785675 349.27915 
L 406.957008 345.561425 
L 407.128341 349.64607 
L 407.64234 358.719302 
L 407.813673 356.950125 
L 407.985006 357.230904 
L 408.156339 349.393642 
L 408.327672 349.339122 
L 408.841671 348.464074 
L 409.013004 349.6199 
L 409.184337 352.310466 
L 409.35567 351.99425 
L 409.527003 354.864732 
L 410.383669 364.560584 
L 410.726335 358.669143 
L 411.411667 363.906888 
L 411.583 362.646383 
L 411.754333 365.149946 
L 411.925666 363.119618 
L 412.096999 374.162115 
L 412.439665 371.955688 
L 412.782331 361.283927 
L 412.953664 357.989823 
L 413.124997 359.103123 
L 413.638997 360.671121 
L 413.981663 355.9306 
L 414.324329 363.106533 
L 414.838328 364.786842 
L 415.009661 366.075697 
L 415.352327 361.928354 
L 416.037659 367.246788 
L 416.208992 367.491038 
L 416.551658 370.170155 
L 416.722991 381.508696 
L 417.23699 384.548191 
L 417.408324 381.182666 
L 417.579657 386.889283 
L 417.75099 385.126649 
L 417.922323 396.182232 
L 418.436322 410.781074 
L 418.778988 410.506293 
L 418.950321 437.947886 
L 419.121654 424.914315 
L 419.806986 457.74958 
L 419.978319 474.922861 
L 420.149652 480.338886 
L 420.320985 477.786256 
L 420.834984 514.859367 
L 421.006317 512.79142 
L 421.348984 485.459412 
L 421.520317 481.587396 
L 422.034316 494.526102 
L 422.205649 490.583209 
L 422.376982 500.785552 
L 422.719648 511.24305 
L 423.40498 491.471887 
L 423.576313 492.737298 
L 423.747646 482.191478 
L 424.432978 486.832228 
L 424.775644 491.531314 
L 424.946977 487.791781 
L 425.118311 473.818829 
L 425.63231 475.550387 
L 425.803643 487.689829 
L 425.974976 484.500404 
L 426.146309 478.32764 
L 426.317642 485.756547 
L 426.831641 480.36451 
L 427.34564 464.517158 
L 428.202305 489.190221 
L 428.373638 484.580003 
L 428.716304 488.30536 
L 429.401637 493.648874 
L 429.57297 485.229883 
L 429.915636 493.964 
L 430.429635 507.711239 
L 430.600968 508.659343 
L 430.772301 504.799866 
L 430.943634 505.945878 
L 431.114967 510.920291 
L 431.800299 509.159837 
L 432.142965 490.301886 
L 432.314298 488.912169 
L 432.828298 481.686622 
L 433.170964 470.991963 
L 433.342297 476.991898 
L 433.51363 469.969166 
L 434.027629 468.302487 
L 434.198962 473.34505 
L 434.370295 469.253863 
L 434.541628 475.523127 
L 434.712961 474.112147 
L 435.22696 482.199111 
L 435.398293 478.01415 
L 435.569626 479.049486 
L 435.912292 466.658707 
L 436.426292 462.621495 
L 436.597625 456.552864 
L 436.768958 465.69152 
L 437.111624 463.889632 
L 437.625623 466.430813 
L 437.796956 466.309233 
L 437.968289 459.685588 
L 438.139622 459.951646 
L 438.310955 461.050771 
L 438.824954 457.271984 
L 438.996287 452.593616 
L 439.16762 453.066305 
L 439.338953 449.549214 
L 439.510286 455.096633 
L 440.024285 458.468155 
L 440.195619 466.068799 
L 440.366952 466.629811 
L 440.709618 459.803352 
L 441.223617 455.931881 
L 441.39495 450.914397 
L 441.566283 449.817453 
L 441.737616 447.622475 
L 441.908949 452.222334 
L 442.422948 461.090571 
L 442.594281 458.294236 
L 442.765614 458.606091 
L 442.936947 463.292092 
L 443.10828 463.366239 
L 443.622279 469.559175 
L 443.793612 464.996935 
L 443.964946 464.784852 
L 444.307612 462.123726 
L 444.821611 460.529014 
L 444.992944 456.963946 
L 445.164277 456.562678 
L 445.33561 457.300335 
L 445.506943 462.937166 
L 446.020942 462.703275 
L 446.192275 457.581113 
L 446.363608 456.32388 
L 446.534941 459.447335 
L 446.706274 456.174495 
L 447.391606 447.532517 
L 447.734273 441.991095 
L 447.905606 431.921781 
L 448.419605 440.311877 
L 448.762271 439.001214 
L 449.104937 448.411926 
L 449.618936 449.136497 
L 449.790269 451.324388 
L 449.961602 456.529966 
L 450.132935 454.357886 
L 450.304268 454.207955 
L 450.818267 458.337307 
L 450.9896 454.363883 
L 451.160933 453.18734 
L 452.188932 468.828606 
L 452.360265 468.398988 
L 452.531598 476.267871 
L 452.702931 470.537811 
L 453.21693 463.088732 
L 453.388263 465.860533 
L 453.559596 465.41892 
L 453.730929 456.75895 
L 454.416261 455.396493 
L 454.587594 450.132579 
L 454.758927 448.921143 
L 454.93026 446.450838 
L 455.101593 439.3038 
L 455.615593 440.764939 
L 455.786926 443.170365 
L 455.958259 439.000124 
L 456.129592 447.747871 
L 456.300925 442.722755 
L 456.814924 434.724659 
L 456.986257 434.233433 
L 457.15759 430.708709 
L 457.328923 432.354126 
L 457.500256 432.417914 
L 458.014255 436.810597 
L 458.185588 429.242664 
L 458.356921 435.098121 
L 458.699587 438.713893 
L 459.213587 427.90147 
L 459.38492 419.284026 
L 459.556253 418.315749 
L 459.898919 407.113508 
L 460.412918 399.09742 
L 460.584251 387.409405 
L 460.755584 384.803345 
L 460.926917 390.977199 
L 461.783582 381.136324 
L 461.954915 374.936846 
L 462.126248 384.170367 
L 462.297581 380.539875 
L 462.81158 382.849345 
L 462.982914 375.074236 
L 463.154247 380.971674 
L 463.32558 377.118739 
L 464.182245 374.195373 
L 464.353578 378.063027 
L 464.524911 378.220045 
L 464.696244 371.637836 
L 465.381576 369.353444 
L 465.552909 364.473897 
L 465.724242 366.644341 
L 465.895575 365.613912 
L 466.409574 364.0759 
L 466.580907 364.673985 
L 466.752241 364.593841 
L 466.923574 362.972959 
L 467.094907 364.416651 
L 467.608906 378.136084 
L 467.951572 373.481705 
L 468.122905 367.823611 
L 468.808237 362.603313 
L 468.97957 357.788644 
L 469.150903 358.000727 
L 469.493569 358.842517 
L 470.007568 358.988631 
L 470.178901 353.429764 
L 470.350234 352.604875 
L 470.692901 349.483055 
L 471.2069 350.413167 
L 471.549566 344.13518 
L 471.720899 344.73381 
L 471.892232 347.710062 
L 472.406231 352.453854 
L 472.577564 345.768602 
L 472.748897 344.472659 
L 472.92023 348.363212 
L 473.091563 359.481493 
L 473.605562 359.141833 
L 473.948228 369.106468 
L 474.119561 368.302297 
L 474.290895 366.042985 
L 475.318893 313.929418 
L 475.490226 310.552445 
L 476.175558 306.16903 
L 476.346891 309.150188 
L 476.518224 309.488213 
L 477.203556 292.541735 
L 477.717555 300.384449 
L 477.888888 308.512303 
L 478.574221 316.413899 
L 478.745554 301.85322 
L 478.916887 300.798802 
L 479.08822 319.830672 
L 479.773552 313.112708 
L 479.944885 302.771884 
L 480.287551 315.201372 
L 480.80155 314.682341 
L 480.972883 308.250061 
L 481.144216 307.457885 
L 481.486882 312.273644 
L 482.000882 315.698595 
L 482.514881 330.154595 
L 482.686214 326.831051 
L 483.200213 332.917128 
L 483.371546 326.582439 
L 483.542879 336.299554 
L 483.714212 339.426825 
L 483.885545 336.027498 
L 484.570877 329.955052 
L 484.74221 336.183426 
L 484.913543 330.14151 
L 485.770209 344.934444 
L 485.941542 339.593112 
L 486.284208 345.515628 
L 486.798207 363.573225 
L 486.96954 352.89165 
L 487.312206 349.170655 
L 487.483539 350.647059 
L 488.168871 360.076307 
L 488.511537 352.771706 
L 488.68287 353.429218 
L 489.196869 347.400933 
L 489.368203 342.382904 
L 489.539536 331.615733 
L 489.710869 331.706237 
L 489.882202 341.876413 
L 490.396201 345.322627 
L 490.567534 347.453272 
L 490.738867 341.855695 
L 490.9102 341.374828 
L 491.595532 337.944424 
L 492.280864 348.552397 
L 492.966196 329.439292 
L 493.308863 335.849218 
L 493.480196 321.975492 
L 493.994195 318.30411 
L 494.165528 321.374681 
L 494.336861 321.132612 
L 494.508194 316.652697 
L 494.679527 316.14675 
L 495.193526 311.946523 
L 495.364859 314.012289 
L 495.536192 313.613747 
L 495.707525 310.612417 
L 495.878858 314.508967 
L 496.392857 312.851556 
L 496.735523 319.864475 
L 496.906856 316.258516 
L 497.07819 317.172273 
L 497.592189 318.227782 
L 497.763522 314.987653 
L 498.277521 322.508699 
L 498.79152 319.09247 
L 499.134186 322.334234 
L 499.305519 319.575518 
L 499.476852 313.712974 
L 499.990851 313.769675 
L 500.333517 320.173058 
L 500.50485 321.134793 
L 501.190183 315.377472 
L 501.532849 309.278855 
L 501.875515 316.904579 
L 502.389514 315.520314 
L 502.560847 310.346359 
L 502.73218 310.402514 
L 502.903513 307.792093 
L 503.074846 309.491484 
L 503.588845 316.825525 
L 503.760178 324.063066 
L 504.102844 321.207849 
L 504.274177 317.314025 
L 504.788177 318.237595 
L 504.95951 319.897732 
L 505.130843 322.782389 
L 505.302176 321.053012 
L 505.473509 322.221378 
L 505.987508 320.851288 
L 506.158841 315.427085 
L 506.330174 306.479249 
L 506.501507 308.586996 
L 506.67284 308.865048 
L 507.186839 306.469436 
L 507.358172 306.41328 
L 507.529505 308.896124 
L 507.700838 307.471515 
L 507.872171 304.938512 
L 508.386171 305.754677 
L 508.728837 311.642846 
L 509.071503 317.320022 
L 509.585502 316.332664 
L 509.756835 309.924373 
L 509.928168 311.296644 
L 510.270834 310.843582 
L 510.784833 302.994325 
L 510.956166 302.155261 
L 511.127499 300.52293 
L 511.298832 297.720598 
L 512.155498 301.673304 
L 512.326831 298.408641 
L 512.498164 299.335483 
L 513.183496 301.640592 
L 513.354829 300.100399 
L 513.526162 297.492159 
L 513.697495 288.590665 
L 513.868828 287.027574 
L 514.382827 294.292375 
L 514.55416 293.309378 
L 514.725493 296.484628 
L 514.896826 287.466461 
L 515.068159 286.827485 
L 515.582158 283.109761 
L 516.267491 293.417873 
L 516.952823 287.801214 
L 517.124156 290.1941 
L 517.295489 287.668185 
L 517.466822 287.427751 
L 518.323487 278.044845 
L 518.49482 270.355878 
L 519.180152 266.605987 
L 519.351485 268.179436 
L 519.522818 268.422596 
L 519.865485 259.639956 
L 520.379484 250.167091 
L 520.550817 249.666597 
L 520.72215 253.635114 
L 520.893483 268.523458 
L 521.064816 272.812553 
L 521.750148 263.840183 
L 521.921481 269.689097 
L 522.092814 267.817423 
L 522.778146 269.294372 
L 522.949479 270.051656 
L 523.292145 278.868644 
L 523.463479 276.980613 
L 523.977478 277.318638 
L 524.320144 284.524012 
L 524.491477 285.236044 
L 525.176809 294.476653 
L 525.519475 291.06206 
L 525.690808 291.90385 
L 525.862141 306.507054 
L 526.37614 307.041896 
L 526.547473 310.107561 
L 526.718806 302.806231 
L 526.890139 301.24314 
L 527.061472 304.63538 
L 527.575472 309.664858 
L 527.918138 292.776717 
L 528.089471 294.982054 
L 528.260804 294.729081 
L 529.117469 298.175841 
L 529.288802 300.802618 
L 529.460135 310.943354 
L 529.974134 323.797008 
L 530.145467 321.965133 
L 530.488133 315.604821 
L 530.659466 319.247853 
L 531.173466 317.057781 
L 531.344799 315.684965 
L 531.516132 317.194081 
L 531.687465 316.995628 
L 531.858798 312.436659 
L 532.54413 297.624097 
L 532.715463 288.292985 
L 532.886796 290.535396 
L 533.572128 281.183566 
L 533.743461 280.155318 
L 533.914794 277.043857 
L 534.25746 280.938226 
L 534.771459 282.620171 
L 534.942793 282.683959 
L 535.285459 286.603408 
L 535.456792 289.618914 
L 535.970791 296.453006 
L 536.142124 288.174677 
L 536.48479 285.172256 
L 536.656123 288.363861 
L 537.170122 285.245858 
L 537.512788 270.46928 
L 537.855454 276.369988 
L 538.369453 285.026687 
L 538.540786 284.666854 
L 538.883453 273.953658 
L 539.568785 296.878263 
L 539.740118 283.122301 
L 539.911451 285.480839 
L 540.082784 290.08397 
L 540.254117 289.347949 
L 540.768116 288.405297 
L 540.939449 291.828613 
L 541.110782 291.606171 
L 541.282115 315.201917 
L 541.453448 302.088202 
L 541.967447 304.546512 
L 542.65278 324.146482 
L 543.166779 340.901049 
L 543.338112 337.773231 
L 543.680778 323.40719 
L 543.852111 322.636821 
L 544.36611 314.285435 
L 544.537443 317.442147 
L 544.880109 302.112191 
L 545.565441 306.583383 
L 545.736774 302.984512 
L 545.908107 305.1784 
L 546.07944 311.941616 
L 546.250774 313.217386 
L 546.936106 308.44906 
L 547.107439 303.139894 
L 547.278772 302.711366 
L 547.450105 294.261844 
L 547.964104 278.050842 
L 548.30677 288.981029 
L 548.478103 289.803737 
L 548.649436 287.680725 
L 549.163435 289.188205 
L 549.334768 287.731428 
L 549.506101 290.828169 
L 550.362767 298.836079 
L 550.5341 303.060295 
L 550.705433 303.351432 
L 550.876766 297.886339 
L 551.048099 306.297152 
L 551.562098 305.887161 
L 551.733431 302.371161 
L 551.904764 306.470526 
L 552.076097 302.181431 
L 552.24743 305.823918 
L 552.761429 304.999574 
L 553.104095 314.804466 
L 553.275428 315.150123 
L 553.446761 322.146685 
L 553.960761 325.590174 
L 554.303427 321.035021 
L 554.646093 338.173954 
L 555.160092 332.980916 
L 555.331425 325.301217 
L 555.502758 326.808152 
L 555.674091 336.055304 
L 555.845424 325.57927 
L 556.359423 325.893305 
L 556.702089 324.891226 
L 557.044755 311.00169 
L 557.558755 308.672047 
L 557.730088 312.374506 
L 557.901421 310.91991 
L 558.072754 310.997874 
L 558.244087 314.689974 
L 558.758086 314.306697 
L 558.929419 317.732739 
L 559.100752 318.276305 
L 559.272085 316.757375 
L 559.443418 323.317777 
L 559.957417 335.071761 
L 560.12875 336.102191 
L 560.300083 335.800695 
L 560.471416 343.672304 
L 560.642749 342.298943 
L 561.156748 342.934102 
L 561.328082 337.406311 
L 561.499415 341.184008 
L 561.670748 338.025114 
L 561.842081 332.655431 
L 562.35608 330.651273 
L 562.527413 332.491871 
L 562.698746 336.554162 
L 563.041412 333.614985 
L 563.555411 329.237567 
L 563.726744 330.600569 
L 564.240743 316.33648 
L 564.754742 312.568052 
L 565.268742 321.492444 
L 565.440075 321.149513 
L 566.125407 309.834415 
L 566.468073 304.593399 
L 566.639406 298.727584 
L 567.153405 298.864429 
L 567.324738 302.330816 
L 567.838737 290.522857 
L 568.524069 284.715377 
L 568.695402 285.094292 
L 568.866735 287.642561 
L 569.038069 285.842853 
L 569.552068 282.38846 
L 569.894734 281.838353 
L 570.066067 275.383175 
L 570.2374 273.611817 
L 570.922732 271.45991 
L 571.265398 266.918387 
L 571.436731 274.226259 
L 571.95073 281.730403 
L 572.293396 273.653253 
L 572.464729 274.61008 
L 572.636062 274.213174 
L 573.150062 281.959932 
L 573.321395 268.220326 
L 573.664061 270.788222 
L 574.349393 265.287146 
L 574.692059 269.101916 
L 574.863392 260.890646 
L 575.034725 258.636241 
L 575.548724 256.910135 
L 575.720057 253.648744 
L 575.89139 247.844536 
L 576.062723 249.983904 
L 576.234056 254.698801 
L 576.748056 253.307448 
L 576.919389 247.158673 
L 577.090722 250.046602 
L 577.262055 256.292968 
L 577.433388 268.116738 
L 578.11872 281.060896 
L 578.290053 287.595673 
L 578.461386 288.818014 
L 578.632719 278.086281 
L 579.146718 284.65377 
L 579.318051 272.87307 
L 579.660717 270.988856 
L 579.83205 272.131597 
L 580.34605 273.057893 
L 580.517383 277.208507 
L 580.688716 272.780386 
L 580.860049 278.172967 
L 581.031382 270.74079 
L 581.545381 264.036455 
L 581.716714 259.693385 
L 581.888047 259.099662 
L 582.05938 262.083546 
L 582.230713 254.619747 
L 582.744712 248.94039 
L 582.916045 250.926556 
L 583.258711 249.001452 
L 583.430044 252.364796 
L 583.944043 248.907677 
L 584.115377 249.107766 
L 584.28671 250.66595 
L 584.458043 249.011811 
L 584.629376 249.446881 
L 585.143375 244.777236 
L 585.486041 243.724998 
L 585.657374 245.681724 
L 585.828707 239.866612 
L 586.342706 240.524124 
L 586.685372 235.524088 
L 586.856705 236.366423 
L 587.028038 236.591046 
L 587.542037 237.582221 
L 587.71337 236.377327 
L 588.056037 229.634828 
L 588.22737 230.632001 
L 588.741369 230.234004 
L 588.912702 229.874171 
L 589.084035 227.938163 
L 589.255368 227.614859 
L 589.426701 229.325699 
L 589.9407 226.826499 
L 590.112033 228.94624 
L 590.283366 229.380765 
L 590.454699 223.948929 
L 590.626032 223.549842 
L 591.140031 222.728769 
L 591.482697 219.017587 
L 591.825364 228.063559 
L 592.339363 225.945454 
L 592.510696 226.536997 
L 592.682029 234.622871 
L 592.853362 236.903446 
L 593.024695 244.980596 
L 593.710027 231.989005 
L 593.88136 232.335753 
L 594.052693 227.705363 
L 594.224026 230.604741 
L 594.738025 228.242385 
L 594.909358 225.820058 
L 595.423358 239.302329 
L 595.937357 235.006692 
L 596.10869 241.200173 
L 596.280023 238.823643 
L 596.451356 240.464152 
L 596.622689 237.312892 
L 597.136688 239.53404 
L 597.308021 238.798019 
L 597.479354 236.366968 
L 597.650687 237.775222 
L 597.82202 235.834852 
L 598.336019 232.406084 
L 598.507352 233.363457 
L 598.678685 245.203038 
L 599.021351 259.403884 
L 599.535351 258.944279 
L 599.706684 256.026365 
L 599.878017 257.57528 
L 600.04935 255.870982 
L 600.220683 246.816287 
L 600.734682 248.179834 
L 601.077348 246.40248 
L 601.420014 246.165317 
L 601.934013 249.187911 
L 602.105346 245.195405 
L 602.276679 244.293643 
L 602.448012 245.380773 
L 602.619345 250.82842 
L 603.133345 255.517692 
L 603.304678 255.824095 
L 603.476011 263.213747 
L 603.647344 263.152139 
L 603.818677 264.156945 
L 604.332676 259.820417 
L 604.504009 260.235315 
L 604.675342 255.556402 
L 604.846675 258.918655 
L 605.018008 249.5243 
L 605.532007 248.444257 
L 605.874673 245.972316 
L 606.046006 249.465418 
L 606.217339 257.875686 
L 607.074005 273.5115 
L 607.245338 272.627185 
L 607.416671 267.551365 
L 607.93067 270.126348 
L 608.102003 264.317234 
L 608.273336 263.1794 
L 608.616002 269.762154 
L 609.130001 269.370155 
L 609.301334 267.880666 
L 609.815333 256.532311 
L 610.329332 254.30353 
L 610.843332 251.817959 
L 611.528664 254.068003 
L 612.042663 239.91568 
L 612.727995 238.498158 
L 612.899328 238.469262 
L 613.070661 239.681789 
L 613.241994 238.422375 
L 613.413327 240.074334 
L 613.927326 234.428779 
L 614.098659 233.962632 
L 614.441326 230.447723 
L 614.612659 227.906542 
L 615.297991 226.617687 
L 615.469324 227.047305 
L 615.640657 222.982833 
L 615.81199 234.151272 
L 616.325989 227.36025 
L 616.497322 228.29636 
L 616.839988 225.274312 
L 617.011321 221.804109 
L 617.52532 218.766795 
L 617.867986 222.838355 
L 618.039319 222.253899 
L 618.210653 219.886637 
L 618.724652 220.805846 
L 618.895985 220.049653 
L 619.067318 223.065704 
L 619.238651 223.026994 
L 619.409984 219.356702 
L 620.095316 214.795007 
L 620.437982 221.840637 
L 620.609315 220.230659 
L 621.294647 217.758719 
L 621.46598 216.551099 
L 621.637313 219.604769 
L 621.808646 219.672919 
L 622.322646 220.161419 
L 622.493979 218.682289 
L 622.665312 219.683823 
L 622.836645 225.619969 
L 623.007978 220.227388 
L 623.521977 223.546571 
L 623.864643 221.08826 
L 624.207309 223.664879 
L 624.721308 223.466971 
L 625.063974 215.978638 
L 625.40664 211.403858 
L 626.091973 205.361942 
L 626.263306 206.993728 
L 626.434639 204.942683 
L 626.605972 209.466759 
L 627.119971 210.166252 
L 627.462637 212.580401 
L 627.63397 212.301258 
L 627.805303 210.619314 
L 628.319302 203.744877 
L 628.490635 204.169043 
L 628.661968 201.3509 
L 628.833301 195.706981 
L 629.004634 196.924959 
L 629.689967 199.435064 
L 629.8613 197.065076 
L 630.203966 203.544788 
L 630.717965 201.549353 
L 630.889298 202.188328 
L 631.231964 213.954307 
L 631.403297 209.962892 
L 631.917296 210.420861 
L 632.088629 209.036596 
L 632.259962 209.949807 
L 632.602628 217.381985 
L 633.116627 218.561254 
L 633.630627 220.737696 
L 633.80196 221.177128 
L 634.315959 219.531167 
L 634.487292 219.626577 
L 634.658625 214.329405 
L 634.829958 214.142402 
L 635.001291 217.02924 
L 635.51529 214.159303 
L 635.686623 214.15276 
L 636.029289 219.671283 
L 636.200622 214.797733 
L 636.714621 213.247182 
L 636.885954 213.750402 
L 637.057287 215.092141 
L 637.399954 206.94357 
L 637.913953 202.426036 
L 638.085286 203.073189 
L 638.256619 198.7323 
L 638.427952 197.735673 
L 638.599285 195.220662 
L 639.113284 197.964657 
L 639.45595 204.455273 
L 639.627283 212.750504 
L 639.798616 212.879171 
L 640.312615 211.199408 
L 640.483948 212.746687 
L 640.655281 213.138142 
L 640.826614 216.271411 
L 640.997948 213.179032 
L 641.68328 215.201727 
L 641.854613 219.944974 
L 642.197279 215.620986 
L 642.711278 220.79058 
L 642.882611 215.625893 
L 643.225277 213.019288 
L 643.39661 216.413163 
L 643.910609 217.089757 
L 644.081942 215.08778 
L 644.253275 220.766592 
L 644.424608 222.229911 
L 644.595941 222.572842 
L 645.452607 232.288866 
L 645.62394 238.306247 
L 645.795273 232.834067 
L 646.309272 230.030099 
L 646.651938 233.717837 
L 646.994604 226.986788 
L 647.679936 222.410917 
L 647.851269 223.275061 
L 648.022602 223.003005 
L 648.193935 221.514607 
L 648.536602 219.589503 
L 648.707935 220.738786 
L 649.050601 217.353634 
L 649.221934 217.791431 
L 649.393267 224.089591 
L 649.907266 224.078687 
L 650.078599 222.942488 
L 650.249932 225.554545 
L 650.592598 222.070712 
L 651.27793 220.851098 
L 651.449263 213.376394 
L 651.620596 214.299965 
L 651.791929 210.674924 
L 652.477262 186.707351 
L 652.648595 188.644995 
L 652.819928 188.570302 
L 652.991261 183.984073 
L 653.50526 183.414338 
L 653.676593 185.777238 
L 653.847926 185.835029 
L 654.190592 174.371637 
L 654.704591 177.37951 
L 654.875924 177.344617 
L 655.047257 181.985366 
L 655.21859 177.679916 
L 655.389923 181.477784 
L 656.075256 178.937149 
L 656.417922 170.391671 
L 656.589255 172.75021 
L 657.103254 173.382097 
L 657.274587 178.535881 
L 657.44592 179.154139 
L 657.617253 173.801357 
L 657.788586 174.20317 
L 658.473918 184.195065 
L 658.816584 182.061149 
L 658.987917 179.101254 
L 659.501916 174.210803 
L 659.673249 174.572816 
L 659.844583 197.042178 
L 660.015916 200.868397 
L 660.187249 201.003607 
L 660.358582 197.110328 
L 660.872581 208.484853 
L 661.043914 207.750467 
L 661.215247 210.108461 
L 661.900579 203.825566 
L 662.071912 204.639006 
L 662.243245 197.779834 
L 662.414578 195.687899 
L 662.585911 198.061703 
L 663.09991 199.647147 
L 663.271243 201.116463 
L 663.442576 199.724021 
L 663.61391 208.51811 
L 663.785243 201.729814 
L 664.299242 209.932906 
L 664.641908 198.74484 
L 664.984574 193.548531 
L 665.498573 191.905841 
L 665.669906 185.813767 
L 666.012572 187.715427 
L 666.183905 188.893606 
L 666.697904 191.458776 
L 666.869237 191.332835 
L 667.04057 198.146755 
L 667.211903 196.426646 
L 667.383237 183.712563 
L 667.897236 181.867603 
L 668.068569 180.505691 
L 668.239902 176.314187 
L 669.096567 183.266043 
L 669.2679 183.761631 
L 669.610566 189.131314 
L 669.781899 191.266865 
L 670.295898 191.465318 
L 670.638564 194.354883 
L 670.98123 188.326597 
L 671.666563 191.200351 
L 671.837896 189.17493 
L 672.009229 185.482285 
L 672.694561 180.535677 
L 672.865894 180.893329 
L 673.037227 180.034093 
L 673.379893 170.560683 
L 673.893892 169.594042 
L 674.065225 167.970979 
L 674.236558 165.179006 
L 674.579224 169.781046 
L 675.607223 186.083641 
L 675.778556 180.580384 
L 676.635221 173.876049 
L 676.806554 170.539965 
L 676.977887 173.744656 
L 677.491886 160.409044 
L 677.663219 160.706723 
L 678.005885 162.513519 
L 678.177218 165.866504 
L 678.691217 166.174542 
L 679.033884 175.706834 
L 679.205217 181.520855 
L 679.37655 182.249244 
L 680.061882 177.469468 
L 680.233215 179.344959 
L 680.575881 174.675859 
L 680.747214 173.761557 
L 681.261213 175.411335 
L 681.432546 178.314529 
L 681.603879 167.556081 
L 681.775212 165.342021 
L 682.289211 161.96014 
L 682.460544 163.482886 
L 682.631878 170.47018 
L 682.803211 168.496553 
L 682.974544 165.207901 
L 683.488543 143.443484 
L 683.659876 187.619472 
L 683.831209 164.437533 
L 684.002542 161.85001 
L 684.173875 156.274786 
L 684.687874 156.517945 
L 684.859207 157.337382 
L 685.03054 155.272707 
L 685.201873 155.800461 
L 685.373206 154.107067 
L 686.058538 149.321295 
L 686.401205 134.684288 
L 686.572538 136.012397 
L 687.086537 135.548976 
L 687.25787 125.713008 
L 687.429203 122.828896 
L 687.600536 123.474414 
L 687.771869 128.588943 
L 688.285868 126.053759 
L 688.457201 130.487877 
L 688.628534 120.443642 
L 688.799867 120.286079 
L 688.9712 125.120375 
L 689.485199 127.677912 
L 689.656532 126.118638 
L 689.827865 130.256712 
L 689.999198 129.36967 
L 690.170532 129.279712 
L 690.684531 127.349701 
L 690.855864 127.994129 
L 691.19853 125.552719 
L 691.369863 129.424736 
L 691.883862 129.263356 
L 692.397861 144.437931 
L 692.569194 139.997815 
L 693.083193 138.795102 
L 693.425859 137.190576 
L 693.597192 137.074994 
L 693.768525 139.406817 
L 694.453858 156.873416 
L 694.625191 152.831297 
L 694.796524 152.420216 
L 694.967857 148.845879 
L 695.481856 147.826899 
L 695.653189 155.962386 
L 695.824522 157.102401 
L 696.167188 148.492589 
L 696.681187 150.112381 
L 696.85252 145.371315 
L 697.023853 146.653627 
L 697.195186 143.380786 
L 697.366519 143.950521 
L 697.880519 141.609974 
L 698.051852 140.185364 
L 698.223185 141.656316 
L 698.394518 141.55927 
L 698.565851 139.397549 
L 699.07985 138.431998 
L 699.251183 135.710901 
L 699.422516 138.860526 
L 699.593849 138.066714 
L 699.765182 147.838893 
L 700.450514 140.255695 
L 700.621847 143.115819 
L 700.79318 134.802597 
L 700.964513 132.996346 
L 701.649846 130.2638 
L 702.163845 112.76776 
L 702.677844 109.359164 
L 702.849177 110.855195 
L 703.02051 109.404416 
L 703.191843 106.419987 
L 703.363176 112.319605 
L 703.877175 121.655624 
L 704.048508 122.260797 
L 704.562507 138.186658 
L 705.076506 148.906942 
L 705.24784 142.995875 
L 705.419173 143.148531 
L 705.590506 137.435917 
L 705.761839 141.346097 
L 706.447171 133.34582 
L 706.618504 134.490196 
L 706.789837 140.075779 
L 706.96117 131.293684 
L 707.475169 132.727562 
L 707.646502 140.420891 
L 707.817835 140.618799 
L 707.989168 137.43319 
L 708.160501 145.542508 
L 708.6745 140.397447 
L 708.845833 128.823924 
L 709.1885 138.041635 
L 709.359833 135.876642 
L 709.873832 140.877769 
L 710.045165 130.060985 
L 710.216498 128.859908 
L 710.559164 137.105525 
L 711.073163 133.664762 
L 711.415829 153.165506 
L 711.587162 152.171059 
L 712.272494 150.161994 
L 712.443827 147.297509 
L 712.786493 150.062768 
L 712.957827 141.748455 
L 713.471826 130.058259 
L 713.643159 130.232723 
L 713.814492 129.03001 
L 713.985825 133.336551 
L 714.157158 131.714579 
L 714.671157 131.132305 
L 715.185156 114.835707 
L 715.356489 115.861229 
L 715.870488 116.970713 
L 716.041821 115.117575 
L 716.384487 119.056651 
L 716.55582 115.051061 
L 717.06982 115.077776 
L 717.755152 145.850546 
L 718.269151 139.761743 
L 718.440484 140.684223 
L 718.78315 141.363543 
L 718.954483 139.830439 
L 719.639815 144.74924 
L 719.811148 142.564075 
L 719.982481 136.621932 
L 720.153814 143.346984 
L 720.667814 154.979389 
L 720.839147 151.924628 
L 721.181813 159.54272 
L 721.353146 167.931725 
L 721.867145 175.487118 
L 722.038478 167.986245 
L 722.209811 167.740359 
L 722.381144 161.993943 
L 722.552477 170.042197 
L 723.066476 161.207763 
L 723.237809 169.711805 
L 723.409142 168.038039 
L 724.265808 175.231964 
L 724.608474 163.22337 
L 724.779807 161.631384 
L 724.95114 158.630053 
L 725.122473 159.505101 
L 725.465139 162.737051 
L 725.636472 152.406586 
L 725.807805 150.388253 
L 725.979138 149.962451 
L 726.150471 152.396772 
L 726.66447 154.336052 
L 726.835803 160.634212 
L 727.007136 159.804961 
L 727.178469 161.109082 
L 727.349802 163.948487 
L 727.863801 162.209842 
L 728.035135 164.080971 
L 728.206468 158.816512 
L 728.549134 165.237887 
L 729.234466 169.30345 
L 729.577132 167.826501 
L 729.748465 172.178294 
L 730.262464 174.690579 
L 730.433797 173.263244 
L 730.776463 169.092457 
L 730.947796 170.51216 
L 731.461795 173.572918 
L 731.633128 177.52944 
L 731.804462 175.319196 
L 731.975795 175.278306 
L 732.661127 172.075251 
L 733.003793 157.37173 
L 733.860458 135.538072 
L 734.031791 136.595762 
L 734.203124 140.945919 
L 734.374457 136.945781 
L 734.54579 137.065725 
L 735.231122 145.105802 
L 735.573789 136.711345 
L 735.745122 137.74341 
L 736.259121 155.654347 
L 736.430454 148.556923 
L 736.601787 151.510276 
L 737.801118 120.132878 
L 737.972451 107.348464 
L 738.829116 92.551713 
L 739.343116 103.271997 
L 739.857115 94.889534 
L 740.028448 95.342596 
L 740.199781 98.658508 
L 740.542447 98.351014 
L 741.056446 100.486566 
L 741.227779 107.553459 
L 741.399112 103.851546 
L 741.570445 106.525756 
L 741.741778 114.92621 
L 742.255777 95.43419 
L 742.42711 100.253765 
L 742.598443 101.775421 
L 742.769776 95.731324 
L 742.941109 95.738957 
L 743.455109 95.021473 
L 743.626442 100.94617 
L 743.797775 98.789901 
L 743.969108 100.248859 
L 744.140441 95.266268 
L 744.65444 93.371695 
L 744.825773 95.761856 
L 744.997106 95.061818 
L 745.339772 91.434052 
L 745.853771 89.758104 
L 746.025104 93.066928 
L 746.36777 91.312472 
L 746.539103 82.397893 
L 747.053103 79.549764 
L 747.567102 87.80465 
L 747.738435 93.85856 
L 748.252434 89.305588 
L 748.423767 91.821689 
L 748.5951 90.572089 
L 748.766433 93.312268 
L 748.937766 85.947696 
L 749.451765 88.057623 
L 750.137097 72.960467 
L 750.651096 74.390529 
L 750.82243 72.790909 
L 751.165096 80.06934 
L 751.336429 77.452922 
L 751.850428 78.354684 
L 752.021761 75.00606 
L 752.193094 75.472207 
L 752.53576 80.475515 
L 753.049759 80.359387 
L 753.392425 75.958526 
L 753.735091 85.61894 
L 754.24909 78.315974 
L 754.420423 80.46134 
L 754.591757 75.506009 
L 754.76309 77.080549 
L 754.934423 82.937642 
L 755.448422 87.779025 
L 755.619755 86.284085 
L 755.791088 87.061541 
L 755.962421 89.119674 
L 756.133754 92.874472 
L 756.647753 92.85539 
L 756.819086 95.680621 
L 756.990419 95.125606 
L 757.161752 93.926165 
L 757.333085 99.555363 
L 757.847084 94.039566 
L 758.018417 99.132287 
L 758.361084 95.881255 
L 759.217749 90.175183 
L 759.389082 91.992337 
L 759.560415 91.371353 
L 759.731748 97.979733 
L 760.245747 98.089863 
L 760.41708 105.601095 
L 760.931079 114.267607 
L 761.445078 110.486094 
L 761.616411 114.209271 
L 761.787744 109.776243 
L 761.959077 109.690101 
L 762.130411 109.263754 
L 762.815743 108.156451 
L 763.158409 103.21148 
L 763.329742 101.688189 
L 763.843741 100.831678 
L 764.35774 91.676666 
L 764.529073 94.605485 
L 765.043072 96.503874 
L 765.214405 94.05047 
L 765.728404 106.26733 
L 766.242404 105.486058 
L 766.413737 103.57949 
L 766.58507 95.81474 
L 766.927736 93.183601 
L 767.613068 86.0949 
L 767.784401 88.505778 
L 767.955734 86.61066 
L 768.127067 82.056052 
L 768.641066 81.889766 
L 768.812399 83.291477 
L 768.983732 79.982653 
L 769.326398 70.02238 
L 769.840398 66.53473 
L 770.011731 66.818234 
L 770.354397 66.045685 
L 770.52573 70.17231 
L 771.382395 62.695971 
L 771.725061 69.335426 
L 772.23906 65.790531 
L 772.410393 68.782593 
L 772.753059 71.757209 
L 772.924392 68.240118 
L 773.438392 67.577699 
L 773.781058 63.901955 
L 774.123724 61.253369 
L 774.637723 56.399446 
L 774.809056 57.091306 
L 775.151722 52.2014 
L 775.323055 57.435328 
L 776.008387 57.952178 
L 776.17972 50.234861 
L 776.351053 47.953195 
L 776.522386 47.785273 
L 777.036385 48.563275 
L 777.207719 53.007207 
L 777.379052 52.195403 
L 777.550385 52.844737 
L 777.721718 47.518125 
L 778.235717 53.391574 
L 778.40705 53.568219 
L 778.578383 56.424526 
L 778.749716 53.704519 
L 778.749716 53.704519 
" clip-path="url(#p3b76c0b964)" style="fill: none; stroke: #1f77b4; stroke-width: 1.5; stroke-linecap: square"/>
   </g>
   <g id="patch_3">
    <path d="M 59.690625 576.718125 
L 59.690625 22.318125 
" style="fill: none; stroke: #000000; stroke-width: 0.8; stroke-linejoin: miter; stroke-linecap: square"/>
   </g>
   <g id="patch_4">
    <path d="M 812.990625 576.718125 
L 812.990625 22.318125 
" style="fill: none; stroke: #000000; stroke-width: 0.8; stroke-linejoin: miter; stroke-linecap: square"/>
   </g>
   <g id="patch_5">
    <path d="M 59.690625 576.718125 
L 812.990625 576.718125 
" style="fill: none; stroke: #000000; stroke-width: 0.8; stroke-linejoin: miter; stroke-linecap: square"/>
   </g>
   <g id="patch_6">
    <path d="M 59.690625 22.318125 
L 812.990625 22.318125 
" style="fill: none; stroke: #000000; stroke-width: 0.8; stroke-linejoin: miter; stroke-linecap: square"/>
   </g>
   <g id="text_14">
    <!-- Historical Closing Price of NIFTY BANK Index -->
    <g transform="translate(304.344375 16.318125) scale(0.12 -0.12)">
     <defs>
      <path id="DejaVuSans-48" d="M 628 4666 
L 1259 4666 
L 1259 2753 
L 3553 2753 
L 3553 4666 
L 4184 4666 
L 4184 0 
L 3553 0 
L 3553 2222 
L 1259 2222 
L 1259 0 
L 628 0 
L 628 4666 
z
" transform="scale(0.015625)"/>
      <path id="DejaVuSans-6e" d="M 3513 2113 
L 3513 0 
L 2938 0 
L 2938 2094 
Q 2938 2591 2744 2837 
Q 2550 3084 2163 3084 
Q 1697 3084 1428 2787 
Q 1159 2491 1159 1978 
L 1159 0 
L 581 0 
L 581 3500 
L 1159 3500 
L 1159 2956 
Q 1366 3272 1645 3428 
Q 1925 3584 2291 3584 
Q 2894 3584 3203 3211 
Q 3513 2838 3513 2113 
z
" transform="scale(0.015625)"/>
      <path id="DejaVuSans-67" d="M 2906 1791 
Q 2906 2416 2648 2759 
Q 2391 3103 1925 3103 
Q 1463 3103 1205 2759 
Q 947 2416 947 1791 
Q 947 1169 1205 825 
Q 1463 481 1925 481 
Q 2391 481 2648 825 
Q 2906 1169 2906 1791 
z
M 3481 434 
Q 3481 -459 3084 -895 
Q 2688 -1331 1869 -1331 
Q 1566 -1331 1297 -1286 
Q 1028 -1241 775 -1147 
L 775 -588 
Q 1028 -725 1275 -790 
Q 1522 -856 1778 -856 
Q 2344 -856 2625 -561 
Q 2906 -266 2906 331 
L 2906 616 
Q 2728 306 2450 153 
Q 2172 0 1784 0 
Q 1141 0 747 490 
Q 353 981 353 1791 
Q 353 2603 747 3093 
Q 1141 3584 1784 3584 
Q 2172 3584 2450 3431 
Q 2728 3278 2906 2969 
L 2906 3500 
L 3481 3500 
L 3481 434 
z
" transform="scale(0.015625)"/>
      <path id="DejaVuSans-66" d="M 2375 4863 
L 2375 4384 
L 1825 4384 
Q 1516 4384 1395 4259 
Q 1275 4134 1275 3809 
L 1275 3500 
L 2222 3500 
L 2222 3053 
L 1275 3053 
L 1275 0 
L 697 0 
L 697 3053 
L 147 3053 
L 147 3500 
L 697 3500 
L 697 3744 
Q 697 4328 969 4595 
Q 1241 4863 1831 4863 
L 2375 4863 
z
" transform="scale(0.015625)"/>
      <path id="DejaVuSans-4e" d="M 628 4666 
L 1478 4666 
L 3547 763 
L 3547 4666 
L 4159 4666 
L 4159 0 
L 3309 0 
L 1241 3903 
L 1241 0 
L 628 0 
L 628 4666 
z
" transform="scale(0.015625)"/>
      <path id="DejaVuSans-49" d="M 628 4666 
L 1259 4666 
L 1259 0 
L 628 0 
L 628 4666 
z
" transform="scale(0.015625)"/>
      <path id="DejaVuSans-46" d="M 628 4666 
L 3309 4666 
L 3309 4134 
L 1259 4134 
L 1259 2759 
L 3109 2759 
L 3109 2228 
L 1259 2228 
L 1259 0 
L 628 0 
L 628 4666 
z
" transform="scale(0.015625)"/>
      <path id="DejaVuSans-54" d="M -19 4666 
L 3928 4666 
L 3928 4134 
L 2272 4134 
L 2272 0 
L 1638 0 
L 1638 4134 
L -19 4134 
L -19 4666 
z
" transform="scale(0.015625)"/>
      <path id="DejaVuSans-59" d="M -13 4666 
L 666 4666 
L 1959 2747 
L 3244 4666 
L 3922 4666 
L 2272 2222 
L 2272 0 
L 1638 0 
L 1638 2222 
L -13 4666 
z
" transform="scale(0.015625)"/>
      <path id="DejaVuSans-42" d="M 1259 2228 
L 1259 519 
L 2272 519 
Q 2781 519 3026 730 
Q 3272 941 3272 1375 
Q 3272 1813 3026 2020 
Q 2781 2228 2272 2228 
L 1259 2228 
z
M 1259 4147 
L 1259 2741 
L 2194 2741 
Q 2656 2741 2882 2914 
Q 3109 3088 3109 3444 
Q 3109 3797 2882 3972 
Q 2656 4147 2194 4147 
L 1259 4147 
z
M 628 4666 
L 2241 4666 
Q 2963 4666 3353 4366 
Q 3744 4066 3744 3513 
Q 3744 3084 3544 2831 
Q 3344 2578 2956 2516 
Q 3422 2416 3680 2098 
Q 3938 1781 3938 1306 
Q 3938 681 3513 340 
Q 3088 0 2303 0 
L 628 0 
L 628 4666 
z
" transform="scale(0.015625)"/>
      <path id="DejaVuSans-41" d="M 2188 4044 
L 1331 1722 
L 3047 1722 
L 2188 4044 
z
M 1831 4666 
L 2547 4666 
L 4325 0 
L 3669 0 
L 3244 1197 
L 1141 1197 
L 716 0 
L 50 0 
L 1831 4666 
z
" transform="scale(0.015625)"/>
      <path id="DejaVuSans-4b" d="M 628 4666 
L 1259 4666 
L 1259 2694 
L 3353 4666 
L 4166 4666 
L 1850 2491 
L 4331 0 
L 3500 0 
L 1259 2247 
L 1259 0 
L 628 0 
L 628 4666 
z
" transform="scale(0.015625)"/>
      <path id="DejaVuSans-64" d="M 2906 2969 
L 2906 4863 
L 3481 4863 
L 3481 0 
L 2906 0 
L 2906 525 
Q 2725 213 2448 61 
Q 2172 -91 1784 -91 
Q 1150 -91 751 415 
Q 353 922 353 1747 
Q 353 2572 751 3078 
Q 1150 3584 1784 3584 
Q 2172 3584 2448 3432 
Q 2725 3281 2906 2969 
z
M 947 1747 
Q 947 1113 1208 752 
Q 1469 391 1925 391 
Q 2381 391 2643 752 
Q 2906 1113 2906 1747 
Q 2906 2381 2643 2742 
Q 2381 3103 1925 3103 
Q 1469 3103 1208 2742 
Q 947 2381 947 1747 
z
" transform="scale(0.015625)"/>
      <path id="DejaVuSans-78" d="M 3513 3500 
L 2247 1797 
L 3578 0 
L 2900 0 
L 1881 1375 
L 863 0 
L 184 0 
L 1544 1831 
L 300 3500 
L 978 3500 
L 1906 2253 
L 2834 3500 
L 3513 3500 
z
" transform="scale(0.015625)"/>
     </defs>
     <use xlink:href="#DejaVuSans-48"/>
     <use xlink:href="#DejaVuSans-69" transform="translate(75.195312 0)"/>
     <use xlink:href="#DejaVuSans-73" transform="translate(102.978516 0)"/>
     <use xlink:href="#DejaVuSans-74" transform="translate(155.078125 0)"/>
     <use xlink:href="#DejaVuSans-6f" transform="translate(194.287109 0)"/>
     <use xlink:href="#DejaVuSans-72" transform="translate(255.46875 0)"/>
     <use xlink:href="#DejaVuSans-69" transform="translate(296.582031 0)"/>
     <use xlink:href="#DejaVuSans-63" transform="translate(324.365234 0)"/>
     <use xlink:href="#DejaVuSans-61" transform="translate(379.345703 0)"/>
     <use xlink:href="#DejaVuSans-6c" transform="translate(440.625 0)"/>
     <use xlink:href="#DejaVuSans-20" transform="translate(468.408203 0)"/>
     <use xlink:href="#DejaVuSans-43" transform="translate(500.195312 0)"/>
     <use xlink:href="#DejaVuSans-6c" transform="translate(570.019531 0)"/>
     <use xlink:href="#DejaVuSans-6f" transform="translate(597.802734 0)"/>
     <use xlink:href="#DejaVuSans-73" transform="translate(658.984375 0)"/>
     <use xlink:href="#DejaVuSans-69" transform="translate(711.083984 0)"/>
     <use xlink:href="#DejaVuSans-6e" transform="translate(738.867188 0)"/>
     <use xlink:href="#DejaVuSans-67" transform="translate(802.246094 0)"/>
     <use xlink:href="#DejaVuSans-20" transform="translate(865.722656 0)"/>
     <use xlink:href="#DejaVuSans-50" transform="translate(897.509766 0)"/>
     <use xlink:href="#DejaVuSans-72" transform="translate(956.0625 0)"/>
     <use xlink:href="#DejaVuSans-69" transform="translate(997.175781 0)"/>
     <use xlink:href="#DejaVuSans-63" transform="translate(1024.958984 0)"/>
     <use xlink:href="#DejaVuSans-65" transform="translate(1079.939453 0)"/>
     <use xlink:href="#DejaVuSans-20" transform="translate(1141.462891 0)"/>
     <use xlink:href="#DejaVuSans-6f" transform="translate(1173.25 0)"/>
     <use xlink:href="#DejaVuSans-66" transform="translate(1234.431641 0)"/>
     <use xlink:href="#DejaVuSans-20" transform="translate(1269.636719 0)"/>
     <use xlink:href="#DejaVuSans-4e" transform="translate(1301.423828 0)"/>
     <use xlink:href="#DejaVuSans-49" transform="translate(1376.228516 0)"/>
     <use xlink:href="#DejaVuSans-46" transform="translate(1405.720703 0)"/>
     <use xlink:href="#DejaVuSans-54" transform="translate(1461.490234 0)"/>
     <use xlink:href="#DejaVuSans-59" transform="translate(1522.574219 0)"/>
     <use xlink:href="#DejaVuSans-20" transform="translate(1583.658203 0)"/>
     <use xlink:href="#DejaVuSans-42" transform="translate(1615.445312 0)"/>
     <use xlink:href="#DejaVuSans-41" transform="translate(1684.048828 0)"/>
     <use xlink:href="#DejaVuSans-4e" transform="translate(1752.457031 0)"/>
     <use xlink:href="#DejaVuSans-4b" transform="translate(1827.261719 0)"/>
     <use xlink:href="#DejaVuSans-20" transform="translate(1892.837891 0)"/>
     <use xlink:href="#DejaVuSans-49" transform="translate(1924.625 0)"/>
     <use xlink:href="#DejaVuSans-6e" transform="translate(1954.117188 0)"/>
     <use xlink:href="#DejaVuSans-64" transform="translate(2017.496094 0)"/>
     <use xlink:href="#DejaVuSans-65" transform="translate(2080.972656 0)"/>
     <use xlink:href="#DejaVuSans-78" transform="translate(2140.746094 0)"/>
    </g>
   </g>
  </g>
 </g>
 <defs>
  <clipPath id="p3b76c0b964">
   <rect x="59.690625" y="22.318125" width="753.3" height="554.4"/>
  </clipPath>
 </defs>
</svg>
