<?xml version="1.0" encoding="utf-8" standalone="no"?>
<!DOCTYPE svg PUBLIC "-//W3C//DTD SVG 1.1//EN"
  "http://www.w3.org/Graphics/SVG/1.1/DTD/svg11.dtd">
<svg xmlns:xlink="http://www.w3.org/1999/xlink" width="640.64875pt" height="279.034375pt" viewBox="0 0 640.64875 279.034375" xmlns="http://www.w3.org/2000/svg" version="1.1">
 <metadata>
  <rdf:RDF xmlns:dc="http://purl.org/dc/elements/1.1/" xmlns:cc="http://creativecommons.org/ns#" xmlns:rdf="http://www.w3.org/1999/02/22-rdf-syntax-ns#">
   <cc:Work>
    <dc:type rdf:resource="http://purl.org/dc/dcmitype/StillImage"/>
    <dc:date>2025-12-19T16:11:01.392642</dc:date>
    <dc:format>image/svg+xml</dc:format>
    <dc:creator>
     <cc:Agent>
      <dc:title>Matplotlib v3.10.0, https://matplotlib.org/</dc:title>
     </cc:Agent>
    </dc:creator>
   </cc:Work>
  </rdf:RDF>
 </metadata>
 <defs>
  <style type="text/css">*{stroke-linejoin: round; stroke-linecap: butt}</style>
 </defs>
 <g id="figure_1">
  <g id="patch_1">
   <path d="M 0 279.034375 
L 640.64875 279.034375 
L 640.64875 0 
L 0 0 
z
" style="fill: #ffffff"/>
  </g>
  <g id="axes_1">
   <g id="patch_2">
    <path d="M 62.86875 241.478125 
L 633.44875 241.478125 
L 633.44875 22.318125 
L 62.86875 22.318125 
z
" style="fill: #ffffff"/>
   </g>
   <g id="patch_3">
    <path d="M 201.598337 241.478125 
L 201.9383 241.478125 
L 201.9383 239.022551 
L 201.598337 239.022551 
z
" clip-path="url(#p0d85c88988)" style="fill: #1f77b4; opacity: 0.6"/>
   </g>
   <g id="patch_4">
    <path d="M 201.9383 241.478125 
L 202.278263 241.478125 
L 202.278263 234.111402 
L 201.9383 234.111402 
z
" clip-path="url(#p0d85c88988)" style="fill: #1f77b4; opacity: 0.6"/>
   </g>
   <g id="patch_5">
    <path d="M 202.278263 241.478125 
L 202.618225 241.478125 
L 202.618225 239.022551 
L 202.278263 239.022551 
z
" clip-path="url(#p0d85c88988)" style="fill: #1f77b4; opacity: 0.6"/>
   </g>
   <g id="patch_6">
    <path d="M 202.618225 241.478125 
L 202.958188 241.478125 
L 202.958188 236.566977 
L 202.618225 236.566977 
z
" clip-path="url(#p0d85c88988)" style="fill: #1f77b4; opacity: 0.6"/>
   </g>
   <g id="patch_7">
    <path d="M 202.958188 241.478125 
L 203.298151 241.478125 
L 203.298151 236.566977 
L 202.958188 236.566977 
z
" clip-path="url(#p0d85c88988)" style="fill: #1f77b4; opacity: 0.6"/>
   </g>
   <g id="patch_8">
    <path d="M 203.298151 241.478125 
L 203.638113 241.478125 
L 203.638113 236.566977 
L 203.298151 236.566977 
z
" clip-path="url(#p0d85c88988)" style="fill: #1f77b4; opacity: 0.6"/>
   </g>
   <g id="patch_9">
    <path d="M 203.638113 241.478125 
L 203.978076 241.478125 
L 203.978076 239.022551 
L 203.638113 239.022551 
z
" clip-path="url(#p0d85c88988)" style="fill: #1f77b4; opacity: 0.6"/>
   </g>
   <g id="patch_10">
    <path d="M 203.978076 241.478125 
L 204.318039 241.478125 
L 204.318039 221.833531 
L 203.978076 221.833531 
z
" clip-path="url(#p0d85c88988)" style="fill: #1f77b4; opacity: 0.6"/>
   </g>
   <g id="patch_11">
    <path d="M 204.318039 241.478125 
L 204.658002 241.478125 
L 204.658002 221.833531 
L 204.318039 221.833531 
z
" clip-path="url(#p0d85c88988)" style="fill: #1f77b4; opacity: 0.6"/>
   </g>
   <g id="patch_12">
    <path d="M 204.658002 241.478125 
L 204.997964 241.478125 
L 204.997964 214.466808 
L 204.658002 214.466808 
z
" clip-path="url(#p0d85c88988)" style="fill: #1f77b4; opacity: 0.6"/>
   </g>
   <g id="patch_13">
    <path d="M 204.997964 241.478125 
L 205.337927 241.478125 
L 205.337927 224.289105 
L 204.997964 224.289105 
z
" clip-path="url(#p0d85c88988)" style="fill: #1f77b4; opacity: 0.6"/>
   </g>
   <g id="patch_14">
    <path d="M 205.337927 241.478125 
L 205.67789 241.478125 
L 205.67789 199.733363 
L 205.337927 199.733363 
z
" clip-path="url(#p0d85c88988)" style="fill: #1f77b4; opacity: 0.6"/>
   </g>
   <g id="patch_15">
    <path d="M 205.67789 241.478125 
L 206.017852 241.478125 
L 206.017852 226.74468 
L 205.67789 226.74468 
z
" clip-path="url(#p0d85c88988)" style="fill: #1f77b4; opacity: 0.6"/>
   </g>
   <g id="patch_16">
    <path d="M 206.017852 241.478125 
L 206.357815 241.478125 
L 206.357815 194.822215 
L 206.017852 194.822215 
z
" clip-path="url(#p0d85c88988)" style="fill: #1f77b4; opacity: 0.6"/>
   </g>
   <g id="patch_17">
    <path d="M 206.357815 241.478125 
L 206.697778 241.478125 
L 206.697778 199.733363 
L 206.357815 199.733363 
z
" clip-path="url(#p0d85c88988)" style="fill: #1f77b4; opacity: 0.6"/>
   </g>
   <g id="patch_18">
    <path d="M 206.697778 241.478125 
L 207.03774 241.478125 
L 207.03774 187.455492 
L 206.697778 187.455492 
z
" clip-path="url(#p0d85c88988)" style="fill: #1f77b4; opacity: 0.6"/>
   </g>
   <g id="patch_19">
    <path d="M 207.03774 241.478125 
L 207.377703 241.478125 
L 207.377703 192.36664 
L 207.03774 192.36664 
z
" clip-path="url(#p0d85c88988)" style="fill: #1f77b4; opacity: 0.6"/>
   </g>
   <g id="patch_20">
    <path d="M 207.377703 241.478125 
L 207.717666 241.478125 
L 207.717666 148.166304 
L 207.377703 148.166304 
z
" clip-path="url(#p0d85c88988)" style="fill: #1f77b4; opacity: 0.6"/>
   </g>
   <g id="patch_21">
    <path d="M 207.717666 241.478125 
L 208.057628 241.478125 
L 208.057628 150.621879 
L 207.717666 150.621879 
z
" clip-path="url(#p0d85c88988)" style="fill: #1f77b4; opacity: 0.6"/>
   </g>
   <g id="patch_22">
    <path d="M 208.057628 241.478125 
L 208.397591 241.478125 
L 208.397591 150.621879 
L 208.057628 150.621879 
z
" clip-path="url(#p0d85c88988)" style="fill: #1f77b4; opacity: 0.6"/>
   </g>
   <g id="patch_23">
    <path d="M 208.397591 241.478125 
L 208.737554 241.478125 
L 208.737554 138.344007 
L 208.397591 138.344007 
z
" clip-path="url(#p0d85c88988)" style="fill: #1f77b4; opacity: 0.6"/>
   </g>
   <g id="patch_24">
    <path d="M 208.737554 241.478125 
L 209.077517 241.478125 
L 209.077517 130.977285 
L 208.737554 130.977285 
z
" clip-path="url(#p0d85c88988)" style="fill: #1f77b4; opacity: 0.6"/>
   </g>
   <g id="patch_25">
    <path d="M 209.077517 241.478125 
L 209.417479 241.478125 
L 209.417479 106.421542 
L 209.077517 106.421542 
z
" clip-path="url(#p0d85c88988)" style="fill: #1f77b4; opacity: 0.6"/>
   </g>
   <g id="patch_26">
    <path d="M 209.417479 241.478125 
L 209.757442 241.478125 
L 209.757442 91.688097 
L 209.417479 91.688097 
z
" clip-path="url(#p0d85c88988)" style="fill: #1f77b4; opacity: 0.6"/>
   </g>
   <g id="patch_27">
    <path d="M 209.757442 241.478125 
L 210.097405 241.478125 
L 210.097405 86.776949 
L 209.757442 86.776949 
z
" clip-path="url(#p0d85c88988)" style="fill: #1f77b4; opacity: 0.6"/>
   </g>
   <g id="patch_28">
    <path d="M 210.097405 241.478125 
L 210.437367 241.478125 
L 210.437367 96.599245 
L 210.097405 96.599245 
z
" clip-path="url(#p0d85c88988)" style="fill: #1f77b4; opacity: 0.6"/>
   </g>
   <g id="patch_29">
    <path d="M 210.437367 241.478125 
L 210.77733 241.478125 
L 210.77733 91.688097 
L 210.437367 91.688097 
z
" clip-path="url(#p0d85c88988)" style="fill: #1f77b4; opacity: 0.6"/>
   </g>
   <g id="patch_30">
    <path d="M 210.77733 241.478125 
L 211.117293 241.478125 
L 211.117293 32.754315 
L 210.77733 32.754315 
z
" clip-path="url(#p0d85c88988)" style="fill: #1f77b4; opacity: 0.6"/>
   </g>
   <g id="patch_31">
    <path d="M 211.117293 241.478125 
L 211.457255 241.478125 
L 211.457255 54.854484 
L 211.117293 54.854484 
z
" clip-path="url(#p0d85c88988)" style="fill: #1f77b4; opacity: 0.6"/>
   </g>
   <g id="patch_32">
    <path d="M 211.457255 241.478125 
L 211.797218 241.478125 
L 211.797218 42.576612 
L 211.457255 42.576612 
z
" clip-path="url(#p0d85c88988)" style="fill: #1f77b4; opacity: 0.6"/>
   </g>
   <g id="patch_33">
    <path d="M 211.797218 241.478125 
L 212.137181 241.478125 
L 212.137181 76.954652 
L 211.797218 76.954652 
z
" clip-path="url(#p0d85c88988)" style="fill: #1f77b4; opacity: 0.6"/>
   </g>
   <g id="patch_34">
    <path d="M 212.137181 241.478125 
L 212.477143 241.478125 
L 212.477143 79.410226 
L 212.137181 79.410226 
z
" clip-path="url(#p0d85c88988)" style="fill: #1f77b4; opacity: 0.6"/>
   </g>
   <g id="patch_35">
    <path d="M 212.477143 241.478125 
L 212.817106 241.478125 
L 212.817106 37.665464 
L 212.477143 37.665464 
z
" clip-path="url(#p0d85c88988)" style="fill: #1f77b4; opacity: 0.6"/>
   </g>
   <g id="patch_36">
    <path d="M 212.817106 241.478125 
L 213.157069 241.478125 
L 213.157069 84.321374 
L 212.817106 84.321374 
z
" clip-path="url(#p0d85c88988)" style="fill: #1f77b4; opacity: 0.6"/>
   </g>
   <g id="patch_37">
    <path d="M 213.157069 241.478125 
L 213.497032 241.478125 
L 213.497032 37.665464 
L 213.157069 37.665464 
z
" clip-path="url(#p0d85c88988)" style="fill: #1f77b4; opacity: 0.6"/>
   </g>
   <g id="patch_38">
    <path d="M 213.497032 241.478125 
L 213.836994 241.478125 
L 213.836994 57.310058 
L 213.497032 57.310058 
z
" clip-path="url(#p0d85c88988)" style="fill: #1f77b4; opacity: 0.6"/>
   </g>
   <g id="patch_39">
    <path d="M 213.836994 241.478125 
L 214.176957 241.478125 
L 214.176957 62.221206 
L 213.836994 62.221206 
z
" clip-path="url(#p0d85c88988)" style="fill: #1f77b4; opacity: 0.6"/>
   </g>
   <g id="patch_40">
    <path d="M 214.176957 241.478125 
L 214.51692 241.478125 
L 214.51692 74.499077 
L 214.176957 74.499077 
z
" clip-path="url(#p0d85c88988)" style="fill: #1f77b4; opacity: 0.6"/>
   </g>
   <g id="patch_41">
    <path d="M 214.51692 241.478125 
L 214.856882 241.478125 
L 214.856882 121.154988 
L 214.51692 121.154988 
z
" clip-path="url(#p0d85c88988)" style="fill: #1f77b4; opacity: 0.6"/>
   </g>
   <g id="patch_42">
    <path d="M 214.856882 241.478125 
L 215.196845 241.478125 
L 215.196845 116.243839 
L 214.856882 116.243839 
z
" clip-path="url(#p0d85c88988)" style="fill: #1f77b4; opacity: 0.6"/>
   </g>
   <g id="patch_43">
    <path d="M 215.196845 241.478125 
L 215.536808 241.478125 
L 215.536808 123.610562 
L 215.196845 123.610562 
z
" clip-path="url(#p0d85c88988)" style="fill: #1f77b4; opacity: 0.6"/>
   </g>
   <g id="patch_44">
    <path d="M 215.536808 241.478125 
L 215.87677 241.478125 
L 215.87677 130.977285 
L 215.536808 130.977285 
z
" clip-path="url(#p0d85c88988)" style="fill: #1f77b4; opacity: 0.6"/>
   </g>
   <g id="patch_45">
    <path d="M 215.87677 241.478125 
L 216.216733 241.478125 
L 216.216733 133.432859 
L 215.87677 133.432859 
z
" clip-path="url(#p0d85c88988)" style="fill: #1f77b4; opacity: 0.6"/>
   </g>
   <g id="patch_46">
    <path d="M 216.216733 241.478125 
L 216.556696 241.478125 
L 216.556696 138.344007 
L 216.216733 138.344007 
z
" clip-path="url(#p0d85c88988)" style="fill: #1f77b4; opacity: 0.6"/>
   </g>
   <g id="patch_47">
    <path d="M 216.556696 241.478125 
L 216.896658 241.478125 
L 216.896658 153.077453 
L 216.556696 153.077453 
z
" clip-path="url(#p0d85c88988)" style="fill: #1f77b4; opacity: 0.6"/>
   </g>
   <g id="patch_48">
    <path d="M 216.896658 241.478125 
L 217.236621 241.478125 
L 217.236621 172.722047 
L 216.896658 172.722047 
z
" clip-path="url(#p0d85c88988)" style="fill: #1f77b4; opacity: 0.6"/>
   </g>
   <g id="patch_49">
    <path d="M 217.236621 241.478125 
L 217.576584 241.478125 
L 217.576584 135.888433 
L 217.236621 135.888433 
z
" clip-path="url(#p0d85c88988)" style="fill: #1f77b4; opacity: 0.6"/>
   </g>
   <g id="patch_50">
    <path d="M 217.576584 241.478125 
L 217.916546 241.478125 
L 217.916546 170.266472 
L 217.576584 170.266472 
z
" clip-path="url(#p0d85c88988)" style="fill: #1f77b4; opacity: 0.6"/>
   </g>
   <g id="patch_51">
    <path d="M 217.916546 241.478125 
L 218.256509 241.478125 
L 218.256509 172.722047 
L 217.916546 172.722047 
z
" clip-path="url(#p0d85c88988)" style="fill: #1f77b4; opacity: 0.6"/>
   </g>
   <g id="patch_52">
    <path d="M 218.256509 241.478125 
L 218.596472 241.478125 
L 218.596472 189.911066 
L 218.256509 189.911066 
z
" clip-path="url(#p0d85c88988)" style="fill: #1f77b4; opacity: 0.6"/>
   </g>
   <g id="patch_53">
    <path d="M 218.596472 241.478125 
L 218.936435 241.478125 
L 218.936435 214.466808 
L 218.596472 214.466808 
z
" clip-path="url(#p0d85c88988)" style="fill: #1f77b4; opacity: 0.6"/>
   </g>
   <g id="patch_54">
    <path d="M 218.936435 241.478125 
L 219.276397 241.478125 
L 219.276397 216.922383 
L 218.936435 216.922383 
z
" clip-path="url(#p0d85c88988)" style="fill: #1f77b4; opacity: 0.6"/>
   </g>
   <g id="patch_55">
    <path d="M 219.276397 241.478125 
L 219.61636 241.478125 
L 219.61636 209.55566 
L 219.276397 209.55566 
z
" clip-path="url(#p0d85c88988)" style="fill: #1f77b4; opacity: 0.6"/>
   </g>
   <g id="patch_56">
    <path d="M 219.61636 241.478125 
L 219.956323 241.478125 
L 219.956323 221.833531 
L 219.61636 221.833531 
z
" clip-path="url(#p0d85c88988)" style="fill: #1f77b4; opacity: 0.6"/>
   </g>
   <g id="patch_57">
    <path d="M 219.956323 241.478125 
L 220.296285 241.478125 
L 220.296285 229.200254 
L 219.956323 229.200254 
z
" clip-path="url(#p0d85c88988)" style="fill: #1f77b4; opacity: 0.6"/>
   </g>
   <g id="patch_58">
    <path d="M 220.296285 241.478125 
L 220.636248 241.478125 
L 220.636248 226.74468 
L 220.296285 226.74468 
z
" clip-path="url(#p0d85c88988)" style="fill: #1f77b4; opacity: 0.6"/>
   </g>
   <g id="patch_59">
    <path d="M 220.636248 241.478125 
L 220.976211 241.478125 
L 220.976211 234.111402 
L 220.636248 234.111402 
z
" clip-path="url(#p0d85c88988)" style="fill: #1f77b4; opacity: 0.6"/>
   </g>
   <g id="patch_60">
    <path d="M 220.976211 241.478125 
L 221.316173 241.478125 
L 221.316173 231.655828 
L 220.976211 231.655828 
z
" clip-path="url(#p0d85c88988)" style="fill: #1f77b4; opacity: 0.6"/>
   </g>
   <g id="patch_61">
    <path d="M 221.316173 241.478125 
L 221.656136 241.478125 
L 221.656136 234.111402 
L 221.316173 234.111402 
z
" clip-path="url(#p0d85c88988)" style="fill: #1f77b4; opacity: 0.6"/>
   </g>
   <g id="patch_62">
    <path d="M 221.656136 241.478125 
L 221.996099 241.478125 
L 221.996099 224.289105 
L 221.656136 224.289105 
z
" clip-path="url(#p0d85c88988)" style="fill: #1f77b4; opacity: 0.6"/>
   </g>
   <g id="patch_63">
    <path d="M 88.804205 241.478125 
L 97.449356 241.478125 
L 97.449356 241.188435 
L 88.804205 241.188435 
z
" clip-path="url(#p0d85c88988)" style="fill: #ff7f0e; opacity: 0.4"/>
   </g>
   <g id="patch_64">
    <path d="M 97.449356 241.478125 
L 106.094508 241.478125 
L 106.094508 241.188435 
L 97.449356 241.188435 
z
" clip-path="url(#p0d85c88988)" style="fill: #ff7f0e; opacity: 0.4"/>
   </g>
   <g id="patch_65">
    <path d="M 106.094508 241.478125 
L 114.739659 241.478125 
L 114.739659 241.284999 
L 106.094508 241.284999 
z
" clip-path="url(#p0d85c88988)" style="fill: #ff7f0e; opacity: 0.4"/>
   </g>
   <g id="patch_66">
    <path d="M 114.739659 241.478125 
L 123.384811 241.478125 
L 123.384811 240.995309 
L 114.739659 240.995309 
z
" clip-path="url(#p0d85c88988)" style="fill: #ff7f0e; opacity: 0.4"/>
   </g>
   <g id="patch_67">
    <path d="M 123.384811 241.478125 
L 132.029962 241.478125 
L 132.029962 240.12624 
L 123.384811 240.12624 
z
" clip-path="url(#p0d85c88988)" style="fill: #ff7f0e; opacity: 0.4"/>
   </g>
   <g id="patch_68">
    <path d="M 132.029962 241.478125 
L 140.675114 241.478125 
L 140.675114 239.546861 
L 132.029962 239.546861 
z
" clip-path="url(#p0d85c88988)" style="fill: #ff7f0e; opacity: 0.4"/>
   </g>
   <g id="patch_69">
    <path d="M 140.675114 241.478125 
L 149.320265 241.478125 
L 149.320265 238.484665 
L 140.675114 238.484665 
z
" clip-path="url(#p0d85c88988)" style="fill: #ff7f0e; opacity: 0.4"/>
   </g>
   <g id="patch_70">
    <path d="M 149.320265 241.478125 
L 157.965417 241.478125 
L 157.965417 237.71216 
L 149.320265 237.71216 
z
" clip-path="url(#p0d85c88988)" style="fill: #ff7f0e; opacity: 0.4"/>
   </g>
   <g id="patch_71">
    <path d="M 157.965417 241.478125 
L 166.610568 241.478125 
L 166.610568 236.167148 
L 157.965417 236.167148 
z
" clip-path="url(#p0d85c88988)" style="fill: #ff7f0e; opacity: 0.4"/>
   </g>
   <g id="patch_72">
    <path d="M 166.610568 241.478125 
L 175.25572 241.478125 
L 175.25572 235.104953 
L 166.610568 235.104953 
z
" clip-path="url(#p0d85c88988)" style="fill: #ff7f0e; opacity: 0.4"/>
   </g>
   <g id="patch_73">
    <path d="M 175.25572 241.478125 
L 183.900871 241.478125 
L 183.900871 234.42901 
L 175.25572 234.42901 
z
" clip-path="url(#p0d85c88988)" style="fill: #ff7f0e; opacity: 0.4"/>
   </g>
   <g id="patch_74">
    <path d="M 183.900871 241.478125 
L 192.546023 241.478125 
L 192.546023 233.559941 
L 183.900871 233.559941 
z
" clip-path="url(#p0d85c88988)" style="fill: #ff7f0e; opacity: 0.4"/>
   </g>
   <g id="patch_75">
    <path d="M 192.546023 241.478125 
L 201.191174 241.478125 
L 201.191174 231.145861 
L 192.546023 231.145861 
z
" clip-path="url(#p0d85c88988)" style="fill: #ff7f0e; opacity: 0.4"/>
   </g>
   <g id="patch_76">
    <path d="M 201.191174 241.478125 
L 209.836326 241.478125 
L 209.836326 230.952735 
L 201.191174 230.952735 
z
" clip-path="url(#p0d85c88988)" style="fill: #ff7f0e; opacity: 0.4"/>
   </g>
   <g id="patch_77">
    <path d="M 209.836326 241.478125 
L 218.481477 241.478125 
L 218.481477 231.338987 
L 209.836326 231.338987 
z
" clip-path="url(#p0d85c88988)" style="fill: #ff7f0e; opacity: 0.4"/>
   </g>
   <g id="patch_78">
    <path d="M 218.481477 241.478125 
L 227.126629 241.478125 
L 227.126629 230.083666 
L 218.481477 230.083666 
z
" clip-path="url(#p0d85c88988)" style="fill: #ff7f0e; opacity: 0.4"/>
   </g>
   <g id="patch_79">
    <path d="M 227.126629 241.478125 
L 235.77178 241.478125 
L 235.77178 232.30462 
L 227.126629 232.30462 
z
" clip-path="url(#p0d85c88988)" style="fill: #ff7f0e; opacity: 0.4"/>
   </g>
   <g id="patch_80">
    <path d="M 235.77178 241.478125 
L 244.416932 241.478125 
L 244.416932 230.276792 
L 235.77178 230.276792 
z
" clip-path="url(#p0d85c88988)" style="fill: #ff7f0e; opacity: 0.4"/>
   </g>
   <g id="patch_81">
    <path d="M 244.416932 241.478125 
L 253.062083 241.478125 
L 253.062083 231.242424 
L 244.416932 231.242424 
z
" clip-path="url(#p0d85c88988)" style="fill: #ff7f0e; opacity: 0.4"/>
   </g>
   <g id="patch_82">
    <path d="M 253.062083 241.478125 
L 261.707235 241.478125 
L 261.707235 232.208056 
L 253.062083 232.208056 
z
" clip-path="url(#p0d85c88988)" style="fill: #ff7f0e; opacity: 0.4"/>
   </g>
   <g id="patch_83">
    <path d="M 261.707235 241.478125 
L 270.352386 241.478125 
L 270.352386 230.469919 
L 261.707235 230.469919 
z
" clip-path="url(#p0d85c88988)" style="fill: #ff7f0e; opacity: 0.4"/>
   </g>
   <g id="patch_84">
    <path d="M 270.352386 241.478125 
L 278.997538 241.478125 
L 278.997538 232.787436 
L 270.352386 232.787436 
z
" clip-path="url(#p0d85c88988)" style="fill: #ff7f0e; opacity: 0.4"/>
   </g>
   <g id="patch_85">
    <path d="M 278.997538 241.478125 
L 287.642689 241.478125 
L 287.642689 232.787436 
L 278.997538 232.787436 
z
" clip-path="url(#p0d85c88988)" style="fill: #ff7f0e; opacity: 0.4"/>
   </g>
   <g id="patch_86">
    <path d="M 287.642689 241.478125 
L 296.287841 241.478125 
L 296.287841 234.525574 
L 287.642689 234.525574 
z
" clip-path="url(#p0d85c88988)" style="fill: #ff7f0e; opacity: 0.4"/>
   </g>
   <g id="patch_87">
    <path d="M 296.287841 241.478125 
L 304.932992 241.478125 
L 304.932992 235.201516 
L 296.287841 235.201516 
z
" clip-path="url(#p0d85c88988)" style="fill: #ff7f0e; opacity: 0.4"/>
   </g>
   <g id="patch_88">
    <path d="M 304.932992 241.478125 
L 313.578144 241.478125 
L 313.578144 235.684332 
L 304.932992 235.684332 
z
" clip-path="url(#p0d85c88988)" style="fill: #ff7f0e; opacity: 0.4"/>
   </g>
   <g id="patch_89">
    <path d="M 313.578144 241.478125 
L 322.223295 241.478125 
L 322.223295 237.71216 
L 313.578144 237.71216 
z
" clip-path="url(#p0d85c88988)" style="fill: #ff7f0e; opacity: 0.4"/>
   </g>
   <g id="patch_90">
    <path d="M 322.223295 241.478125 
L 330.868447 241.478125 
L 330.868447 237.905286 
L 322.223295 237.905286 
z
" clip-path="url(#p0d85c88988)" style="fill: #ff7f0e; opacity: 0.4"/>
   </g>
   <g id="patch_91">
    <path d="M 330.868447 241.478125 
L 339.513598 241.478125 
L 339.513598 238.677792 
L 330.868447 238.677792 
z
" clip-path="url(#p0d85c88988)" style="fill: #ff7f0e; opacity: 0.4"/>
   </g>
   <g id="patch_92">
    <path d="M 339.513598 241.478125 
L 348.15875 241.478125 
L 348.15875 239.160608 
L 339.513598 239.160608 
z
" clip-path="url(#p0d85c88988)" style="fill: #ff7f0e; opacity: 0.4"/>
   </g>
   <g id="patch_93">
    <path d="M 348.15875 241.478125 
L 356.803902 241.478125 
L 356.803902 238.291539 
L 348.15875 238.291539 
z
" clip-path="url(#p0d85c88988)" style="fill: #ff7f0e; opacity: 0.4"/>
   </g>
   <g id="patch_94">
    <path d="M 356.803902 241.478125 
L 365.449053 241.478125 
L 365.449053 239.257171 
L 356.803902 239.257171 
z
" clip-path="url(#p0d85c88988)" style="fill: #ff7f0e; opacity: 0.4"/>
   </g>
   <g id="patch_95">
    <path d="M 365.449053 241.478125 
L 374.094205 241.478125 
L 374.094205 239.739987 
L 365.449053 239.739987 
z
" clip-path="url(#p0d85c88988)" style="fill: #ff7f0e; opacity: 0.4"/>
   </g>
   <g id="patch_96">
    <path d="M 374.094205 241.478125 
L 382.739356 241.478125 
L 382.739356 240.41593 
L 374.094205 240.41593 
z
" clip-path="url(#p0d85c88988)" style="fill: #ff7f0e; opacity: 0.4"/>
   </g>
   <g id="patch_97">
    <path d="M 382.739356 241.478125 
L 391.384508 241.478125 
L 391.384508 240.802182 
L 382.739356 240.802182 
z
" clip-path="url(#p0d85c88988)" style="fill: #ff7f0e; opacity: 0.4"/>
   </g>
   <g id="patch_98">
    <path d="M 391.384508 241.478125 
L 400.029659 241.478125 
L 400.029659 240.609056 
L 391.384508 240.609056 
z
" clip-path="url(#p0d85c88988)" style="fill: #ff7f0e; opacity: 0.4"/>
   </g>
   <g id="patch_99">
    <path d="M 400.029659 241.478125 
L 408.674811 241.478125 
L 408.674811 240.705619 
L 400.029659 240.705619 
z
" clip-path="url(#p0d85c88988)" style="fill: #ff7f0e; opacity: 0.4"/>
   </g>
   <g id="patch_100">
    <path d="M 408.674811 241.478125 
L 417.319962 241.478125 
L 417.319962 240.898746 
L 408.674811 240.898746 
z
" clip-path="url(#p0d85c88988)" style="fill: #ff7f0e; opacity: 0.4"/>
   </g>
   <g id="patch_101">
    <path d="M 417.319962 241.478125 
L 425.965114 241.478125 
L 425.965114 241.188435 
L 417.319962 241.188435 
z
" clip-path="url(#p0d85c88988)" style="fill: #ff7f0e; opacity: 0.4"/>
   </g>
   <g id="patch_102">
    <path d="M 425.965114 241.478125 
L 434.610265 241.478125 
L 434.610265 241.284999 
L 425.965114 241.284999 
z
" clip-path="url(#p0d85c88988)" style="fill: #ff7f0e; opacity: 0.4"/>
   </g>
   <g id="patch_103">
    <path d="M 434.610265 241.478125 
L 443.255417 241.478125 
L 443.255417 241.381562 
L 434.610265 241.381562 
z
" clip-path="url(#p0d85c88988)" style="fill: #ff7f0e; opacity: 0.4"/>
   </g>
   <g id="patch_104">
    <path d="M 443.255417 241.478125 
L 451.900568 241.478125 
L 451.900568 241.091872 
L 443.255417 241.091872 
z
" clip-path="url(#p0d85c88988)" style="fill: #ff7f0e; opacity: 0.4"/>
   </g>
   <g id="patch_105">
    <path d="M 451.900568 241.478125 
L 460.54572 241.478125 
L 460.54572 241.188435 
L 451.900568 241.188435 
z
" clip-path="url(#p0d85c88988)" style="fill: #ff7f0e; opacity: 0.4"/>
   </g>
   <g id="patch_106">
    <path d="M 460.54572 241.478125 
L 469.190871 241.478125 
L 469.190871 241.188435 
L 460.54572 241.188435 
z
" clip-path="url(#p0d85c88988)" style="fill: #ff7f0e; opacity: 0.4"/>
   </g>
   <g id="patch_107">
    <path d="M 469.190871 241.478125 
L 477.836023 241.478125 
L 477.836023 241.478125 
L 469.190871 241.478125 
z
" clip-path="url(#p0d85c88988)" style="fill: #ff7f0e; opacity: 0.4"/>
   </g>
   <g id="patch_108">
    <path d="M 477.836023 241.478125 
L 486.481174 241.478125 
L 486.481174 241.381562 
L 477.836023 241.381562 
z
" clip-path="url(#p0d85c88988)" style="fill: #ff7f0e; opacity: 0.4"/>
   </g>
   <g id="patch_109">
    <path d="M 486.481174 241.478125 
L 495.126326 241.478125 
L 495.126326 241.478125 
L 486.481174 241.478125 
z
" clip-path="url(#p0d85c88988)" style="fill: #ff7f0e; opacity: 0.4"/>
   </g>
   <g id="patch_110">
    <path d="M 495.126326 241.478125 
L 503.771477 241.478125 
L 503.771477 241.478125 
L 495.126326 241.478125 
z
" clip-path="url(#p0d85c88988)" style="fill: #ff7f0e; opacity: 0.4"/>
   </g>
   <g id="patch_111">
    <path d="M 503.771477 241.478125 
L 512.416629 241.478125 
L 512.416629 241.381562 
L 503.771477 241.381562 
z
" clip-path="url(#p0d85c88988)" style="fill: #ff7f0e; opacity: 0.4"/>
   </g>
   <g id="patch_112">
    <path d="M 512.416629 241.478125 
L 521.06178 241.478125 
L 521.06178 241.478125 
L 512.416629 241.478125 
z
" clip-path="url(#p0d85c88988)" style="fill: #ff7f0e; opacity: 0.4"/>
   </g>
   <g id="patch_113">
    <path d="M 521.06178 241.478125 
L 529.706932 241.478125 
L 529.706932 241.381562 
L 521.06178 241.381562 
z
" clip-path="url(#p0d85c88988)" style="fill: #ff7f0e; opacity: 0.4"/>
   </g>
   <g id="patch_114">
    <path d="M 529.706932 241.478125 
L 538.352083 241.478125 
L 538.352083 241.478125 
L 529.706932 241.478125 
z
" clip-path="url(#p0d85c88988)" style="fill: #ff7f0e; opacity: 0.4"/>
   </g>
   <g id="patch_115">
    <path d="M 538.352083 241.478125 
L 546.997235 241.478125 
L 546.997235 241.478125 
L 538.352083 241.478125 
z
" clip-path="url(#p0d85c88988)" style="fill: #ff7f0e; opacity: 0.4"/>
   </g>
   <g id="patch_116">
    <path d="M 546.997235 241.478125 
L 555.642386 241.478125 
L 555.642386 241.478125 
L 546.997235 241.478125 
z
" clip-path="url(#p0d85c88988)" style="fill: #ff7f0e; opacity: 0.4"/>
   </g>
   <g id="patch_117">
    <path d="M 555.642386 241.478125 
L 564.287538 241.478125 
L 564.287538 241.478125 
L 555.642386 241.478125 
z
" clip-path="url(#p0d85c88988)" style="fill: #ff7f0e; opacity: 0.4"/>
   </g>
   <g id="patch_118">
    <path d="M 564.287538 241.478125 
L 572.932689 241.478125 
L 572.932689 241.478125 
L 564.287538 241.478125 
z
" clip-path="url(#p0d85c88988)" style="fill: #ff7f0e; opacity: 0.4"/>
   </g>
   <g id="patch_119">
    <path d="M 572.932689 241.478125 
L 581.577841 241.478125 
L 581.577841 241.478125 
L 572.932689 241.478125 
z
" clip-path="url(#p0d85c88988)" style="fill: #ff7f0e; opacity: 0.4"/>
   </g>
   <g id="patch_120">
    <path d="M 581.577841 241.478125 
L 590.222992 241.478125 
L 590.222992 241.478125 
L 581.577841 241.478125 
z
" clip-path="url(#p0d85c88988)" style="fill: #ff7f0e; opacity: 0.4"/>
   </g>
   <g id="patch_121">
    <path d="M 590.222992 241.478125 
L 598.868144 241.478125 
L 598.868144 241.478125 
L 590.222992 241.478125 
z
" clip-path="url(#p0d85c88988)" style="fill: #ff7f0e; opacity: 0.4"/>
   </g>
   <g id="patch_122">
    <path d="M 598.868144 241.478125 
L 607.513295 241.478125 
L 607.513295 241.381562 
L 598.868144 241.381562 
z
" clip-path="url(#p0d85c88988)" style="fill: #ff7f0e; opacity: 0.4"/>
   </g>
   <g id="matplotlib.axis_1">
    <g id="xtick_1">
     <g id="line2d_1">
      <defs>
       <path id="m4d07848a2e" d="M 0 0 
L 0 3.5 
" style="stroke: #000000; stroke-width: 0.8"/>
      </defs>
      <g>
       <use xlink:href="#m4d07848a2e" x="130.58753" y="241.478125" style="stroke: #000000; stroke-width: 0.8"/>
      </g>
     </g>
     <g id="text_1">
      <!-- 40000 -->
      <g transform="translate(114.68128 256.076563) scale(0.1 -0.1)">
       <defs>
        <path id="DejaVuSans-34" d="M 2419 4116 
L 825 1625 
L 2419 1625 
L 2419 4116 
z
M 2253 4666 
L 3047 4666 
L 3047 1625 
L 3713 1625 
L 3713 1100 
L 3047 1100 
L 3047 0 
L 2419 0 
L 2419 1100 
L 313 1100 
L 313 1709 
L 2253 4666 
z
" transform="scale(0.015625)"/>
        <path id="DejaVuSans-30" d="M 2034 4250 
Q 1547 4250 1301 3770 
Q 1056 3291 1056 2328 
Q 1056 1369 1301 889 
Q 1547 409 2034 409 
Q 2525 409 2770 889 
Q 3016 1369 3016 2328 
Q 3016 3291 2770 3770 
Q 2525 4250 2034 4250 
z
M 2034 4750 
Q 2819 4750 3233 4129 
Q 3647 3509 3647 2328 
Q 3647 1150 3233 529 
Q 2819 -91 2034 -91 
Q 1250 -91 836 529 
Q 422 1150 422 2328 
Q 422 3509 836 4129 
Q 1250 4750 2034 4750 
z
" transform="scale(0.015625)"/>
       </defs>
       <use xlink:href="#DejaVuSans-34"/>
       <use xlink:href="#DejaVuSans-30" transform="translate(63.623047 0)"/>
       <use xlink:href="#DejaVuSans-30" transform="translate(127.246094 0)"/>
       <use xlink:href="#DejaVuSans-30" transform="translate(190.869141 0)"/>
       <use xlink:href="#DejaVuSans-30" transform="translate(254.492188 0)"/>
      </g>
     </g>
    </g>
    <g id="xtick_2">
     <g id="line2d_2">
      <g>
       <use xlink:href="#m4d07848a2e" x="215.713372" y="241.478125" style="stroke: #000000; stroke-width: 0.8"/>
      </g>
     </g>
     <g id="text_2">
      <!-- 60000 -->
      <g transform="translate(199.807122 256.076563) scale(0.1 -0.1)">
       <defs>
        <path id="DejaVuSans-36" d="M 2113 2584 
Q 1688 2584 1439 2293 
Q 1191 2003 1191 1497 
Q 1191 994 1439 701 
Q 1688 409 2113 409 
Q 2538 409 2786 701 
Q 3034 994 3034 1497 
Q 3034 2003 2786 2293 
Q 2538 2584 2113 2584 
z
M 3366 4563 
L 3366 3988 
Q 3128 4100 2886 4159 
Q 2644 4219 2406 4219 
Q 1781 4219 1451 3797 
Q 1122 3375 1075 2522 
Q 1259 2794 1537 2939 
Q 1816 3084 2150 3084 
Q 2853 3084 3261 2657 
Q 3669 2231 3669 1497 
Q 3669 778 3244 343 
Q 2819 -91 2113 -91 
Q 1303 -91 875 529 
Q 447 1150 447 2328 
Q 447 3434 972 4092 
Q 1497 4750 2381 4750 
Q 2619 4750 2861 4703 
Q 3103 4656 3366 4563 
z
" transform="scale(0.015625)"/>
       </defs>
       <use xlink:href="#DejaVuSans-36"/>
       <use xlink:href="#DejaVuSans-30" transform="translate(63.623047 0)"/>
       <use xlink:href="#DejaVuSans-30" transform="translate(127.246094 0)"/>
       <use xlink:href="#DejaVuSans-30" transform="translate(190.869141 0)"/>
       <use xlink:href="#DejaVuSans-30" transform="translate(254.492188 0)"/>
      </g>
     </g>
    </g>
    <g id="xtick_3">
     <g id="line2d_3">
      <g>
       <use xlink:href="#m4d07848a2e" x="300.839214" y="241.478125" style="stroke: #000000; stroke-width: 0.8"/>
      </g>
     </g>
     <g id="text_3">
      <!-- 80000 -->
      <g transform="translate(284.932964 256.076563) scale(0.1 -0.1)">
       <defs>
        <path id="DejaVuSans-38" d="M 2034 2216 
Q 1584 2216 1326 1975 
Q 1069 1734 1069 1313 
Q 1069 891 1326 650 
Q 1584 409 2034 409 
Q 2484 409 2743 651 
Q 3003 894 3003 1313 
Q 3003 1734 2745 1975 
Q 2488 2216 2034 2216 
z
M 1403 2484 
Q 997 2584 770 2862 
Q 544 3141 544 3541 
Q 544 4100 942 4425 
Q 1341 4750 2034 4750 
Q 2731 4750 3128 4425 
Q 3525 4100 3525 3541 
Q 3525 3141 3298 2862 
Q 3072 2584 2669 2484 
Q 3125 2378 3379 2068 
Q 3634 1759 3634 1313 
Q 3634 634 3220 271 
Q 2806 -91 2034 -91 
Q 1263 -91 848 271 
Q 434 634 434 1313 
Q 434 1759 690 2068 
Q 947 2378 1403 2484 
z
M 1172 3481 
Q 1172 3119 1398 2916 
Q 1625 2713 2034 2713 
Q 2441 2713 2670 2916 
Q 2900 3119 2900 3481 
Q 2900 3844 2670 4047 
Q 2441 4250 2034 4250 
Q 1625 4250 1398 4047 
Q 1172 3844 1172 3481 
z
" transform="scale(0.015625)"/>
       </defs>
       <use xlink:href="#DejaVuSans-38"/>
       <use xlink:href="#DejaVuSans-30" transform="translate(63.623047 0)"/>
       <use xlink:href="#DejaVuSans-30" transform="translate(127.246094 0)"/>
       <use xlink:href="#DejaVuSans-30" transform="translate(190.869141 0)"/>
       <use xlink:href="#DejaVuSans-30" transform="translate(254.492188 0)"/>
      </g>
     </g>
    </g>
    <g id="xtick_4">
     <g id="line2d_4">
      <g>
       <use xlink:href="#m4d07848a2e" x="385.965056" y="241.478125" style="stroke: #000000; stroke-width: 0.8"/>
      </g>
     </g>
     <g id="text_4">
      <!-- 100000 -->
      <g transform="translate(366.877556 256.076563) scale(0.1 -0.1)">
       <defs>
        <path id="DejaVuSans-31" d="M 794 531 
L 1825 531 
L 1825 4091 
L 703 3866 
L 703 4441 
L 1819 4666 
L 2450 4666 
L 2450 531 
L 3481 531 
L 3481 0 
L 794 0 
L 794 531 
z
" transform="scale(0.015625)"/>
       </defs>
       <use xlink:href="#DejaVuSans-31"/>
       <use xlink:href="#DejaVuSans-30" transform="translate(63.623047 0)"/>
       <use xlink:href="#DejaVuSans-30" transform="translate(127.246094 0)"/>
       <use xlink:href="#DejaVuSans-30" transform="translate(190.869141 0)"/>
       <use xlink:href="#DejaVuSans-30" transform="translate(254.492188 0)"/>
       <use xlink:href="#DejaVuSans-30" transform="translate(318.115234 0)"/>
      </g>
     </g>
    </g>
    <g id="xtick_5">
     <g id="line2d_5">
      <g>
       <use xlink:href="#m4d07848a2e" x="471.090898" y="241.478125" style="stroke: #000000; stroke-width: 0.8"/>
      </g>
     </g>
     <g id="text_5">
      <!-- 120000 -->
      <g transform="translate(452.003398 256.076563) scale(0.1 -0.1)">
       <defs>
        <path id="DejaVuSans-32" d="M 1228 531 
L 3431 531 
L 3431 0 
L 469 0 
L 469 531 
Q 828 903 1448 1529 
Q 2069 2156 2228 2338 
Q 2531 2678 2651 2914 
Q 2772 3150 2772 3378 
Q 2772 3750 2511 3984 
Q 2250 4219 1831 4219 
Q 1534 4219 1204 4116 
Q 875 4013 500 3803 
L 500 4441 
Q 881 4594 1212 4672 
Q 1544 4750 1819 4750 
Q 2544 4750 2975 4387 
Q 3406 4025 3406 3419 
Q 3406 3131 3298 2873 
Q 3191 2616 2906 2266 
Q 2828 2175 2409 1742 
Q 1991 1309 1228 531 
z
" transform="scale(0.015625)"/>
       </defs>
       <use xlink:href="#DejaVuSans-31"/>
       <use xlink:href="#DejaVuSans-32" transform="translate(63.623047 0)"/>
       <use xlink:href="#DejaVuSans-30" transform="translate(127.246094 0)"/>
       <use xlink:href="#DejaVuSans-30" transform="translate(190.869141 0)"/>
       <use xlink:href="#DejaVuSans-30" transform="translate(254.492188 0)"/>
       <use xlink:href="#DejaVuSans-30" transform="translate(318.115234 0)"/>
      </g>
     </g>
    </g>
    <g id="xtick_6">
     <g id="line2d_6">
      <g>
       <use xlink:href="#m4d07848a2e" x="556.21674" y="241.478125" style="stroke: #000000; stroke-width: 0.8"/>
      </g>
     </g>
     <g id="text_6">
      <!-- 140000 -->
      <g transform="translate(537.12924 256.076563) scale(0.1 -0.1)">
       <use xlink:href="#DejaVuSans-31"/>
       <use xlink:href="#DejaVuSans-34" transform="translate(63.623047 0)"/>
       <use xlink:href="#DejaVuSans-30" transform="translate(127.246094 0)"/>
       <use xlink:href="#DejaVuSans-30" transform="translate(190.869141 0)"/>
       <use xlink:href="#DejaVuSans-30" transform="translate(254.492188 0)"/>
       <use xlink:href="#DejaVuSans-30" transform="translate(318.115234 0)"/>
      </g>
     </g>
    </g>
    <g id="text_7">
     <!-- Terminal Index Value -->
     <g transform="translate(296.353281 269.754687) scale(0.1 -0.1)">
      <defs>
       <path id="DejaVuSans-54" d="M -19 4666 
L 3928 4666 
L 3928 4134 
L 2272 4134 
L 2272 0 
L 1638 0 
L 1638 4134 
L -19 4134 
L -19 4666 
z
" transform="scale(0.015625)"/>
       <path id="DejaVuSans-65" d="M 3597 1894 
L 3597 1613 
L 953 1613 
Q 991 1019 1311 708 
Q 1631 397 2203 397 
Q 2534 397 2845 478 
Q 3156 559 3463 722 
L 3463 178 
Q 3153 47 2828 -22 
Q 2503 -91 2169 -91 
Q 1331 -91 842 396 
Q 353 884 353 1716 
Q 353 2575 817 3079 
Q 1281 3584 2069 3584 
Q 2775 3584 3186 3129 
Q 3597 2675 3597 1894 
z
M 3022 2063 
Q 3016 2534 2758 2815 
Q 2500 3097 2075 3097 
Q 1594 3097 1305 2825 
Q 1016 2553 972 2059 
L 3022 2063 
z
" transform="scale(0.015625)"/>
       <path id="DejaVuSans-72" d="M 2631 2963 
Q 2534 3019 2420 3045 
Q 2306 3072 2169 3072 
Q 1681 3072 1420 2755 
Q 1159 2438 1159 1844 
L 1159 0 
L 581 0 
L 581 3500 
L 1159 3500 
L 1159 2956 
Q 1341 3275 1631 3429 
Q 1922 3584 2338 3584 
Q 2397 3584 2469 3576 
Q 2541 3569 2628 3553 
L 2631 2963 
z
" transform="scale(0.015625)"/>
       <path id="DejaVuSans-6d" d="M 3328 2828 
Q 3544 3216 3844 3400 
Q 4144 3584 4550 3584 
Q 5097 3584 5394 3201 
Q 5691 2819 5691 2113 
L 5691 0 
L 5113 0 
L 5113 2094 
Q 5113 2597 4934 2840 
Q 4756 3084 4391 3084 
Q 3944 3084 3684 2787 
Q 3425 2491 3425 1978 
L 3425 0 
L 2847 0 
L 2847 2094 
Q 2847 2600 2669 2842 
Q 2491 3084 2119 3084 
Q 1678 3084 1418 2786 
Q 1159 2488 1159 1978 
L 1159 0 
L 581 0 
L 581 3500 
L 1159 3500 
L 1159 2956 
Q 1356 3278 1631 3431 
Q 1906 3584 2284 3584 
Q 2666 3584 2933 3390 
Q 3200 3197 3328 2828 
z
" transform="scale(0.015625)"/>
       <path id="DejaVuSans-69" d="M 603 3500 
L 1178 3500 
L 1178 0 
L 603 0 
L 603 3500 
z
M 603 4863 
L 1178 4863 
L 1178 4134 
L 603 4134 
L 603 4863 
z
" transform="scale(0.015625)"/>
       <path id="DejaVuSans-6e" d="M 3513 2113 
L 3513 0 
L 2938 0 
L 2938 2094 
Q 2938 2591 2744 2837 
Q 2550 3084 2163 3084 
Q 1697 3084 1428 2787 
Q 1159 2491 1159 1978 
L 1159 0 
L 581 0 
L 581 3500 
L 1159 3500 
L 1159 2956 
Q 1366 3272 1645 3428 
Q 1925 3584 2291 3584 
Q 2894 3584 3203 3211 
Q 3513 2838 3513 2113 
z
" transform="scale(0.015625)"/>
       <path id="DejaVuSans-61" d="M 2194 1759 
Q 1497 1759 1228 1600 
Q 959 1441 959 1056 
Q 959 750 1161 570 
Q 1363 391 1709 391 
Q 2188 391 2477 730 
Q 2766 1069 2766 1631 
L 2766 1759 
L 2194 1759 
z
M 3341 1997 
L 3341 0 
L 2766 0 
L 2766 531 
Q 2569 213 2275 61 
Q 1981 -91 1556 -91 
Q 1019 -91 701 211 
Q 384 513 384 1019 
Q 384 1609 779 1909 
Q 1175 2209 1959 2209 
L 2766 2209 
L 2766 2266 
Q 2766 2663 2505 2880 
Q 2244 3097 1772 3097 
Q 1472 3097 1187 3025 
Q 903 2953 641 2809 
L 641 3341 
Q 956 3463 1253 3523 
Q 1550 3584 1831 3584 
Q 2591 3584 2966 3190 
Q 3341 2797 3341 1997 
z
" transform="scale(0.015625)"/>
       <path id="DejaVuSans-6c" d="M 603 4863 
L 1178 4863 
L 1178 0 
L 603 0 
L 603 4863 
z
" transform="scale(0.015625)"/>
       <path id="DejaVuSans-20" transform="scale(0.015625)"/>
       <path id="DejaVuSans-49" d="M 628 4666 
L 1259 4666 
L 1259 0 
L 628 0 
L 628 4666 
z
" transform="scale(0.015625)"/>
       <path id="DejaVuSans-64" d="M 2906 2969 
L 2906 4863 
L 3481 4863 
L 3481 0 
L 2906 0 
L 2906 525 
Q 2725 213 2448 61 
Q 2172 -91 1784 -91 
Q 1150 -91 751 415 
Q 353 922 353 1747 
Q 353 2572 751 3078 
Q 1150 3584 1784 3584 
Q 2172 3584 2448 3432 
Q 2725 3281 2906 2969 
z
M 947 1747 
Q 947 1113 1208 752 
Q 1469 391 1925 391 
Q 2381 391 2643 752 
Q 2906 1113 2906 1747 
Q 2906 2381 2643 2742 
Q 2381 3103 1925 3103 
Q 1469 3103 1208 2742 
Q 947 2381 947 1747 
z
" transform="scale(0.015625)"/>
       <path id="DejaVuSans-78" d="M 3513 3500 
L 2247 1797 
L 3578 0 
L 2900 0 
L 1881 1375 
L 863 0 
L 184 0 
L 1544 1831 
L 300 3500 
L 978 3500 
L 1906 2253 
L 2834 3500 
L 3513 3500 
z
" transform="scale(0.015625)"/>
       <path id="DejaVuSans-56" d="M 1831 0 
L 50 4666 
L 709 4666 
L 2188 738 
L 3669 4666 
L 4325 4666 
L 2547 0 
L 1831 0 
z
" transform="scale(0.015625)"/>
       <path id="DejaVuSans-75" d="M 544 1381 
L 544 3500 
L 1119 3500 
L 1119 1403 
Q 1119 906 1312 657 
Q 1506 409 1894 409 
Q 2359 409 2629 706 
Q 2900 1003 2900 1516 
L 2900 3500 
L 3475 3500 
L 3475 0 
L 2900 0 
L 2900 538 
Q 2691 219 2414 64 
Q 2138 -91 1772 -91 
Q 1169 -91 856 284 
Q 544 659 544 1381 
z
M 1991 3584 
L 1991 3584 
z
" transform="scale(0.015625)"/>
      </defs>
      <use xlink:href="#DejaVuSans-54"/>
      <use xlink:href="#DejaVuSans-65" transform="translate(44.083984 0)"/>
      <use xlink:href="#DejaVuSans-72" transform="translate(105.607422 0)"/>
      <use xlink:href="#DejaVuSans-6d" transform="translate(144.970703 0)"/>
      <use xlink:href="#DejaVuSans-69" transform="translate(242.382812 0)"/>
      <use xlink:href="#DejaVuSans-6e" transform="translate(270.166016 0)"/>
      <use xlink:href="#DejaVuSans-61" transform="translate(333.544922 0)"/>
      <use xlink:href="#DejaVuSans-6c" transform="translate(394.824219 0)"/>
      <use xlink:href="#DejaVuSans-20" transform="translate(422.607422 0)"/>
      <use xlink:href="#DejaVuSans-49" transform="translate(454.394531 0)"/>
      <use xlink:href="#DejaVuSans-6e" transform="translate(483.886719 0)"/>
      <use xlink:href="#DejaVuSans-64" transform="translate(547.265625 0)"/>
      <use xlink:href="#DejaVuSans-65" transform="translate(610.742188 0)"/>
      <use xlink:href="#DejaVuSans-78" transform="translate(670.515625 0)"/>
      <use xlink:href="#DejaVuSans-20" transform="translate(729.695312 0)"/>
      <use xlink:href="#DejaVuSans-56" transform="translate(761.482422 0)"/>
      <use xlink:href="#DejaVuSans-61" transform="translate(822.140625 0)"/>
      <use xlink:href="#DejaVuSans-6c" transform="translate(883.419922 0)"/>
      <use xlink:href="#DejaVuSans-75" transform="translate(911.203125 0)"/>
      <use xlink:href="#DejaVuSans-65" transform="translate(974.582031 0)"/>
     </g>
    </g>
   </g>
   <g id="matplotlib.axis_2">
    <g id="ytick_1">
     <g id="line2d_7">
      <defs>
       <path id="m44c39eb9c9" d="M 0 0 
L -3.5 0 
" style="stroke: #000000; stroke-width: 0.8"/>
      </defs>
      <g>
       <use xlink:href="#m44c39eb9c9" x="62.86875" y="241.478125" style="stroke: #000000; stroke-width: 0.8"/>
      </g>
     </g>
     <g id="text_8">
      <!-- 0.0000 -->
      <g transform="translate(20.878125 245.277344) scale(0.1 -0.1)">
       <defs>
        <path id="DejaVuSans-2e" d="M 684 794 
L 1344 794 
L 1344 0 
L 684 0 
L 684 794 
z
" transform="scale(0.015625)"/>
       </defs>
       <use xlink:href="#DejaVuSans-30"/>
       <use xlink:href="#DejaVuSans-2e" transform="translate(63.623047 0)"/>
       <use xlink:href="#DejaVuSans-30" transform="translate(95.410156 0)"/>
       <use xlink:href="#DejaVuSans-30" transform="translate(159.033203 0)"/>
       <use xlink:href="#DejaVuSans-30" transform="translate(222.65625 0)"/>
       <use xlink:href="#DejaVuSans-30" transform="translate(286.279297 0)"/>
      </g>
     </g>
    </g>
    <g id="ytick_2">
     <g id="line2d_8">
      <g>
       <use xlink:href="#m44c39eb9c9" x="62.86875" y="202.251324" style="stroke: #000000; stroke-width: 0.8"/>
      </g>
     </g>
     <g id="text_9">
      <!-- 0.0001 -->
      <g transform="translate(20.878125 206.050543) scale(0.1 -0.1)">
       <use xlink:href="#DejaVuSans-30"/>
       <use xlink:href="#DejaVuSans-2e" transform="translate(63.623047 0)"/>
       <use xlink:href="#DejaVuSans-30" transform="translate(95.410156 0)"/>
       <use xlink:href="#DejaVuSans-30" transform="translate(159.033203 0)"/>
       <use xlink:href="#DejaVuSans-30" transform="translate(222.65625 0)"/>
       <use xlink:href="#DejaVuSans-31" transform="translate(286.279297 0)"/>
      </g>
     </g>
    </g>
    <g id="ytick_3">
     <g id="line2d_9">
      <g>
       <use xlink:href="#m44c39eb9c9" x="62.86875" y="163.024523" style="stroke: #000000; stroke-width: 0.8"/>
      </g>
     </g>
     <g id="text_10">
      <!-- 0.0002 -->
      <g transform="translate(20.878125 166.823741) scale(0.1 -0.1)">
       <use xlink:href="#DejaVuSans-30"/>
       <use xlink:href="#DejaVuSans-2e" transform="translate(63.623047 0)"/>
       <use xlink:href="#DejaVuSans-30" transform="translate(95.410156 0)"/>
       <use xlink:href="#DejaVuSans-30" transform="translate(159.033203 0)"/>
       <use xlink:href="#DejaVuSans-30" transform="translate(222.65625 0)"/>
       <use xlink:href="#DejaVuSans-32" transform="translate(286.279297 0)"/>
      </g>
     </g>
    </g>
    <g id="ytick_4">
     <g id="line2d_10">
      <g>
       <use xlink:href="#m44c39eb9c9" x="62.86875" y="123.797721" style="stroke: #000000; stroke-width: 0.8"/>
      </g>
     </g>
     <g id="text_11">
      <!-- 0.0003 -->
      <g transform="translate(20.878125 127.59694) scale(0.1 -0.1)">
       <defs>
        <path id="DejaVuSans-33" d="M 2597 2516 
Q 3050 2419 3304 2112 
Q 3559 1806 3559 1356 
Q 3559 666 3084 287 
Q 2609 -91 1734 -91 
Q 1441 -91 1130 -33 
Q 819 25 488 141 
L 488 750 
Q 750 597 1062 519 
Q 1375 441 1716 441 
Q 2309 441 2620 675 
Q 2931 909 2931 1356 
Q 2931 1769 2642 2001 
Q 2353 2234 1838 2234 
L 1294 2234 
L 1294 2753 
L 1863 2753 
Q 2328 2753 2575 2939 
Q 2822 3125 2822 3475 
Q 2822 3834 2567 4026 
Q 2313 4219 1838 4219 
Q 1578 4219 1281 4162 
Q 984 4106 628 3988 
L 628 4550 
Q 988 4650 1302 4700 
Q 1616 4750 1894 4750 
Q 2613 4750 3031 4423 
Q 3450 4097 3450 3541 
Q 3450 3153 3228 2886 
Q 3006 2619 2597 2516 
z
" transform="scale(0.015625)"/>
       </defs>
       <use xlink:href="#DejaVuSans-30"/>
       <use xlink:href="#DejaVuSans-2e" transform="translate(63.623047 0)"/>
       <use xlink:href="#DejaVuSans-30" transform="translate(95.410156 0)"/>
       <use xlink:href="#DejaVuSans-30" transform="translate(159.033203 0)"/>
       <use xlink:href="#DejaVuSans-30" transform="translate(222.65625 0)"/>
       <use xlink:href="#DejaVuSans-33" transform="translate(286.279297 0)"/>
      </g>
     </g>
    </g>
    <g id="ytick_5">
     <g id="line2d_11">
      <g>
       <use xlink:href="#m44c39eb9c9" x="62.86875" y="84.57092" style="stroke: #000000; stroke-width: 0.8"/>
      </g>
     </g>
     <g id="text_12">
      <!-- 0.0004 -->
      <g transform="translate(20.878125 88.370139) scale(0.1 -0.1)">
       <use xlink:href="#DejaVuSans-30"/>
       <use xlink:href="#DejaVuSans-2e" transform="translate(63.623047 0)"/>
       <use xlink:href="#DejaVuSans-30" transform="translate(95.410156 0)"/>
       <use xlink:href="#DejaVuSans-30" transform="translate(159.033203 0)"/>
       <use xlink:href="#DejaVuSans-30" transform="translate(222.65625 0)"/>
       <use xlink:href="#DejaVuSans-34" transform="translate(286.279297 0)"/>
      </g>
     </g>
    </g>
    <g id="ytick_6">
     <g id="line2d_12">
      <g>
       <use xlink:href="#m44c39eb9c9" x="62.86875" y="45.344119" style="stroke: #000000; stroke-width: 0.8"/>
      </g>
     </g>
     <g id="text_13">
      <!-- 0.0005 -->
      <g transform="translate(20.878125 49.143338) scale(0.1 -0.1)">
       <defs>
        <path id="DejaVuSans-35" d="M 691 4666 
L 3169 4666 
L 3169 4134 
L 1269 4134 
L 1269 2991 
Q 1406 3038 1543 3061 
Q 1681 3084 1819 3084 
Q 2600 3084 3056 2656 
Q 3513 2228 3513 1497 
Q 3513 744 3044 326 
Q 2575 -91 1722 -91 
Q 1428 -91 1123 -41 
Q 819 9 494 109 
L 494 744 
Q 775 591 1075 516 
Q 1375 441 1709 441 
Q 2250 441 2565 725 
Q 2881 1009 2881 1497 
Q 2881 1984 2565 2268 
Q 2250 2553 1709 2553 
Q 1456 2553 1204 2497 
Q 953 2441 691 2322 
L 691 4666 
z
" transform="scale(0.015625)"/>
       </defs>
       <use xlink:href="#DejaVuSans-30"/>
       <use xlink:href="#DejaVuSans-2e" transform="translate(63.623047 0)"/>
       <use xlink:href="#DejaVuSans-30" transform="translate(95.410156 0)"/>
       <use xlink:href="#DejaVuSans-30" transform="translate(159.033203 0)"/>
       <use xlink:href="#DejaVuSans-30" transform="translate(222.65625 0)"/>
       <use xlink:href="#DejaVuSans-35" transform="translate(286.279297 0)"/>
      </g>
     </g>
    </g>
    <g id="text_14">
     <!-- Density -->
     <g transform="translate(14.798438 150.906719) rotate(-90) scale(0.1 -0.1)">
      <defs>
       <path id="DejaVuSans-44" d="M 1259 4147 
L 1259 519 
L 2022 519 
Q 2988 519 3436 956 
Q 3884 1394 3884 2338 
Q 3884 3275 3436 3711 
Q 2988 4147 2022 4147 
L 1259 4147 
z
M 628 4666 
L 1925 4666 
Q 3281 4666 3915 4102 
Q 4550 3538 4550 2338 
Q 4550 1131 3912 565 
Q 3275 0 1925 0 
L 628 0 
L 628 4666 
z
" transform="scale(0.015625)"/>
       <path id="DejaVuSans-73" d="M 2834 3397 
L 2834 2853 
Q 2591 2978 2328 3040 
Q 2066 3103 1784 3103 
Q 1356 3103 1142 2972 
Q 928 2841 928 2578 
Q 928 2378 1081 2264 
Q 1234 2150 1697 2047 
L 1894 2003 
Q 2506 1872 2764 1633 
Q 3022 1394 3022 966 
Q 3022 478 2636 193 
Q 2250 -91 1575 -91 
Q 1294 -91 989 -36 
Q 684 19 347 128 
L 347 722 
Q 666 556 975 473 
Q 1284 391 1588 391 
Q 1994 391 2212 530 
Q 2431 669 2431 922 
Q 2431 1156 2273 1281 
Q 2116 1406 1581 1522 
L 1381 1569 
Q 847 1681 609 1914 
Q 372 2147 372 2553 
Q 372 3047 722 3315 
Q 1072 3584 1716 3584 
Q 2034 3584 2315 3537 
Q 2597 3491 2834 3397 
z
" transform="scale(0.015625)"/>
       <path id="DejaVuSans-74" d="M 1172 4494 
L 1172 3500 
L 2356 3500 
L 2356 3053 
L 1172 3053 
L 1172 1153 
Q 1172 725 1289 603 
Q 1406 481 1766 481 
L 2356 481 
L 2356 0 
L 1766 0 
Q 1100 0 847 248 
Q 594 497 594 1153 
L 594 3053 
L 172 3053 
L 172 3500 
L 594 3500 
L 594 4494 
L 1172 4494 
z
" transform="scale(0.015625)"/>
       <path id="DejaVuSans-79" d="M 2059 -325 
Q 1816 -950 1584 -1140 
Q 1353 -1331 966 -1331 
L 506 -1331 
L 506 -850 
L 844 -850 
Q 1081 -850 1212 -737 
Q 1344 -625 1503 -206 
L 1606 56 
L 191 3500 
L 800 3500 
L 1894 763 
L 2988 3500 
L 3597 3500 
L 2059 -325 
z
" transform="scale(0.015625)"/>
      </defs>
      <use xlink:href="#DejaVuSans-44"/>
      <use xlink:href="#DejaVuSans-65" transform="translate(77.001953 0)"/>
      <use xlink:href="#DejaVuSans-6e" transform="translate(138.525391 0)"/>
      <use xlink:href="#DejaVuSans-73" transform="translate(201.904297 0)"/>
      <use xlink:href="#DejaVuSans-69" transform="translate(254.003906 0)"/>
      <use xlink:href="#DejaVuSans-74" transform="translate(281.787109 0)"/>
      <use xlink:href="#DejaVuSans-79" transform="translate(320.996094 0)"/>
     </g>
    </g>
   </g>
   <g id="line2d_13">
    <path d="M 212.350262 241.478125 
L 212.350262 22.318125 
" clip-path="url(#p0d85c88988)" style="fill: none; stroke-dasharray: 5.55,2.4; stroke-dashoffset: 0; stroke: #000000; stroke-width: 1.5"/>
   </g>
   <g id="patch_123">
    <path d="M 62.86875 241.478125 
L 62.86875 22.318125 
" style="fill: none; stroke: #000000; stroke-width: 0.8; stroke-linejoin: miter; stroke-linecap: square"/>
   </g>
   <g id="patch_124">
    <path d="M 633.44875 241.478125 
L 633.44875 22.318125 
" style="fill: none; stroke: #000000; stroke-width: 0.8; stroke-linejoin: miter; stroke-linecap: square"/>
   </g>
   <g id="patch_125">
    <path d="M 62.86875 241.478125 
L 633.44875 241.478125 
" style="fill: none; stroke: #000000; stroke-width: 0.8; stroke-linejoin: miter; stroke-linecap: square"/>
   </g>
   <g id="patch_126">
    <path d="M 62.86875 22.318125 
L 633.44875 22.318125 
" style="fill: none; stroke: #000000; stroke-width: 0.8; stroke-linejoin: miter; stroke-linecap: square"/>
   </g>
   <g id="text_15">
    <!-- Terminal Distribution Comparison: GBM vs Bootstrap -->
    <g transform="translate(190.46 16.318125) scale(0.12 -0.12)">
     <defs>
      <path id="DejaVuSans-62" d="M 3116 1747 
Q 3116 2381 2855 2742 
Q 2594 3103 2138 3103 
Q 1681 3103 1420 2742 
Q 1159 2381 1159 1747 
Q 1159 1113 1420 752 
Q 1681 391 2138 391 
Q 2594 391 2855 752 
Q 3116 1113 3116 1747 
z
M 1159 2969 
Q 1341 3281 1617 3432 
Q 1894 3584 2278 3584 
Q 2916 3584 3314 3078 
Q 3713 2572 3713 1747 
Q 3713 922 3314 415 
Q 2916 -91 2278 -91 
Q 1894 -91 1617 61 
Q 1341 213 1159 525 
L 1159 0 
L 581 0 
L 581 4863 
L 1159 4863 
L 1159 2969 
z
" transform="scale(0.015625)"/>
      <path id="DejaVuSans-6f" d="M 1959 3097 
Q 1497 3097 1228 2736 
Q 959 2375 959 1747 
Q 959 1119 1226 758 
Q 1494 397 1959 397 
Q 2419 397 2687 759 
Q 2956 1122 2956 1747 
Q 2956 2369 2687 2733 
Q 2419 3097 1959 3097 
z
M 1959 3584 
Q 2709 3584 3137 3096 
Q 3566 2609 3566 1747 
Q 3566 888 3137 398 
Q 2709 -91 1959 -91 
Q 1206 -91 779 398 
Q 353 888 353 1747 
Q 353 2609 779 3096 
Q 1206 3584 1959 3584 
z
" transform="scale(0.015625)"/>
      <path id="DejaVuSans-43" d="M 4122 4306 
L 4122 3641 
Q 3803 3938 3442 4084 
Q 3081 4231 2675 4231 
Q 1875 4231 1450 3742 
Q 1025 3253 1025 2328 
Q 1025 1406 1450 917 
Q 1875 428 2675 428 
Q 3081 428 3442 575 
Q 3803 722 4122 1019 
L 4122 359 
Q 3791 134 3420 21 
Q 3050 -91 2638 -91 
Q 1578 -91 968 557 
Q 359 1206 359 2328 
Q 359 3453 968 4101 
Q 1578 4750 2638 4750 
Q 3056 4750 3426 4639 
Q 3797 4528 4122 4306 
z
" transform="scale(0.015625)"/>
      <path id="DejaVuSans-70" d="M 1159 525 
L 1159 -1331 
L 581 -1331 
L 581 3500 
L 1159 3500 
L 1159 2969 
Q 1341 3281 1617 3432 
Q 1894 3584 2278 3584 
Q 2916 3584 3314 3078 
Q 3713 2572 3713 1747 
Q 3713 922 3314 415 
Q 2916 -91 2278 -91 
Q 1894 -91 1617 61 
Q 1341 213 1159 525 
z
M 3116 1747 
Q 3116 2381 2855 2742 
Q 2594 3103 2138 3103 
Q 1681 3103 1420 2742 
Q 1159 2381 1159 1747 
Q 1159 1113 1420 752 
Q 1681 391 2138 391 
Q 2594 391 2855 752 
Q 3116 1113 3116 1747 
z
" transform="scale(0.015625)"/>
      <path id="DejaVuSans-3a" d="M 750 794 
L 1409 794 
L 1409 0 
L 750 0 
L 750 794 
z
M 750 3309 
L 1409 3309 
L 1409 2516 
L 750 2516 
L 750 3309 
z
" transform="scale(0.015625)"/>
      <path id="DejaVuSans-47" d="M 3809 666 
L 3809 1919 
L 2778 1919 
L 2778 2438 
L 4434 2438 
L 4434 434 
Q 4069 175 3628 42 
Q 3188 -91 2688 -91 
Q 1594 -91 976 548 
Q 359 1188 359 2328 
Q 359 3472 976 4111 
Q 1594 4750 2688 4750 
Q 3144 4750 3555 4637 
Q 3966 4525 4313 4306 
L 4313 3634 
Q 3963 3931 3569 4081 
Q 3175 4231 2741 4231 
Q 1884 4231 1454 3753 
Q 1025 3275 1025 2328 
Q 1025 1384 1454 906 
Q 1884 428 2741 428 
Q 3075 428 3337 486 
Q 3600 544 3809 666 
z
" transform="scale(0.015625)"/>
      <path id="DejaVuSans-42" d="M 1259 2228 
L 1259 519 
L 2272 519 
Q 2781 519 3026 730 
Q 3272 941 3272 1375 
Q 3272 1813 3026 2020 
Q 2781 2228 2272 2228 
L 1259 2228 
z
M 1259 4147 
L 1259 2741 
L 2194 2741 
Q 2656 2741 2882 2914 
Q 3109 3088 3109 3444 
Q 3109 3797 2882 3972 
Q 2656 4147 2194 4147 
L 1259 4147 
z
M 628 4666 
L 2241 4666 
Q 2963 4666 3353 4366 
Q 3744 4066 3744 3513 
Q 3744 3084 3544 2831 
Q 3344 2578 2956 2516 
Q 3422 2416 3680 2098 
Q 3938 1781 3938 1306 
Q 3938 681 3513 340 
Q 3088 0 2303 0 
L 628 0 
L 628 4666 
z
" transform="scale(0.015625)"/>
      <path id="DejaVuSans-4d" d="M 628 4666 
L 1569 4666 
L 2759 1491 
L 3956 4666 
L 4897 4666 
L 4897 0 
L 4281 0 
L 4281 4097 
L 3078 897 
L 2444 897 
L 1241 4097 
L 1241 0 
L 628 0 
L 628 4666 
z
" transform="scale(0.015625)"/>
      <path id="DejaVuSans-76" d="M 191 3500 
L 800 3500 
L 1894 563 
L 2988 3500 
L 3597 3500 
L 2284 0 
L 1503 0 
L 191 3500 
z
" transform="scale(0.015625)"/>
     </defs>
     <use xlink:href="#DejaVuSans-54"/>
     <use xlink:href="#DejaVuSans-65" transform="translate(44.083984 0)"/>
     <use xlink:href="#DejaVuSans-72" transform="translate(105.607422 0)"/>
     <use xlink:href="#DejaVuSans-6d" transform="translate(144.970703 0)"/>
     <use xlink:href="#DejaVuSans-69" transform="translate(242.382812 0)"/>
     <use xlink:href="#DejaVuSans-6e" transform="translate(270.166016 0)"/>
     <use xlink:href="#DejaVuSans-61" transform="translate(333.544922 0)"/>
     <use xlink:href="#DejaVuSans-6c" transform="translate(394.824219 0)"/>
     <use xlink:href="#DejaVuSans-20" transform="translate(422.607422 0)"/>
     <use xlink:href="#DejaVuSans-44" transform="translate(454.394531 0)"/>
     <use xlink:href="#DejaVuSans-69" transform="translate(531.396484 0)"/>
     <use xlink:href="#DejaVuSans-73" transform="translate(559.179688 0)"/>
     <use xlink:href="#DejaVuSans-74" transform="translate(611.279297 0)"/>
     <use xlink:href="#DejaVuSans-72" transform="translate(650.488281 0)"/>
     <use xlink:href="#DejaVuSans-69" transform="translate(691.601562 0)"/>
     <use xlink:href="#DejaVuSans-62" transform="translate(719.384766 0)"/>
     <use xlink:href="#DejaVuSans-75" transform="translate(782.861328 0)"/>
     <use xlink:href="#DejaVuSans-74" transform="translate(846.240234 0)"/>
     <use xlink:href="#DejaVuSans-69" transform="translate(885.449219 0)"/>
     <use xlink:href="#DejaVuSans-6f" transform="translate(913.232422 0)"/>
     <use xlink:href="#DejaVuSans-6e" transform="translate(974.414062 0)"/>
     <use xlink:href="#DejaVuSans-20" transform="translate(1037.792969 0)"/>
     <use xlink:href="#DejaVuSans-43" transform="translate(1069.580078 0)"/>
     <use xlink:href="#DejaVuSans-6f" transform="translate(1139.404297 0)"/>
     <use xlink:href="#DejaVuSans-6d" transform="translate(1200.585938 0)"/>
     <use xlink:href="#DejaVuSans-70" transform="translate(1297.998047 0)"/>
     <use xlink:href="#DejaVuSans-61" transform="translate(1361.474609 0)"/>
     <use xlink:href="#DejaVuSans-72" transform="translate(1422.753906 0)"/>
     <use xlink:href="#DejaVuSans-69" transform="translate(1463.867188 0)"/>
     <use xlink:href="#DejaVuSans-73" transform="translate(1491.650391 0)"/>
     <use xlink:href="#DejaVuSans-6f" transform="translate(1543.75 0)"/>
     <use xlink:href="#DejaVuSans-6e" transform="translate(1604.931641 0)"/>
     <use xlink:href="#DejaVuSans-3a" transform="translate(1668.310547 0)"/>
     <use xlink:href="#DejaVuSans-20" transform="translate(1702.001953 0)"/>
     <use xlink:href="#DejaVuSans-47" transform="translate(1733.789062 0)"/>
     <use xlink:href="#DejaVuSans-42" transform="translate(1811.279297 0)"/>
     <use xlink:href="#DejaVuSans-4d" transform="translate(1879.882812 0)"/>
     <use xlink:href="#DejaVuSans-20" transform="translate(1966.162109 0)"/>
     <use xlink:href="#DejaVuSans-76" transform="translate(1997.949219 0)"/>
     <use xlink:href="#DejaVuSans-73" transform="translate(2057.128906 0)"/>
     <use xlink:href="#DejaVuSans-20" transform="translate(2109.228516 0)"/>
     <use xlink:href="#DejaVuSans-42" transform="translate(2141.015625 0)"/>
     <use xlink:href="#DejaVuSans-6f" transform="translate(2209.619141 0)"/>
     <use xlink:href="#DejaVuSans-6f" transform="translate(2270.800781 0)"/>
     <use xlink:href="#DejaVuSans-74" transform="translate(2331.982422 0)"/>
     <use xlink:href="#DejaVuSans-73" transform="translate(2371.191406 0)"/>
     <use xlink:href="#DejaVuSans-74" transform="translate(2423.291016 0)"/>
     <use xlink:href="#DejaVuSans-72" transform="translate(2462.5 0)"/>
     <use xlink:href="#DejaVuSans-61" transform="translate(2503.613281 0)"/>
     <use xlink:href="#DejaVuSans-70" transform="translate(2564.892578 0)"/>
    </g>
   </g>
   <g id="legend_1">
    <g id="patch_127">
     <path d="M 545.712813 59.674375 
L 626.44875 59.674375 
Q 628.44875 59.674375 628.44875 57.674375 
L 628.44875 29.318125 
Q 628.44875 27.318125 626.44875 27.318125 
L 545.712813 27.318125 
Q 543.712813 27.318125 543.712813 29.318125 
L 543.712813 57.674375 
Q 543.712813 59.674375 545.712813 59.674375 
z
" style="fill: #ffffff; opacity: 0.8; stroke: #cccccc; stroke-linejoin: miter"/>
    </g>
    <g id="patch_128">
     <path d="M 547.712813 38.916563 
L 567.712813 38.916563 
L 567.712813 31.916563 
L 547.712813 31.916563 
z
" style="fill: #1f77b4; opacity: 0.6"/>
    </g>
    <g id="text_16">
     <!-- GBM -->
     <g transform="translate(575.712813 38.916563) scale(0.1 -0.1)">
      <use xlink:href="#DejaVuSans-47"/>
      <use xlink:href="#DejaVuSans-42" transform="translate(77.490234 0)"/>
      <use xlink:href="#DejaVuSans-4d" transform="translate(146.09375 0)"/>
     </g>
    </g>
    <g id="patch_129">
     <path d="M 547.712813 53.594688 
L 567.712813 53.594688 
L 567.712813 46.594688 
L 547.712813 46.594688 
z
" style="fill: #ff7f0e; opacity: 0.4"/>
    </g>
    <g id="text_17">
     <!-- Bootstrap -->
     <g transform="translate(575.712813 53.594688) scale(0.1 -0.1)">
      <use xlink:href="#DejaVuSans-42"/>
      <use xlink:href="#DejaVuSans-6f" transform="translate(68.603516 0)"/>
      <use xlink:href="#DejaVuSans-6f" transform="translate(129.785156 0)"/>
      <use xlink:href="#DejaVuSans-74" transform="translate(190.966797 0)"/>
      <use xlink:href="#DejaVuSans-73" transform="translate(230.175781 0)"/>
      <use xlink:href="#DejaVuSans-74" transform="translate(282.275391 0)"/>
      <use xlink:href="#DejaVuSans-72" transform="translate(321.484375 0)"/>
      <use xlink:href="#DejaVuSans-61" transform="translate(362.597656 0)"/>
      <use xlink:href="#DejaVuSans-70" transform="translate(423.876953 0)"/>
     </g>
    </g>
   </g>
  </g>
 </g>
 <defs>
  <clipPath id="p0d85c88988">
   <rect x="62.86875" y="22.318125" width="570.58" height="219.16"/>
  </clipPath>
 </defs>
</svg>
