<?xml version="1.0" encoding="utf-8" standalone="no"?>
<!DOCTYPE svg PUBLIC "-//W3C//DTD SVG 1.1//EN"
  "http://www.w3.org/Graphics/SVG/1.1/DTD/svg11.dtd">
<svg xmlns:xlink="http://www.w3.org/1999/xlink" width="720.58125pt" height="337.074375pt" viewBox="0 0 720.58125 337.074375" xmlns="http://www.w3.org/2000/svg" version="1.1">
 <metadata>
  <rdf:RDF xmlns:dc="http://purl.org/dc/elements/1.1/" xmlns:cc="http://creativecommons.org/ns#" xmlns:rdf="http://www.w3.org/1999/02/22-rdf-syntax-ns#">
   <cc:Work>
    <dc:type rdf:resource="http://purl.org/dc/dcmitype/StillImage"/>
    <dc:date>2025-12-19T16:08:59.019431</dc:date>
    <dc:format>image/svg+xml</dc:format>
    <dc:creator>
     <cc:Agent>
      <dc:title>Matplotlib v3.10.0, https://matplotlib.org/</dc:title>
     </cc:Agent>
    </dc:creator>
   </cc:Work>
  </rdf:RDF>
 </metadata>
 <defs>
  <style type="text/css">*{stroke-linejoin: round; stroke-linecap: butt}</style>
 </defs>
 <g id="figure_1">
  <g id="patch_1">
   <path d="M 0 337.074375 
L 720.58125 337.074375 
L 720.58125 0 
L 0 0 
z
" style="fill: #ffffff"/>
  </g>
  <g id="axes_1">
   <g id="patch_2">
    <path d="M 43.78125 299.518125 
L 713.38125 299.518125 
L 713.38125 22.318125 
L 43.78125 22.318125 
z
" style="fill: #ffffff"/>
   </g>
   <g id="matplotlib.axis_1">
    <g id="xtick_1">
     <g id="line2d_1">
      <defs>
       <path id="m09d56e40cf" d="M 0 0 
L 0 3.5 
" style="stroke: #000000; stroke-width: 0.8"/>
      </defs>
      <g>
       <use xlink:href="#m09d56e40cf" x="129.805668" y="299.518125" style="stroke: #000000; stroke-width: 0.8"/>
      </g>
     </g>
     <g id="text_1">
      <!-- 2016 -->
      <g transform="translate(117.080668 314.116563) scale(0.1 -0.1)">
       <defs>
        <path id="DejaVuSans-32" d="M 1228 531 
L 3431 531 
L 3431 0 
L 469 0 
L 469 531 
Q 828 903 1448 1529 
Q 2069 2156 2228 2338 
Q 2531 2678 2651 2914 
Q 2772 3150 2772 3378 
Q 2772 3750 2511 3984 
Q 2250 4219 1831 4219 
Q 1534 4219 1204 4116 
Q 875 4013 500 3803 
L 500 4441 
Q 881 4594 1212 4672 
Q 1544 4750 1819 4750 
Q 2544 4750 2975 4387 
Q 3406 4025 3406 3419 
Q 3406 3131 3298 2873 
Q 3191 2616 2906 2266 
Q 2828 2175 2409 1742 
Q 1991 1309 1228 531 
z
" transform="scale(0.015625)"/>
        <path id="DejaVuSans-30" d="M 2034 4250 
Q 1547 4250 1301 3770 
Q 1056 3291 1056 2328 
Q 1056 1369 1301 889 
Q 1547 409 2034 409 
Q 2525 409 2770 889 
Q 3016 1369 3016 2328 
Q 3016 3291 2770 3770 
Q 2525 4250 2034 4250 
z
M 2034 4750 
Q 2819 4750 3233 4129 
Q 3647 3509 3647 2328 
Q 3647 1150 3233 529 
Q 2819 -91 2034 -91 
Q 1250 -91 836 529 
Q 422 1150 422 2328 
Q 422 3509 836 4129 
Q 1250 4750 2034 4750 
z
" transform="scale(0.015625)"/>
        <path id="DejaVuSans-31" d="M 794 531 
L 1825 531 
L 1825 4091 
L 703 3866 
L 703 4441 
L 1819 4666 
L 2450 4666 
L 2450 531 
L 3481 531 
L 3481 0 
L 794 0 
L 794 531 
z
" transform="scale(0.015625)"/>
        <path id="DejaVuSans-36" d="M 2113 2584 
Q 1688 2584 1439 2293 
Q 1191 2003 1191 1497 
Q 1191 994 1439 701 
Q 1688 409 2113 409 
Q 2538 409 2786 701 
Q 3034 994 3034 1497 
Q 3034 2003 2786 2293 
Q 2538 2584 2113 2584 
z
M 3366 4563 
L 3366 3988 
Q 3128 4100 2886 4159 
Q 2644 4219 2406 4219 
Q 1781 4219 1451 3797 
Q 1122 3375 1075 2522 
Q 1259 2794 1537 2939 
Q 1816 3084 2150 3084 
Q 2853 3084 3261 2657 
Q 3669 2231 3669 1497 
Q 3669 778 3244 343 
Q 2819 -91 2113 -91 
Q 1303 -91 875 529 
Q 447 1150 447 2328 
Q 447 3434 972 4092 
Q 1497 4750 2381 4750 
Q 2619 4750 2861 4703 
Q 3103 4656 3366 4563 
z
" transform="scale(0.015625)"/>
       </defs>
       <use xlink:href="#DejaVuSans-32"/>
       <use xlink:href="#DejaVuSans-30" transform="translate(63.623047 0)"/>
       <use xlink:href="#DejaVuSans-31" transform="translate(127.246094 0)"/>
       <use xlink:href="#DejaVuSans-36" transform="translate(190.869141 0)"/>
      </g>
     </g>
    </g>
    <g id="xtick_2">
     <g id="line2d_2">
      <g>
       <use xlink:href="#m09d56e40cf" x="241.134074" y="299.518125" style="stroke: #000000; stroke-width: 0.8"/>
      </g>
     </g>
     <g id="text_2">
      <!-- 2018 -->
      <g transform="translate(228.409074 314.116563) scale(0.1 -0.1)">
       <defs>
        <path id="DejaVuSans-38" d="M 2034 2216 
Q 1584 2216 1326 1975 
Q 1069 1734 1069 1313 
Q 1069 891 1326 650 
Q 1584 409 2034 409 
Q 2484 409 2743 651 
Q 3003 894 3003 1313 
Q 3003 1734 2745 1975 
Q 2488 2216 2034 2216 
z
M 1403 2484 
Q 997 2584 770 2862 
Q 544 3141 544 3541 
Q 544 4100 942 4425 
Q 1341 4750 2034 4750 
Q 2731 4750 3128 4425 
Q 3525 4100 3525 3541 
Q 3525 3141 3298 2862 
Q 3072 2584 2669 2484 
Q 3125 2378 3379 2068 
Q 3634 1759 3634 1313 
Q 3634 634 3220 271 
Q 2806 -91 2034 -91 
Q 1263 -91 848 271 
Q 434 634 434 1313 
Q 434 1759 690 2068 
Q 947 2378 1403 2484 
z
M 1172 3481 
Q 1172 3119 1398 2916 
Q 1625 2713 2034 2713 
Q 2441 2713 2670 2916 
Q 2900 3119 2900 3481 
Q 2900 3844 2670 4047 
Q 2441 4250 2034 4250 
Q 1625 4250 1398 4047 
Q 1172 3844 1172 3481 
z
" transform="scale(0.015625)"/>
       </defs>
       <use xlink:href="#DejaVuSans-32"/>
       <use xlink:href="#DejaVuSans-30" transform="translate(63.623047 0)"/>
       <use xlink:href="#DejaVuSans-31" transform="translate(127.246094 0)"/>
       <use xlink:href="#DejaVuSans-38" transform="translate(190.869141 0)"/>
      </g>
     </g>
    </g>
    <g id="xtick_3">
     <g id="line2d_3">
      <g>
       <use xlink:href="#m09d56e40cf" x="352.310183" y="299.518125" style="stroke: #000000; stroke-width: 0.8"/>
      </g>
     </g>
     <g id="text_3">
      <!-- 2020 -->
      <g transform="translate(339.585183 314.116563) scale(0.1 -0.1)">
       <use xlink:href="#DejaVuSans-32"/>
       <use xlink:href="#DejaVuSans-30" transform="translate(63.623047 0)"/>
       <use xlink:href="#DejaVuSans-32" transform="translate(127.246094 0)"/>
       <use xlink:href="#DejaVuSans-30" transform="translate(190.869141 0)"/>
      </g>
     </g>
    </g>
    <g id="xtick_4">
     <g id="line2d_4">
      <g>
       <use xlink:href="#m09d56e40cf" x="463.638588" y="299.518125" style="stroke: #000000; stroke-width: 0.8"/>
      </g>
     </g>
     <g id="text_4">
      <!-- 2022 -->
      <g transform="translate(450.913588 314.116563) scale(0.1 -0.1)">
       <use xlink:href="#DejaVuSans-32"/>
       <use xlink:href="#DejaVuSans-30" transform="translate(63.623047 0)"/>
       <use xlink:href="#DejaVuSans-32" transform="translate(127.246094 0)"/>
       <use xlink:href="#DejaVuSans-32" transform="translate(190.869141 0)"/>
      </g>
     </g>
    </g>
    <g id="xtick_5">
     <g id="line2d_5">
      <g>
       <use xlink:href="#m09d56e40cf" x="574.814698" y="299.518125" style="stroke: #000000; stroke-width: 0.8"/>
      </g>
     </g>
     <g id="text_5">
      <!-- 2024 -->
      <g transform="translate(562.089698 314.116563) scale(0.1 -0.1)">
       <defs>
        <path id="DejaVuSans-34" d="M 2419 4116 
L 825 1625 
L 2419 1625 
L 2419 4116 
z
M 2253 4666 
L 3047 4666 
L 3047 1625 
L 3713 1625 
L 3713 1100 
L 3047 1100 
L 3047 0 
L 2419 0 
L 2419 1100 
L 313 1100 
L 313 1709 
L 2253 4666 
z
" transform="scale(0.015625)"/>
       </defs>
       <use xlink:href="#DejaVuSans-32"/>
       <use xlink:href="#DejaVuSans-30" transform="translate(63.623047 0)"/>
       <use xlink:href="#DejaVuSans-32" transform="translate(127.246094 0)"/>
       <use xlink:href="#DejaVuSans-34" transform="translate(190.869141 0)"/>
      </g>
     </g>
    </g>
    <g id="xtick_6">
     <g id="line2d_6">
      <g>
       <use xlink:href="#m09d56e40cf" x="686.143103" y="299.518125" style="stroke: #000000; stroke-width: 0.8"/>
      </g>
     </g>
     <g id="text_6">
      <!-- 2026 -->
      <g transform="translate(673.418103 314.116563) scale(0.1 -0.1)">
       <use xlink:href="#DejaVuSans-32"/>
       <use xlink:href="#DejaVuSans-30" transform="translate(63.623047 0)"/>
       <use xlink:href="#DejaVuSans-32" transform="translate(127.246094 0)"/>
       <use xlink:href="#DejaVuSans-36" transform="translate(190.869141 0)"/>
      </g>
     </g>
    </g>
    <g id="text_7">
     <!-- Date -->
     <g transform="translate(366.630469 327.794688) scale(0.1 -0.1)">
      <defs>
       <path id="DejaVuSans-44" d="M 1259 4147 
L 1259 519 
L 2022 519 
Q 2988 519 3436 956 
Q 3884 1394 3884 2338 
Q 3884 3275 3436 3711 
Q 2988 4147 2022 4147 
L 1259 4147 
z
M 628 4666 
L 1925 4666 
Q 3281 4666 3915 4102 
Q 4550 3538 4550 2338 
Q 4550 1131 3912 565 
Q 3275 0 1925 0 
L 628 0 
L 628 4666 
z
" transform="scale(0.015625)"/>
       <path id="DejaVuSans-61" d="M 2194 1759 
Q 1497 1759 1228 1600 
Q 959 1441 959 1056 
Q 959 750 1161 570 
Q 1363 391 1709 391 
Q 2188 391 2477 730 
Q 2766 1069 2766 1631 
L 2766 1759 
L 2194 1759 
z
M 3341 1997 
L 3341 0 
L 2766 0 
L 2766 531 
Q 2569 213 2275 61 
Q 1981 -91 1556 -91 
Q 1019 -91 701 211 
Q 384 513 384 1019 
Q 384 1609 779 1909 
Q 1175 2209 1959 2209 
L 2766 2209 
L 2766 2266 
Q 2766 2663 2505 2880 
Q 2244 3097 1772 3097 
Q 1472 3097 1187 3025 
Q 903 2953 641 2809 
L 641 3341 
Q 956 3463 1253 3523 
Q 1550 3584 1831 3584 
Q 2591 3584 2966 3190 
Q 3341 2797 3341 1997 
z
" transform="scale(0.015625)"/>
       <path id="DejaVuSans-74" d="M 1172 4494 
L 1172 3500 
L 2356 3500 
L 2356 3053 
L 1172 3053 
L 1172 1153 
Q 1172 725 1289 603 
Q 1406 481 1766 481 
L 2356 481 
L 2356 0 
L 1766 0 
Q 1100 0 847 248 
Q 594 497 594 1153 
L 594 3053 
L 172 3053 
L 172 3500 
L 594 3500 
L 594 4494 
L 1172 4494 
z
" transform="scale(0.015625)"/>
       <path id="DejaVuSans-65" d="M 3597 1894 
L 3597 1613 
L 953 1613 
Q 991 1019 1311 708 
Q 1631 397 2203 397 
Q 2534 397 2845 478 
Q 3156 559 3463 722 
L 3463 178 
Q 3153 47 2828 -22 
Q 2503 -91 2169 -91 
Q 1331 -91 842 396 
Q 353 884 353 1716 
Q 353 2575 817 3079 
Q 1281 3584 2069 3584 
Q 2775 3584 3186 3129 
Q 3597 2675 3597 1894 
z
M 3022 2063 
Q 3016 2534 2758 2815 
Q 2500 3097 2075 3097 
Q 1594 3097 1305 2825 
Q 1016 2553 972 2059 
L 3022 2063 
z
" transform="scale(0.015625)"/>
      </defs>
      <use xlink:href="#DejaVuSans-44"/>
      <use xlink:href="#DejaVuSans-61" transform="translate(77.001953 0)"/>
      <use xlink:href="#DejaVuSans-74" transform="translate(138.28125 0)"/>
      <use xlink:href="#DejaVuSans-65" transform="translate(177.490234 0)"/>
     </g>
    </g>
   </g>
   <g id="matplotlib.axis_2">
    <g id="ytick_1">
     <g id="line2d_7">
      <defs>
       <path id="m9325374ff2" d="M 0 0 
L -3.5 0 
" style="stroke: #000000; stroke-width: 0.8"/>
      </defs>
      <g>
       <use xlink:href="#m9325374ff2" x="43.78125" y="288.362847" style="stroke: #000000; stroke-width: 0.8"/>
      </g>
     </g>
     <g id="text_8">
      <!-- 0.0 -->
      <g transform="translate(20.878125 292.162066) scale(0.1 -0.1)">
       <defs>
        <path id="DejaVuSans-2e" d="M 684 794 
L 1344 794 
L 1344 0 
L 684 0 
L 684 794 
z
" transform="scale(0.015625)"/>
       </defs>
       <use xlink:href="#DejaVuSans-30"/>
       <use xlink:href="#DejaVuSans-2e" transform="translate(63.623047 0)"/>
       <use xlink:href="#DejaVuSans-30" transform="translate(95.410156 0)"/>
      </g>
     </g>
    </g>
    <g id="ytick_2">
     <g id="line2d_8">
      <g>
       <use xlink:href="#m9325374ff2" x="43.78125" y="256.038657" style="stroke: #000000; stroke-width: 0.8"/>
      </g>
     </g>
     <g id="text_9">
      <!-- 0.2 -->
      <g transform="translate(20.878125 259.837875) scale(0.1 -0.1)">
       <use xlink:href="#DejaVuSans-30"/>
       <use xlink:href="#DejaVuSans-2e" transform="translate(63.623047 0)"/>
       <use xlink:href="#DejaVuSans-32" transform="translate(95.410156 0)"/>
      </g>
     </g>
    </g>
    <g id="ytick_3">
     <g id="line2d_9">
      <g>
       <use xlink:href="#m9325374ff2" x="43.78125" y="223.714466" style="stroke: #000000; stroke-width: 0.8"/>
      </g>
     </g>
     <g id="text_10">
      <!-- 0.4 -->
      <g transform="translate(20.878125 227.513685) scale(0.1 -0.1)">
       <use xlink:href="#DejaVuSans-30"/>
       <use xlink:href="#DejaVuSans-2e" transform="translate(63.623047 0)"/>
       <use xlink:href="#DejaVuSans-34" transform="translate(95.410156 0)"/>
      </g>
     </g>
    </g>
    <g id="ytick_4">
     <g id="line2d_10">
      <g>
       <use xlink:href="#m9325374ff2" x="43.78125" y="191.390276" style="stroke: #000000; stroke-width: 0.8"/>
      </g>
     </g>
     <g id="text_11">
      <!-- 0.6 -->
      <g transform="translate(20.878125 195.189495) scale(0.1 -0.1)">
       <use xlink:href="#DejaVuSans-30"/>
       <use xlink:href="#DejaVuSans-2e" transform="translate(63.623047 0)"/>
       <use xlink:href="#DejaVuSans-36" transform="translate(95.410156 0)"/>
      </g>
     </g>
    </g>
    <g id="ytick_5">
     <g id="line2d_11">
      <g>
       <use xlink:href="#m9325374ff2" x="43.78125" y="159.066086" style="stroke: #000000; stroke-width: 0.8"/>
      </g>
     </g>
     <g id="text_12">
      <!-- 0.8 -->
      <g transform="translate(20.878125 162.865305) scale(0.1 -0.1)">
       <use xlink:href="#DejaVuSans-30"/>
       <use xlink:href="#DejaVuSans-2e" transform="translate(63.623047 0)"/>
       <use xlink:href="#DejaVuSans-38" transform="translate(95.410156 0)"/>
      </g>
     </g>
    </g>
    <g id="ytick_6">
     <g id="line2d_12">
      <g>
       <use xlink:href="#m9325374ff2" x="43.78125" y="126.741896" style="stroke: #000000; stroke-width: 0.8"/>
      </g>
     </g>
     <g id="text_13">
      <!-- 1.0 -->
      <g transform="translate(20.878125 130.541114) scale(0.1 -0.1)">
       <use xlink:href="#DejaVuSans-31"/>
       <use xlink:href="#DejaVuSans-2e" transform="translate(63.623047 0)"/>
       <use xlink:href="#DejaVuSans-30" transform="translate(95.410156 0)"/>
      </g>
     </g>
    </g>
    <g id="ytick_7">
     <g id="line2d_13">
      <g>
       <use xlink:href="#m9325374ff2" x="43.78125" y="94.417705" style="stroke: #000000; stroke-width: 0.8"/>
      </g>
     </g>
     <g id="text_14">
      <!-- 1.2 -->
      <g transform="translate(20.878125 98.216924) scale(0.1 -0.1)">
       <use xlink:href="#DejaVuSans-31"/>
       <use xlink:href="#DejaVuSans-2e" transform="translate(63.623047 0)"/>
       <use xlink:href="#DejaVuSans-32" transform="translate(95.410156 0)"/>
      </g>
     </g>
    </g>
    <g id="ytick_8">
     <g id="line2d_14">
      <g>
       <use xlink:href="#m9325374ff2" x="43.78125" y="62.093515" style="stroke: #000000; stroke-width: 0.8"/>
      </g>
     </g>
     <g id="text_15">
      <!-- 1.4 -->
      <g transform="translate(20.878125 65.892734) scale(0.1 -0.1)">
       <use xlink:href="#DejaVuSans-31"/>
       <use xlink:href="#DejaVuSans-2e" transform="translate(63.623047 0)"/>
       <use xlink:href="#DejaVuSans-34" transform="translate(95.410156 0)"/>
      </g>
     </g>
    </g>
    <g id="ytick_9">
     <g id="line2d_15">
      <g>
       <use xlink:href="#m9325374ff2" x="43.78125" y="29.769325" style="stroke: #000000; stroke-width: 0.8"/>
      </g>
     </g>
     <g id="text_16">
      <!-- 1.6 -->
      <g transform="translate(20.878125 33.568544) scale(0.1 -0.1)">
       <use xlink:href="#DejaVuSans-31"/>
       <use xlink:href="#DejaVuSans-2e" transform="translate(63.623047 0)"/>
       <use xlink:href="#DejaVuSans-36" transform="translate(95.410156 0)"/>
      </g>
     </g>
    </g>
    <g id="text_17">
     <!-- Shares Traded -->
     <g transform="translate(14.798438 196.399375) rotate(-90) scale(0.1 -0.1)">
      <defs>
       <path id="DejaVuSans-53" d="M 3425 4513 
L 3425 3897 
Q 3066 4069 2747 4153 
Q 2428 4238 2131 4238 
Q 1616 4238 1336 4038 
Q 1056 3838 1056 3469 
Q 1056 3159 1242 3001 
Q 1428 2844 1947 2747 
L 2328 2669 
Q 3034 2534 3370 2195 
Q 3706 1856 3706 1288 
Q 3706 609 3251 259 
Q 2797 -91 1919 -91 
Q 1588 -91 1214 -16 
Q 841 59 441 206 
L 441 856 
Q 825 641 1194 531 
Q 1563 422 1919 422 
Q 2459 422 2753 634 
Q 3047 847 3047 1241 
Q 3047 1584 2836 1778 
Q 2625 1972 2144 2069 
L 1759 2144 
Q 1053 2284 737 2584 
Q 422 2884 422 3419 
Q 422 4038 858 4394 
Q 1294 4750 2059 4750 
Q 2388 4750 2728 4690 
Q 3069 4631 3425 4513 
z
" transform="scale(0.015625)"/>
       <path id="DejaVuSans-68" d="M 3513 2113 
L 3513 0 
L 2938 0 
L 2938 2094 
Q 2938 2591 2744 2837 
Q 2550 3084 2163 3084 
Q 1697 3084 1428 2787 
Q 1159 2491 1159 1978 
L 1159 0 
L 581 0 
L 581 4863 
L 1159 4863 
L 1159 2956 
Q 1366 3272 1645 3428 
Q 1925 3584 2291 3584 
Q 2894 3584 3203 3211 
Q 3513 2838 3513 2113 
z
" transform="scale(0.015625)"/>
       <path id="DejaVuSans-72" d="M 2631 2963 
Q 2534 3019 2420 3045 
Q 2306 3072 2169 3072 
Q 1681 3072 1420 2755 
Q 1159 2438 1159 1844 
L 1159 0 
L 581 0 
L 581 3500 
L 1159 3500 
L 1159 2956 
Q 1341 3275 1631 3429 
Q 1922 3584 2338 3584 
Q 2397 3584 2469 3576 
Q 2541 3569 2628 3553 
L 2631 2963 
z
" transform="scale(0.015625)"/>
       <path id="DejaVuSans-73" d="M 2834 3397 
L 2834 2853 
Q 2591 2978 2328 3040 
Q 2066 3103 1784 3103 
Q 1356 3103 1142 2972 
Q 928 2841 928 2578 
Q 928 2378 1081 2264 
Q 1234 2150 1697 2047 
L 1894 2003 
Q 2506 1872 2764 1633 
Q 3022 1394 3022 966 
Q 3022 478 2636 193 
Q 2250 -91 1575 -91 
Q 1294 -91 989 -36 
Q 684 19 347 128 
L 347 722 
Q 666 556 975 473 
Q 1284 391 1588 391 
Q 1994 391 2212 530 
Q 2431 669 2431 922 
Q 2431 1156 2273 1281 
Q 2116 1406 1581 1522 
L 1381 1569 
Q 847 1681 609 1914 
Q 372 2147 372 2553 
Q 372 3047 722 3315 
Q 1072 3584 1716 3584 
Q 2034 3584 2315 3537 
Q 2597 3491 2834 3397 
z
" transform="scale(0.015625)"/>
       <path id="DejaVuSans-20" transform="scale(0.015625)"/>
       <path id="DejaVuSans-54" d="M -19 4666 
L 3928 4666 
L 3928 4134 
L 2272 4134 
L 2272 0 
L 1638 0 
L 1638 4134 
L -19 4134 
L -19 4666 
z
" transform="scale(0.015625)"/>
       <path id="DejaVuSans-64" d="M 2906 2969 
L 2906 4863 
L 3481 4863 
L 3481 0 
L 2906 0 
L 2906 525 
Q 2725 213 2448 61 
Q 2172 -91 1784 -91 
Q 1150 -91 751 415 
Q 353 922 353 1747 
Q 353 2572 751 3078 
Q 1150 3584 1784 3584 
Q 2172 3584 2448 3432 
Q 2725 3281 2906 2969 
z
M 947 1747 
Q 947 1113 1208 752 
Q 1469 391 1925 391 
Q 2381 391 2643 752 
Q 2906 1113 2906 1747 
Q 2906 2381 2643 2742 
Q 2381 3103 1925 3103 
Q 1469 3103 1208 2742 
Q 947 2381 947 1747 
z
" transform="scale(0.015625)"/>
      </defs>
      <use xlink:href="#DejaVuSans-53"/>
      <use xlink:href="#DejaVuSans-68" transform="translate(63.476562 0)"/>
      <use xlink:href="#DejaVuSans-61" transform="translate(126.855469 0)"/>
      <use xlink:href="#DejaVuSans-72" transform="translate(188.134766 0)"/>
      <use xlink:href="#DejaVuSans-65" transform="translate(226.998047 0)"/>
      <use xlink:href="#DejaVuSans-73" transform="translate(288.521484 0)"/>
      <use xlink:href="#DejaVuSans-20" transform="translate(340.621094 0)"/>
      <use xlink:href="#DejaVuSans-54" transform="translate(372.408203 0)"/>
      <use xlink:href="#DejaVuSans-72" transform="translate(418.742188 0)"/>
      <use xlink:href="#DejaVuSans-61" transform="translate(459.855469 0)"/>
      <use xlink:href="#DejaVuSans-64" transform="translate(521.134766 0)"/>
      <use xlink:href="#DejaVuSans-65" transform="translate(584.611328 0)"/>
      <use xlink:href="#DejaVuSans-64" transform="translate(646.134766 0)"/>
     </g>
    </g>
    <g id="text_18">
     <!-- 1e9 -->
     <g transform="translate(43.78125 19.318125) scale(0.1 -0.1)">
      <defs>
       <path id="DejaVuSans-39" d="M 703 97 
L 703 672 
Q 941 559 1184 500 
Q 1428 441 1663 441 
Q 2288 441 2617 861 
Q 2947 1281 2994 2138 
Q 2813 1869 2534 1725 
Q 2256 1581 1919 1581 
Q 1219 1581 811 2004 
Q 403 2428 403 3163 
Q 403 3881 828 4315 
Q 1253 4750 1959 4750 
Q 2769 4750 3195 4129 
Q 3622 3509 3622 2328 
Q 3622 1225 3098 567 
Q 2575 -91 1691 -91 
Q 1453 -91 1209 -44 
Q 966 3 703 97 
z
M 1959 2075 
Q 2384 2075 2632 2365 
Q 2881 2656 2881 3163 
Q 2881 3666 2632 3958 
Q 2384 4250 1959 4250 
Q 1534 4250 1286 3958 
Q 1038 3666 1038 3163 
Q 1038 2656 1286 2365 
Q 1534 2075 1959 2075 
z
" transform="scale(0.015625)"/>
      </defs>
      <use xlink:href="#DejaVuSans-31"/>
      <use xlink:href="#DejaVuSans-65" transform="translate(63.623047 0)"/>
      <use xlink:href="#DejaVuSans-39" transform="translate(125.146484 0)"/>
     </g>
    </g>
   </g>
   <g id="line2d_16">
    <path d="M 74.217614 285.054491 
L 74.36991 281.689835 
L 74.826798 282.492976 
L 75.13139 278.949818 
L 75.283686 280.646302 
L 75.435982 279.983035 
L 75.89287 282.691578 
L 76.045166 281.154884 
L 76.197462 281.640878 
L 76.349758 274.381352 
L 76.502054 278.010294 
L 76.958942 281.339167 
L 77.263534 276.927501 
L 77.41583 280.448194 
L 77.568127 278.573112 
L 78.177311 279.596628 
L 78.481903 276.296155 
L 78.634199 268.927531 
L 79.091087 273.705771 
L 79.243383 270.936205 
L 79.547975 276.891614 
L 79.700271 276.628744 
L 80.157159 278.596199 
L 80.309455 272.986322 
L 80.461751 279.159536 
L 80.614047 276.87506 
L 80.766343 269.878357 
L 81.223231 279.032086 
L 81.527824 280.809188 
L 81.832416 278.04523 
L 82.289304 280.105832 
L 82.4416 278.802609 
L 82.593896 279.598158 
L 82.746192 275.937604 
L 82.898488 277.078589 
L 83.050784 272.137713 
L 83.507672 278.933752 
L 83.659968 269.180996 
L 83.812264 278.685775 
L 84.421448 279.790091 
L 84.573744 279.053604 
L 84.72604 279.415491 
L 84.878336 281.676916 
L 85.030632 279.483437 
L 85.487521 280.580168 
L 85.639817 280.646417 
L 85.792113 278.817375 
L 85.944409 280.009789 
L 86.096705 278.186761 
L 86.553593 281.415228 
L 86.705889 278.230678 
L 86.858185 279.637731 
L 87.010481 271.544379 
L 87.162777 275.51422 
L 87.619665 280.141476 
L 87.771961 278.997116 
L 87.924257 280.981122 
L 88.685737 280.671709 
L 88.838033 279.767916 
L 88.99033 280.968145 
L 89.142626 276.61557 
L 89.294922 279.599185 
L 89.75181 281.288179 
L 90.056402 277.63263 
L 90.208698 279.375207 
L 90.360994 279.102247 
L 90.817882 279.102891 
L 90.970178 279.768308 
L 91.122474 278.34651 
L 91.427066 279.911742 
L 91.883954 277.608272 
L 92.03625 275.845589 
L 92.188546 278.663931 
L 92.340842 273.467372 
L 92.950027 282.08651 
L 93.102323 281.991883 
L 93.254619 277.577796 
L 93.406915 278.624666 
L 93.559211 273.984494 
L 94.016099 270.827189 
L 94.168395 277.152012 
L 94.472987 279.562872 
L 94.625283 278.169271 
L 95.082171 280.901254 
L 95.234467 279.527133 
L 95.386763 281.451153 
L 95.539059 280.005687 
L 95.691355 270.558105 
L 96.300539 282.677633 
L 96.452836 280.641811 
L 96.605132 275.661247 
L 96.757428 278.975033 
L 97.214316 282.583938 
L 97.366612 277.566679 
L 97.518908 276.487599 
L 97.8235 278.679117 
L 98.280388 278.385458 
L 98.58498 280.325038 
L 98.737276 276.160809 
L 98.889572 279.16657 
L 99.34646 280.082969 
L 99.498756 280.679068 
L 99.803348 279.723148 
L 99.955644 281.039843 
L 100.412533 278.436219 
L 100.564829 278.397184 
L 100.717125 280.253128 
L 100.869421 274.855379 
L 101.021717 279.974387 
L 101.783197 278.898548 
L 102.087789 282.296918 
L 102.544677 281.450345 
L 102.696973 280.874017 
L 102.849269 278.393058 
L 103.001565 281.872261 
L 103.153861 280.707586 
L 103.610749 281.210543 
L 103.915341 282.007605 
L 104.067638 278.705288 
L 104.219934 282.253608 
L 104.676822 279.094095 
L 104.829118 281.8832 
L 104.981414 281.049403 
L 105.13371 281.689196 
L 105.286006 278.689765 
L 105.742894 280.550404 
L 105.89519 273.36855 
L 106.047486 279.540979 
L 106.199782 271.15532 
L 106.352078 269.387325 
L 106.808966 273.154226 
L 106.961262 271.532815 
L 107.113558 277.531264 
L 107.265854 278.743537 
L 107.41815 281.630757 
L 107.875039 281.393555 
L 108.027335 276.0129 
L 108.331927 279.23199 
L 108.484223 277.296281 
L 108.941111 268.533902 
L 109.245703 279.575912 
L 109.550295 274.364422 
L 110.007183 266.009445 
L 110.159479 268.45447 
L 110.311775 274.793769 
L 110.464071 269.700121 
L 110.616367 275.984713 
L 111.073255 277.181039 
L 111.377847 273.451167 
L 111.530143 277.434272 
L 111.68244 274.094166 
L 112.139328 276.890168 
L 112.44392 274.435731 
L 112.596216 278.244977 
L 112.748512 278.292694 
L 113.2054 280.275713 
L 113.357696 278.33569 
L 113.509992 279.290583 
L 113.814584 271.883472 
L 114.271472 279.564112 
L 114.423768 277.56848 
L 115.337544 281.207869 
L 115.489841 268.673749 
L 115.794433 280.61492 
L 116.403617 278.037348 
L 116.708209 280.197817 
L 116.860505 280.140533 
L 117.012801 279.278658 
L 117.469689 279.982338 
L 117.774281 282.511557 
L 117.926577 280.995557 
L 118.078873 280.747427 
L 118.535761 283.016093 
L 118.688057 281.316113 
L 118.840353 276.081068 
L 119.144945 279.834185 
L 119.601834 280.528262 
L 119.75413 281.183941 
L 119.906426 274.015728 
L 120.211018 276.03454 
L 120.820202 281.191599 
L 120.972498 281.733139 
L 121.124794 280.814087 
L 121.27709 268.938327 
L 121.886274 278.525808 
L 122.03857 286.589513 
L 122.343162 280.74067 
L 122.80005 280.167002 
L 122.952347 279.684468 
L 123.104643 281.211069 
L 123.256939 281.42744 
L 123.409235 279.226472 
L 124.018419 281.94796 
L 124.323011 276.271897 
L 124.932195 279.060968 
L 125.084491 281.776769 
L 125.236787 281.75994 
L 125.389083 281.624611 
L 125.541379 280.721338 
L 125.998267 282.720159 
L 126.150563 281.392039 
L 126.302859 281.687716 
L 126.455155 280.149023 
L 126.607451 275.536853 
L 127.216636 279.246075 
L 127.521228 276.707082 
L 127.673524 277.31389 
L 128.130412 281.406875 
L 128.282708 279.368535 
L 128.5873 283.984252 
L 129.196484 281.714454 
L 129.34878 282.496072 
L 129.501076 281.746769 
L 129.653372 278.796899 
L 129.805668 283.64098 
L 130.262556 279.906172 
L 130.567149 279.437924 
L 130.719445 276.042331 
L 130.871741 279.718781 
L 131.328629 277.48593 
L 131.633221 270.038234 
L 131.785517 275.143618 
L 131.937813 272.379465 
L 132.394701 268.775813 
L 132.546997 274.609332 
L 132.699293 273.38835 
L 132.851589 270.619841 
L 133.003885 274.202568 
L 133.460773 277.663737 
L 133.765365 277.269129 
L 133.917661 274.515747 
L 134.069957 266.200092 
L 134.526846 271.891366 
L 134.679142 269.396104 
L 134.831438 274.683348 
L 135.13603 272.641572 
L 135.592918 273.946217 
L 135.89751 268.082088 
L 136.049806 259.739261 
L 136.202102 262.651735 
L 136.65899 260.291837 
L 136.811286 268.56753 
L 136.963582 266.882025 
L 137.268174 272.309766 
L 137.725062 277.329413 
L 138.181951 270.94208 
L 138.334247 271.82188 
L 138.791135 245.943327 
L 138.943431 272.310881 
L 139.095727 259.879438 
L 139.248023 271.202368 
L 139.400319 267.132532 
L 140.009503 273.26595 
L 140.161799 271.688999 
L 140.314095 276.850318 
L 140.466391 275.922097 
L 140.923279 278.250469 
L 141.380167 271.590987 
L 141.532463 276.7612 
L 141.989352 276.468274 
L 142.141648 278.890888 
L 142.293944 278.006369 
L 143.055424 274.863023 
L 143.20772 277.12418 
L 143.360016 273.198812 
L 143.512312 262.189181 
L 143.664608 273.749407 
L 144.121496 276.651981 
L 144.273792 268.018312 
L 144.426088 276.867285 
L 144.578384 276.89918 
L 144.73068 279.662224 
L 145.187568 276.725537 
L 145.339864 277.574432 
L 145.49216 274.687567 
L 146.253641 278.138686 
L 146.558233 274.52246 
L 146.710529 264.260495 
L 146.862825 269.309839 
L 147.319713 275.423578 
L 147.776601 266.302882 
L 147.928897 265.941124 
L 148.538081 273.696081 
L 148.690377 269.855039 
L 148.994969 276.24268 
L 149.451858 276.11802 
L 149.604154 275.100179 
L 149.75645 270.522082 
L 149.908746 274.445549 
L 150.061042 273.969156 
L 150.51793 267.854073 
L 150.670226 272.361684 
L 150.822522 267.211511 
L 151.127114 276.410005 
L 151.584002 277.160919 
L 151.736298 278.631231 
L 151.888594 274.3805 
L 152.193186 261.980955 
L 152.650074 272.726411 
L 152.80237 269.620631 
L 153.106962 275.702215 
L 153.259259 273.919355 
L 153.716147 275.230923 
L 153.868443 261.278574 
L 154.173035 270.983999 
L 154.325331 273.142229 
L 154.782219 276.585257 
L 155.239107 266.927828 
L 155.391403 273.501244 
L 155.848291 270.477015 
L 156.000587 276.447354 
L 156.152883 277.220393 
L 156.305179 276.818231 
L 156.457475 261.758802 
L 157.06666 276.429038 
L 157.218956 278.563834 
L 157.371252 269.205542 
L 157.523548 277.147094 
L 157.980436 274.135545 
L 158.132732 276.764857 
L 158.437324 277.677962 
L 158.58962 276.825668 
L 159.046508 272.92114 
L 159.198804 268.974853 
L 159.3511 273.526991 
L 159.503396 269.034425 
L 159.655692 272.379553 
L 160.11258 273.842607 
L 160.264876 269.006448 
L 160.417172 276.049478 
L 160.569468 274.949071 
L 161.178653 266.657113 
L 161.330949 270.775294 
L 161.483245 271.754851 
L 161.635541 263.986808 
L 161.787837 274.691634 
L 162.244725 270.994762 
L 162.549317 275.490022 
L 162.701613 272.218271 
L 162.853909 274.432027 
L 163.310797 278.236677 
L 163.463093 275.387544 
L 163.615389 275.824464 
L 163.767685 272.027036 
L 163.919981 256.226587 
L 164.681462 275.261541 
L 164.833758 275.201827 
L 164.986054 270.523373 
L 165.442942 276.602332 
L 165.595238 276.121377 
L 165.747534 278.764186 
L 165.89983 273.52063 
L 166.052126 278.19117 
L 166.509014 279.28766 
L 166.66131 275.745671 
L 166.813606 251.539859 
L 166.965902 276.497845 
L 167.118198 279.433801 
L 167.727382 271.80469 
L 167.879678 258.919693 
L 168.031974 274.763 
L 168.18427 272.280932 
L 168.641159 272.529263 
L 168.945751 274.292323 
L 169.098047 277.309799 
L 169.250343 265.896256 
L 169.859527 279.358085 
L 170.011823 278.301644 
L 170.164119 271.784228 
L 170.316415 272.710311 
L 170.925599 277.72078 
L 171.077895 269.413165 
L 171.230191 249.665103 
L 171.382487 274.746615 
L 171.839375 277.629581 
L 171.991671 270.03696 
L 172.44856 278.23218 
L 172.905448 281.751336 
L 173.362336 272.984779 
L 173.514632 278.375014 
L 173.97152 268.386916 
L 174.123816 271.509587 
L 174.276112 277.801322 
L 174.428408 272.587861 
L 174.580704 277.173756 
L 175.037592 275.784206 
L 175.189888 273.721895 
L 175.342184 265.117301 
L 175.646776 277.23088 
L 175.951368 286.918125 
L 176.408257 276.343977 
L 176.560553 277.709534 
L 176.712849 276.051673 
L 177.169737 275.87112 
L 177.322033 274.794533 
L 177.626625 254.017945 
L 177.778921 256.373863 
L 178.388105 254.621341 
L 178.692697 271.113869 
L 178.844993 275.531179 
L 179.301881 266.443334 
L 179.454177 268.982474 
L 179.606473 276.435247 
L 179.75877 268.890351 
L 179.911066 275.257116 
L 180.367954 271.088063 
L 180.52025 275.189227 
L 180.672546 273.956721 
L 180.824842 278.199649 
L 180.977138 274.736116 
L 181.434026 280.966113 
L 181.586322 279.468565 
L 181.738618 272.056751 
L 181.890914 279.366837 
L 182.04321 276.136901 
L 182.500098 279.703327 
L 182.80469 279.264777 
L 182.956986 274.982617 
L 183.109282 275.131238 
L 183.566171 282.343378 
L 183.718467 279.659424 
L 183.870763 280.947362 
L 184.175355 279.698296 
L 184.632243 280.946454 
L 184.936835 279.069906 
L 185.089131 274.897657 
L 185.241427 279.578815 
L 185.698315 276.331019 
L 186.002907 280.19967 
L 186.155203 277.231213 
L 186.307499 277.708805 
L 186.764387 281.465307 
L 186.916683 278.666652 
L 187.068979 271.741347 
L 187.373572 279.35051 
L 187.83046 278.77552 
L 187.982756 278.06985 
L 188.135052 279.16678 
L 188.439644 270.561757 
L 188.896532 272.662201 
L 189.048828 275.155662 
L 189.201124 267.185976 
L 189.505716 262.947688 
L 189.962604 276.858881 
L 190.1149 277.478665 
L 190.267196 264.781223 
L 190.419492 269.459049 
L 190.571788 269.984276 
L 191.028676 272.316843 
L 191.180973 270.676341 
L 191.333269 274.479156 
L 191.637861 269.356899 
L 192.094749 270.751443 
L 192.247045 277.076478 
L 192.551637 275.193074 
L 192.703933 256.51353 
L 193.160821 277.666415 
L 193.313117 276.307908 
L 193.465413 273.451424 
L 193.617709 272.943131 
L 194.226893 278.584827 
L 194.379189 275.973225 
L 194.531485 276.153635 
L 194.683781 275.264412 
L 194.836077 279.767858 
L 195.292966 279.296912 
L 195.445262 280.636694 
L 195.597558 278.162498 
L 195.749854 278.700762 
L 195.90215 279.710107 
L 196.511334 272.411129 
L 196.66363 276.201934 
L 196.815926 276.415653 
L 196.968222 273.443836 
L 197.42511 280.22095 
L 197.729702 274.830781 
L 197.881998 278.603002 
L 198.034294 268.193021 
L 198.491182 272.586069 
L 198.643478 272.967021 
L 198.795775 269.098295 
L 199.100367 271.682474 
L 199.557255 278.493017 
L 200.014143 273.220672 
L 200.166439 272.801108 
L 200.623327 279.071031 
L 200.775623 273.908477 
L 201.080215 276.811851 
L 201.689399 280.438339 
L 201.841695 274.596816 
L 201.993991 275.198934 
L 202.146287 272.179284 
L 202.298583 275.877058 
L 202.907768 274.007756 
L 203.21236 261.442071 
L 203.364656 261.245712 
L 204.126136 267.239344 
L 204.430728 247.11921 
L 205.039912 275.26689 
L 205.192208 276.483876 
L 205.344504 275.617907 
L 205.4968 272.783003 
L 205.953688 276.289755 
L 206.105984 266.578865 
L 206.258281 272.804568 
L 206.410577 270.031312 
L 206.562873 263.320614 
L 207.019761 272.236398 
L 207.172057 269.903763 
L 207.324353 273.494797 
L 207.476649 266.913955 
L 207.628945 275.614676 
L 208.085833 278.657123 
L 208.238129 277.581941 
L 208.390425 258.79935 
L 208.542721 275.189183 
L 208.695017 277.499067 
L 209.151905 279.92564 
L 209.456497 279.238953 
L 209.608793 277.885673 
L 209.761089 278.924056 
L 210.217978 279.251626 
L 210.370274 280.642116 
L 210.52257 275.257282 
L 210.674866 276.602661 
L 210.827162 271.852426 
L 211.28405 278.58744 
L 211.436346 276.756091 
L 211.588642 278.289374 
L 211.740938 275.587961 
L 211.893234 276.249933 
L 212.502418 271.984819 
L 212.654714 272.924092 
L 212.80701 264.627489 
L 212.959306 276.933774 
L 213.416194 280.114343 
L 213.56849 279.426167 
L 213.873083 267.337452 
L 214.025379 273.987871 
L 214.482267 282.446441 
L 214.634563 275.600761 
L 214.786859 277.10379 
L 214.939155 274.627678 
L 215.091451 276.879277 
L 215.548339 277.730929 
L 215.700635 276.227964 
L 215.852931 276.593099 
L 216.005227 273.572049 
L 216.157523 277.805363 
L 216.766707 275.991428 
L 217.071299 263.756151 
L 217.223595 272.194464 
L 217.680484 267.336612 
L 217.83278 276.75332 
L 217.985076 274.40609 
L 218.137372 274.106782 
L 218.289668 277.408669 
L 218.746556 279.922431 
L 219.051148 275.709507 
L 219.203444 274.185712 
L 219.35574 262.853679 
L 219.812628 276.026184 
L 220.11722 273.031638 
L 220.421812 278.658023 
L 220.8787 277.070021 
L 221.030996 277.013828 
L 221.183292 277.194052 
L 221.335588 276.668056 
L 221.944773 279.92989 
L 222.097069 278.516517 
L 222.249365 280.698208 
L 222.401661 275.457619 
L 222.553957 277.5493 
L 223.163141 280.644192 
L 223.467733 277.098478 
L 223.620029 280.752912 
L 224.533805 275.800659 
L 224.686101 269.846234 
L 225.295286 278.646486 
L 225.447582 274.241016 
L 225.599878 276.680908 
L 225.752174 273.608943 
L 226.209062 273.386714 
L 226.361358 277.656381 
L 226.513654 275.367646 
L 226.66595 266.272604 
L 226.818246 276.77403 
L 227.42743 277.562038 
L 227.579726 278.38424 
L 227.732022 277.514012 
L 227.884318 274.753527 
L 228.493502 278.219927 
L 228.645798 276.161356 
L 228.798094 276.520137 
L 228.95039 273.930084 
L 229.407279 269.240806 
L 229.711871 262.25169 
L 229.864167 267.423902 
L 230.473351 272.596113 
L 230.625647 270.293243 
L 230.777943 150.132849 
L 231.082535 249.905262 
L 231.539423 258.185103 
L 231.691719 262.990674 
L 231.844015 254.316254 
L 231.996311 265.483308 
L 232.148607 254.484857 
L 232.605495 270.055394 
L 232.757791 265.411902 
L 232.910088 267.36857 
L 233.062384 271.009969 
L 233.21468 256.846877 
L 233.823864 270.666675 
L 233.97616 267.353775 
L 234.128456 270.631238 
L 234.280752 263.957838 
L 234.73764 274.630893 
L 234.889936 273.767974 
L 235.042232 271.87032 
L 235.346824 277.031953 
L 235.803712 276.389195 
L 235.956008 274.722179 
L 236.108304 276.244096 
L 236.2606 265.472208 
L 236.412896 274.213604 
L 236.869785 276.136815 
L 237.022081 274.512237 
L 237.326673 278.629022 
L 237.478969 276.38512 
L 237.935857 279.115311 
L 238.088153 275.184243 
L 238.240449 274.442863 
L 238.392745 275.72015 
L 238.545041 269.357618 
L 239.001929 265.877036 
L 239.154225 275.517055 
L 239.306521 269.105258 
L 239.458817 275.959351 
L 239.611113 274.943287 
L 240.220297 278.631747 
L 240.372594 276.551371 
L 240.52489 270.353441 
L 240.677186 277.763586 
L 241.134074 279.057211 
L 241.28637 276.720674 
L 241.438666 278.70917 
L 241.743258 268.382843 
L 242.200146 267.751661 
L 242.504738 275.256314 
L 242.657034 268.532683 
L 242.80933 270.449357 
L 243.266218 257.305129 
L 243.418514 260.908742 
L 243.57081 260.54914 
L 243.723106 252.156251 
L 243.875402 266.642452 
L 244.332291 269.959133 
L 244.484587 260.995201 
L 244.636883 260.187279 
L 244.789179 257.11468 
L 245.398363 269.922017 
L 245.702955 270.664125 
L 246.007547 264.520284 
L 246.464435 268.527152 
L 246.616731 263.519486 
L 247.073619 276.08207 
L 247.835099 256.477138 
L 247.987396 241.254317 
L 248.139692 243.409149 
L 248.59658 244.165314 
L 248.748876 246.628641 
L 248.901172 263.730866 
L 249.053468 261.300603 
L 249.205764 267.697528 
L 249.662652 270.438463 
L 249.814948 241.524027 
L 249.967244 238.022122 
L 250.11954 253.690414 
L 250.728724 265.949291 
L 250.88102 266.526429 
L 251.033316 258.055148 
L 251.185612 260.960093 
L 251.337908 261.310349 
L 251.794797 261.660605 
L 251.947093 250.222803 
L 252.099389 254.576276 
L 252.251685 267.290345 
L 252.403981 257.705805 
L 253.013165 267.676678 
L 253.165461 267.398066 
L 253.317757 267.119453 
L 253.470053 259.166137 
L 253.926941 257.068598 
L 254.079237 259.494007 
L 254.231533 258.650151 
L 254.993013 261.754312 
L 255.297605 267.962634 
L 255.449901 266.743635 
L 255.602198 262.346608 
L 256.059086 261.474717 
L 256.211382 260.602826 
L 256.363678 271.057547 
L 256.515974 270.297297 
L 256.66827 270.537075 
L 257.125158 273.97305 
L 257.277454 273.861914 
L 257.582046 272.933535 
L 257.734342 270.652153 
L 258.19123 274.982589 
L 258.343526 274.23782 
L 258.495822 275.135721 
L 258.800414 250.807265 
L 259.257302 268.227999 
L 259.561895 269.302928 
L 259.714191 272.138039 
L 259.866487 272.630162 
L 260.323375 273.37362 
L 260.475671 256.224696 
L 260.627967 272.775983 
L 260.780263 253.698081 
L 260.932559 270.745226 
L 261.389447 272.644522 
L 261.694039 250.853288 
L 261.846335 267.848884 
L 261.998631 270.006953 
L 262.455519 268.967653 
L 262.607815 259.369845 
L 262.760111 260.794539 
L 262.912407 270.579758 
L 263.064703 272.372142 
L 263.521592 266.241985 
L 263.673888 271.206303 
L 263.826184 269.134139 
L 263.97848 236.82188 
L 264.130776 266.974536 
L 264.587664 266.130097 
L 264.73996 270.917465 
L 264.892256 265.063665 
L 265.196848 269.669709 
L 265.653736 265.070833 
L 265.958328 269.478379 
L 266.110624 272.34289 
L 266.26292 264.513559 
L 266.719808 271.980614 
L 266.872105 270.200242 
L 267.024401 271.371676 
L 267.328993 267.725339 
L 267.785881 273.856748 
L 267.938177 272.628171 
L 268.090473 268.194519 
L 268.242769 249.210843 
L 268.395065 267.636817 
L 268.851953 260.099823 
L 269.156545 274.966357 
L 269.308841 273.585541 
L 269.461137 268.921278 
L 269.918025 271.904491 
L 270.070321 271.623102 
L 270.222617 273.537553 
L 270.374913 270.823723 
L 270.527209 271.785203 
L 270.984098 271.270064 
L 271.136394 253.140529 
L 271.28869 257.298068 
L 271.593282 274.753478 
L 272.05017 268.044302 
L 272.354762 272.072425 
L 272.507058 246.909253 
L 272.659354 253.490062 
L 273.116242 238.509137 
L 273.268538 258.432384 
L 273.57313 269.113189 
L 273.725426 261.724264 
L 274.182314 258.621907 
L 274.33461 248.084664 
L 274.486907 264.121336 
L 274.791499 242.224801 
L 275.400683 269.539358 
L 275.705275 258.446249 
L 275.857571 263.099769 
L 276.314459 259.62007 
L 276.466755 265.341693 
L 276.771347 266.804656 
L 276.923643 260.894902 
L 277.532827 265.08521 
L 277.989715 251.251008 
L 278.446604 267.835174 
L 278.5989 261.556639 
L 278.903492 268.9219 
L 279.055788 264.943083 
L 279.512676 259.57047 
L 279.664972 262.369951 
L 279.817268 260.208311 
L 280.12186 266.280048 
L 280.578748 269.730682 
L 280.731044 238.49056 
L 280.88334 248.863706 
L 281.187932 199.910031 
L 281.64482 244.337902 
L 281.797116 235.100953 
L 281.949412 253.605398 
L 282.101709 245.885212 
L 282.254005 229.030278 
L 283.320077 251.120669 
L 283.776965 252.181205 
L 283.929261 260.018733 
L 284.233853 247.083112 
L 284.386149 255.941321 
L 284.843037 264.663354 
L 284.995333 251.826266 
L 285.147629 258.825008 
L 285.452221 255.893126 
L 285.90911 260.495618 
L 286.061406 264.942155 
L 286.518294 252.94669 
L 286.975182 243.134177 
L 287.43207 253.353785 
L 287.584366 240.234956 
L 288.19355 262.165652 
L 288.345846 285.297453 
L 288.650438 264.92686 
L 289.107326 269.622777 
L 289.259622 265.433777 
L 289.411918 256.856415 
L 289.564214 260.59796 
L 289.716511 250.273468 
L 290.173399 260.5086 
L 290.325695 257.7063 
L 290.477991 262.613513 
L 290.630287 263.484293 
L 291.391767 259.901088 
L 291.544063 247.091556 
L 291.696359 212.060389 
L 291.848655 251.375415 
L 292.305543 255.097379 
L 292.610135 265.012055 
L 292.762431 265.874625 
L 292.914727 258.377313 
L 293.371616 262.999264 
L 293.523912 245.664619 
L 293.676208 253.50454 
L 293.828504 250.155692 
L 293.9808 261.136492 
L 294.437688 269.179151 
L 294.74228 253.514636 
L 295.046872 259.745333 
L 295.50376 267.674775 
L 295.808352 264.295733 
L 295.960648 260.902931 
L 296.112944 270.611033 
L 296.569832 274.816756 
L 296.722128 269.553552 
L 296.874424 259.820722 
L 297.02672 263.925535 
L 297.179017 257.74356 
L 297.788201 264.030766 
L 297.940497 256.068008 
L 298.245089 269.525585 
L 298.701977 253.959646 
L 298.854273 262.277788 
L 299.158865 254.04728 
L 299.311161 267.502874 
L 299.768049 267.532853 
L 299.920345 265.897879 
L 300.072641 267.847372 
L 300.377233 242.376 
L 300.834121 258.974179 
L 300.986418 256.948688 
L 301.29101 238.859482 
L 301.443306 249.768586 
L 301.900194 260.389723 
L 302.05249 257.677424 
L 302.357082 263.048785 
L 302.509378 265.370901 
L 302.966266 269.402895 
L 303.118562 269.383496 
L 303.270858 270.242469 
L 303.423154 227.76411 
L 303.57545 247.525486 
L 304.032338 260.006542 
L 304.184634 267.390915 
L 304.33693 267.237064 
L 304.489226 264.398434 
L 304.641522 252.571872 
L 305.098411 265.558029 
L 305.250707 255.863581 
L 305.555299 257.398103 
L 305.707595 257.747656 
L 306.316779 254.836984 
L 306.469075 259.306941 
L 306.621371 254.742867 
L 306.773667 265.651176 
L 307.230555 264.40485 
L 307.535147 254.907629 
L 307.687443 258.117176 
L 307.839739 240.487915 
L 308.296627 258.343209 
L 308.448923 252.435093 
L 308.60122 256.859518 
L 308.905812 252.834718 
L 309.3627 267.025908 
L 309.514996 267.156097 
L 309.667292 246.253329 
L 309.819588 241.151637 
L 309.971884 252.856806 
L 310.428772 252.088558 
L 310.581068 256.607236 
L 310.733364 257.158388 
L 310.88566 256.098281 
L 311.037956 263.450426 
L 311.494844 264.572013 
L 311.64714 261.620699 
L 311.799436 261.654957 
L 311.951732 270.867714 
L 312.104028 271.41544 
L 312.560917 273.717785 
L 312.713213 269.320298 
L 313.017805 265.461522 
L 313.626989 266.903137 
L 313.779285 264.789279 
L 313.931581 267.428205 
L 314.083877 255.87439 
L 314.236173 262.796245 
L 314.845357 229.765046 
L 315.302245 259.048181 
L 315.759133 257.940901 
L 315.911429 259.177012 
L 316.063725 259.364529 
L 316.368318 252.238203 
L 316.977502 246.891993 
L 317.282094 257.745364 
L 317.43439 246.808297 
L 317.891278 236.465883 
L 318.043574 253.384212 
L 318.19587 252.090983 
L 318.348166 208.508563 
L 318.500462 242.661955 
L 318.95735 249.709393 
L 319.109646 240.263809 
L 319.261942 255.204405 
L 319.414238 255.60243 
L 319.566534 251.053041 
L 320.023423 262.488872 
L 320.175719 260.49542 
L 320.480311 242.601396 
L 320.632607 253.571153 
L 321.089495 254.646453 
L 321.241791 257.959468 
L 321.394087 265.137349 
L 321.546383 233.106095 
L 321.698679 247.091893 
L 322.155567 258.549167 
L 322.307863 249.2723 
L 322.460159 247.490674 
L 322.612455 240.986627 
L 322.764751 249.761007 
L 323.373935 264.904551 
L 323.526231 260.568214 
L 323.678528 251.011853 
L 323.830824 252.222979 
L 324.287712 266.839903 
L 324.440008 250.56381 
L 324.592304 252.136074 
L 324.7446 249.091298 
L 324.896896 226.253262 
L 325.353784 225.250694 
L 325.658376 258.571765 
L 325.962968 263.11034 
L 326.419856 252.317648 
L 326.572152 228.670143 
L 326.724448 228.965285 
L 326.876744 231.467459 
L 327.02904 241.91417 
L 327.485929 231.74165 
L 327.638225 234.46177 
L 327.790521 248.914628 
L 328.095113 226.369445 
L 328.552001 239.309558 
L 328.704297 239.669297 
L 328.856593 232.360062 
L 329.008889 242.747449 
L 329.161185 236.655552 
L 329.618073 234.322053 
L 329.770369 241.330917 
L 329.922665 231.24585 
L 330.074961 239.29525 
L 330.227257 233.924606 
L 330.836441 234.088981 
L 330.988737 241.42595 
L 331.29333 244.075438 
L 331.750218 249.281137 
L 332.05481 230.366606 
L 332.207106 213.197654 
L 332.359402 209.889629 
L 332.81629 204.446149 
L 332.968586 225.841486 
L 333.120882 226.282356 
L 333.273178 227.36088 
L 333.425474 219.338219 
L 334.034658 224.938279 
L 334.186954 238.337895 
L 334.33925 235.499269 
L 334.491546 247.636551 
L 334.948434 242.121402 
L 335.253027 212.818829 
L 335.405323 227.2991 
L 335.557619 217.49241 
L 336.014507 250.533431 
L 336.319099 238.619876 
L 336.471395 215.562806 
L 336.623691 151.860642 
L 337.080579 199.120382 
L 337.232875 231.987811 
L 337.385171 231.340666 
L 337.537467 201.017227 
L 337.689763 213.355136 
L 338.146651 194.581963 
L 338.298947 96.468038 
L 338.755835 169.940083 
L 339.212724 198.775207 
L 339.517316 195.457836 
L 339.669612 226.760839 
L 339.821908 198.030104 
L 340.431092 231.645779 
L 340.583388 223.652447 
L 340.735684 188.505365 
L 340.88798 190.554666 
L 341.497164 194.263685 
L 341.801756 217.252732 
L 341.954052 186.183436 
L 342.258644 270.582303 
L 342.563236 196.633901 
L 342.715533 215.826938 
L 342.867829 96.610256 
L 343.020125 183.835153 
L 343.477013 189.286133 
L 343.933901 229.400375 
L 344.086197 188.150215 
L 344.543085 220.03314 
L 344.847677 211.671398 
L 344.999973 226.412358 
L 345.152269 224.692787 
L 345.609157 234.748278 
L 345.761453 218.874444 
L 345.913749 220.644063 
L 346.218341 246.701334 
L 346.67523 237.078971 
L 346.827526 149.903827 
L 346.979822 220.874854 
L 347.132118 207.826361 
L 347.284414 180.434923 
L 347.893598 218.621427 
L 348.045894 204.837608 
L 348.19819 224.801412 
L 348.350486 209.914193 
L 348.807374 208.444194 
L 348.95967 206.681138 
L 349.111966 156.58467 
L 349.416558 225.247733 
L 350.178039 246.528197 
L 350.482631 201.856973 
L 351.091815 234.89372 
L 351.396407 233.445586 
L 351.548703 234.635281 
L 352.157887 247.729868 
L 352.310183 258.516054 
L 352.462479 247.382479 
L 352.614775 253.196651 
L 353.071663 246.94962 
L 353.223959 240.786791 
L 353.528551 238.587232 
L 353.680847 216.488437 
L 354.137736 241.259765 
L 354.442328 200.164884 
L 354.594624 247.357058 
L 354.74692 238.561488 
L 355.203808 242.749281 
L 355.5084 255.944572 
L 355.812992 219.734812 
L 356.26988 238.270936 
L 356.422176 249.637669 
L 356.574472 244.921012 
L 356.726768 235.212367 
L 356.879064 234.472691 
L 357.03136 247.101698 
L 357.335952 233.878463 
L 357.488248 233.959541 
L 357.640544 219.253013 
L 357.945137 247.249423 
L 358.402025 249.622882 
L 358.554321 256.218525 
L 358.706617 251.843202 
L 359.011209 233.190916 
L 359.468097 247.64537 
L 359.620393 223.897595 
L 359.772689 244.915563 
L 359.924985 244.229802 
L 360.534169 247.273005 
L 360.686465 253.466714 
L 361.143353 225.83508 
L 361.600242 228.844379 
L 361.752538 228.996217 
L 361.904834 219.537315 
L 362.209426 34.918125 
L 362.970906 171.463142 
L 363.275498 161.751383 
L 363.732386 210.47666 
L 363.884682 201.460962 
L 364.036978 146.897974 
L 364.189274 211.33076 
L 364.34157 207.266558 
L 364.798458 238.641879 
L 364.950754 225.055501 
L 365.10305 224.594327 
L 365.407643 201.181589 
L 365.864531 235.514108 
L 366.016827 238.29174 
L 366.169123 243.938949 
L 366.473715 233.002766 
L 367.082899 217.990012 
L 367.235195 206.187554 
L 367.387491 225.33284 
L 367.996675 241.782162 
L 368.301267 225.35242 
L 368.453563 231.750475 
L 368.605859 211.586707 
L 369.062747 217.469785 
L 369.215044 237.949628 
L 369.36734 231.899639 
L 369.671932 238.949662 
L 370.12882 239.89847 
L 370.585708 212.156769 
L 371.194892 235.22115 
L 371.499484 224.432505 
L 371.65178 239.853776 
L 371.804076 234.92924 
L 372.260964 232.998538 
L 372.41326 224.455826 
L 372.565556 204.185699 
L 372.870148 249.478322 
L 373.327037 218.095891 
L 373.479333 221.214829 
L 373.631629 235.637903 
L 373.783925 232.187426 
L 373.936221 210.010277 
L 374.545405 233.935665 
L 374.697701 201.410253 
L 375.002293 194.342753 
L 375.459181 198.167832 
L 375.611477 215.904196 
L 375.763773 188.663445 
L 375.916069 193.352414 
L 376.068365 185.338049 
L 376.525253 167.452542 
L 376.829846 194.139096 
L 376.982142 167.621438 
L 377.134438 191.521176 
L 377.591326 213.207633 
L 377.743622 199.075622 
L 378.048214 229.720773 
L 378.20051 203.775076 
L 378.657398 180.948507 
L 378.809694 203.037389 
L 378.96199 177.721214 
L 379.114286 193.623907 
L 379.266582 227.659259 
L 379.72347 235.350431 
L 379.875766 241.063534 
L 380.028062 225.984192 
L 380.180358 223.877 
L 380.332654 246.958798 
L 380.789543 241.343806 
L 381.094135 179.570848 
L 381.246431 230.828607 
L 381.398727 214.485973 
L 381.855615 240.894125 
L 382.160207 230.317471 
L 382.312503 232.027603 
L 382.464799 240.697307 
L 382.921687 231.851517 
L 383.073983 237.185637 
L 383.226279 221.658433 
L 383.378575 238.651341 
L 383.530871 217.853303 
L 383.987759 233.268062 
L 384.292352 223.65676 
L 384.444648 239.946227 
L 384.596944 224.144105 
L 385.053832 218.699482 
L 385.206128 240.358221 
L 385.51072 225.880524 
L 385.663016 227.170493 
L 386.119904 246.051102 
L 386.424496 206.344687 
L 386.576792 241.638774 
L 386.729088 236.832029 
L 387.185976 245.79837 
L 387.490568 232.117802 
L 387.642864 237.478345 
L 387.79516 232.266936 
L 388.252049 232.397856 
L 388.404345 220.12809 
L 388.556641 233.747793 
L 388.708937 218.716058 
L 388.861233 157.022126 
L 389.318121 173.131031 
L 389.622713 240.925764 
L 389.775009 253.643742 
L 389.927305 233.243216 
L 390.536489 250.955398 
L 390.688785 239.054162 
L 390.841081 243.343149 
L 390.993377 253.648401 
L 391.450265 245.469016 
L 391.602561 248.147229 
L 391.754857 248.626348 
L 391.907154 253.386681 
L 392.05945 236.549452 
L 392.516338 242.539252 
L 392.668634 235.771339 
L 392.973226 243.68749 
L 393.125522 243.00448 
L 393.58241 249.537758 
L 393.734706 249.089968 
L 393.887002 249.565469 
L 394.039298 232.001088 
L 394.648482 235.769023 
L 394.800778 248.284007 
L 394.953074 250.204338 
L 395.257666 231.637296 
L 395.714555 242.996715 
L 395.866851 257.520869 
L 396.171443 244.672165 
L 396.323739 251.280858 
L 396.780627 225.628974 
L 396.932923 247.287264 
L 397.085219 234.113598 
L 397.389811 256.548433 
L 397.846699 246.268299 
L 397.998995 240.036591 
L 398.151291 244.285103 
L 398.303587 233.32276 
L 398.455883 244.430282 
L 398.912771 217.699306 
L 399.065067 222.487515 
L 399.217363 222.219865 
L 399.521956 230.552725 
L 399.978844 229.351094 
L 400.13114 192.069617 
L 400.283436 207.955162 
L 400.435732 238.428386 
L 400.588028 234.883856 
L 400.740324 281.30448 
L 401.197212 237.079309 
L 401.349508 209.553088 
L 401.6541 236.642514 
L 402.110988 224.420749 
L 402.263284 232.109252 
L 402.41558 200.105148 
L 402.567876 228.6652 
L 402.720172 208.458273 
L 403.329357 235.738011 
L 403.786245 212.90015 
L 404.243133 218.58052 
L 404.395429 193.515979 
L 404.547725 200.680926 
L 404.700021 234.09498 
L 404.852317 222.108433 
L 405.309205 244.881198 
L 405.461501 243.211164 
L 405.613797 226.851908 
L 405.766093 246.234633 
L 405.918389 243.408798 
L 406.375277 225.178449 
L 406.527573 213.303644 
L 406.832165 239.874402 
L 407.44135 237.095546 
L 407.593646 225.457487 
L 407.745942 245.080797 
L 407.898238 229.51314 
L 408.050534 229.724047 
L 408.507422 214.699631 
L 408.659718 219.344323 
L 408.812014 200.094365 
L 408.96431 206.989891 
L 409.116606 236.631724 
L 409.573494 245.993978 
L 409.878086 186.249704 
L 410.030382 220.680721 
L 410.182678 216.999418 
L 410.639566 224.224691 
L 410.791863 231.020597 
L 410.944159 213.471965 
L 411.096455 218.915805 
L 411.248751 216.087586 
L 411.705639 231.038224 
L 412.010231 227.762151 
L 412.162527 188.707017 
L 412.314823 208.969003 
L 412.771711 171.25181 
L 413.076303 190.549175 
L 413.380895 138.122571 
L 413.837783 215.851098 
L 413.990079 176.443404 
L 414.142375 214.889068 
L 414.294671 224.049652 
L 414.446967 223.615349 
L 414.903856 224.367283 
L 415.056152 207.808518 
L 415.208448 150.906272 
L 415.360744 149.315319 
L 415.51304 117.513422 
L 416.27452 244.260466 
L 416.579112 194.135438 
L 417.036 236.409276 
L 417.188296 237.684016 
L 417.340592 203.194677 
L 417.492888 204.548731 
L 417.645184 210.94339 
L 418.406665 254.332743 
L 419.168145 231.309718 
L 419.472737 240.79121 
L 419.777329 214.468316 
L 420.234217 240.060932 
L 420.386513 229.338028 
L 420.538809 232.525371 
L 420.691105 209.78496 
L 420.843401 241.223711 
L 421.452585 227.879792 
L 421.757177 243.874346 
L 422.366362 238.843909 
L 422.518658 245.781201 
L 422.670954 239.607976 
L 422.82325 249.232908 
L 422.975546 233.002598 
L 423.432434 207.416723 
L 423.58473 224.604074 
L 423.889322 230.208266 
L 424.041618 242.714974 
L 424.498506 228.305797 
L 424.650802 239.556439 
L 425.10769 234.416649 
L 425.564578 237.930963 
L 425.716874 240.132145 
L 426.021467 226.757249 
L 426.173763 230.759744 
L 426.630651 237.673969 
L 426.782947 179.666754 
L 426.935243 232.835649 
L 427.087539 245.046571 
L 427.239835 246.123856 
L 427.849019 221.959367 
L 428.001315 202.606566 
L 428.305907 232.683998 
L 428.762795 218.464962 
L 429.067387 238.201239 
L 429.219683 207.851468 
L 429.371979 201.908632 
L 429.828868 188.447262 
L 429.981164 231.886872 
L 430.13346 236.415179 
L 430.285756 170.996904 
L 430.438052 199.257851 
L 431.047236 236.011212 
L 431.199532 192.786103 
L 431.504124 242.659668 
L 431.961012 247.437193 
L 432.113308 253.642179 
L 432.265604 237.307838 
L 432.4179 235.890227 
L 432.570196 257.311035 
L 433.027084 238.001066 
L 433.17938 260.880134 
L 433.331676 262.837531 
L 433.483972 256.160886 
L 433.636269 243.946201 
L 434.093157 246.284082 
L 434.245453 245.635183 
L 434.397749 237.386435 
L 434.550045 254.360471 
L 435.159229 236.612432 
L 435.616117 261.856418 
L 435.768413 261.595424 
L 436.225301 261.80111 
L 436.377597 259.359636 
L 436.529893 263.880056 
L 436.682189 261.019495 
L 436.834485 264.886177 
L 437.291374 258.771728 
L 437.595966 271.699027 
L 437.900558 268.17662 
L 438.357446 267.2071 
L 438.509742 262.550433 
L 438.814334 261.850885 
L 438.96663 255.997015 
L 439.575814 260.395169 
L 439.72811 260.120289 
L 439.880406 256.685282 
L 440.032702 260.212005 
L 440.641886 247.157611 
L 440.794182 229.672251 
L 441.098775 251.115063 
L 441.555663 261.392474 
L 441.707959 255.846693 
L 441.860255 256.005846 
L 442.012551 268.591509 
L 442.164847 268.023433 
L 442.621735 274.253232 
L 442.926327 265.658465 
L 443.230919 259.076937 
L 443.840103 260.304177 
L 443.992399 265.040148 
L 444.144695 266.312728 
L 444.296991 268.828825 
L 444.753879 264.060809 
L 444.906176 254.370722 
L 445.058472 259.025369 
L 445.210768 269.14903 
L 445.363064 263.218996 
L 445.819952 274.041609 
L 446.124544 259.943365 
L 446.27684 274.845041 
L 446.886024 275.076704 
L 447.03832 270.690648 
L 447.190616 259.617833 
L 447.342912 219.984806 
L 447.495208 234.209127 
L 447.952096 263.789627 
L 448.104392 263.48061 
L 448.256688 271.170747 
L 448.408984 265.875371 
L 448.56128 265.991506 
L 449.018169 270.106892 
L 449.322761 246.257461 
L 449.475057 250.369591 
L 449.627353 257.78268 
L 450.084241 264.695387 
L 450.236537 263.619493 
L 450.388833 255.357593 
L 450.541129 266.315213 
L 450.693425 261.182093 
L 451.150313 266.36733 
L 451.302609 255.831809 
L 451.454905 255.091736 
L 451.607201 248.015893 
L 452.216385 194.617985 
L 452.368681 243.940584 
L 452.520978 250.075728 
L 452.673274 244.520541 
L 452.82557 228.47882 
L 453.282458 211.297185 
L 453.434754 217.717269 
L 453.58705 236.186202 
L 453.739346 205.496314 
L 453.891642 233.201627 
L 454.34853 255.516955 
L 454.500826 245.53323 
L 454.653122 245.13389 
L 454.805418 282.096566 
L 455.414602 253.960353 
L 455.566898 255.469443 
L 455.87149 264.758633 
L 456.480675 270.206493 
L 456.785267 265.855344 
L 456.937563 249.783354 
L 457.546747 254.504522 
L 458.003635 265.613944 
L 458.155931 254.202187 
L 458.612819 258.104023 
L 458.765115 251.630081 
L 459.069707 267.072631 
L 459.222003 265.912377 
L 459.678891 266.376897 
L 459.983483 261.700114 
L 460.13578 268.454268 
L 460.288076 260.749696 
L 460.744964 262.944506 
L 461.049556 271.264111 
L 461.201852 270.149887 
L 461.354148 263.783104 
L 461.811036 256.019029 
L 462.115628 267.580726 
L 462.267924 269.905842 
L 462.42022 266.954832 
L 462.877108 234.197714 
L 463.1817 268.56059 
L 463.333996 235.350606 
L 463.486292 254.370686 
L 463.943181 252.965432 
L 464.095477 257.567912 
L 464.247773 249.998088 
L 464.552365 258.731728 
L 465.009253 254.992565 
L 465.161549 262.578178 
L 465.313845 263.141338 
L 465.466141 262.631388 
L 465.618437 264.33833 
L 466.075325 265.686777 
L 466.227621 261.085381 
L 466.379917 261.639556 
L 466.532213 264.18197 
L 466.684509 262.858056 
L 467.293693 245.124825 
L 467.598286 232.390863 
L 467.750582 240.802205 
L 468.20747 253.163506 
L 468.512062 247.531467 
L 468.816654 262.003166 
L 469.273542 249.266634 
L 469.425838 256.008239 
L 469.578134 268.183375 
L 469.882726 263.317572 
L 470.339614 253.803285 
L 470.796502 266.329928 
L 470.948798 270.025779 
L 471.557983 262.601 
L 471.710279 266.164382 
L 471.862575 219.228546 
L 472.471759 249.851782 
L 472.776351 254.214233 
L 472.928647 260.477806 
L 473.690127 243.621202 
L 473.842423 246.59085 
L 473.994719 244.087025 
L 474.147015 260.962904 
L 474.603903 257.121987 
L 474.756199 252.128453 
L 474.908495 260.273399 
L 475.060791 258.955317 
L 475.669976 267.569348 
L 475.822272 255.571955 
L 475.974568 256.378016 
L 476.126864 255.202336 
L 476.27916 262.988776 
L 476.736048 256.52067 
L 476.888344 259.733993 
L 477.04064 235.733012 
L 477.192936 257.956131 
L 477.345232 248.654264 
L 477.80212 238.394403 
L 477.954416 252.715675 
L 478.106712 256.224719 
L 478.259008 248.7627 
L 478.411304 255.676989 
L 478.868192 267.013264 
L 479.020489 260.720282 
L 479.172785 265.209837 
L 479.934265 258.795958 
L 480.086561 253.398382 
L 480.391153 266.917748 
L 480.543449 265.715587 
L 481.000337 258.771427 
L 481.152633 265.188963 
L 481.304929 266.666177 
L 481.457225 266.17741 
L 481.609521 260.444634 
L 482.066409 260.857133 
L 482.371001 253.684645 
L 482.523297 261.320519 
L 482.675593 256.166653 
L 483.132482 259.284202 
L 483.284778 266.065135 
L 483.437074 259.350157 
L 483.58937 226.605363 
L 483.741666 244.28727 
L 484.503146 264.64003 
L 484.655442 264.062191 
L 484.807738 267.453652 
L 485.416922 261.908588 
L 485.569218 263.540091 
L 485.721514 257.416951 
L 485.87381 266.938349 
L 486.330698 267.839045 
L 486.482994 264.239464 
L 486.635291 272.07457 
L 486.787587 265.62184 
L 486.939883 271.422603 
L 487.396771 272.076141 
L 487.549067 273.550847 
L 487.701363 268.229717 
L 488.005955 273.809484 
L 488.462843 267.048574 
L 488.767435 273.680968 
L 488.919731 267.43934 
L 489.072027 265.763209 
L 489.528915 265.029615 
L 489.681211 246.641127 
L 489.833507 266.549854 
L 489.985803 257.149312 
L 490.138099 264.155249 
L 490.594988 270.358882 
L 491.051876 264.193987 
L 491.204172 264.129656 
L 491.66106 263.706584 
L 491.813356 269.774899 
L 491.965652 268.526118 
L 492.117948 258.629182 
L 492.270244 270.752473 
L 492.727132 267.250911 
L 493.031724 271.643926 
L 493.18402 268.758281 
L 493.336316 272.33864 
L 493.793204 264.661608 
L 493.9455 258.718713 
L 494.097797 260.339743 
L 494.402389 265.14628 
L 494.859277 265.781618 
L 495.011573 269.938164 
L 495.163869 270.08114 
L 495.316165 260.480339 
L 495.468461 261.381247 
L 495.925349 232.377554 
L 496.077645 237.087216 
L 496.229941 255.988669 
L 496.534533 259.928118 
L 496.991421 260.231089 
L 497.296013 261.867863 
L 497.448309 255.887575 
L 497.600605 268.11135 
L 498.20979 267.563343 
L 498.362086 260.922628 
L 498.514382 266.186652 
L 498.666678 264.419404 
L 499.123566 268.278027 
L 499.428158 253.637583 
L 499.580454 234.479484 
L 499.73275 256.630707 
L 500.189638 262.818974 
L 500.341934 259.79187 
L 500.646526 257.460585 
L 500.798822 266.727195 
L 501.25571 253.751909 
L 501.408006 254.394882 
L 501.560302 265.911867 
L 501.712599 255.422372 
L 501.864895 254.903329 
L 502.321783 264.608566 
L 502.778671 248.716087 
L 502.930967 248.897078 
L 503.387855 255.064305 
L 503.692447 263.914035 
L 503.997039 251.801629 
L 504.453927 249.280087 
L 504.606223 261.095654 
L 504.910815 247.470882 
L 505.063111 248.594057 
L 505.52 260.414603 
L 505.672296 249.395211 
L 505.976888 262.695747 
L 506.129184 261.691292 
L 506.586072 262.546013 
L 506.890664 256.71211 
L 507.04296 262.674207 
L 507.195256 258.358833 
L 507.652144 255.782668 
L 507.80444 248.729738 
L 507.956736 250.719738 
L 508.109032 245.896097 
L 508.261328 235.959618 
L 508.718216 276.347871 
L 508.870512 231.497646 
L 509.175104 249.665364 
L 509.327401 250.038773 
L 509.784289 250.032753 
L 509.936585 239.170234 
L 510.088881 259.946848 
L 510.241177 245.751854 
L 510.393473 257.594369 
L 511.154953 209.082032 
L 511.307249 247.401251 
L 511.459545 247.089494 
L 511.916433 265.301353 
L 512.068729 265.832478 
L 512.221025 258.391616 
L 512.373321 261.630195 
L 512.525617 243.096512 
L 512.982505 246.490932 
L 513.134802 253.402215 
L 513.287098 230.324409 
L 513.439394 255.239617 
L 513.59169 207.096189 
L 514.048578 249.787445 
L 514.35317 255.717828 
L 514.505466 244.988009 
L 514.657762 253.968683 
L 515.11465 249.1561 
L 515.266946 227.07239 
L 515.419242 249.111046 
L 515.723834 216.676208 
L 516.180722 250.506038 
L 516.485314 231.928405 
L 516.63761 220.174072 
L 516.789906 243.88805 
L 517.246795 259.987442 
L 517.399091 258.897496 
L 517.703683 232.632305 
L 517.855979 234.609438 
L 518.312867 236.131408 
L 518.465163 251.249644 
L 518.617459 251.104415 
L 518.769755 238.533992 
L 518.922051 246.551145 
L 519.378939 259.301749 
L 519.683531 253.324375 
L 519.835827 257.804131 
L 519.988123 256.826964 
L 520.445011 262.210951 
L 520.597307 259.384282 
L 520.9019 263.459961 
L 521.054196 255.143034 
L 521.511084 237.885661 
L 521.967972 265.181062 
L 522.577156 255.449945 
L 522.729452 262.591295 
L 522.881748 248.821828 
L 523.18634 231.670585 
L 523.643228 228.587289 
L 523.795524 241.507322 
L 523.94782 223.702347 
L 524.252412 238.452187 
L 525.013893 266.306809 
L 525.166189 265.261914 
L 525.318485 263.317792 
L 525.927669 265.232635 
L 526.079965 269.567552 
L 526.232261 270.305143 
L 526.384557 265.931969 
L 526.841445 265.136871 
L 526.993741 260.847934 
L 527.146037 263.279681 
L 527.298333 255.957309 
L 527.450629 264.999133 
L 527.907517 261.67108 
L 528.059813 235.391001 
L 528.21211 260.92776 
L 528.364406 264.246867 
L 528.516702 253.801811 
L 529.278182 262.896867 
L 529.430478 269.092483 
L 529.582774 264.885459 
L 530.039662 260.166802 
L 530.191958 255.113 
L 530.344254 261.806828 
L 530.49655 256.635086 
L 530.648846 260.339731 
L 531.105734 260.269363 
L 531.25803 257.988383 
L 531.410326 265.151354 
L 532.324103 255.663675 
L 532.476399 246.399498 
L 532.780991 257.977652 
L 533.237879 261.298697 
L 533.542471 259.695028 
L 533.694767 256.611946 
L 534.303951 263.495849 
L 534.456247 252.929466 
L 534.608543 265.253345 
L 534.760839 250.775561 
L 535.370023 251.338922 
L 535.522319 253.745277 
L 535.674615 260.890127 
L 535.826912 259.231189 
L 535.979208 265.065624 
L 536.436096 255.873168 
L 536.588392 245.950298 
L 536.740688 259.602039 
L 536.892984 259.052211 
L 537.04528 249.781253 
L 537.654464 249.320854 
L 537.80676 259.931939 
L 537.959056 260.006628 
L 538.111352 247.759666 
L 538.56824 252.264445 
L 538.720536 251.352973 
L 538.872832 248.098254 
L 539.177424 264.93789 
L 539.634313 262.299811 
L 539.786609 252.396332 
L 539.938905 255.457157 
L 540.091201 251.756966 
L 540.243497 257.324763 
L 540.700385 258.659577 
L 540.852681 265.409238 
L 541.004977 264.34183 
L 541.157273 260.857198 
L 541.309569 265.215052 
L 541.766457 264.34913 
L 541.918753 262.892459 
L 542.071049 238.94803 
L 542.375641 268.345875 
L 542.832529 268.238857 
L 542.984825 268.392734 
L 543.137121 269.094903 
L 543.289417 262.478077 
L 543.441714 266.978631 
L 543.898602 273.588712 
L 544.050898 262.496142 
L 544.203194 263.376349 
L 544.35549 251.483457 
L 544.507786 250.432234 
L 544.964674 250.398512 
L 545.11697 262.199787 
L 545.269266 259.272383 
L 545.421562 245.733594 
L 545.573858 262.291964 
L 546.030746 268.857247 
L 546.183042 266.171633 
L 546.335338 248.954273 
L 546.63993 257.451556 
L 547.096818 251.48606 
L 547.249115 213.537255 
L 547.706003 252.655395 
L 548.162891 252.665849 
L 548.315187 254.585363 
L 548.467483 250.692524 
L 548.619779 233.925797 
L 548.772075 256.632173 
L 549.228963 248.61599 
L 549.381259 238.691741 
L 549.533555 246.171705 
L 549.685851 237.423172 
L 549.838147 250.286015 
L 550.295035 251.863112 
L 550.447331 251.489781 
L 550.751923 236.575949 
L 550.904219 256.900648 
L 551.361108 248.303621 
L 551.513404 260.040062 
L 551.6657 250.60798 
L 551.817996 248.641337 
L 551.970292 248.738002 
L 552.42718 255.912321 
L 552.579476 251.286082 
L 552.731772 259.710152 
L 552.884068 250.860545 
L 553.036364 256.5396 
L 553.797844 262.663561 
L 553.95014 245.311206 
L 554.102436 261.277693 
L 554.559324 267.948342 
L 555.016213 252.738179 
L 555.168509 263.71372 
L 555.625397 262.024063 
L 555.777693 265.6936 
L 555.929989 263.611126 
L 556.082285 174.407715 
L 556.234581 236.518551 
L 556.843765 251.916866 
L 556.996061 247.627499 
L 557.148357 261.027044 
L 557.300653 259.419585 
L 557.757541 251.490526 
L 557.909837 244.505554 
L 558.062133 216.969896 
L 558.214429 249.804676 
L 558.366725 243.37545 
L 558.823614 231.995203 
L 559.128206 234.380036 
L 559.280502 246.706839 
L 559.432798 248.0581 
L 559.889686 245.289932 
L 560.041982 257.905235 
L 560.194278 252.506576 
L 560.346574 225.340684 
L 560.49887 263.152408 
L 561.108054 257.226863 
L 561.26035 238.205734 
L 561.564942 262.899997 
L 562.02183 262.126936 
L 562.174126 260.03784 
L 562.326423 253.817456 
L 562.478719 270.242927 
L 562.631015 260.901934 
L 563.087903 265.668634 
L 563.240199 268.887157 
L 563.392495 253.261542 
L 563.544791 263.048238 
L 563.697087 263.732733 
L 564.153975 255.811692 
L 564.458567 257.933885 
L 564.610863 238.733587 
L 564.763159 253.797323 
L 565.220047 257.818956 
L 565.524639 264.89329 
L 565.676935 264.974128 
L 565.829231 268.309281 
L 566.28612 264.13364 
L 566.438416 256.333885 
L 567.199896 284.073134 
L 567.352192 260.952445 
L 567.656784 255.628853 
L 567.80908 265.038918 
L 567.961376 251.607682 
L 568.57056 270.876013 
L 568.722856 263.980144 
L 568.875152 276.680823 
L 569.027448 272.710418 
L 569.636632 263.917777 
L 569.788928 263.741719 
L 569.941225 232.899667 
L 570.093521 255.242255 
L 570.702705 235.664057 
L 571.007297 254.72175 
L 571.159593 253.088422 
L 571.616481 258.867019 
L 571.768777 258.950082 
L 571.921073 255.666166 
L 572.073369 257.15496 
L 572.225665 237.635618 
L 572.682553 262.947076 
L 572.987145 249.171707 
L 573.291737 261.562134 
L 573.900922 269.170766 
L 574.053218 258.473583 
L 574.205514 225.154758 
L 574.35781 260.242949 
L 574.814698 264.626927 
L 575.11929 250.64938 
L 575.271586 259.958776 
L 575.423882 259.116788 
L 575.88077 250.957859 
L 576.033066 262.343913 
L 576.185362 261.669426 
L 576.337658 266.944859 
L 576.489954 257.38972 
L 576.946842 261.363463 
L 577.099138 252.085384 
L 577.251434 207.609707 
L 577.40373 243.909966 
L 577.556027 240.424556 
L 577.708323 262.955598 
L 578.165211 220.057873 
L 578.317507 232.006165 
L 578.469803 225.847036 
L 579.078987 233.931873 
L 579.231283 250.848989 
L 579.383579 228.056958 
L 579.535875 238.951803 
L 579.688171 233.890021 
L 580.145059 245.386266 
L 580.297355 259.498552 
L 580.601947 236.658921 
L 580.754243 243.758637 
L 581.211132 244.916482 
L 581.363428 248.626632 
L 581.515724 243.117109 
L 581.66802 243.474935 
L 581.820316 241.269232 
L 582.277204 262.763485 
L 582.4295 260.582457 
L 582.581796 256.208842 
L 582.734092 259.726382 
L 582.886388 255.954902 
L 583.343276 252.210814 
L 583.495572 262.946976 
L 583.647868 261.328332 
L 583.800164 200.322302 
L 583.95246 260.480161 
L 584.409348 262.812797 
L 584.561644 259.770709 
L 584.71394 239.598622 
L 584.866236 264.715741 
L 585.475421 255.364936 
L 585.627717 254.872482 
L 585.780013 243.97997 
L 585.932309 252.742453 
L 586.084605 233.528605 
L 586.541493 263.904925 
L 586.693789 264.591632 
L 586.846085 254.363384 
L 586.998381 264.056309 
L 587.150677 260.534174 
L 587.759861 260.619684 
L 588.064453 232.122052 
L 588.673637 266.691188 
L 588.825934 258.721787 
L 589.130526 235.95371 
L 589.282822 253.726631 
L 589.73971 245.794869 
L 589.892006 264.510294 
L 590.044302 248.431846 
L 590.348894 254.748058 
L 590.805782 256.50491 
L 590.958078 258.290105 
L 591.26267 258.241379 
L 591.414966 261.763211 
L 591.871854 259.639655 
L 592.176446 270.235554 
L 592.328742 233.829904 
L 592.481038 254.726579 
L 592.937927 235.49112 
L 593.090223 223.249927 
L 593.547111 252.327124 
L 594.003999 233.381438 
L 594.156295 251.140472 
L 594.308591 242.132612 
L 594.460887 244.254167 
L 594.613183 252.99134 
L 595.070071 252.666296 
L 595.222367 263.80322 
L 595.526959 252.815294 
L 595.831551 285.252197 
L 596.440736 255.251988 
L 596.593032 258.550851 
L 596.745328 266.542788 
L 597.202216 251.750748 
L 597.354512 263.283439 
L 597.506808 258.69084 
L 597.659104 263.95197 
L 597.8114 239.290365 
L 598.268288 215.108809 
L 598.420584 182.801828 
L 598.57288 199.994191 
L 598.725176 247.892573 
L 598.877472 260.844223 
L 599.33436 256.720662 
L 599.486656 267.600411 
L 599.638952 254.143299 
L 599.791248 268.049692 
L 599.943544 263.314653 
L 600.552729 257.778042 
L 600.705025 218.007233 
L 600.857321 250.230226 
L 601.009617 241.582523 
L 601.466505 259.819597 
L 601.771097 253.729106 
L 601.923393 234.561552 
L 602.075689 248.825077 
L 602.532577 265.888593 
L 602.684873 256.899125 
L 602.837169 234.639623 
L 602.989465 261.909993 
L 603.141761 256.108486 
L 603.750945 264.918157 
L 603.903241 251.510268 
L 604.055538 266.008812 
L 604.207834 260.728729 
L 604.664722 258.277409 
L 604.817018 262.697176 
L 605.273906 266.683649 
L 605.730794 260.038296 
L 605.88309 254.781277 
L 606.035386 241.130672 
L 606.187682 257.912166 
L 606.339978 253.503979 
L 606.796866 205.338344 
L 606.949162 250.344726 
L 607.101458 252.962472 
L 607.253754 263.093339 
L 607.40605 262.022684 
L 607.862939 246.702466 
L 608.015235 262.044268 
L 608.167531 260.72688 
L 608.319827 268.190051 
L 608.472123 268.943838 
L 608.929011 261.931213 
L 609.233603 266.199432 
L 609.538195 267.24041 
L 609.995083 269.7242 
L 610.299675 259.142463 
L 610.604267 274.062662 
L 611.061155 272.148905 
L 611.365747 267.661533 
L 611.518044 265.149265 
L 611.67034 211.015414 
L 612.127228 264.094999 
L 612.279524 267.803886 
L 612.43182 262.551969 
L 612.584116 267.410422 
L 612.736412 258.306648 
L 613.1933 260.500674 
L 613.345596 269.088836 
L 613.497892 264.915909 
L 613.650188 267.691826 
L 613.802484 263.802335 
L 614.259372 273.206398 
L 614.411668 270.353284 
L 614.563964 255.210028 
L 614.71626 261.714334 
L 614.868556 244.420746 
L 615.325445 261.909759 
L 615.477741 257.234537 
L 615.630037 258.534136 
L 615.782333 260.800818 
L 615.934629 253.223985 
L 616.391517 257.603187 
L 616.543813 249.547145 
L 616.848405 244.34896 
L 617.000701 247.02518 
L 617.457589 235.241319 
L 617.609885 263.600248 
L 617.762181 238.259776 
L 617.914477 268.372663 
L 618.066773 270.6789 
L 618.523661 267.903101 
L 618.828253 273.101884 
L 618.980549 270.936705 
L 619.132846 265.885106 
L 619.589734 264.810202 
L 619.74203 255.400709 
L 619.894326 254.727612 
L 620.046622 260.593349 
L 620.198918 244.444713 
L 620.655806 216.02585 
L 620.808102 227.814912 
L 620.960398 248.336089 
L 621.112694 236.658565 
L 621.26499 280.06355 
L 621.721878 236.567797 
L 622.02647 252.952114 
L 622.178766 262.426466 
L 622.331062 262.951754 
L 622.78795 262.391321 
L 622.940247 267.123327 
L 623.092543 254.899176 
L 623.244839 266.723896 
L 623.854023 262.256926 
L 624.006319 258.340883 
L 624.310911 247.210315 
L 624.463207 258.72517 
L 624.920095 214.2657 
L 625.072391 270.080497 
L 625.376983 260.558408 
L 625.529279 265.796463 
L 625.986167 271.796591 
L 626.290759 251.418796 
L 626.443055 263.213688 
L 626.595351 254.52441 
L 627.05224 268.673881 
L 627.204536 268.671501 
L 627.356832 271.944131 
L 627.509128 272.285787 
L 627.661424 265.750058 
L 628.118312 274.503022 
L 628.422904 264.194594 
L 628.5752 264.775611 
L 628.727496 251.480817 
L 629.184384 270.447537 
L 629.33668 270.253764 
L 629.793568 275.728627 
L 630.250456 237.243429 
L 630.402752 271.348361 
L 630.555049 275.250551 
L 630.707345 266.640536 
L 631.316529 258.529167 
L 631.468825 271.582529 
L 631.621121 267.161596 
L 631.925713 265.350183 
L 632.382601 261.084317 
L 632.687193 264.909642 
L 632.839489 264.647859 
L 632.991785 267.255392 
L 633.448673 260.383818 
L 633.600969 266.594714 
L 633.753265 263.847542 
L 633.905561 268.229137 
L 634.057857 265.744248 
L 634.667042 239.885535 
L 634.819338 259.728589 
L 635.12393 250.863339 
L 635.276226 269.290063 
L 635.580818 268.50146 
L 635.733114 263.204941 
L 635.88541 264.288821 
L 636.037706 262.761761 
L 636.190002 259.476893 
L 636.64689 272.456003 
L 636.951482 266.306756 
L 637.103778 269.193601 
L 637.256074 267.248459 
L 637.865258 270.943137 
L 638.017555 270.059214 
L 638.169851 270.267727 
L 638.322147 272.953095 
L 638.779035 272.887848 
L 638.931331 271.125774 
L 639.235923 258.183588 
L 639.388219 241.861808 
L 639.845107 263.953896 
L 640.149699 267.707073 
L 640.301995 266.157155 
L 640.454291 271.22449 
L 640.911179 268.358803 
L 641.063475 252.421532 
L 641.215771 249.043459 
L 641.368067 264.788011 
L 641.977252 267.146392 
L 642.129548 264.677249 
L 642.281844 266.11808 
L 642.43414 269.656198 
L 642.586436 251.917497 
L 643.043324 259.199158 
L 643.19562 258.431024 
L 643.347916 263.651658 
L 643.500212 221.165243 
L 643.652508 260.700941 
L 644.261692 259.86536 
L 644.413988 264.134823 
L 644.566284 241.305362 
L 644.71858 257.718279 
L 645.175468 250.092688 
L 645.48006 265.446958 
L 645.784653 265.739965 
L 646.393837 255.430743 
L 646.546133 255.957183 
L 646.698429 240.693324 
L 647.307613 245.149794 
L 647.459909 243.613391 
L 647.764501 250.669866 
L 647.916797 254.298596 
L 648.373685 259.492466 
L 648.525981 257.023992 
L 648.678277 257.084779 
L 648.982869 263.442941 
L 649.439758 265.831392 
L 649.896646 239.52142 
L 650.048942 259.385776 
L 650.50583 256.104249 
L 650.658126 257.649066 
L 650.810422 264.900403 
L 651.115014 266.37509 
L 651.571902 266.048826 
L 651.724198 265.182151 
L 651.876494 269.055622 
L 652.02879 264.40615 
L 652.181086 273.996127 
L 652.637974 273.681415 
L 652.79027 264.866311 
L 652.942566 267.623402 
L 653.247159 242.938174 
L 653.704047 254.212 
L 653.856343 253.968603 
L 654.008639 263.879179 
L 654.160935 265.528864 
L 654.313231 232.276595 
L 655.074711 266.502003 
L 655.227007 266.499736 
L 655.379303 265.410514 
L 655.836191 270.95872 
L 655.988487 271.18115 
L 656.293079 267.136027 
L 656.445375 262.261381 
L 656.902263 274.331565 
L 657.05456 266.875423 
L 657.206856 272.415117 
L 657.511448 249.899869 
L 657.968336 258.790412 
L 658.120632 242.579478 
L 658.272928 260.953407 
L 658.425224 264.137238 
L 658.57752 273.193394 
L 659.186704 271.312454 
L 659.339 273.63806 
L 659.491296 271.877851 
L 659.643592 272.921019 
L 660.10048 268.476404 
L 660.252776 268.22849 
L 660.405072 262.300932 
L 660.557368 267.390316 
L 660.709664 265.533993 
L 661.471145 267.387482 
L 661.623441 259.302167 
L 661.775737 268.148747 
L 662.232625 264.817034 
L 662.384921 264.909773 
L 662.537217 265.792396 
L 662.689513 258.819649 
L 662.841809 272.38047 
L 663.298697 267.172191 
L 663.450993 271.277049 
L 663.603289 269.356625 
L 663.755585 272.932277 
L 663.907881 272.640605 
L 664.364769 271.363453 
L 664.517065 276.297163 
L 664.669362 275.422021 
L 664.821658 276.372791 
L 665.430842 271.923447 
L 665.735434 277.19803 
L 665.88773 276.995123 
L 666.040026 275.895197 
L 666.496914 275.453731 
L 666.64921 268.352164 
L 666.953802 266.65233 
L 667.106098 271.572297 
L 667.562986 275.749388 
L 667.715282 275.830203 
L 668.019874 268.963227 
L 668.17217 275.447793 
L 668.629059 276.038064 
L 668.933651 269.464448 
L 669.238243 275.413803 
L 669.695131 276.72223 
L 669.847427 272.417434 
L 669.999723 263.258688 
L 670.152019 266.653434 
L 670.304315 257.654094 
L 670.761203 269.188087 
L 670.913499 260.693008 
L 671.065795 260.567201 
L 671.218091 262.758713 
L 671.370387 267.725975 
L 671.827275 253.073845 
L 671.979571 254.927344 
L 672.131868 260.404087 
L 672.43646 263.010494 
L 672.893348 262.076907 
L 673.045644 263.514843 
L 673.350236 269.286807 
L 673.502532 262.026297 
L 673.95942 268.404761 
L 674.111716 267.377171 
L 674.264012 268.370134 
L 674.416308 264.345761 
L 674.568604 264.578478 
L 675.025492 233.134478 
L 675.177788 282.064762 
L 675.48238 241.241255 
L 675.634676 267.015789 
L 676.091565 263.630474 
L 676.243861 246.975043 
L 676.396157 263.821151 
L 676.700749 238.596159 
L 677.309933 261.120081 
L 677.614525 260.818001 
L 677.766821 265.34419 
L 678.376005 269.034667 
L 678.528301 264.238412 
L 678.680597 268.767152 
L 678.832893 269.807471 
L 679.289781 262.913961 
L 679.442077 264.84017 
L 679.594373 264.146942 
L 679.74667 268.964889 
L 679.898966 268.744852 
L 680.355854 257.592042 
L 680.50815 266.159339 
L 680.660446 265.706662 
L 680.812742 266.089917 
L 680.965038 272.197027 
L 681.421926 268.592326 
L 681.574222 254.889476 
L 681.878814 270.650964 
L 682.03111 269.052114 
L 682.640294 266.091241 
L 682.79259 271.365916 
L 682.944886 272.695097 
L 682.944886 272.695097 
" clip-path="url(#p930f3280d2)" style="fill: none; stroke: #1f77b4; stroke-width: 1.5; stroke-linecap: square"/>
   </g>
   <g id="patch_3">
    <path d="M 43.78125 299.518125 
L 43.78125 22.318125 
" style="fill: none; stroke: #000000; stroke-width: 0.8; stroke-linejoin: miter; stroke-linecap: square"/>
   </g>
   <g id="patch_4">
    <path d="M 713.38125 299.518125 
L 713.38125 22.318125 
" style="fill: none; stroke: #000000; stroke-width: 0.8; stroke-linejoin: miter; stroke-linecap: square"/>
   </g>
   <g id="patch_5">
    <path d="M 43.78125 299.518125 
L 713.38125 299.518125 
" style="fill: none; stroke: #000000; stroke-width: 0.8; stroke-linejoin: miter; stroke-linecap: square"/>
   </g>
   <g id="patch_6">
    <path d="M 43.78125 22.318125 
L 713.38125 22.318125 
" style="fill: none; stroke: #000000; stroke-width: 0.8; stroke-linejoin: miter; stroke-linecap: square"/>
   </g>
   <g id="text_19">
    <!-- Trading Volume Over Time -->
    <g transform="translate(299.420625 16.318125) scale(0.12 -0.12)">
     <defs>
      <path id="DejaVuSans-69" d="M 603 3500 
L 1178 3500 
L 1178 0 
L 603 0 
L 603 3500 
z
M 603 4863 
L 1178 4863 
L 1178 4134 
L 603 4134 
L 603 4863 
z
" transform="scale(0.015625)"/>
      <path id="DejaVuSans-6e" d="M 3513 2113 
L 3513 0 
L 2938 0 
L 2938 2094 
Q 2938 2591 2744 2837 
Q 2550 3084 2163 3084 
Q 1697 3084 1428 2787 
Q 1159 2491 1159 1978 
L 1159 0 
L 581 0 
L 581 3500 
L 1159 3500 
L 1159 2956 
Q 1366 3272 1645 3428 
Q 1925 3584 2291 3584 
Q 2894 3584 3203 3211 
Q 3513 2838 3513 2113 
z
" transform="scale(0.015625)"/>
      <path id="DejaVuSans-67" d="M 2906 1791 
Q 2906 2416 2648 2759 
Q 2391 3103 1925 3103 
Q 1463 3103 1205 2759 
Q 947 2416 947 1791 
Q 947 1169 1205 825 
Q 1463 481 1925 481 
Q 2391 481 2648 825 
Q 2906 1169 2906 1791 
z
M 3481 434 
Q 3481 -459 3084 -895 
Q 2688 -1331 1869 -1331 
Q 1566 -1331 1297 -1286 
Q 1028 -1241 775 -1147 
L 775 -588 
Q 1028 -725 1275 -790 
Q 1522 -856 1778 -856 
Q 2344 -856 2625 -561 
Q 2906 -266 2906 331 
L 2906 616 
Q 2728 306 2450 153 
Q 2172 0 1784 0 
Q 1141 0 747 490 
Q 353 981 353 1791 
Q 353 2603 747 3093 
Q 1141 3584 1784 3584 
Q 2172 3584 2450 3431 
Q 2728 3278 2906 2969 
L 2906 3500 
L 3481 3500 
L 3481 434 
z
" transform="scale(0.015625)"/>
      <path id="DejaVuSans-56" d="M 1831 0 
L 50 4666 
L 709 4666 
L 2188 738 
L 3669 4666 
L 4325 4666 
L 2547 0 
L 1831 0 
z
" transform="scale(0.015625)"/>
      <path id="DejaVuSans-6f" d="M 1959 3097 
Q 1497 3097 1228 2736 
Q 959 2375 959 1747 
Q 959 1119 1226 758 
Q 1494 397 1959 397 
Q 2419 397 2687 759 
Q 2956 1122 2956 1747 
Q 2956 2369 2687 2733 
Q 2419 3097 1959 3097 
z
M 1959 3584 
Q 2709 3584 3137 3096 
Q 3566 2609 3566 1747 
Q 3566 888 3137 398 
Q 2709 -91 1959 -91 
Q 1206 -91 779 398 
Q 353 888 353 1747 
Q 353 2609 779 3096 
Q 1206 3584 1959 3584 
z
" transform="scale(0.015625)"/>
      <path id="DejaVuSans-6c" d="M 603 4863 
L 1178 4863 
L 1178 0 
L 603 0 
L 603 4863 
z
" transform="scale(0.015625)"/>
      <path id="DejaVuSans-75" d="M 544 1381 
L 544 3500 
L 1119 3500 
L 1119 1403 
Q 1119 906 1312 657 
Q 1506 409 1894 409 
Q 2359 409 2629 706 
Q 2900 1003 2900 1516 
L 2900 3500 
L 3475 3500 
L 3475 0 
L 2900 0 
L 2900 538 
Q 2691 219 2414 64 
Q 2138 -91 1772 -91 
Q 1169 -91 856 284 
Q 544 659 544 1381 
z
M 1991 3584 
L 1991 3584 
z
" transform="scale(0.015625)"/>
      <path id="DejaVuSans-6d" d="M 3328 2828 
Q 3544 3216 3844 3400 
Q 4144 3584 4550 3584 
Q 5097 3584 5394 3201 
Q 5691 2819 5691 2113 
L 5691 0 
L 5113 0 
L 5113 2094 
Q 5113 2597 4934 2840 
Q 4756 3084 4391 3084 
Q 3944 3084 3684 2787 
Q 3425 2491 3425 1978 
L 3425 0 
L 2847 0 
L 2847 2094 
Q 2847 2600 2669 2842 
Q 2491 3084 2119 3084 
Q 1678 3084 1418 2786 
Q 1159 2488 1159 1978 
L 1159 0 
L 581 0 
L 581 3500 
L 1159 3500 
L 1159 2956 
Q 1356 3278 1631 3431 
Q 1906 3584 2284 3584 
Q 2666 3584 2933 3390 
Q 3200 3197 3328 2828 
z
" transform="scale(0.015625)"/>
      <path id="DejaVuSans-4f" d="M 2522 4238 
Q 1834 4238 1429 3725 
Q 1025 3213 1025 2328 
Q 1025 1447 1429 934 
Q 1834 422 2522 422 
Q 3209 422 3611 934 
Q 4013 1447 4013 2328 
Q 4013 3213 3611 3725 
Q 3209 4238 2522 4238 
z
M 2522 4750 
Q 3503 4750 4090 4092 
Q 4678 3434 4678 2328 
Q 4678 1225 4090 567 
Q 3503 -91 2522 -91 
Q 1538 -91 948 565 
Q 359 1222 359 2328 
Q 359 3434 948 4092 
Q 1538 4750 2522 4750 
z
" transform="scale(0.015625)"/>
      <path id="DejaVuSans-76" d="M 191 3500 
L 800 3500 
L 1894 563 
L 2988 3500 
L 3597 3500 
L 2284 0 
L 1503 0 
L 191 3500 
z
" transform="scale(0.015625)"/>
     </defs>
     <use xlink:href="#DejaVuSans-54"/>
     <use xlink:href="#DejaVuSans-72" transform="translate(46.333984 0)"/>
     <use xlink:href="#DejaVuSans-61" transform="translate(87.447266 0)"/>
     <use xlink:href="#DejaVuSans-64" transform="translate(148.726562 0)"/>
     <use xlink:href="#DejaVuSans-69" transform="translate(212.203125 0)"/>
     <use xlink:href="#DejaVuSans-6e" transform="translate(239.986328 0)"/>
     <use xlink:href="#DejaVuSans-67" transform="translate(303.365234 0)"/>
     <use xlink:href="#DejaVuSans-20" transform="translate(366.841797 0)"/>
     <use xlink:href="#DejaVuSans-56" transform="translate(398.628906 0)"/>
     <use xlink:href="#DejaVuSans-6f" transform="translate(459.287109 0)"/>
     <use xlink:href="#DejaVuSans-6c" transform="translate(520.46875 0)"/>
     <use xlink:href="#DejaVuSans-75" transform="translate(548.251953 0)"/>
     <use xlink:href="#DejaVuSans-6d" transform="translate(611.630859 0)"/>
     <use xlink:href="#DejaVuSans-65" transform="translate(709.042969 0)"/>
     <use xlink:href="#DejaVuSans-20" transform="translate(770.566406 0)"/>
     <use xlink:href="#DejaVuSans-4f" transform="translate(802.353516 0)"/>
     <use xlink:href="#DejaVuSans-76" transform="translate(881.064453 0)"/>
     <use xlink:href="#DejaVuSans-65" transform="translate(940.244141 0)"/>
     <use xlink:href="#DejaVuSans-72" transform="translate(1001.767578 0)"/>
     <use xlink:href="#DejaVuSans-20" transform="translate(1042.880859 0)"/>
     <use xlink:href="#DejaVuSans-54" transform="translate(1074.667969 0)"/>
     <use xlink:href="#DejaVuSans-69" transform="translate(1132.626953 0)"/>
     <use xlink:href="#DejaVuSans-6d" transform="translate(1160.410156 0)"/>
     <use xlink:href="#DejaVuSans-65" transform="translate(1257.822266 0)"/>
    </g>
   </g>
  </g>
 </g>
 <defs>
  <clipPath id="p930f3280d2">
   <rect x="43.78125" y="22.318125" width="669.6" height="277.2"/>
  </clipPath>
 </defs>
</svg>
